M48
; DRILL file KiCad 10.0.3 date 2026-06-03T21:09:34
; FORMAT={-:-/ absolute / metric / decimal}
; #@! TF.CreationDate,2026-06-03T21:09:34+05:30
; #@! TF.GenerationSoftware,Kicad,Pcbnew,10.0.3
; #@! TF.FileFunction,Plated,1,2,PTH
FMAT,2
METRIC
; #@! TA.AperFunction,Plated,PTH,ComponentDrill
T1C0.800
; #@! TA.AperFunction,Plated,PTH,ComponentDrill
T2C0.900
; #@! TA.AperFunction,Plated,PTH,ComponentDrill
T3C1.000
; #@! TA.AperFunction,Plated,PTH,ComponentDrill
T4C1.100
%
G90
G05
T1
X135.96Y-111.598
X135.96Y-136.998
X138.5Y-111.598
X138.5Y-136.998
X141.0Y-142.69
X141.0Y-150.31
X141.04Y-111.598
X141.04Y-136.998
X143.58Y-111.598
X143.58Y-136.998
X145.05Y-142.69
X145.05Y-150.31
X146.12Y-111.598
X146.12Y-136.998
X148.66Y-111.598
X148.66Y-136.998
X149.1Y-142.69
X149.1Y-150.31
X151.2Y-111.598
X151.2Y-136.998
X153.74Y-111.598
X153.74Y-136.998
X156.28Y-111.598
X156.28Y-136.998
X158.82Y-111.598
X158.82Y-136.998
X161.36Y-111.598
X161.36Y-136.998
X163.9Y-111.598
X163.9Y-136.998
X166.44Y-111.598
X166.44Y-136.998
X168.98Y-111.598
X168.98Y-136.998
X171.52Y-111.598
X171.52Y-136.998
X177.92Y-143.0
X180.46Y-143.0
X183.0Y-143.0
T2
X158.0Y-143.182
X158.0Y-145.341
X158.0Y-147.5
X158.0Y-149.659
T3
X169.0Y-144.5
X171.5Y-144.5
T4
X98.25Y-116.75
X98.25Y-121.25
X103.0Y-134.0
X103.0Y-138.5
X104.75Y-116.75
X104.75Y-121.25
X107.75Y-109.25
X107.75Y-113.75
X107.75Y-124.25
X107.75Y-128.75
X109.5Y-134.0
X109.5Y-138.5
X114.25Y-109.25
X114.25Y-113.75
X114.25Y-124.25
X114.25Y-128.75
X114.75Y-133.75
X114.75Y-138.25
X115.75Y-116.75
X115.75Y-121.25
X121.25Y-133.75
X121.25Y-138.25
X122.25Y-116.75
X122.25Y-121.25
X127.0Y-144.0
X127.0Y-148.5
X133.5Y-144.0
X133.5Y-148.5
X185.25Y-113.0
X185.25Y-117.5
X191.75Y-113.0
X191.75Y-117.5
X192.444Y-131.0
X192.444Y-135.5
X195.75Y-109.25
X195.75Y-113.75
X196.444Y-131.0
X196.444Y-135.5
X198.944Y-131.0
X198.944Y-135.5
X202.25Y-109.25
X202.25Y-113.75
X202.944Y-131.0
X202.944Y-135.5
M30
