%TF.GenerationSoftware,KiCad,Pcbnew,10.0.3*%
%TF.CreationDate,2026-06-03T21:09:29+05:30*%
%TF.ProjectId,KiCad,4b694361-642e-46b6-9963-61645f706362,rev?*%
%TF.SameCoordinates,Original*%
%TF.FileFunction,Copper,L2,Bot*%
%TF.FilePolarity,Positive*%
%FSLAX46Y46*%
G04 Gerber Fmt 4.6, Leading zero omitted, Abs format (unit mm)*
G04 Created by KiCad (PCBNEW 10.0.3) date 2026-06-03 21:09:29*
%MOMM*%
%LPD*%
G01*
G04 APERTURE LIST*
G04 Aperture macros list*
%AMRoundRect*
0 Rectangle with rounded corners*
0 $1 Rounding radius*
0 $2 $3 $4 $5 $6 $7 $8 $9 X,Y pos of 4 corners*
0 Add a 4 corners polygon primitive as box body*
4,1,4,$2,$3,$4,$5,$6,$7,$8,$9,$2,$3,0*
0 Add four circle primitives for the rounded corners*
1,1,$1+$1,$2,$3*
1,1,$1+$1,$4,$5*
1,1,$1+$1,$6,$7*
1,1,$1+$1,$8,$9*
0 Add four rect primitives between the rounded corners*
20,1,$1+$1,$2,$3,$4,$5,0*
20,1,$1+$1,$4,$5,$6,$7,0*
20,1,$1+$1,$6,$7,$8,$9,0*
20,1,$1+$1,$8,$9,$2,$3,0*%
G04 Aperture macros list end*
%TA.AperFunction,ComponentPad*%
%ADD10C,2.000000*%
%TD*%
%TA.AperFunction,ComponentPad*%
%ADD11C,1.600000*%
%TD*%
%TA.AperFunction,ComponentPad*%
%ADD12RoundRect,0.250000X-0.600000X-0.750000X0.600000X-0.750000X0.600000X0.750000X-0.600000X0.750000X0*%
%TD*%
%TA.AperFunction,ComponentPad*%
%ADD13O,1.700000X2.000000*%
%TD*%
%TA.AperFunction,ComponentPad*%
%ADD14O,1.524000X1.900000*%
%TD*%
%TA.AperFunction,ComponentPad*%
%ADD15R,1.500000X1.500000*%
%TD*%
%TA.AperFunction,ComponentPad*%
%ADD16R,1.800000X1.800000*%
%TD*%
%TA.AperFunction,ComponentPad*%
%ADD17C,1.800000*%
%TD*%
G04 APERTURE END LIST*
D10*
%TO.P,Up,1,1_1*%
%TO.N,Net-(U1-GPIO3)*%
X114250000Y-113750000D03*
X107750000Y-113750000D03*
%TO.P,Up,2,2_2*%
%TO.N,Net-(Bat_Pos1-Pin_1)*%
X114250000Y-109250000D03*
X107750000Y-109250000D03*
%TD*%
D11*
%TO.P,R1,1*%
%TO.N,Net-(U1-GPIO33)*%
X149100000Y-142690000D03*
%TO.P,R1,2*%
%TO.N,Net-(D1-BA)*%
X149100000Y-150310000D03*
%TD*%
D10*
%TO.P,B,1,1_1*%
%TO.N,Net-(U1-GPIO15)*%
X195750000Y-109250000D03*
X202250000Y-109250000D03*
%TO.P,B,2,2_2*%
%TO.N,Net-(Bat_Pos1-Pin_1)*%
X195750000Y-113750000D03*
X202250000Y-113750000D03*
%TD*%
D12*
%TO.P,Battery,1,Pin_1_1*%
%TO.N,Net-(Bat_Pos1-Pin_1)*%
X169000000Y-144500000D03*
D13*
%TO.P,Battery,2,Pin_2_2*%
%TO.N,Net-(Bat_Pos1-Pin_2)*%
X171500000Y-144500000D03*
%TD*%
D14*
%TO.P,U1,1,VIN_1*%
%TO.N,Net-(SW13-B)*%
X171519813Y-136997540D03*
%TO.P,U1,2,GND_2*%
%TO.N,Net-(Bat_Pos1-Pin_1)*%
X168979813Y-136997540D03*
%TO.P,U1,3,GPIO13_3*%
%TO.N,unconnected-(U1-GPIO13-Pad3)*%
X166439813Y-136997540D03*
%TO.P,U1,4,GPIO12_4*%
%TO.N,unconnected-(U1-GPIO12-Pad4)*%
X163899813Y-136997540D03*
%TO.P,U1,5,GPIO14_5*%
%TO.N,unconnected-(U1-GPIO14-Pad5)*%
X161359813Y-136997540D03*
%TO.P,U1,6,GPIO27_6*%
%TO.N,unconnected-(U1-GPIO27-Pad6)*%
X158819813Y-136997540D03*
%TO.P,U1,7,GPIO26_7*%
%TO.N,unconnected-(U1-GPIO26-Pad7)*%
X156279813Y-136997540D03*
%TO.P,U1,8,GPIO25_8*%
%TO.N,unconnected-(U1-GPIO25-Pad8)*%
X153739813Y-136997540D03*
%TO.P,U1,9,GPIO33_9*%
%TO.N,Net-(U1-GPIO33)*%
X151199813Y-136997540D03*
%TO.P,U1,10,GPIO32_10*%
%TO.N,unconnected-(U1-GPIO32-Pad10)*%
X148659813Y-136997540D03*
%TO.P,U1,11,GPIO35_11*%
%TO.N,Net-(U1-GPIO35)*%
X146119813Y-136997540D03*
%TO.P,U1,12,GPIO34_12*%
%TO.N,unconnected-(U1-GPIO34-Pad12)*%
X143579813Y-136997540D03*
%TO.P,U1,13,GPIO39_13*%
%TO.N,Net-(U1-GPIO39)*%
X141039813Y-136997540D03*
%TO.P,U1,14,GPIO36_14*%
%TO.N,unconnected-(U1-GPIO36-Pad14)*%
X138499813Y-136997540D03*
%TO.P,U1,15,EN_15*%
%TO.N,Net-(U1-EN)*%
X135959813Y-136997540D03*
%TO.P,U1,16,3.3v_16*%
%TO.N,unconnected-(U1-3.3v-Pad16)*%
X171519813Y-111597540D03*
%TO.P,U1,17,GND_17*%
%TO.N,unconnected-(U1-GND-Pad17)*%
X168979813Y-111597540D03*
%TO.P,U1,18,GPIO15_18*%
%TO.N,Net-(U1-GPIO15)*%
X166439813Y-111597540D03*
%TO.P,U1,19,GPIO2_19*%
%TO.N,Net-(U1-GPIO2)*%
X163899813Y-111597540D03*
%TO.P,U1,20,GPIO4_20*%
%TO.N,Net-(U1-GPIO4)*%
X161359813Y-111597540D03*
%TO.P,U1,21,GPIO16_21*%
%TO.N,Net-(U1-GPIO16)*%
X158819813Y-111597540D03*
%TO.P,U1,22,GPIO17_22*%
%TO.N,Net-(U1-GPIO17)*%
X156279813Y-111597540D03*
%TO.P,U1,23,GPIO5_23*%
%TO.N,Net-(U1-GPIO5)*%
X153739813Y-111597540D03*
%TO.P,U1,24,GPIO18_24*%
%TO.N,Net-(U1-GPIO18)*%
X151199813Y-111597540D03*
%TO.P,U1,25,GPIO19_25*%
%TO.N,Net-(U1-GPIO19)*%
X148659813Y-111597540D03*
%TO.P,U1,26,GPIO21_26*%
%TO.N,Net-(U1-GPIO21)*%
X146119813Y-111597540D03*
%TO.P,U1,27,GPIO3_27*%
%TO.N,Net-(U1-GPIO3)*%
X143579813Y-111597540D03*
%TO.P,U1,28,GPIO1_28*%
%TO.N,unconnected-(U1-GPIO1-Pad28)*%
X141039813Y-111597540D03*
%TO.P,U1,29,GPIO22_29*%
%TO.N,unconnected-(U1-GPIO22-Pad29)*%
X138499813Y-111597540D03*
%TO.P,U1,30,GPIO23_30*%
%TO.N,unconnected-(U1-GPIO23-Pad30)*%
X135959813Y-111597540D03*
%TD*%
D10*
%TO.P,extra2,1,1_1*%
%TO.N,Net-(U1-GPIO17)*%
X114750000Y-133750000D03*
X121250000Y-133750000D03*
%TO.P,extra2,2,2_2*%
%TO.N,Net-(Bat_Pos1-Pin_1)*%
X114750000Y-138250000D03*
X121250000Y-138250000D03*
%TD*%
D15*
%TO.P,switch,1,A_1*%
%TO.N,Net-(Bat_Pos1-Pin_2)*%
X180460000Y-143000000D03*
D11*
%TO.P,switch,2,B_2*%
%TO.N,Net-(SW13-B)*%
X177920000Y-143000000D03*
%TO.P,switch,3,C_3*%
%TO.N,unconnected-(SW13-C-Pad3)*%
X183000000Y-143000000D03*
%TD*%
D10*
%TO.P,Extra1,1,1_1*%
%TO.N,Net-(U1-GPIO5)*%
X103000000Y-134000000D03*
X109500000Y-134000000D03*
%TO.P,Extra1,2,2_2*%
%TO.N,Net-(Bat_Pos1-Pin_1)*%
X103000000Y-138500000D03*
X109500000Y-138500000D03*
%TD*%
%TO.P,Reset,1,1_1*%
%TO.N,Net-(Bat_Pos1-Pin_1)*%
X133500000Y-148500000D03*
X127000000Y-148500000D03*
%TO.P,Reset,2,2_2*%
%TO.N,Net-(U1-EN)*%
X133500000Y-144000000D03*
X127000000Y-144000000D03*
%TD*%
%TO.P,Start,1,1_1*%
%TO.N,Net-(U1-GPIO4)*%
X202944365Y-135500000D03*
X196444365Y-135500000D03*
%TO.P,Start,2,2_2*%
%TO.N,Net-(Bat_Pos1-Pin_1)*%
X202944365Y-131000000D03*
X196444365Y-131000000D03*
%TD*%
D11*
%TO.P,R3,1*%
%TO.N,Net-(U1-GPIO39)*%
X141000000Y-142690000D03*
%TO.P,R3,2*%
%TO.N,Net-(D1-RA)*%
X141000000Y-150310000D03*
%TD*%
D16*
%TO.P,IND_LED,1,BA_1*%
%TO.N,Net-(D1-BA)*%
X158000000Y-143182000D03*
D17*
%TO.P,IND_LED,2,GA_2*%
%TO.N,Net-(D1-GA)*%
X158000000Y-145341000D03*
%TO.P,IND_LED,3,K_3*%
%TO.N,Net-(Bat_Pos1-Pin_1)*%
X158000000Y-147500000D03*
%TO.P,IND_LED,4,RA_4*%
%TO.N,Net-(D1-RA)*%
X158000000Y-149659000D03*
%TD*%
D10*
%TO.P,Select,1,1_1*%
%TO.N,Net-(U1-GPIO16)*%
X192444365Y-135500000D03*
X198944365Y-135500000D03*
%TO.P,Select,2,2_2*%
%TO.N,Net-(Bat_Pos1-Pin_1)*%
X192444365Y-131000000D03*
X198944365Y-131000000D03*
%TD*%
%TO.P,Left,1,1_1*%
%TO.N,Net-(U1-GPIO19)*%
X104750000Y-121250000D03*
X98250000Y-121250000D03*
%TO.P,Left,2,2_2*%
%TO.N,Net-(Bat_Pos1-Pin_1)*%
X104750000Y-116750000D03*
X98250000Y-116750000D03*
%TD*%
%TO.P,A,1,1_1*%
%TO.N,Net-(U1-GPIO2)*%
X191750000Y-117500000D03*
X185250000Y-117500000D03*
%TO.P,A,2,2_2*%
%TO.N,Net-(Bat_Pos1-Pin_1)*%
X191750000Y-113000000D03*
X185250000Y-113000000D03*
%TD*%
D11*
%TO.P,R2,1*%
%TO.N,Net-(U1-GPIO35)*%
X145050000Y-142690000D03*
%TO.P,R2,2*%
%TO.N,Net-(D1-GA)*%
X145050000Y-150310000D03*
%TD*%
D10*
%TO.P,Right,1,1_1*%
%TO.N,Net-(U1-GPIO21)*%
X122250000Y-121250000D03*
X115750000Y-121250000D03*
%TO.P,Right,2,2_2*%
%TO.N,Net-(Bat_Pos1-Pin_1)*%
X122250000Y-116750000D03*
X115750000Y-116750000D03*
%TD*%
%TO.P,Down,1,1_1*%
%TO.N,Net-(U1-GPIO18)*%
X114250000Y-128750000D03*
X107750000Y-128750000D03*
%TO.P,Down,2,2_2*%
%TO.N,Net-(Bat_Pos1-Pin_1)*%
X114250000Y-124250000D03*
X107750000Y-124250000D03*
%TD*%
%TA.AperFunction,Conductor*%
%TO.N,Net-(Bat_Pos1-Pin_1)*%
G36*
X206375943Y-104499765D02*
G01*
X206442945Y-104519576D01*
X206488600Y-104572467D01*
X206499708Y-104624056D01*
X206382244Y-154637596D01*
X206362402Y-154704589D01*
X206309490Y-154750220D01*
X206257953Y-154761305D01*
X95123943Y-154500291D01*
X95056950Y-154480449D01*
X95011319Y-154427537D01*
X95000234Y-154376057D01*
X95005892Y-151383402D01*
X95008085Y-150223389D01*
X139899500Y-150223389D01*
X139899500Y-150396611D01*
X139926598Y-150567701D01*
X139980127Y-150732445D01*
X140058768Y-150886788D01*
X140160586Y-151026928D01*
X140283072Y-151149414D01*
X140423212Y-151251232D01*
X140577555Y-151329873D01*
X140742299Y-151383402D01*
X140913389Y-151410500D01*
X140913390Y-151410500D01*
X141086610Y-151410500D01*
X141086611Y-151410500D01*
X141257701Y-151383402D01*
X141422445Y-151329873D01*
X141576788Y-151251232D01*
X141716928Y-151149414D01*
X141839414Y-151026928D01*
X141941232Y-150886788D01*
X142019873Y-150732445D01*
X142073402Y-150567701D01*
X142100500Y-150396611D01*
X142100500Y-150223389D01*
X143949500Y-150223389D01*
X143949500Y-150396611D01*
X143976598Y-150567701D01*
X144030127Y-150732445D01*
X144108768Y-150886788D01*
X144210586Y-151026928D01*
X144333072Y-151149414D01*
X144473212Y-151251232D01*
X144627555Y-151329873D01*
X144792299Y-151383402D01*
X144963389Y-151410500D01*
X144963390Y-151410500D01*
X145136610Y-151410500D01*
X145136611Y-151410500D01*
X145307701Y-151383402D01*
X145472445Y-151329873D01*
X145626788Y-151251232D01*
X145766928Y-151149414D01*
X145889414Y-151026928D01*
X145991232Y-150886788D01*
X146069873Y-150732445D01*
X146123402Y-150567701D01*
X146150500Y-150396611D01*
X146150500Y-150223389D01*
X147999500Y-150223389D01*
X147999500Y-150396611D01*
X148026598Y-150567701D01*
X148080127Y-150732445D01*
X148158768Y-150886788D01*
X148260586Y-151026928D01*
X148383072Y-151149414D01*
X148523212Y-151251232D01*
X148677555Y-151329873D01*
X148842299Y-151383402D01*
X149013389Y-151410500D01*
X149013390Y-151410500D01*
X149186610Y-151410500D01*
X149186611Y-151410500D01*
X149357701Y-151383402D01*
X149522445Y-151329873D01*
X149676788Y-151251232D01*
X149816928Y-151149414D01*
X149939414Y-151026928D01*
X150041232Y-150886788D01*
X150119873Y-150732445D01*
X150173402Y-150567701D01*
X150200500Y-150396611D01*
X150200500Y-150223389D01*
X150173402Y-150052299D01*
X150119873Y-149887555D01*
X150041232Y-149733212D01*
X149968083Y-149632532D01*
X149968083Y-149632530D01*
X149939418Y-149593078D01*
X149939414Y-149593072D01*
X149816928Y-149470586D01*
X149676788Y-149368768D01*
X149522445Y-149290127D01*
X149357701Y-149236598D01*
X149357699Y-149236597D01*
X149357698Y-149236597D01*
X149226271Y-149215781D01*
X149186611Y-149209500D01*
X149013389Y-149209500D01*
X148973728Y-149215781D01*
X148842302Y-149236597D01*
X148677552Y-149290128D01*
X148523211Y-149368768D01*
X148443256Y-149426859D01*
X148383072Y-149470586D01*
X148383070Y-149470588D01*
X148383069Y-149470588D01*
X148260588Y-149593069D01*
X148260588Y-149593070D01*
X148260586Y-149593072D01*
X148260582Y-149593078D01*
X148158768Y-149733211D01*
X148080128Y-149887552D01*
X148026597Y-150052302D01*
X148015902Y-150119832D01*
X147999500Y-150223389D01*
X146150500Y-150223389D01*
X146123402Y-150052299D01*
X146069873Y-149887555D01*
X145991232Y-149733212D01*
X145889414Y-149593072D01*
X145766928Y-149470586D01*
X145626788Y-149368768D01*
X145472445Y-149290127D01*
X145307701Y-149236598D01*
X145307699Y-149236597D01*
X145307698Y-149236597D01*
X145176271Y-149215781D01*
X145136611Y-149209500D01*
X144963389Y-149209500D01*
X144923728Y-149215781D01*
X144792302Y-149236597D01*
X144627552Y-149290128D01*
X144473211Y-149368768D01*
X144393256Y-149426859D01*
X144333072Y-149470586D01*
X144333070Y-149470588D01*
X144333069Y-149470588D01*
X144210588Y-149593069D01*
X144210588Y-149593070D01*
X144210586Y-149593072D01*
X144210582Y-149593078D01*
X144108768Y-149733211D01*
X144030128Y-149887552D01*
X143976597Y-150052302D01*
X143965902Y-150119832D01*
X143949500Y-150223389D01*
X142100500Y-150223389D01*
X142073402Y-150052299D01*
X142019873Y-149887555D01*
X141941232Y-149733212D01*
X141839414Y-149593072D01*
X141716928Y-149470586D01*
X141576788Y-149368768D01*
X141422445Y-149290127D01*
X141257701Y-149236598D01*
X141257699Y-149236597D01*
X141257698Y-149236597D01*
X141126271Y-149215781D01*
X141086611Y-149209500D01*
X140913389Y-149209500D01*
X140873728Y-149215781D01*
X140742302Y-149236597D01*
X140577552Y-149290128D01*
X140423211Y-149368768D01*
X140343256Y-149426859D01*
X140283072Y-149470586D01*
X140283070Y-149470588D01*
X140283069Y-149470588D01*
X140160588Y-149593069D01*
X140160588Y-149593070D01*
X140160586Y-149593072D01*
X140160582Y-149593078D01*
X140058768Y-149733211D01*
X139980128Y-149887552D01*
X139926597Y-150052302D01*
X139915902Y-150119832D01*
X139899500Y-150223389D01*
X95008085Y-150223389D01*
X95009202Y-149632533D01*
X95010792Y-148791316D01*
X95011566Y-148381947D01*
X125500000Y-148381947D01*
X125500000Y-148618052D01*
X125536934Y-148851247D01*
X125609897Y-149075802D01*
X125717087Y-149286174D01*
X125777338Y-149369104D01*
X125777340Y-149369105D01*
X126476212Y-148670233D01*
X126487482Y-148712292D01*
X126559890Y-148837708D01*
X126662292Y-148940110D01*
X126787708Y-149012518D01*
X126829765Y-149023787D01*
X126130893Y-149722658D01*
X126213828Y-149782914D01*
X126424197Y-149890102D01*
X126648752Y-149963065D01*
X126648751Y-149963065D01*
X126881948Y-150000000D01*
X127118052Y-150000000D01*
X127351247Y-149963065D01*
X127575802Y-149890102D01*
X127786163Y-149782918D01*
X127786169Y-149782914D01*
X127869104Y-149722658D01*
X127869105Y-149722658D01*
X127170233Y-149023787D01*
X127212292Y-149012518D01*
X127337708Y-148940110D01*
X127440110Y-148837708D01*
X127512518Y-148712292D01*
X127523787Y-148670234D01*
X128222658Y-149369105D01*
X128222658Y-149369104D01*
X128282914Y-149286169D01*
X128282918Y-149286163D01*
X128390102Y-149075802D01*
X128463065Y-148851247D01*
X128500000Y-148618052D01*
X128500000Y-148381947D01*
X132000000Y-148381947D01*
X132000000Y-148618052D01*
X132036934Y-148851247D01*
X132109897Y-149075802D01*
X132217087Y-149286174D01*
X132277338Y-149369104D01*
X132277340Y-149369105D01*
X132976212Y-148670233D01*
X132987482Y-148712292D01*
X133059890Y-148837708D01*
X133162292Y-148940110D01*
X133287708Y-149012518D01*
X133329765Y-149023787D01*
X132630893Y-149722658D01*
X132713828Y-149782914D01*
X132924197Y-149890102D01*
X133148752Y-149963065D01*
X133148751Y-149963065D01*
X133381948Y-150000000D01*
X133618052Y-150000000D01*
X133851247Y-149963065D01*
X134075802Y-149890102D01*
X134286163Y-149782918D01*
X134286169Y-149782914D01*
X134369104Y-149722658D01*
X134369105Y-149722658D01*
X133670233Y-149023787D01*
X133712292Y-149012518D01*
X133837708Y-148940110D01*
X133940110Y-148837708D01*
X134012518Y-148712292D01*
X134023787Y-148670234D01*
X134722658Y-149369105D01*
X134722658Y-149369104D01*
X134782914Y-149286169D01*
X134782918Y-149286163D01*
X134890102Y-149075802D01*
X134963065Y-148851247D01*
X135000000Y-148618052D01*
X135000000Y-148381947D01*
X134963065Y-148148752D01*
X134890102Y-147924197D01*
X134782914Y-147713828D01*
X134722658Y-147630894D01*
X134722658Y-147630893D01*
X134023787Y-148329765D01*
X134012518Y-148287708D01*
X133940110Y-148162292D01*
X133837708Y-148059890D01*
X133712292Y-147987482D01*
X133670234Y-147976212D01*
X134256628Y-147389818D01*
X156600000Y-147389818D01*
X156600000Y-147610181D01*
X156634473Y-147827835D01*
X156702567Y-148037410D01*
X156802611Y-148233756D01*
X156848932Y-148297513D01*
X157557861Y-147588584D01*
X157580667Y-147673694D01*
X157639910Y-147776306D01*
X157723694Y-147860090D01*
X157826306Y-147919333D01*
X157911414Y-147942137D01*
X157202485Y-148651065D01*
X157205857Y-148693906D01*
X157191493Y-148762283D01*
X157169921Y-148791316D01*
X157084309Y-148876928D01*
X156973240Y-149029800D01*
X156887454Y-149198163D01*
X156829059Y-149377881D01*
X156799500Y-149564513D01*
X156799500Y-149753486D01*
X156829059Y-149940118D01*
X156887454Y-150119836D01*
X156973240Y-150288199D01*
X157084310Y-150441073D01*
X157217927Y-150574690D01*
X157370801Y-150685760D01*
X157450347Y-150726290D01*
X157539163Y-150771545D01*
X157539165Y-150771545D01*
X157539168Y-150771547D01*
X157635497Y-150802846D01*
X157718881Y-150829940D01*
X157905514Y-150859500D01*
X157905519Y-150859500D01*
X158094486Y-150859500D01*
X158281118Y-150829940D01*
X158460832Y-150771547D01*
X158629199Y-150685760D01*
X158782073Y-150574690D01*
X158915690Y-150441073D01*
X159026760Y-150288199D01*
X159112547Y-150119832D01*
X159170940Y-149940118D01*
X159195838Y-149782918D01*
X159200500Y-149753486D01*
X159200500Y-149564513D01*
X159170940Y-149377881D01*
X159112545Y-149198163D01*
X159067290Y-149109347D01*
X159026760Y-149029801D01*
X158915690Y-148876927D01*
X158830079Y-148791316D01*
X158796594Y-148729993D01*
X158794142Y-148693906D01*
X158797513Y-148651065D01*
X158088585Y-147942138D01*
X158173694Y-147919333D01*
X158276306Y-147860090D01*
X158360090Y-147776306D01*
X158419333Y-147673694D01*
X158442137Y-147588585D01*
X159151066Y-148297514D01*
X159151066Y-148297513D01*
X159197386Y-148233760D01*
X159297432Y-148037410D01*
X159365526Y-147827835D01*
X159400000Y-147610181D01*
X159400000Y-147389818D01*
X159365526Y-147172164D01*
X159297432Y-146962589D01*
X159197388Y-146766243D01*
X159151066Y-146702485D01*
X159151065Y-146702485D01*
X158442137Y-147411413D01*
X158419333Y-147326306D01*
X158360090Y-147223694D01*
X158276306Y-147139910D01*
X158173694Y-147080667D01*
X158088583Y-147057861D01*
X158797512Y-146348933D01*
X158794141Y-146306096D01*
X158808504Y-146237718D01*
X158830072Y-146208690D01*
X158915690Y-146123073D01*
X159026760Y-145970199D01*
X159112547Y-145801832D01*
X159170940Y-145622118D01*
X159200500Y-145435486D01*
X159200500Y-145246513D01*
X159170940Y-145059881D01*
X159140411Y-144965925D01*
X159112547Y-144880168D01*
X159112545Y-144880165D01*
X159112545Y-144880163D01*
X159052128Y-144761589D01*
X159026760Y-144711801D01*
X158919179Y-144563730D01*
X158917911Y-144561842D01*
X158908046Y-144530622D01*
X158897036Y-144499764D01*
X158897570Y-144497466D01*
X158896860Y-144495219D01*
X158905441Y-144463617D01*
X158912861Y-144431710D01*
X158914552Y-144430066D01*
X158915170Y-144427791D01*
X158939483Y-144405837D01*
X158962967Y-144383015D01*
X158966828Y-144381146D01*
X158967028Y-144380966D01*
X158967290Y-144380922D01*
X158970717Y-144379264D01*
X159072765Y-144334206D01*
X159152206Y-144254765D01*
X159197585Y-144151991D01*
X159200500Y-144126865D01*
X159200500Y-143700013D01*
X167650000Y-143700013D01*
X167650000Y-144250000D01*
X168566988Y-144250000D01*
X168534075Y-144307007D01*
X168500000Y-144434174D01*
X168500000Y-144565826D01*
X168534075Y-144692993D01*
X168566988Y-144750000D01*
X167650001Y-144750000D01*
X167650001Y-145299986D01*
X167660494Y-145402697D01*
X167715641Y-145569119D01*
X167715643Y-145569124D01*
X167807684Y-145718345D01*
X167931654Y-145842315D01*
X168080875Y-145934356D01*
X168080880Y-145934358D01*
X168247302Y-145989505D01*
X168247309Y-145989506D01*
X168350019Y-145999999D01*
X168749999Y-145999999D01*
X168750000Y-145999998D01*
X168750000Y-144933012D01*
X168807007Y-144965925D01*
X168934174Y-145000000D01*
X169065826Y-145000000D01*
X169192993Y-144965925D01*
X169250000Y-144933012D01*
X169250000Y-145999999D01*
X169649972Y-145999999D01*
X169649986Y-145999998D01*
X169752697Y-145989505D01*
X169919119Y-145934358D01*
X169919124Y-145934356D01*
X170068345Y-145842315D01*
X170192315Y-145718345D01*
X170284356Y-145569124D01*
X170284358Y-145569119D01*
X170339505Y-145402697D01*
X170339506Y-145402689D01*
X170341699Y-145381231D01*
X170368095Y-145316539D01*
X170425276Y-145276388D01*
X170495087Y-145273524D01*
X170555363Y-145308858D01*
X170565376Y-145320949D01*
X170622443Y-145399497D01*
X170750500Y-145527554D01*
X170750505Y-145527558D01*
X170878287Y-145620396D01*
X170897006Y-145633996D01*
X171002484Y-145687740D01*
X171058360Y-145716211D01*
X171058363Y-145716212D01*
X171144476Y-145744191D01*
X171230591Y-145772171D01*
X171313429Y-145785291D01*
X171409449Y-145800500D01*
X171409454Y-145800500D01*
X171590551Y-145800500D01*
X171677259Y-145786765D01*
X171769409Y-145772171D01*
X171941639Y-145716211D01*
X172102994Y-145633996D01*
X172249501Y-145527553D01*
X172377553Y-145399501D01*
X172483996Y-145252994D01*
X172566211Y-145091639D01*
X172622171Y-144919409D01*
X172639974Y-144807007D01*
X172650500Y-144740551D01*
X172650500Y-144259448D01*
X172633479Y-144151987D01*
X172622171Y-144080591D01*
X172566211Y-143908361D01*
X172566211Y-143908360D01*
X172537740Y-143852484D01*
X172483996Y-143747006D01*
X172462143Y-143716928D01*
X172377558Y-143600505D01*
X172377554Y-143600500D01*
X172249499Y-143472445D01*
X172249494Y-143472441D01*
X172102997Y-143366006D01*
X172102996Y-143366005D01*
X172102994Y-143366004D01*
X172051300Y-143339664D01*
X171941639Y-143283788D01*
X171941636Y-143283787D01*
X171769410Y-143227829D01*
X171590551Y-143199500D01*
X171590546Y-143199500D01*
X171409454Y-143199500D01*
X171409449Y-143199500D01*
X171230589Y-143227829D01*
X171058363Y-143283787D01*
X171058360Y-143283788D01*
X170897002Y-143366006D01*
X170750505Y-143472441D01*
X170750500Y-143472445D01*
X170622445Y-143600500D01*
X170565374Y-143679052D01*
X170510044Y-143721717D01*
X170440430Y-143727696D01*
X170378635Y-143695090D01*
X170344278Y-143634251D01*
X170341698Y-143618765D01*
X170339506Y-143597303D01*
X170284358Y-143430880D01*
X170284356Y-143430875D01*
X170192315Y-143281654D01*
X170068345Y-143157684D01*
X169919124Y-143065643D01*
X169919119Y-143065641D01*
X169800162Y-143026223D01*
X169752697Y-143010494D01*
X169752690Y-143010493D01*
X169649986Y-143000000D01*
X169250000Y-143000000D01*
X169250000Y-144066988D01*
X169192993Y-144034075D01*
X169065826Y-144000000D01*
X168934174Y-144000000D01*
X168807007Y-144034075D01*
X168750000Y-144066988D01*
X168750000Y-143000000D01*
X168350028Y-143000000D01*
X168350012Y-143000001D01*
X168247302Y-143010494D01*
X168080880Y-143065641D01*
X168080875Y-143065643D01*
X167931654Y-143157684D01*
X167807684Y-143281654D01*
X167715643Y-143430875D01*
X167715641Y-143430880D01*
X167660494Y-143597302D01*
X167660493Y-143597309D01*
X167650000Y-143700013D01*
X159200500Y-143700013D01*
X159200499Y-143157684D01*
X159200499Y-142913389D01*
X176819500Y-142913389D01*
X176819500Y-143086610D01*
X176841866Y-143227829D01*
X176846598Y-143257701D01*
X176900127Y-143422445D01*
X176978768Y-143576788D01*
X177080586Y-143716928D01*
X177203072Y-143839414D01*
X177343212Y-143941232D01*
X177497555Y-144019873D01*
X177662299Y-144073402D01*
X177833389Y-144100500D01*
X177833390Y-144100500D01*
X178006610Y-144100500D01*
X178006611Y-144100500D01*
X178177701Y-144073402D01*
X178342445Y-144019873D01*
X178496788Y-143941232D01*
X178636928Y-143839414D01*
X178759414Y-143716928D01*
X178861232Y-143576788D01*
X178939873Y-143422445D01*
X178993402Y-143257701D01*
X179020500Y-143086611D01*
X179020500Y-142913389D01*
X178993402Y-142742299D01*
X178939873Y-142577555D01*
X178861232Y-142423212D01*
X178759414Y-142283072D01*
X178681473Y-142205131D01*
X179409500Y-142205131D01*
X179409500Y-143794856D01*
X179409502Y-143794882D01*
X179412413Y-143819987D01*
X179412415Y-143819991D01*
X179457793Y-143922764D01*
X179457794Y-143922765D01*
X179537235Y-144002206D01*
X179640009Y-144047585D01*
X179665135Y-144050500D01*
X181254864Y-144050499D01*
X181254879Y-144050497D01*
X181254882Y-144050497D01*
X181279987Y-144047586D01*
X181279988Y-144047585D01*
X181279991Y-144047585D01*
X181382765Y-144002206D01*
X181462206Y-143922765D01*
X181507585Y-143819991D01*
X181510500Y-143794865D01*
X181510499Y-142913389D01*
X181899500Y-142913389D01*
X181899500Y-143086610D01*
X181921866Y-143227829D01*
X181926598Y-143257701D01*
X181980127Y-143422445D01*
X182058768Y-143576788D01*
X182160586Y-143716928D01*
X182283072Y-143839414D01*
X182423212Y-143941232D01*
X182577555Y-144019873D01*
X182742299Y-144073402D01*
X182913389Y-144100500D01*
X182913390Y-144100500D01*
X183086610Y-144100500D01*
X183086611Y-144100500D01*
X183257701Y-144073402D01*
X183422445Y-144019873D01*
X183576788Y-143941232D01*
X183716928Y-143839414D01*
X183839414Y-143716928D01*
X183941232Y-143576788D01*
X184019873Y-143422445D01*
X184073402Y-143257701D01*
X184100500Y-143086611D01*
X184100500Y-142913389D01*
X184073402Y-142742299D01*
X184019873Y-142577555D01*
X183941232Y-142423212D01*
X183839414Y-142283072D01*
X183716928Y-142160586D01*
X183576788Y-142058768D01*
X183422445Y-141980127D01*
X183257701Y-141926598D01*
X183257699Y-141926597D01*
X183257698Y-141926597D01*
X183126271Y-141905781D01*
X183086611Y-141899500D01*
X182913389Y-141899500D01*
X182873728Y-141905781D01*
X182742302Y-141926597D01*
X182577552Y-141980128D01*
X182423211Y-142058768D01*
X182343256Y-142116859D01*
X182283072Y-142160586D01*
X182283070Y-142160588D01*
X182283069Y-142160588D01*
X182160588Y-142283069D01*
X182160588Y-142283070D01*
X182160586Y-142283072D01*
X182116859Y-142343256D01*
X182058768Y-142423211D01*
X181980128Y-142577552D01*
X181926597Y-142742302D01*
X181899500Y-142913389D01*
X181510499Y-142913389D01*
X181510499Y-142205136D01*
X181510497Y-142205117D01*
X181507586Y-142180012D01*
X181507585Y-142180010D01*
X181507585Y-142180009D01*
X181462206Y-142077235D01*
X181382765Y-141997794D01*
X181382763Y-141997793D01*
X181279992Y-141952415D01*
X181254865Y-141949500D01*
X179665143Y-141949500D01*
X179665117Y-141949502D01*
X179640012Y-141952413D01*
X179640008Y-141952415D01*
X179537235Y-141997793D01*
X179457794Y-142077234D01*
X179412415Y-142180006D01*
X179412415Y-142180008D01*
X179409500Y-142205131D01*
X178681473Y-142205131D01*
X178636928Y-142160586D01*
X178496788Y-142058768D01*
X178342445Y-141980127D01*
X178177701Y-141926598D01*
X178177699Y-141926597D01*
X178177698Y-141926597D01*
X178046271Y-141905781D01*
X178006611Y-141899500D01*
X177833389Y-141899500D01*
X177793728Y-141905781D01*
X177662302Y-141926597D01*
X177497552Y-141980128D01*
X177343211Y-142058768D01*
X177263256Y-142116859D01*
X177203072Y-142160586D01*
X177203070Y-142160588D01*
X177203069Y-142160588D01*
X177080588Y-142283069D01*
X177080588Y-142283070D01*
X177080586Y-142283072D01*
X177036859Y-142343256D01*
X176978768Y-142423211D01*
X176900128Y-142577552D01*
X176846597Y-142742302D01*
X176819500Y-142913389D01*
X159200499Y-142913389D01*
X159200499Y-142237143D01*
X159200499Y-142237136D01*
X159200497Y-142237117D01*
X159197586Y-142212012D01*
X159197585Y-142212010D01*
X159197585Y-142212009D01*
X159152206Y-142109235D01*
X159072765Y-142029794D01*
X159000292Y-141997794D01*
X158969992Y-141984415D01*
X158944865Y-141981500D01*
X157055143Y-141981500D01*
X157055117Y-141981502D01*
X157030012Y-141984413D01*
X157030008Y-141984415D01*
X156927235Y-142029793D01*
X156847794Y-142109234D01*
X156802415Y-142212006D01*
X156802415Y-142212008D01*
X156799500Y-142237131D01*
X156799500Y-144126856D01*
X156799502Y-144126882D01*
X156802413Y-144151987D01*
X156802415Y-144151991D01*
X156847793Y-144254764D01*
X156847794Y-144254765D01*
X156927235Y-144334206D01*
X156997965Y-144365436D01*
X157029252Y-144379251D01*
X157082628Y-144424337D01*
X157103155Y-144491123D01*
X157084317Y-144558405D01*
X157079483Y-144565571D01*
X156973240Y-144711800D01*
X156887454Y-144880163D01*
X156829059Y-145059881D01*
X156799500Y-145246513D01*
X156799500Y-145435486D01*
X156829059Y-145622118D01*
X156887454Y-145801836D01*
X156954977Y-145934356D01*
X156973240Y-145970199D01*
X157084310Y-146123073D01*
X157084312Y-146123075D01*
X157169920Y-146208683D01*
X157203405Y-146270006D01*
X157205857Y-146306093D01*
X157202485Y-146348932D01*
X157911414Y-147057861D01*
X157826306Y-147080667D01*
X157723694Y-147139910D01*
X157639910Y-147223694D01*
X157580667Y-147326306D01*
X157557861Y-147411414D01*
X156848932Y-146702485D01*
X156848931Y-146702485D01*
X156802616Y-146766233D01*
X156702567Y-146962589D01*
X156634473Y-147172164D01*
X156600000Y-147389818D01*
X134256628Y-147389818D01*
X134349181Y-147297265D01*
X134369105Y-147277340D01*
X134369104Y-147277338D01*
X134286174Y-147217087D01*
X134075802Y-147109897D01*
X133851247Y-147036934D01*
X133851248Y-147036934D01*
X133618052Y-147000000D01*
X133381948Y-147000000D01*
X133148752Y-147036934D01*
X132924197Y-147109897D01*
X132713830Y-147217084D01*
X132630894Y-147277340D01*
X133329766Y-147976212D01*
X133287708Y-147987482D01*
X133162292Y-148059890D01*
X133059890Y-148162292D01*
X132987482Y-148287708D01*
X132976212Y-148329766D01*
X132277340Y-147630894D01*
X132217084Y-147713830D01*
X132109897Y-147924197D01*
X132036934Y-148148752D01*
X132000000Y-148381947D01*
X128500000Y-148381947D01*
X128463065Y-148148752D01*
X128390102Y-147924197D01*
X128282914Y-147713828D01*
X128222658Y-147630894D01*
X128222658Y-147630893D01*
X127523787Y-148329765D01*
X127512518Y-148287708D01*
X127440110Y-148162292D01*
X127337708Y-148059890D01*
X127212292Y-147987482D01*
X127170234Y-147976212D01*
X127869105Y-147277340D01*
X127869104Y-147277339D01*
X127786174Y-147217087D01*
X127575802Y-147109897D01*
X127351247Y-147036934D01*
X127351248Y-147036934D01*
X127118052Y-147000000D01*
X126881948Y-147000000D01*
X126648752Y-147036934D01*
X126424197Y-147109897D01*
X126213830Y-147217084D01*
X126130894Y-147277340D01*
X126829766Y-147976212D01*
X126787708Y-147987482D01*
X126662292Y-148059890D01*
X126559890Y-148162292D01*
X126487482Y-148287708D01*
X126476212Y-148329766D01*
X125777340Y-147630894D01*
X125717084Y-147713830D01*
X125609897Y-147924197D01*
X125536934Y-148148752D01*
X125500000Y-148381947D01*
X95011566Y-148381947D01*
X95012985Y-147630893D01*
X95013565Y-147324365D01*
X95016443Y-145801836D01*
X95020043Y-143897648D01*
X125699500Y-143897648D01*
X125699500Y-144102351D01*
X125731522Y-144304534D01*
X125794781Y-144499223D01*
X125887715Y-144681613D01*
X126008028Y-144847213D01*
X126152786Y-144991971D01*
X126289966Y-145091636D01*
X126318390Y-145112287D01*
X126434607Y-145171503D01*
X126500776Y-145205218D01*
X126500778Y-145205218D01*
X126500781Y-145205220D01*
X126605137Y-145239127D01*
X126695465Y-145268477D01*
X126745413Y-145276388D01*
X126897648Y-145300500D01*
X126897649Y-145300500D01*
X127102351Y-145300500D01*
X127102352Y-145300500D01*
X127304534Y-145268477D01*
X127499219Y-145205220D01*
X127681610Y-145112287D01*
X127774590Y-145044732D01*
X127847213Y-144991971D01*
X127847215Y-144991968D01*
X127847219Y-144991966D01*
X127991966Y-144847219D01*
X127991968Y-144847215D01*
X127991971Y-144847213D01*
X128090352Y-144711801D01*
X128112287Y-144681610D01*
X128205220Y-144499219D01*
X128268477Y-144304534D01*
X128300500Y-144102352D01*
X128300500Y-143897648D01*
X132199500Y-143897648D01*
X132199500Y-144102351D01*
X132231522Y-144304534D01*
X132294781Y-144499223D01*
X132387715Y-144681613D01*
X132508028Y-144847213D01*
X132652786Y-144991971D01*
X132789966Y-145091636D01*
X132818390Y-145112287D01*
X132934607Y-145171503D01*
X133000776Y-145205218D01*
X133000778Y-145205218D01*
X133000781Y-145205220D01*
X133105137Y-145239127D01*
X133195465Y-145268477D01*
X133245413Y-145276388D01*
X133397648Y-145300500D01*
X133397649Y-145300500D01*
X133602351Y-145300500D01*
X133602352Y-145300500D01*
X133804534Y-145268477D01*
X133999219Y-145205220D01*
X134181610Y-145112287D01*
X134274590Y-145044732D01*
X134347213Y-144991971D01*
X134347215Y-144991968D01*
X134347219Y-144991966D01*
X134491966Y-144847219D01*
X134491968Y-144847215D01*
X134491971Y-144847213D01*
X134590352Y-144711801D01*
X134612287Y-144681610D01*
X134705220Y-144499219D01*
X134768477Y-144304534D01*
X134800500Y-144102352D01*
X134800500Y-143897648D01*
X134768477Y-143695465D01*
X134705218Y-143500776D01*
X134657399Y-143406928D01*
X134612287Y-143318390D01*
X134587148Y-143283789D01*
X134491971Y-143152786D01*
X134347213Y-143008028D01*
X134181613Y-142887715D01*
X134181612Y-142887714D01*
X134181610Y-142887713D01*
X134124653Y-142858691D01*
X133999223Y-142794781D01*
X133804534Y-142731522D01*
X133738033Y-142720990D01*
X133683555Y-142712361D01*
X133602352Y-142699500D01*
X133397648Y-142699500D01*
X133373329Y-142703351D01*
X133195465Y-142731522D01*
X133000776Y-142794781D01*
X132818386Y-142887715D01*
X132652786Y-143008028D01*
X132508028Y-143152786D01*
X132387715Y-143318386D01*
X132294781Y-143500776D01*
X132231522Y-143695465D01*
X132199500Y-143897648D01*
X128300500Y-143897648D01*
X128268477Y-143695465D01*
X128205218Y-143500776D01*
X128157399Y-143406928D01*
X128112287Y-143318390D01*
X128087148Y-143283789D01*
X127991971Y-143152786D01*
X127847213Y-143008028D01*
X127681613Y-142887715D01*
X127681612Y-142887714D01*
X127681610Y-142887713D01*
X127624653Y-142858691D01*
X127499223Y-142794781D01*
X127304534Y-142731522D01*
X127129995Y-142703878D01*
X127102352Y-142699500D01*
X126897648Y-142699500D01*
X126873329Y-142703351D01*
X126695465Y-142731522D01*
X126500776Y-142794781D01*
X126318386Y-142887715D01*
X126152786Y-143008028D01*
X126008028Y-143152786D01*
X125887715Y-143318386D01*
X125794781Y-143500776D01*
X125731522Y-143695465D01*
X125699500Y-143897648D01*
X95020043Y-143897648D01*
X95022490Y-142603389D01*
X139899500Y-142603389D01*
X139899500Y-142776610D01*
X139921163Y-142913389D01*
X139926598Y-142947701D01*
X139980127Y-143112445D01*
X140058768Y-143266788D01*
X140160586Y-143406928D01*
X140283072Y-143529414D01*
X140423212Y-143631232D01*
X140577555Y-143709873D01*
X140742299Y-143763402D01*
X140913389Y-143790500D01*
X140913390Y-143790500D01*
X141086610Y-143790500D01*
X141086611Y-143790500D01*
X141257701Y-143763402D01*
X141422445Y-143709873D01*
X141576788Y-143631232D01*
X141716928Y-143529414D01*
X141839414Y-143406928D01*
X141941232Y-143266788D01*
X142019873Y-143112445D01*
X142073402Y-142947701D01*
X142100500Y-142776611D01*
X142100500Y-142603389D01*
X143949500Y-142603389D01*
X143949500Y-142776610D01*
X143971163Y-142913389D01*
X143976598Y-142947701D01*
X144030127Y-143112445D01*
X144108768Y-143266788D01*
X144210586Y-143406928D01*
X144333072Y-143529414D01*
X144473212Y-143631232D01*
X144627555Y-143709873D01*
X144792299Y-143763402D01*
X144963389Y-143790500D01*
X144963390Y-143790500D01*
X145136610Y-143790500D01*
X145136611Y-143790500D01*
X145307701Y-143763402D01*
X145472445Y-143709873D01*
X145626788Y-143631232D01*
X145766928Y-143529414D01*
X145889414Y-143406928D01*
X145991232Y-143266788D01*
X146069873Y-143112445D01*
X146123402Y-142947701D01*
X146150500Y-142776611D01*
X146150500Y-142603389D01*
X147999500Y-142603389D01*
X147999500Y-142776610D01*
X148021163Y-142913389D01*
X148026598Y-142947701D01*
X148080127Y-143112445D01*
X148158768Y-143266788D01*
X148260586Y-143406928D01*
X148383072Y-143529414D01*
X148523212Y-143631232D01*
X148677555Y-143709873D01*
X148842299Y-143763402D01*
X149013389Y-143790500D01*
X149013390Y-143790500D01*
X149186610Y-143790500D01*
X149186611Y-143790500D01*
X149357701Y-143763402D01*
X149522445Y-143709873D01*
X149676788Y-143631232D01*
X149816928Y-143529414D01*
X149939414Y-143406928D01*
X150041232Y-143266788D01*
X150119873Y-143112445D01*
X150173402Y-142947701D01*
X150200500Y-142776611D01*
X150200500Y-142603389D01*
X150173402Y-142432299D01*
X150119873Y-142267555D01*
X150041232Y-142113212D01*
X149939414Y-141973072D01*
X149816928Y-141850586D01*
X149676788Y-141748768D01*
X149522445Y-141670127D01*
X149357701Y-141616598D01*
X149357699Y-141616597D01*
X149357698Y-141616597D01*
X149226271Y-141595781D01*
X149186611Y-141589500D01*
X149013389Y-141589500D01*
X148973728Y-141595781D01*
X148842302Y-141616597D01*
X148677552Y-141670128D01*
X148523211Y-141748768D01*
X148443256Y-141806859D01*
X148383072Y-141850586D01*
X148383070Y-141850588D01*
X148383069Y-141850588D01*
X148260588Y-141973069D01*
X148260588Y-141973070D01*
X148260586Y-141973072D01*
X148219376Y-142029793D01*
X148158768Y-142113211D01*
X148080128Y-142267552D01*
X148026597Y-142432302D01*
X147999500Y-142603389D01*
X146150500Y-142603389D01*
X146123402Y-142432299D01*
X146069873Y-142267555D01*
X145991232Y-142113212D01*
X145889414Y-141973072D01*
X145766928Y-141850586D01*
X145626788Y-141748768D01*
X145472445Y-141670127D01*
X145307701Y-141616598D01*
X145307699Y-141616597D01*
X145307698Y-141616597D01*
X145176271Y-141595781D01*
X145136611Y-141589500D01*
X144963389Y-141589500D01*
X144923728Y-141595781D01*
X144792302Y-141616597D01*
X144627552Y-141670128D01*
X144473211Y-141748768D01*
X144393256Y-141806859D01*
X144333072Y-141850586D01*
X144333070Y-141850588D01*
X144333069Y-141850588D01*
X144210588Y-141973069D01*
X144210588Y-141973070D01*
X144210586Y-141973072D01*
X144169376Y-142029793D01*
X144108768Y-142113211D01*
X144030128Y-142267552D01*
X143976597Y-142432302D01*
X143949500Y-142603389D01*
X142100500Y-142603389D01*
X142073402Y-142432299D01*
X142019873Y-142267555D01*
X141941232Y-142113212D01*
X141839414Y-141973072D01*
X141716928Y-141850586D01*
X141576788Y-141748768D01*
X141422445Y-141670127D01*
X141257701Y-141616598D01*
X141257699Y-141616597D01*
X141257698Y-141616597D01*
X141126271Y-141595781D01*
X141086611Y-141589500D01*
X140913389Y-141589500D01*
X140873728Y-141595781D01*
X140742302Y-141616597D01*
X140577552Y-141670128D01*
X140423211Y-141748768D01*
X140343256Y-141806859D01*
X140283072Y-141850586D01*
X140283070Y-141850588D01*
X140283069Y-141850588D01*
X140160588Y-141973069D01*
X140160588Y-141973070D01*
X140160586Y-141973072D01*
X140119376Y-142029793D01*
X140058768Y-142113211D01*
X139980128Y-142267552D01*
X139926597Y-142432302D01*
X139899500Y-142603389D01*
X95022490Y-142603389D01*
X95027821Y-139782914D01*
X95028025Y-139675165D01*
X95030023Y-138618052D01*
X95030469Y-138381947D01*
X101500000Y-138381947D01*
X101500000Y-138618052D01*
X101536934Y-138851247D01*
X101609897Y-139075802D01*
X101717087Y-139286174D01*
X101777338Y-139369104D01*
X101777340Y-139369105D01*
X102476212Y-138670233D01*
X102487482Y-138712292D01*
X102559890Y-138837708D01*
X102662292Y-138940110D01*
X102787708Y-139012518D01*
X102829765Y-139023787D01*
X102130893Y-139722658D01*
X102213828Y-139782914D01*
X102424197Y-139890102D01*
X102648752Y-139963065D01*
X102648751Y-139963065D01*
X102881948Y-140000000D01*
X103118052Y-140000000D01*
X103351247Y-139963065D01*
X103575802Y-139890102D01*
X103786163Y-139782918D01*
X103786169Y-139782914D01*
X103869104Y-139722658D01*
X103869105Y-139722658D01*
X103170233Y-139023787D01*
X103212292Y-139012518D01*
X103337708Y-138940110D01*
X103440110Y-138837708D01*
X103512518Y-138712292D01*
X103523787Y-138670234D01*
X104222658Y-139369105D01*
X104222658Y-139369104D01*
X104282914Y-139286169D01*
X104282918Y-139286163D01*
X104390102Y-139075802D01*
X104463065Y-138851247D01*
X104500000Y-138618052D01*
X104500000Y-138381947D01*
X108000000Y-138381947D01*
X108000000Y-138618052D01*
X108036934Y-138851247D01*
X108109897Y-139075802D01*
X108217087Y-139286174D01*
X108277338Y-139369104D01*
X108277340Y-139369105D01*
X108976212Y-138670233D01*
X108987482Y-138712292D01*
X109059890Y-138837708D01*
X109162292Y-138940110D01*
X109287708Y-139012518D01*
X109329765Y-139023787D01*
X108630893Y-139722658D01*
X108713828Y-139782914D01*
X108924197Y-139890102D01*
X109148752Y-139963065D01*
X109148751Y-139963065D01*
X109381948Y-140000000D01*
X109618052Y-140000000D01*
X109851247Y-139963065D01*
X110075802Y-139890102D01*
X110286163Y-139782918D01*
X110286169Y-139782914D01*
X110369104Y-139722658D01*
X110369105Y-139722658D01*
X109670233Y-139023787D01*
X109712292Y-139012518D01*
X109837708Y-138940110D01*
X109940110Y-138837708D01*
X110012518Y-138712292D01*
X110023787Y-138670234D01*
X110722658Y-139369105D01*
X110722659Y-139369104D01*
X110734713Y-139352514D01*
X110734713Y-139352513D01*
X110782914Y-139286169D01*
X110782918Y-139286163D01*
X110890102Y-139075802D01*
X110963065Y-138851247D01*
X111000000Y-138618052D01*
X111000000Y-138381947D01*
X110963066Y-138148756D01*
X110963065Y-138148752D01*
X110957605Y-138131947D01*
X113250000Y-138131947D01*
X113250000Y-138368052D01*
X113286934Y-138601247D01*
X113359897Y-138825802D01*
X113467087Y-139036174D01*
X113527338Y-139119104D01*
X113527340Y-139119105D01*
X114226212Y-138420233D01*
X114237482Y-138462292D01*
X114309890Y-138587708D01*
X114412292Y-138690110D01*
X114537708Y-138762518D01*
X114579765Y-138773787D01*
X113880893Y-139472658D01*
X113963828Y-139532914D01*
X114174197Y-139640102D01*
X114398752Y-139713065D01*
X114398751Y-139713065D01*
X114631948Y-139750000D01*
X114868052Y-139750000D01*
X115101247Y-139713065D01*
X115325802Y-139640102D01*
X115536163Y-139532918D01*
X115536169Y-139532914D01*
X115619104Y-139472658D01*
X115619105Y-139472658D01*
X114920233Y-138773787D01*
X114962292Y-138762518D01*
X115087708Y-138690110D01*
X115190110Y-138587708D01*
X115262518Y-138462292D01*
X115273787Y-138420234D01*
X115972658Y-139119105D01*
X115972658Y-139119104D01*
X116032914Y-139036169D01*
X116032918Y-139036163D01*
X116140102Y-138825802D01*
X116213065Y-138601247D01*
X116250000Y-138368052D01*
X116250000Y-138131947D01*
X119750000Y-138131947D01*
X119750000Y-138368052D01*
X119786934Y-138601247D01*
X119859897Y-138825802D01*
X119967087Y-139036174D01*
X120027338Y-139119104D01*
X120027340Y-139119105D01*
X120726212Y-138420233D01*
X120737482Y-138462292D01*
X120809890Y-138587708D01*
X120912292Y-138690110D01*
X121037708Y-138762518D01*
X121079765Y-138773787D01*
X120380893Y-139472658D01*
X120463828Y-139532914D01*
X120674197Y-139640102D01*
X120898752Y-139713065D01*
X120898751Y-139713065D01*
X121131948Y-139750000D01*
X121368052Y-139750000D01*
X121601247Y-139713065D01*
X121825802Y-139640102D01*
X122036163Y-139532918D01*
X122036169Y-139532914D01*
X122119104Y-139472658D01*
X122119105Y-139472658D01*
X121420233Y-138773787D01*
X121462292Y-138762518D01*
X121587708Y-138690110D01*
X121690110Y-138587708D01*
X121762518Y-138462292D01*
X121773787Y-138420234D01*
X122472658Y-139119105D01*
X122472658Y-139119104D01*
X122532914Y-139036169D01*
X122532918Y-139036163D01*
X122640102Y-138825802D01*
X122713065Y-138601247D01*
X122750000Y-138368052D01*
X122750000Y-138131947D01*
X122713065Y-137898752D01*
X122640102Y-137674197D01*
X122532914Y-137463828D01*
X122472658Y-137380894D01*
X122472658Y-137380893D01*
X121773787Y-138079765D01*
X121762518Y-138037708D01*
X121690110Y-137912292D01*
X121587708Y-137809890D01*
X121462292Y-137737482D01*
X121420234Y-137726212D01*
X122119105Y-137027340D01*
X122119104Y-137027338D01*
X122036174Y-136967087D01*
X121825802Y-136859897D01*
X121601247Y-136786934D01*
X121601248Y-136786934D01*
X121368052Y-136750000D01*
X121131948Y-136750000D01*
X120898752Y-136786934D01*
X120674197Y-136859897D01*
X120463830Y-136967084D01*
X120380894Y-137027340D01*
X121079766Y-137726212D01*
X121037708Y-137737482D01*
X120912292Y-137809890D01*
X120809890Y-137912292D01*
X120737482Y-138037708D01*
X120726212Y-138079766D01*
X120027340Y-137380894D01*
X119967084Y-137463830D01*
X119859897Y-137674197D01*
X119786934Y-137898752D01*
X119750000Y-138131947D01*
X116250000Y-138131947D01*
X116213065Y-137898752D01*
X116140102Y-137674197D01*
X116032914Y-137463828D01*
X115972658Y-137380894D01*
X115972658Y-137380893D01*
X115273787Y-138079765D01*
X115262518Y-138037708D01*
X115190110Y-137912292D01*
X115087708Y-137809890D01*
X114962292Y-137737482D01*
X114920234Y-137726212D01*
X115619105Y-137027340D01*
X115619104Y-137027339D01*
X115536174Y-136967087D01*
X115325802Y-136859897D01*
X115101247Y-136786934D01*
X115101248Y-136786934D01*
X114868052Y-136750000D01*
X114631948Y-136750000D01*
X114398752Y-136786934D01*
X114174197Y-136859897D01*
X113963830Y-136967084D01*
X113880894Y-137027340D01*
X114579766Y-137726212D01*
X114537708Y-137737482D01*
X114412292Y-137809890D01*
X114309890Y-137912292D01*
X114237482Y-138037708D01*
X114226212Y-138079766D01*
X113527340Y-137380894D01*
X113467084Y-137463830D01*
X113359897Y-137674197D01*
X113286934Y-137898752D01*
X113250000Y-138131947D01*
X110957605Y-138131947D01*
X110890102Y-137924197D01*
X110782914Y-137713828D01*
X110722658Y-137630894D01*
X110722658Y-137630893D01*
X110023787Y-138329765D01*
X110012518Y-138287708D01*
X109940110Y-138162292D01*
X109837708Y-138059890D01*
X109712292Y-137987482D01*
X109670234Y-137976212D01*
X110369105Y-137277340D01*
X110369104Y-137277338D01*
X110286175Y-137217087D01*
X110223365Y-137185084D01*
X110075802Y-137109897D01*
X109851247Y-137036934D01*
X109851248Y-137036934D01*
X109618052Y-137000000D01*
X109381948Y-137000000D01*
X109148752Y-137036934D01*
X108924197Y-137109897D01*
X108713830Y-137217084D01*
X108630894Y-137277340D01*
X109329766Y-137976212D01*
X109287708Y-137987482D01*
X109162292Y-138059890D01*
X109059890Y-138162292D01*
X108987482Y-138287708D01*
X108976212Y-138329766D01*
X108277340Y-137630894D01*
X108217084Y-137713830D01*
X108109897Y-137924197D01*
X108036934Y-138148752D01*
X108000000Y-138381947D01*
X104500000Y-138381947D01*
X104463065Y-138148752D01*
X104390102Y-137924197D01*
X104282914Y-137713828D01*
X104222658Y-137630894D01*
X104222658Y-137630893D01*
X103523787Y-138329765D01*
X103512518Y-138287708D01*
X103440110Y-138162292D01*
X103337708Y-138059890D01*
X103212292Y-137987482D01*
X103170234Y-137976212D01*
X103869105Y-137277340D01*
X103869104Y-137277339D01*
X103786174Y-137217087D01*
X103575802Y-137109897D01*
X103351247Y-137036934D01*
X103351248Y-137036934D01*
X103118052Y-137000000D01*
X102881948Y-137000000D01*
X102648752Y-137036934D01*
X102424197Y-137109897D01*
X102213830Y-137217084D01*
X102130894Y-137277340D01*
X102829766Y-137976212D01*
X102787708Y-137987482D01*
X102662292Y-138059890D01*
X102559890Y-138162292D01*
X102487482Y-138287708D01*
X102476212Y-138329766D01*
X101777340Y-137630894D01*
X101717084Y-137713830D01*
X101609897Y-137924197D01*
X101536934Y-138148752D01*
X101500000Y-138381947D01*
X95030469Y-138381947D01*
X95031780Y-137688820D01*
X95032469Y-137324365D01*
X95035901Y-135508872D01*
X128639500Y-135508872D01*
X128639500Y-135771127D01*
X128652250Y-135867965D01*
X128673730Y-136031116D01*
X128738831Y-136274076D01*
X128741602Y-136284418D01*
X128741605Y-136284428D01*
X128841953Y-136526690D01*
X128841958Y-136526700D01*
X128973075Y-136753803D01*
X129132718Y-136961851D01*
X129132726Y-136961860D01*
X129318140Y-137147274D01*
X129318148Y-137147281D01*
X129526196Y-137306924D01*
X129753299Y-137438041D01*
X129753309Y-137438046D01*
X129995571Y-137538394D01*
X129995581Y-137538398D01*
X130248884Y-137606270D01*
X130508880Y-137640500D01*
X130508887Y-137640500D01*
X130771113Y-137640500D01*
X130771120Y-137640500D01*
X131031116Y-137606270D01*
X131284419Y-137538398D01*
X131526697Y-137438043D01*
X131753803Y-137306924D01*
X131961851Y-137147282D01*
X131961855Y-137147277D01*
X131961860Y-137147274D01*
X132147274Y-136961860D01*
X132147277Y-136961855D01*
X132147282Y-136961851D01*
X132306924Y-136753803D01*
X132309120Y-136750000D01*
X132335165Y-136704888D01*
X134897313Y-136704888D01*
X134897313Y-137290191D01*
X134938142Y-137495452D01*
X134938144Y-137495460D01*
X135018236Y-137688820D01*
X135134516Y-137862846D01*
X135282506Y-138010836D01*
X135456532Y-138127116D01*
X135508776Y-138148756D01*
X135649893Y-138207209D01*
X135855161Y-138248039D01*
X135855165Y-138248040D01*
X135855166Y-138248040D01*
X136064461Y-138248040D01*
X136064462Y-138248039D01*
X136269733Y-138207209D01*
X136463095Y-138127115D01*
X136637117Y-138010838D01*
X136785111Y-137862844D01*
X136901388Y-137688822D01*
X136981482Y-137495460D01*
X137022313Y-137290187D01*
X137022313Y-136704893D01*
X137022312Y-136704888D01*
X137437313Y-136704888D01*
X137437313Y-137290191D01*
X137478142Y-137495452D01*
X137478144Y-137495460D01*
X137558236Y-137688820D01*
X137674516Y-137862846D01*
X137822506Y-138010836D01*
X137996532Y-138127116D01*
X138048776Y-138148756D01*
X138189893Y-138207209D01*
X138395161Y-138248039D01*
X138395165Y-138248040D01*
X138395166Y-138248040D01*
X138604461Y-138248040D01*
X138604462Y-138248039D01*
X138809733Y-138207209D01*
X139003095Y-138127115D01*
X139177117Y-138010838D01*
X139325111Y-137862844D01*
X139441388Y-137688822D01*
X139521482Y-137495460D01*
X139562313Y-137290187D01*
X139562313Y-136704893D01*
X139562312Y-136704888D01*
X139977313Y-136704888D01*
X139977313Y-137290191D01*
X140018142Y-137495452D01*
X140018144Y-137495460D01*
X140098236Y-137688820D01*
X140214516Y-137862846D01*
X140362506Y-138010836D01*
X140536532Y-138127116D01*
X140588776Y-138148756D01*
X140729893Y-138207209D01*
X140935161Y-138248039D01*
X140935165Y-138248040D01*
X140935166Y-138248040D01*
X141144461Y-138248040D01*
X141144462Y-138248039D01*
X141349733Y-138207209D01*
X141543095Y-138127115D01*
X141717117Y-138010838D01*
X141865111Y-137862844D01*
X141981388Y-137688822D01*
X142061482Y-137495460D01*
X142102313Y-137290187D01*
X142102313Y-136704893D01*
X142102312Y-136704888D01*
X142517313Y-136704888D01*
X142517313Y-137290191D01*
X142558142Y-137495452D01*
X142558144Y-137495460D01*
X142638236Y-137688820D01*
X142754516Y-137862846D01*
X142902506Y-138010836D01*
X143076532Y-138127116D01*
X143128776Y-138148756D01*
X143269893Y-138207209D01*
X143475161Y-138248039D01*
X143475165Y-138248040D01*
X143475166Y-138248040D01*
X143684461Y-138248040D01*
X143684462Y-138248039D01*
X143889733Y-138207209D01*
X144083095Y-138127115D01*
X144257117Y-138010838D01*
X144405111Y-137862844D01*
X144521388Y-137688822D01*
X144601482Y-137495460D01*
X144642313Y-137290187D01*
X144642313Y-136704893D01*
X144642312Y-136704888D01*
X145057313Y-136704888D01*
X145057313Y-137290191D01*
X145098142Y-137495452D01*
X145098144Y-137495460D01*
X145178236Y-137688820D01*
X145294516Y-137862846D01*
X145442506Y-138010836D01*
X145616532Y-138127116D01*
X145668776Y-138148756D01*
X145809893Y-138207209D01*
X146015161Y-138248039D01*
X146015165Y-138248040D01*
X146015166Y-138248040D01*
X146224461Y-138248040D01*
X146224462Y-138248039D01*
X146429733Y-138207209D01*
X146623095Y-138127115D01*
X146797117Y-138010838D01*
X146945111Y-137862844D01*
X147061388Y-137688822D01*
X147141482Y-137495460D01*
X147182313Y-137290187D01*
X147182313Y-136704893D01*
X147182312Y-136704888D01*
X147597313Y-136704888D01*
X147597313Y-137290191D01*
X147638142Y-137495452D01*
X147638144Y-137495460D01*
X147718236Y-137688820D01*
X147834516Y-137862846D01*
X147982506Y-138010836D01*
X148156532Y-138127116D01*
X148208776Y-138148756D01*
X148349893Y-138207209D01*
X148555161Y-138248039D01*
X148555165Y-138248040D01*
X148555166Y-138248040D01*
X148764461Y-138248040D01*
X148764462Y-138248039D01*
X148969733Y-138207209D01*
X149163095Y-138127115D01*
X149337117Y-138010838D01*
X149485111Y-137862844D01*
X149601388Y-137688822D01*
X149681482Y-137495460D01*
X149722313Y-137290187D01*
X149722313Y-136704893D01*
X149722312Y-136704888D01*
X150137313Y-136704888D01*
X150137313Y-137290191D01*
X150178142Y-137495452D01*
X150178144Y-137495460D01*
X150258236Y-137688820D01*
X150374516Y-137862846D01*
X150522506Y-138010836D01*
X150696532Y-138127116D01*
X150748776Y-138148756D01*
X150889893Y-138207209D01*
X151095161Y-138248039D01*
X151095165Y-138248040D01*
X151095166Y-138248040D01*
X151304461Y-138248040D01*
X151304462Y-138248039D01*
X151509733Y-138207209D01*
X151703095Y-138127115D01*
X151877117Y-138010838D01*
X152025111Y-137862844D01*
X152141388Y-137688822D01*
X152221482Y-137495460D01*
X152262313Y-137290187D01*
X152262313Y-136704893D01*
X152262312Y-136704888D01*
X152677313Y-136704888D01*
X152677313Y-137290191D01*
X152718142Y-137495452D01*
X152718144Y-137495460D01*
X152798236Y-137688820D01*
X152914516Y-137862846D01*
X153062506Y-138010836D01*
X153236532Y-138127116D01*
X153288776Y-138148756D01*
X153429893Y-138207209D01*
X153635161Y-138248039D01*
X153635165Y-138248040D01*
X153635166Y-138248040D01*
X153844461Y-138248040D01*
X153844462Y-138248039D01*
X154049733Y-138207209D01*
X154243095Y-138127115D01*
X154417117Y-138010838D01*
X154565111Y-137862844D01*
X154681388Y-137688822D01*
X154761482Y-137495460D01*
X154802313Y-137290187D01*
X154802313Y-136704893D01*
X154802312Y-136704888D01*
X155217313Y-136704888D01*
X155217313Y-137290191D01*
X155258142Y-137495452D01*
X155258144Y-137495460D01*
X155338236Y-137688820D01*
X155454516Y-137862846D01*
X155602506Y-138010836D01*
X155776532Y-138127116D01*
X155828776Y-138148756D01*
X155969893Y-138207209D01*
X156175161Y-138248039D01*
X156175165Y-138248040D01*
X156175166Y-138248040D01*
X156384461Y-138248040D01*
X156384462Y-138248039D01*
X156589733Y-138207209D01*
X156783095Y-138127115D01*
X156957117Y-138010838D01*
X157105111Y-137862844D01*
X157221388Y-137688822D01*
X157301482Y-137495460D01*
X157342313Y-137290187D01*
X157342313Y-136704893D01*
X157342312Y-136704888D01*
X157757313Y-136704888D01*
X157757313Y-137290191D01*
X157798142Y-137495452D01*
X157798144Y-137495460D01*
X157878236Y-137688820D01*
X157994516Y-137862846D01*
X158142506Y-138010836D01*
X158316532Y-138127116D01*
X158368776Y-138148756D01*
X158509893Y-138207209D01*
X158715161Y-138248039D01*
X158715165Y-138248040D01*
X158715166Y-138248040D01*
X158924461Y-138248040D01*
X158924462Y-138248039D01*
X159129733Y-138207209D01*
X159323095Y-138127115D01*
X159497117Y-138010838D01*
X159645111Y-137862844D01*
X159761388Y-137688822D01*
X159841482Y-137495460D01*
X159882313Y-137290187D01*
X159882313Y-136704893D01*
X159882312Y-136704888D01*
X160297313Y-136704888D01*
X160297313Y-137290191D01*
X160338142Y-137495452D01*
X160338144Y-137495460D01*
X160418236Y-137688820D01*
X160534516Y-137862846D01*
X160682506Y-138010836D01*
X160856532Y-138127116D01*
X160908776Y-138148756D01*
X161049893Y-138207209D01*
X161255161Y-138248039D01*
X161255165Y-138248040D01*
X161255166Y-138248040D01*
X161464461Y-138248040D01*
X161464462Y-138248039D01*
X161669733Y-138207209D01*
X161863095Y-138127115D01*
X162037117Y-138010838D01*
X162185111Y-137862844D01*
X162301388Y-137688822D01*
X162381482Y-137495460D01*
X162422313Y-137290187D01*
X162422313Y-136704893D01*
X162422312Y-136704888D01*
X162837313Y-136704888D01*
X162837313Y-137290191D01*
X162878142Y-137495452D01*
X162878144Y-137495460D01*
X162958236Y-137688820D01*
X163074516Y-137862846D01*
X163222506Y-138010836D01*
X163396532Y-138127116D01*
X163448776Y-138148756D01*
X163589893Y-138207209D01*
X163795161Y-138248039D01*
X163795165Y-138248040D01*
X163795166Y-138248040D01*
X164004461Y-138248040D01*
X164004462Y-138248039D01*
X164209733Y-138207209D01*
X164403095Y-138127115D01*
X164577117Y-138010838D01*
X164725111Y-137862844D01*
X164841388Y-137688822D01*
X164921482Y-137495460D01*
X164962313Y-137290187D01*
X164962313Y-136704893D01*
X164962312Y-136704888D01*
X165377313Y-136704888D01*
X165377313Y-137290191D01*
X165418142Y-137495452D01*
X165418144Y-137495460D01*
X165498236Y-137688820D01*
X165614516Y-137862846D01*
X165762506Y-138010836D01*
X165936532Y-138127116D01*
X165988776Y-138148756D01*
X166129893Y-138207209D01*
X166335161Y-138248039D01*
X166335165Y-138248040D01*
X166335166Y-138248040D01*
X166544461Y-138248040D01*
X166544462Y-138248039D01*
X166749733Y-138207209D01*
X166943095Y-138127115D01*
X167117117Y-138010838D01*
X167265111Y-137862844D01*
X167381388Y-137688822D01*
X167461482Y-137495460D01*
X167480959Y-137397540D01*
X167487289Y-137365720D01*
X167519673Y-137303809D01*
X167580389Y-137269235D01*
X167650159Y-137272974D01*
X167706831Y-137313840D01*
X167731379Y-137370513D01*
X167748888Y-137481060D01*
X167748888Y-137481063D01*
X167810270Y-137669977D01*
X167900454Y-137846972D01*
X168017216Y-138007679D01*
X168017216Y-138007680D01*
X168157672Y-138148136D01*
X168318380Y-138264898D01*
X168495375Y-138355082D01*
X168684286Y-138416462D01*
X168729813Y-138423673D01*
X168729813Y-137313226D01*
X168734207Y-137317620D01*
X168825419Y-137370281D01*
X168927152Y-137397540D01*
X169032474Y-137397540D01*
X169134207Y-137370281D01*
X169225419Y-137317620D01*
X169229813Y-137313226D01*
X169229813Y-138423672D01*
X169275339Y-138416462D01*
X169464250Y-138355082D01*
X169641245Y-138264898D01*
X169801952Y-138148136D01*
X169801953Y-138148136D01*
X169942409Y-138007680D01*
X169942409Y-138007679D01*
X170059171Y-137846972D01*
X170149355Y-137669977D01*
X170210735Y-137481067D01*
X170228245Y-137370514D01*
X170258175Y-137307379D01*
X170317486Y-137270447D01*
X170387348Y-137271445D01*
X170445581Y-137310054D01*
X170472336Y-137365719D01*
X170498142Y-137495454D01*
X170498144Y-137495460D01*
X170578236Y-137688820D01*
X170694516Y-137862846D01*
X170842506Y-138010836D01*
X171016532Y-138127116D01*
X171068776Y-138148756D01*
X171209893Y-138207209D01*
X171415161Y-138248039D01*
X171415165Y-138248040D01*
X171415166Y-138248040D01*
X171624461Y-138248040D01*
X171624462Y-138248039D01*
X171829733Y-138207209D01*
X172023095Y-138127115D01*
X172197117Y-138010838D01*
X172345111Y-137862844D01*
X172461388Y-137688822D01*
X172541482Y-137495460D01*
X172582313Y-137290187D01*
X172582313Y-136704893D01*
X172541482Y-136499620D01*
X172478355Y-136347219D01*
X172461389Y-136306259D01*
X172345109Y-136132233D01*
X172197119Y-135984243D01*
X172023093Y-135867963D01*
X171829733Y-135787871D01*
X171829725Y-135787869D01*
X171624464Y-135747040D01*
X171624460Y-135747040D01*
X171415166Y-135747040D01*
X171415161Y-135747040D01*
X171209900Y-135787869D01*
X171209892Y-135787871D01*
X171016532Y-135867963D01*
X170842506Y-135984243D01*
X170694516Y-136132233D01*
X170578236Y-136306259D01*
X170498144Y-136499619D01*
X170498142Y-136499625D01*
X170472336Y-136629360D01*
X170439951Y-136691271D01*
X170379235Y-136725845D01*
X170309465Y-136722104D01*
X170252794Y-136681238D01*
X170228246Y-136624565D01*
X170210738Y-136514020D01*
X170210737Y-136514016D01*
X170149355Y-136325102D01*
X170059171Y-136148107D01*
X169942409Y-135987400D01*
X169942409Y-135987399D01*
X169801953Y-135846943D01*
X169641245Y-135730181D01*
X169464247Y-135639996D01*
X169464249Y-135639996D01*
X169411174Y-135622752D01*
X169411173Y-135622752D01*
X169275328Y-135578614D01*
X169229813Y-135571405D01*
X169229813Y-136681854D01*
X169225419Y-136677460D01*
X169134207Y-136624799D01*
X169032474Y-136597540D01*
X168927152Y-136597540D01*
X168825419Y-136624799D01*
X168734207Y-136677460D01*
X168729813Y-136681854D01*
X168729813Y-135571405D01*
X168729812Y-135571405D01*
X168684295Y-135578614D01*
X168495377Y-135639996D01*
X168318380Y-135730181D01*
X168157673Y-135846943D01*
X168157672Y-135846943D01*
X168017216Y-135987399D01*
X168017216Y-135987400D01*
X167900454Y-136148107D01*
X167810270Y-136325102D01*
X167748888Y-136514016D01*
X167748888Y-136514019D01*
X167731379Y-136624566D01*
X167701450Y-136687701D01*
X167642138Y-136724632D01*
X167572276Y-136723634D01*
X167514043Y-136685024D01*
X167487289Y-136629359D01*
X167472553Y-136555282D01*
X167461482Y-136499620D01*
X167398355Y-136347219D01*
X167381389Y-136306259D01*
X167265109Y-136132233D01*
X167117119Y-135984243D01*
X166943093Y-135867963D01*
X166749733Y-135787871D01*
X166749725Y-135787869D01*
X166544464Y-135747040D01*
X166544460Y-135747040D01*
X166335166Y-135747040D01*
X166335161Y-135747040D01*
X166129900Y-135787869D01*
X166129892Y-135787871D01*
X165936532Y-135867963D01*
X165762506Y-135984243D01*
X165614516Y-136132233D01*
X165498236Y-136306259D01*
X165418144Y-136499619D01*
X165418142Y-136499627D01*
X165377313Y-136704888D01*
X164962312Y-136704888D01*
X164921482Y-136499620D01*
X164858355Y-136347219D01*
X164841389Y-136306259D01*
X164725109Y-136132233D01*
X164577119Y-135984243D01*
X164403093Y-135867963D01*
X164209733Y-135787871D01*
X164209725Y-135787869D01*
X164004464Y-135747040D01*
X164004460Y-135747040D01*
X163795166Y-135747040D01*
X163795161Y-135747040D01*
X163589900Y-135787869D01*
X163589892Y-135787871D01*
X163396532Y-135867963D01*
X163222506Y-135984243D01*
X163074516Y-136132233D01*
X162958236Y-136306259D01*
X162878144Y-136499619D01*
X162878142Y-136499627D01*
X162837313Y-136704888D01*
X162422312Y-136704888D01*
X162381482Y-136499620D01*
X162318355Y-136347219D01*
X162301389Y-136306259D01*
X162185109Y-136132233D01*
X162037119Y-135984243D01*
X161863093Y-135867963D01*
X161669733Y-135787871D01*
X161669725Y-135787869D01*
X161464464Y-135747040D01*
X161464460Y-135747040D01*
X161255166Y-135747040D01*
X161255161Y-135747040D01*
X161049900Y-135787869D01*
X161049892Y-135787871D01*
X160856532Y-135867963D01*
X160682506Y-135984243D01*
X160534516Y-136132233D01*
X160418236Y-136306259D01*
X160338144Y-136499619D01*
X160338142Y-136499627D01*
X160297313Y-136704888D01*
X159882312Y-136704888D01*
X159841482Y-136499620D01*
X159778355Y-136347219D01*
X159761389Y-136306259D01*
X159645109Y-136132233D01*
X159497119Y-135984243D01*
X159323093Y-135867963D01*
X159129733Y-135787871D01*
X159129725Y-135787869D01*
X158924464Y-135747040D01*
X158924460Y-135747040D01*
X158715166Y-135747040D01*
X158715161Y-135747040D01*
X158509900Y-135787869D01*
X158509892Y-135787871D01*
X158316532Y-135867963D01*
X158142506Y-135984243D01*
X157994516Y-136132233D01*
X157878236Y-136306259D01*
X157798144Y-136499619D01*
X157798142Y-136499627D01*
X157757313Y-136704888D01*
X157342312Y-136704888D01*
X157301482Y-136499620D01*
X157238355Y-136347219D01*
X157221389Y-136306259D01*
X157105109Y-136132233D01*
X156957119Y-135984243D01*
X156783093Y-135867963D01*
X156589733Y-135787871D01*
X156589725Y-135787869D01*
X156384464Y-135747040D01*
X156384460Y-135747040D01*
X156175166Y-135747040D01*
X156175161Y-135747040D01*
X155969900Y-135787869D01*
X155969892Y-135787871D01*
X155776532Y-135867963D01*
X155602506Y-135984243D01*
X155454516Y-136132233D01*
X155338236Y-136306259D01*
X155258144Y-136499619D01*
X155258142Y-136499627D01*
X155217313Y-136704888D01*
X154802312Y-136704888D01*
X154761482Y-136499620D01*
X154698355Y-136347219D01*
X154681389Y-136306259D01*
X154565109Y-136132233D01*
X154417119Y-135984243D01*
X154243093Y-135867963D01*
X154049733Y-135787871D01*
X154049725Y-135787869D01*
X153844464Y-135747040D01*
X153844460Y-135747040D01*
X153635166Y-135747040D01*
X153635161Y-135747040D01*
X153429900Y-135787869D01*
X153429892Y-135787871D01*
X153236532Y-135867963D01*
X153062506Y-135984243D01*
X152914516Y-136132233D01*
X152798236Y-136306259D01*
X152718144Y-136499619D01*
X152718142Y-136499627D01*
X152677313Y-136704888D01*
X152262312Y-136704888D01*
X152221482Y-136499620D01*
X152158355Y-136347219D01*
X152141389Y-136306259D01*
X152025109Y-136132233D01*
X151877119Y-135984243D01*
X151703093Y-135867963D01*
X151509733Y-135787871D01*
X151509725Y-135787869D01*
X151304464Y-135747040D01*
X151304460Y-135747040D01*
X151095166Y-135747040D01*
X151095161Y-135747040D01*
X150889900Y-135787869D01*
X150889892Y-135787871D01*
X150696532Y-135867963D01*
X150522506Y-135984243D01*
X150374516Y-136132233D01*
X150258236Y-136306259D01*
X150178144Y-136499619D01*
X150178142Y-136499627D01*
X150137313Y-136704888D01*
X149722312Y-136704888D01*
X149681482Y-136499620D01*
X149618355Y-136347219D01*
X149601389Y-136306259D01*
X149485109Y-136132233D01*
X149337119Y-135984243D01*
X149163093Y-135867963D01*
X148969733Y-135787871D01*
X148969725Y-135787869D01*
X148764464Y-135747040D01*
X148764460Y-135747040D01*
X148555166Y-135747040D01*
X148555161Y-135747040D01*
X148349900Y-135787869D01*
X148349892Y-135787871D01*
X148156532Y-135867963D01*
X147982506Y-135984243D01*
X147834516Y-136132233D01*
X147718236Y-136306259D01*
X147638144Y-136499619D01*
X147638142Y-136499627D01*
X147597313Y-136704888D01*
X147182312Y-136704888D01*
X147141482Y-136499620D01*
X147078355Y-136347219D01*
X147061389Y-136306259D01*
X146945109Y-136132233D01*
X146797119Y-135984243D01*
X146623093Y-135867963D01*
X146429733Y-135787871D01*
X146429725Y-135787869D01*
X146224464Y-135747040D01*
X146224460Y-135747040D01*
X146015166Y-135747040D01*
X146015161Y-135747040D01*
X145809900Y-135787869D01*
X145809892Y-135787871D01*
X145616532Y-135867963D01*
X145442506Y-135984243D01*
X145294516Y-136132233D01*
X145178236Y-136306259D01*
X145098144Y-136499619D01*
X145098142Y-136499627D01*
X145057313Y-136704888D01*
X144642312Y-136704888D01*
X144601482Y-136499620D01*
X144538355Y-136347219D01*
X144521389Y-136306259D01*
X144405109Y-136132233D01*
X144257119Y-135984243D01*
X144083093Y-135867963D01*
X143889733Y-135787871D01*
X143889725Y-135787869D01*
X143684464Y-135747040D01*
X143684460Y-135747040D01*
X143475166Y-135747040D01*
X143475161Y-135747040D01*
X143269900Y-135787869D01*
X143269892Y-135787871D01*
X143076532Y-135867963D01*
X142902506Y-135984243D01*
X142754516Y-136132233D01*
X142638236Y-136306259D01*
X142558144Y-136499619D01*
X142558142Y-136499627D01*
X142517313Y-136704888D01*
X142102312Y-136704888D01*
X142061482Y-136499620D01*
X141998355Y-136347219D01*
X141981389Y-136306259D01*
X141865109Y-136132233D01*
X141717119Y-135984243D01*
X141543093Y-135867963D01*
X141349733Y-135787871D01*
X141349725Y-135787869D01*
X141144464Y-135747040D01*
X141144460Y-135747040D01*
X140935166Y-135747040D01*
X140935161Y-135747040D01*
X140729900Y-135787869D01*
X140729892Y-135787871D01*
X140536532Y-135867963D01*
X140362506Y-135984243D01*
X140214516Y-136132233D01*
X140098236Y-136306259D01*
X140018144Y-136499619D01*
X140018142Y-136499627D01*
X139977313Y-136704888D01*
X139562312Y-136704888D01*
X139521482Y-136499620D01*
X139458355Y-136347219D01*
X139441389Y-136306259D01*
X139325109Y-136132233D01*
X139177119Y-135984243D01*
X139003093Y-135867963D01*
X138809733Y-135787871D01*
X138809725Y-135787869D01*
X138604464Y-135747040D01*
X138604460Y-135747040D01*
X138395166Y-135747040D01*
X138395161Y-135747040D01*
X138189900Y-135787869D01*
X138189892Y-135787871D01*
X137996532Y-135867963D01*
X137822506Y-135984243D01*
X137674516Y-136132233D01*
X137558236Y-136306259D01*
X137478144Y-136499619D01*
X137478142Y-136499627D01*
X137437313Y-136704888D01*
X137022312Y-136704888D01*
X136981482Y-136499620D01*
X136918355Y-136347219D01*
X136901389Y-136306259D01*
X136785109Y-136132233D01*
X136637119Y-135984243D01*
X136463093Y-135867963D01*
X136269733Y-135787871D01*
X136269725Y-135787869D01*
X136064464Y-135747040D01*
X136064460Y-135747040D01*
X135855166Y-135747040D01*
X135855161Y-135747040D01*
X135649900Y-135787869D01*
X135649892Y-135787871D01*
X135456532Y-135867963D01*
X135282506Y-135984243D01*
X135134516Y-136132233D01*
X135018236Y-136306259D01*
X134938144Y-136499619D01*
X134938142Y-136499627D01*
X134897313Y-136704888D01*
X132335165Y-136704888D01*
X132374475Y-136636801D01*
X132438041Y-136526700D01*
X132438046Y-136526690D01*
X132512388Y-136347213D01*
X132538398Y-136284419D01*
X132606270Y-136031116D01*
X132640500Y-135771120D01*
X132640500Y-135508880D01*
X132640499Y-135508872D01*
X174639500Y-135508872D01*
X174639500Y-135771127D01*
X174652250Y-135867965D01*
X174673730Y-136031116D01*
X174738831Y-136274076D01*
X174741602Y-136284418D01*
X174741605Y-136284428D01*
X174841953Y-136526690D01*
X174841958Y-136526700D01*
X174973075Y-136753803D01*
X175132718Y-136961851D01*
X175132726Y-136961860D01*
X175318140Y-137147274D01*
X175318148Y-137147281D01*
X175526196Y-137306924D01*
X175753299Y-137438041D01*
X175753309Y-137438046D01*
X175995571Y-137538394D01*
X175995581Y-137538398D01*
X176248884Y-137606270D01*
X176508880Y-137640500D01*
X176508887Y-137640500D01*
X176771113Y-137640500D01*
X176771120Y-137640500D01*
X177031116Y-137606270D01*
X177284419Y-137538398D01*
X177526697Y-137438043D01*
X177753803Y-137306924D01*
X177961851Y-137147282D01*
X177961855Y-137147277D01*
X177961860Y-137147274D01*
X178147274Y-136961860D01*
X178147277Y-136961855D01*
X178147282Y-136961851D01*
X178306924Y-136753803D01*
X178438043Y-136526697D01*
X178538398Y-136284419D01*
X178606270Y-136031116D01*
X178640500Y-135771120D01*
X178640500Y-135508880D01*
X178625856Y-135397648D01*
X191143865Y-135397648D01*
X191143865Y-135602351D01*
X191175887Y-135804534D01*
X191239146Y-135999223D01*
X191296182Y-136111161D01*
X191315007Y-136148107D01*
X191332080Y-136181613D01*
X191452393Y-136347213D01*
X191597151Y-136491971D01*
X191742457Y-136597540D01*
X191762755Y-136612287D01*
X191878972Y-136671503D01*
X191945141Y-136705218D01*
X191945143Y-136705218D01*
X191945146Y-136705220D01*
X192049502Y-136739127D01*
X192139830Y-136768477D01*
X192240922Y-136784488D01*
X192342013Y-136800500D01*
X192342014Y-136800500D01*
X192546716Y-136800500D01*
X192546717Y-136800500D01*
X192748899Y-136768477D01*
X192943584Y-136705220D01*
X193125975Y-136612287D01*
X193218955Y-136544732D01*
X193291578Y-136491971D01*
X193291580Y-136491968D01*
X193291584Y-136491966D01*
X193436331Y-136347219D01*
X193436333Y-136347215D01*
X193436336Y-136347213D01*
X193489472Y-136274076D01*
X193556652Y-136181610D01*
X193649585Y-135999219D01*
X193712842Y-135804534D01*
X193744865Y-135602352D01*
X193744865Y-135397648D01*
X195143865Y-135397648D01*
X195143865Y-135602351D01*
X195175887Y-135804534D01*
X195239146Y-135999223D01*
X195296182Y-136111161D01*
X195315007Y-136148107D01*
X195332080Y-136181613D01*
X195452393Y-136347213D01*
X195597151Y-136491971D01*
X195742457Y-136597540D01*
X195762755Y-136612287D01*
X195878972Y-136671503D01*
X195945141Y-136705218D01*
X195945143Y-136705218D01*
X195945146Y-136705220D01*
X196049502Y-136739127D01*
X196139830Y-136768477D01*
X196240922Y-136784488D01*
X196342013Y-136800500D01*
X196342014Y-136800500D01*
X196546716Y-136800500D01*
X196546717Y-136800500D01*
X196748899Y-136768477D01*
X196943584Y-136705220D01*
X197125975Y-136612287D01*
X197218955Y-136544732D01*
X197291578Y-136491971D01*
X197291580Y-136491968D01*
X197291584Y-136491966D01*
X197436331Y-136347219D01*
X197436333Y-136347215D01*
X197436336Y-136347213D01*
X197489472Y-136274076D01*
X197556652Y-136181610D01*
X197583880Y-136128171D01*
X197631855Y-136077376D01*
X197699676Y-136060581D01*
X197765811Y-136083118D01*
X197804849Y-136128171D01*
X197815007Y-136148107D01*
X197832080Y-136181613D01*
X197952393Y-136347213D01*
X198097151Y-136491971D01*
X198242457Y-136597540D01*
X198262755Y-136612287D01*
X198378972Y-136671503D01*
X198445141Y-136705218D01*
X198445143Y-136705218D01*
X198445146Y-136705220D01*
X198549502Y-136739127D01*
X198639830Y-136768477D01*
X198740922Y-136784488D01*
X198842013Y-136800500D01*
X198842014Y-136800500D01*
X199046716Y-136800500D01*
X199046717Y-136800500D01*
X199248899Y-136768477D01*
X199443584Y-136705220D01*
X199625975Y-136612287D01*
X199718955Y-136544732D01*
X199791578Y-136491971D01*
X199791580Y-136491968D01*
X199791584Y-136491966D01*
X199936331Y-136347219D01*
X199936333Y-136347215D01*
X199936336Y-136347213D01*
X199989472Y-136274076D01*
X200056652Y-136181610D01*
X200149585Y-135999219D01*
X200212842Y-135804534D01*
X200244865Y-135602352D01*
X200244865Y-135397648D01*
X201643865Y-135397648D01*
X201643865Y-135602351D01*
X201675887Y-135804534D01*
X201739146Y-135999223D01*
X201796182Y-136111161D01*
X201815007Y-136148107D01*
X201832080Y-136181613D01*
X201952393Y-136347213D01*
X202097151Y-136491971D01*
X202242457Y-136597540D01*
X202262755Y-136612287D01*
X202378972Y-136671503D01*
X202445141Y-136705218D01*
X202445143Y-136705218D01*
X202445146Y-136705220D01*
X202549502Y-136739127D01*
X202639830Y-136768477D01*
X202740922Y-136784488D01*
X202842013Y-136800500D01*
X202842014Y-136800500D01*
X203046716Y-136800500D01*
X203046717Y-136800500D01*
X203248899Y-136768477D01*
X203443584Y-136705220D01*
X203625975Y-136612287D01*
X203718955Y-136544732D01*
X203791578Y-136491971D01*
X203791580Y-136491968D01*
X203791584Y-136491966D01*
X203936331Y-136347219D01*
X203936333Y-136347215D01*
X203936336Y-136347213D01*
X203989472Y-136274076D01*
X204056652Y-136181610D01*
X204149585Y-135999219D01*
X204212842Y-135804534D01*
X204244865Y-135602352D01*
X204244865Y-135397648D01*
X204212842Y-135195466D01*
X204204190Y-135168839D01*
X204183492Y-135105137D01*
X204149585Y-135000781D01*
X204149583Y-135000778D01*
X204149583Y-135000776D01*
X204083880Y-134871828D01*
X204056652Y-134818390D01*
X204048921Y-134807749D01*
X203936336Y-134652786D01*
X203791578Y-134508028D01*
X203625978Y-134387715D01*
X203625977Y-134387714D01*
X203625975Y-134387713D01*
X203569018Y-134358691D01*
X203443588Y-134294781D01*
X203248899Y-134231522D01*
X203074360Y-134203878D01*
X203046717Y-134199500D01*
X202842013Y-134199500D01*
X202817694Y-134203351D01*
X202639830Y-134231522D01*
X202445141Y-134294781D01*
X202262751Y-134387715D01*
X202097151Y-134508028D01*
X201952393Y-134652786D01*
X201832080Y-134818386D01*
X201739146Y-135000776D01*
X201675887Y-135195465D01*
X201643865Y-135397648D01*
X200244865Y-135397648D01*
X200212842Y-135195466D01*
X200204190Y-135168839D01*
X200183492Y-135105137D01*
X200149585Y-135000781D01*
X200149583Y-135000778D01*
X200149583Y-135000776D01*
X200083880Y-134871828D01*
X200056652Y-134818390D01*
X200048921Y-134807749D01*
X199936336Y-134652786D01*
X199791578Y-134508028D01*
X199625978Y-134387715D01*
X199625977Y-134387714D01*
X199625975Y-134387713D01*
X199569018Y-134358691D01*
X199443588Y-134294781D01*
X199248899Y-134231522D01*
X199074360Y-134203878D01*
X199046717Y-134199500D01*
X198842013Y-134199500D01*
X198817694Y-134203351D01*
X198639830Y-134231522D01*
X198445141Y-134294781D01*
X198262751Y-134387715D01*
X198097151Y-134508028D01*
X197952393Y-134652786D01*
X197832078Y-134818388D01*
X197804849Y-134871828D01*
X197756875Y-134922623D01*
X197689053Y-134939418D01*
X197622919Y-134916880D01*
X197583881Y-134871828D01*
X197556651Y-134818388D01*
X197436336Y-134652786D01*
X197291578Y-134508028D01*
X197125978Y-134387715D01*
X197125977Y-134387714D01*
X197125975Y-134387713D01*
X197069018Y-134358691D01*
X196943588Y-134294781D01*
X196748899Y-134231522D01*
X196574360Y-134203878D01*
X196546717Y-134199500D01*
X196342013Y-134199500D01*
X196317694Y-134203351D01*
X196139830Y-134231522D01*
X195945141Y-134294781D01*
X195762751Y-134387715D01*
X195597151Y-134508028D01*
X195452393Y-134652786D01*
X195332080Y-134818386D01*
X195239146Y-135000776D01*
X195175887Y-135195465D01*
X195143865Y-135397648D01*
X193744865Y-135397648D01*
X193712842Y-135195466D01*
X193704190Y-135168839D01*
X193683492Y-135105137D01*
X193649585Y-135000781D01*
X193649583Y-135000778D01*
X193649583Y-135000776D01*
X193583880Y-134871828D01*
X193556652Y-134818390D01*
X193548921Y-134807749D01*
X193436336Y-134652786D01*
X193291578Y-134508028D01*
X193125978Y-134387715D01*
X193125977Y-134387714D01*
X193125975Y-134387713D01*
X193069018Y-134358691D01*
X192943588Y-134294781D01*
X192748899Y-134231522D01*
X192574360Y-134203878D01*
X192546717Y-134199500D01*
X192342013Y-134199500D01*
X192317694Y-134203351D01*
X192139830Y-134231522D01*
X191945141Y-134294781D01*
X191762751Y-134387715D01*
X191597151Y-134508028D01*
X191452393Y-134652786D01*
X191332080Y-134818386D01*
X191239146Y-135000776D01*
X191175887Y-135195465D01*
X191143865Y-135397648D01*
X178625856Y-135397648D01*
X178606270Y-135248884D01*
X178538398Y-134995581D01*
X178521679Y-134955218D01*
X178438046Y-134753309D01*
X178438041Y-134753299D01*
X178306924Y-134526196D01*
X178147281Y-134318148D01*
X178147274Y-134318140D01*
X177961860Y-134132726D01*
X177961851Y-134132718D01*
X177753803Y-133973075D01*
X177526700Y-133841958D01*
X177526690Y-133841953D01*
X177284428Y-133741605D01*
X177284421Y-133741603D01*
X177284419Y-133741602D01*
X177031116Y-133673730D01*
X176973339Y-133666123D01*
X176771127Y-133639500D01*
X176771120Y-133639500D01*
X176508880Y-133639500D01*
X176508872Y-133639500D01*
X176277772Y-133669926D01*
X176248884Y-133673730D01*
X176167764Y-133695466D01*
X175995581Y-133741602D01*
X175995571Y-133741605D01*
X175753309Y-133841953D01*
X175753299Y-133841958D01*
X175526196Y-133973075D01*
X175318148Y-134132718D01*
X175132718Y-134318148D01*
X174973075Y-134526196D01*
X174841958Y-134753299D01*
X174841953Y-134753309D01*
X174741605Y-134995571D01*
X174741602Y-134995581D01*
X174673730Y-135248884D01*
X174669926Y-135277772D01*
X174639500Y-135508872D01*
X132640499Y-135508872D01*
X132606270Y-135248884D01*
X132538398Y-134995581D01*
X132521679Y-134955218D01*
X132438046Y-134753309D01*
X132438041Y-134753299D01*
X132306924Y-134526196D01*
X132147281Y-134318148D01*
X132147274Y-134318140D01*
X131961860Y-134132726D01*
X131961851Y-134132718D01*
X131753803Y-133973075D01*
X131526700Y-133841958D01*
X131526690Y-133841953D01*
X131284428Y-133741605D01*
X131284421Y-133741603D01*
X131284419Y-133741602D01*
X131031116Y-133673730D01*
X130973339Y-133666123D01*
X130771127Y-133639500D01*
X130771120Y-133639500D01*
X130508880Y-133639500D01*
X130508872Y-133639500D01*
X130277772Y-133669926D01*
X130248884Y-133673730D01*
X130167764Y-133695466D01*
X129995581Y-133741602D01*
X129995571Y-133741605D01*
X129753309Y-133841953D01*
X129753299Y-133841958D01*
X129526196Y-133973075D01*
X129318148Y-134132718D01*
X129132718Y-134318148D01*
X128973075Y-134526196D01*
X128841958Y-134753299D01*
X128841953Y-134753309D01*
X128741605Y-134995571D01*
X128741602Y-134995581D01*
X128673730Y-135248884D01*
X128669926Y-135277772D01*
X128639500Y-135508872D01*
X95035901Y-135508872D01*
X95035909Y-135504587D01*
X95037329Y-134753299D01*
X95038947Y-133897648D01*
X101699500Y-133897648D01*
X101699500Y-134102351D01*
X101731522Y-134304534D01*
X101794781Y-134499223D01*
X101858691Y-134624653D01*
X101873026Y-134652786D01*
X101887715Y-134681613D01*
X102008028Y-134847213D01*
X102152786Y-134991971D01*
X102307749Y-135104556D01*
X102318390Y-135112287D01*
X102429379Y-135168839D01*
X102500776Y-135205218D01*
X102500778Y-135205218D01*
X102500781Y-135205220D01*
X102605137Y-135239127D01*
X102695465Y-135268477D01*
X102796557Y-135284488D01*
X102897648Y-135300500D01*
X102897649Y-135300500D01*
X103102351Y-135300500D01*
X103102352Y-135300500D01*
X103304534Y-135268477D01*
X103499219Y-135205220D01*
X103681610Y-135112287D01*
X103774590Y-135044732D01*
X103847213Y-134991971D01*
X103847215Y-134991968D01*
X103847219Y-134991966D01*
X103991966Y-134847219D01*
X103991968Y-134847215D01*
X103991971Y-134847213D01*
X104060202Y-134753299D01*
X104112287Y-134681610D01*
X104205220Y-134499219D01*
X104268477Y-134304534D01*
X104300500Y-134102352D01*
X104300500Y-133897648D01*
X108199500Y-133897648D01*
X108199500Y-134102351D01*
X108231522Y-134304534D01*
X108294781Y-134499223D01*
X108358691Y-134624653D01*
X108373026Y-134652786D01*
X108387715Y-134681613D01*
X108508028Y-134847213D01*
X108652786Y-134991971D01*
X108807749Y-135104556D01*
X108818390Y-135112287D01*
X108929379Y-135168839D01*
X109000776Y-135205218D01*
X109000778Y-135205218D01*
X109000781Y-135205220D01*
X109105137Y-135239127D01*
X109195465Y-135268477D01*
X109296557Y-135284488D01*
X109397648Y-135300500D01*
X109397649Y-135300500D01*
X109602351Y-135300500D01*
X109602352Y-135300500D01*
X109804534Y-135268477D01*
X109999219Y-135205220D01*
X110181610Y-135112287D01*
X110274590Y-135044732D01*
X110347213Y-134991971D01*
X110347215Y-134991968D01*
X110347219Y-134991966D01*
X110491966Y-134847219D01*
X110491968Y-134847215D01*
X110491971Y-134847213D01*
X110560202Y-134753299D01*
X110612287Y-134681610D01*
X110705220Y-134499219D01*
X110768477Y-134304534D01*
X110800500Y-134102352D01*
X110800500Y-133897648D01*
X110768477Y-133695466D01*
X110768476Y-133695462D01*
X110768476Y-133695461D01*
X110763808Y-133681094D01*
X110752941Y-133647648D01*
X113449500Y-133647648D01*
X113449500Y-133852351D01*
X113481522Y-134054534D01*
X113544781Y-134249223D01*
X113637715Y-134431613D01*
X113758028Y-134597213D01*
X113902786Y-134741971D01*
X114057749Y-134854556D01*
X114068390Y-134862287D01*
X114175535Y-134916880D01*
X114250776Y-134955218D01*
X114250778Y-134955218D01*
X114250781Y-134955220D01*
X114355137Y-134989127D01*
X114445465Y-135018477D01*
X114546557Y-135034488D01*
X114647648Y-135050500D01*
X114647649Y-135050500D01*
X114852351Y-135050500D01*
X114852352Y-135050500D01*
X115054534Y-135018477D01*
X115249219Y-134955220D01*
X115431610Y-134862287D01*
X115524590Y-134794732D01*
X115597213Y-134741971D01*
X115597215Y-134741968D01*
X115597219Y-134741966D01*
X115741966Y-134597219D01*
X115741968Y-134597215D01*
X115741971Y-134597213D01*
X115806762Y-134508034D01*
X115862287Y-134431610D01*
X115955220Y-134249219D01*
X116018477Y-134054534D01*
X116050500Y-133852352D01*
X116050500Y-133647648D01*
X119949500Y-133647648D01*
X119949500Y-133852351D01*
X119981522Y-134054534D01*
X120044781Y-134249223D01*
X120137715Y-134431613D01*
X120258028Y-134597213D01*
X120402786Y-134741971D01*
X120557749Y-134854556D01*
X120568390Y-134862287D01*
X120675535Y-134916880D01*
X120750776Y-134955218D01*
X120750778Y-134955218D01*
X120750781Y-134955220D01*
X120855137Y-134989127D01*
X120945465Y-135018477D01*
X121046557Y-135034488D01*
X121147648Y-135050500D01*
X121147649Y-135050500D01*
X121352351Y-135050500D01*
X121352352Y-135050500D01*
X121554534Y-135018477D01*
X121749219Y-134955220D01*
X121931610Y-134862287D01*
X122024590Y-134794732D01*
X122097213Y-134741971D01*
X122097215Y-134741968D01*
X122097219Y-134741966D01*
X122241966Y-134597219D01*
X122241968Y-134597215D01*
X122241971Y-134597213D01*
X122306762Y-134508034D01*
X122362287Y-134431610D01*
X122455220Y-134249219D01*
X122518477Y-134054534D01*
X122550500Y-133852352D01*
X122550500Y-133647648D01*
X122518477Y-133445466D01*
X122455220Y-133250781D01*
X122455218Y-133250778D01*
X122455218Y-133250776D01*
X122405286Y-133152781D01*
X122362287Y-133068390D01*
X122354556Y-133057749D01*
X122241971Y-132902786D01*
X122097213Y-132758028D01*
X121931613Y-132637715D01*
X121931612Y-132637714D01*
X121931610Y-132637713D01*
X121874653Y-132608691D01*
X121749223Y-132544781D01*
X121554534Y-132481522D01*
X121379995Y-132453878D01*
X121352352Y-132449500D01*
X121147648Y-132449500D01*
X121123329Y-132453351D01*
X120945465Y-132481522D01*
X120750776Y-132544781D01*
X120568386Y-132637715D01*
X120402786Y-132758028D01*
X120258028Y-132902786D01*
X120137715Y-133068386D01*
X120044781Y-133250776D01*
X119981522Y-133445465D01*
X119949500Y-133647648D01*
X116050500Y-133647648D01*
X116018477Y-133445466D01*
X115955220Y-133250781D01*
X115955218Y-133250778D01*
X115955218Y-133250776D01*
X115905286Y-133152781D01*
X115862287Y-133068390D01*
X115854556Y-133057749D01*
X115741971Y-132902786D01*
X115597213Y-132758028D01*
X115431613Y-132637715D01*
X115431612Y-132637714D01*
X115431610Y-132637713D01*
X115374653Y-132608691D01*
X115249223Y-132544781D01*
X115054534Y-132481522D01*
X114879995Y-132453878D01*
X114852352Y-132449500D01*
X114647648Y-132449500D01*
X114623329Y-132453351D01*
X114445465Y-132481522D01*
X114250776Y-132544781D01*
X114068386Y-132637715D01*
X113902786Y-132758028D01*
X113758028Y-132902786D01*
X113637715Y-133068386D01*
X113544781Y-133250776D01*
X113481522Y-133445465D01*
X113449500Y-133647648D01*
X110752941Y-133647648D01*
X110705218Y-133500776D01*
X110671503Y-133434607D01*
X110612287Y-133318390D01*
X110563163Y-133250776D01*
X110491971Y-133152786D01*
X110347213Y-133008028D01*
X110181613Y-132887715D01*
X110181612Y-132887714D01*
X110181610Y-132887713D01*
X110099257Y-132845752D01*
X109999223Y-132794781D01*
X109804534Y-132731522D01*
X109629995Y-132703878D01*
X109602352Y-132699500D01*
X109397648Y-132699500D01*
X109373329Y-132703351D01*
X109195465Y-132731522D01*
X109000776Y-132794781D01*
X108818386Y-132887715D01*
X108652786Y-133008028D01*
X108508028Y-133152786D01*
X108387715Y-133318386D01*
X108294781Y-133500776D01*
X108231522Y-133695465D01*
X108199500Y-133897648D01*
X104300500Y-133897648D01*
X104268477Y-133695466D01*
X104268476Y-133695464D01*
X104205218Y-133500776D01*
X104171503Y-133434607D01*
X104112287Y-133318390D01*
X104063163Y-133250776D01*
X103991971Y-133152786D01*
X103847213Y-133008028D01*
X103681613Y-132887715D01*
X103681612Y-132887714D01*
X103681610Y-132887713D01*
X103599257Y-132845752D01*
X103499223Y-132794781D01*
X103304534Y-132731522D01*
X103129995Y-132703878D01*
X103102352Y-132699500D01*
X102897648Y-132699500D01*
X102873329Y-132703351D01*
X102695465Y-132731522D01*
X102500776Y-132794781D01*
X102318386Y-132887715D01*
X102152786Y-133008028D01*
X102008028Y-133152786D01*
X101887715Y-133318386D01*
X101794781Y-133500776D01*
X101731522Y-133695465D01*
X101699500Y-133897648D01*
X95038947Y-133897648D01*
X95040935Y-132845752D01*
X95042203Y-132175165D01*
X95044424Y-130999999D01*
X95044647Y-130881947D01*
X190944365Y-130881947D01*
X190944365Y-131118052D01*
X190981299Y-131351247D01*
X191054262Y-131575802D01*
X191161452Y-131786174D01*
X191221703Y-131869104D01*
X191221705Y-131869105D01*
X191920577Y-131170233D01*
X191931847Y-131212292D01*
X192004255Y-131337708D01*
X192106657Y-131440110D01*
X192232073Y-131512518D01*
X192274130Y-131523787D01*
X191575258Y-132222658D01*
X191658193Y-132282914D01*
X191868562Y-132390102D01*
X192093117Y-132463065D01*
X192093116Y-132463065D01*
X192326313Y-132500000D01*
X192562417Y-132500000D01*
X192795612Y-132463065D01*
X193020167Y-132390102D01*
X193230528Y-132282918D01*
X193230534Y-132282914D01*
X193313469Y-132222658D01*
X193313470Y-132222658D01*
X192614598Y-131523787D01*
X192656657Y-131512518D01*
X192782073Y-131440110D01*
X192884475Y-131337708D01*
X192956883Y-131212292D01*
X192968152Y-131170234D01*
X193667023Y-131869105D01*
X193667023Y-131869104D01*
X193727279Y-131786169D01*
X193727283Y-131786163D01*
X193834467Y-131575802D01*
X193907430Y-131351247D01*
X193944365Y-131118052D01*
X193944365Y-130881947D01*
X194944365Y-130881947D01*
X194944365Y-131118052D01*
X194981299Y-131351247D01*
X195054262Y-131575802D01*
X195161452Y-131786174D01*
X195221703Y-131869104D01*
X195221705Y-131869105D01*
X195920577Y-131170233D01*
X195931847Y-131212292D01*
X196004255Y-131337708D01*
X196106657Y-131440110D01*
X196232073Y-131512518D01*
X196274130Y-131523787D01*
X195575258Y-132222658D01*
X195658193Y-132282914D01*
X195868562Y-132390102D01*
X196093117Y-132463065D01*
X196093116Y-132463065D01*
X196326313Y-132500000D01*
X196562417Y-132500000D01*
X196795612Y-132463065D01*
X197020167Y-132390102D01*
X197230528Y-132282918D01*
X197230534Y-132282914D01*
X197313469Y-132222658D01*
X197313470Y-132222658D01*
X196614598Y-131523787D01*
X196656657Y-131512518D01*
X196782073Y-131440110D01*
X196884475Y-131337708D01*
X196956883Y-131212292D01*
X196968152Y-131170233D01*
X197667022Y-131869104D01*
X197684638Y-131867718D01*
X197704099Y-131867718D01*
X197721706Y-131869103D01*
X198420577Y-131170233D01*
X198431847Y-131212292D01*
X198504255Y-131337708D01*
X198606657Y-131440110D01*
X198732073Y-131512518D01*
X198774130Y-131523787D01*
X198075258Y-132222658D01*
X198158193Y-132282914D01*
X198368562Y-132390102D01*
X198593117Y-132463065D01*
X198593116Y-132463065D01*
X198826313Y-132500000D01*
X199062417Y-132500000D01*
X199295612Y-132463065D01*
X199520167Y-132390102D01*
X199730528Y-132282918D01*
X199730534Y-132282914D01*
X199813469Y-132222658D01*
X199813470Y-132222658D01*
X199114598Y-131523787D01*
X199156657Y-131512518D01*
X199282073Y-131440110D01*
X199384475Y-131337708D01*
X199456883Y-131212292D01*
X199468152Y-131170233D01*
X200167023Y-131869105D01*
X200167023Y-131869104D01*
X200227279Y-131786169D01*
X200227283Y-131786163D01*
X200334467Y-131575802D01*
X200407430Y-131351247D01*
X200444365Y-131118052D01*
X200444365Y-130881947D01*
X201444365Y-130881947D01*
X201444365Y-131118052D01*
X201481299Y-131351247D01*
X201554262Y-131575802D01*
X201661452Y-131786174D01*
X201721703Y-131869104D01*
X201721705Y-131869105D01*
X202420577Y-131170233D01*
X202431847Y-131212292D01*
X202504255Y-131337708D01*
X202606657Y-131440110D01*
X202732073Y-131512518D01*
X202774130Y-131523787D01*
X202075258Y-132222658D01*
X202158193Y-132282914D01*
X202368562Y-132390102D01*
X202593117Y-132463065D01*
X202593116Y-132463065D01*
X202826313Y-132500000D01*
X203062417Y-132500000D01*
X203295612Y-132463065D01*
X203520167Y-132390102D01*
X203730528Y-132282918D01*
X203730534Y-132282914D01*
X203813469Y-132222658D01*
X203813470Y-132222658D01*
X203114598Y-131523787D01*
X203156657Y-131512518D01*
X203282073Y-131440110D01*
X203384475Y-131337708D01*
X203456883Y-131212292D01*
X203468152Y-131170233D01*
X204167023Y-131869105D01*
X204167023Y-131869104D01*
X204227279Y-131786169D01*
X204227283Y-131786163D01*
X204334467Y-131575802D01*
X204407430Y-131351247D01*
X204444365Y-131118052D01*
X204444365Y-130881947D01*
X204407430Y-130648752D01*
X204334467Y-130424197D01*
X204227279Y-130213828D01*
X204167023Y-130130894D01*
X204167023Y-130130893D01*
X203468152Y-130829765D01*
X203456883Y-130787708D01*
X203384475Y-130662292D01*
X203282073Y-130559890D01*
X203156657Y-130487482D01*
X203114599Y-130476212D01*
X203813470Y-129777340D01*
X203813469Y-129777338D01*
X203730539Y-129717087D01*
X203520167Y-129609897D01*
X203295612Y-129536934D01*
X203295613Y-129536934D01*
X203062417Y-129500000D01*
X202826313Y-129500000D01*
X202593117Y-129536934D01*
X202368562Y-129609897D01*
X202158195Y-129717084D01*
X202075259Y-129777340D01*
X202774131Y-130476212D01*
X202732073Y-130487482D01*
X202606657Y-130559890D01*
X202504255Y-130662292D01*
X202431847Y-130787708D01*
X202420577Y-130829766D01*
X201721705Y-130130894D01*
X201661449Y-130213830D01*
X201554262Y-130424197D01*
X201481299Y-130648752D01*
X201444365Y-130881947D01*
X200444365Y-130881947D01*
X200407430Y-130648752D01*
X200334467Y-130424197D01*
X200227279Y-130213828D01*
X200167023Y-130130894D01*
X200167023Y-130130893D01*
X199468152Y-130829765D01*
X199456883Y-130787708D01*
X199384475Y-130662292D01*
X199282073Y-130559890D01*
X199156657Y-130487482D01*
X199114599Y-130476212D01*
X199813470Y-129777340D01*
X199813469Y-129777339D01*
X199730539Y-129717087D01*
X199520167Y-129609897D01*
X199295612Y-129536934D01*
X199295613Y-129536934D01*
X199062417Y-129500000D01*
X198826313Y-129500000D01*
X198593117Y-129536934D01*
X198368562Y-129609897D01*
X198158195Y-129717084D01*
X198075259Y-129777340D01*
X198774131Y-130476212D01*
X198732073Y-130487482D01*
X198606657Y-130559890D01*
X198504255Y-130662292D01*
X198431847Y-130787708D01*
X198420577Y-130829766D01*
X197721705Y-130130894D01*
X197704097Y-130132280D01*
X197684640Y-130132280D01*
X197667023Y-130130893D01*
X196968152Y-130829765D01*
X196956883Y-130787708D01*
X196884475Y-130662292D01*
X196782073Y-130559890D01*
X196656657Y-130487482D01*
X196614599Y-130476212D01*
X197313470Y-129777340D01*
X197313469Y-129777339D01*
X197230539Y-129717087D01*
X197020167Y-129609897D01*
X196795612Y-129536934D01*
X196795613Y-129536934D01*
X196562417Y-129500000D01*
X196326313Y-129500000D01*
X196093117Y-129536934D01*
X195868562Y-129609897D01*
X195658195Y-129717084D01*
X195575259Y-129777340D01*
X196274131Y-130476212D01*
X196232073Y-130487482D01*
X196106657Y-130559890D01*
X196004255Y-130662292D01*
X195931847Y-130787708D01*
X195920577Y-130829765D01*
X195221705Y-130130894D01*
X195161449Y-130213830D01*
X195054262Y-130424197D01*
X194981299Y-130648752D01*
X194944365Y-130881947D01*
X193944365Y-130881947D01*
X193907430Y-130648752D01*
X193834467Y-130424197D01*
X193727279Y-130213828D01*
X193667023Y-130130894D01*
X193667023Y-130130893D01*
X192968152Y-130829765D01*
X192956883Y-130787708D01*
X192884475Y-130662292D01*
X192782073Y-130559890D01*
X192656657Y-130487482D01*
X192614599Y-130476212D01*
X193313470Y-129777340D01*
X193313469Y-129777339D01*
X193230539Y-129717087D01*
X193020167Y-129609897D01*
X192795612Y-129536934D01*
X192795613Y-129536934D01*
X192562417Y-129500000D01*
X192326313Y-129500000D01*
X192093117Y-129536934D01*
X191868562Y-129609897D01*
X191658195Y-129717084D01*
X191575259Y-129777340D01*
X192274131Y-130476212D01*
X192232073Y-130487482D01*
X192106657Y-130559890D01*
X192004255Y-130662292D01*
X191931847Y-130787708D01*
X191920577Y-130829765D01*
X191221705Y-130130894D01*
X191161449Y-130213830D01*
X191054262Y-130424197D01*
X190981299Y-130648752D01*
X190944365Y-130881947D01*
X95044647Y-130881947D01*
X95048872Y-128647648D01*
X106449500Y-128647648D01*
X106449500Y-128852351D01*
X106481522Y-129054534D01*
X106544781Y-129249223D01*
X106637715Y-129431613D01*
X106758028Y-129597213D01*
X106902786Y-129741971D01*
X107057749Y-129854556D01*
X107068390Y-129862287D01*
X107184607Y-129921503D01*
X107250776Y-129955218D01*
X107250778Y-129955218D01*
X107250781Y-129955220D01*
X107355137Y-129989127D01*
X107445465Y-130018477D01*
X107546557Y-130034488D01*
X107647648Y-130050500D01*
X107647649Y-130050500D01*
X107852351Y-130050500D01*
X107852352Y-130050500D01*
X108054534Y-130018477D01*
X108249219Y-129955220D01*
X108431610Y-129862287D01*
X108524590Y-129794732D01*
X108597213Y-129741971D01*
X108597215Y-129741968D01*
X108597219Y-129741966D01*
X108741966Y-129597219D01*
X108741968Y-129597215D01*
X108741971Y-129597213D01*
X108812599Y-129500000D01*
X108862287Y-129431610D01*
X108955220Y-129249219D01*
X109018477Y-129054534D01*
X109050500Y-128852352D01*
X109050500Y-128647648D01*
X112949500Y-128647648D01*
X112949500Y-128852351D01*
X112981522Y-129054534D01*
X113044781Y-129249223D01*
X113137715Y-129431613D01*
X113258028Y-129597213D01*
X113402786Y-129741971D01*
X113557749Y-129854556D01*
X113568390Y-129862287D01*
X113684607Y-129921503D01*
X113750776Y-129955218D01*
X113750778Y-129955218D01*
X113750781Y-129955220D01*
X113855137Y-129989127D01*
X113945465Y-130018477D01*
X114046557Y-130034488D01*
X114147648Y-130050500D01*
X114147649Y-130050500D01*
X114352351Y-130050500D01*
X114352352Y-130050500D01*
X114554534Y-130018477D01*
X114749219Y-129955220D01*
X114931610Y-129862287D01*
X115024590Y-129794732D01*
X115097213Y-129741971D01*
X115097215Y-129741968D01*
X115097219Y-129741966D01*
X115241966Y-129597219D01*
X115241968Y-129597215D01*
X115241971Y-129597213D01*
X115312599Y-129500000D01*
X115362287Y-129431610D01*
X115455220Y-129249219D01*
X115518477Y-129054534D01*
X115550500Y-128852352D01*
X115550500Y-128647648D01*
X115518477Y-128445466D01*
X115455220Y-128250781D01*
X115455218Y-128250778D01*
X115455218Y-128250776D01*
X115421503Y-128184607D01*
X115362287Y-128068390D01*
X115354556Y-128057749D01*
X115241971Y-127902786D01*
X115097213Y-127758028D01*
X114931613Y-127637715D01*
X114931612Y-127637714D01*
X114931610Y-127637713D01*
X114874653Y-127608691D01*
X114749223Y-127544781D01*
X114554534Y-127481522D01*
X114379995Y-127453878D01*
X114352352Y-127449500D01*
X114147648Y-127449500D01*
X114123329Y-127453351D01*
X113945465Y-127481522D01*
X113750776Y-127544781D01*
X113568386Y-127637715D01*
X113402786Y-127758028D01*
X113258028Y-127902786D01*
X113137715Y-128068386D01*
X113044781Y-128250776D01*
X112981522Y-128445465D01*
X112949500Y-128647648D01*
X109050500Y-128647648D01*
X109018477Y-128445466D01*
X108955220Y-128250781D01*
X108955218Y-128250778D01*
X108955218Y-128250776D01*
X108921503Y-128184607D01*
X108862287Y-128068390D01*
X108854556Y-128057749D01*
X108741971Y-127902786D01*
X108597213Y-127758028D01*
X108431613Y-127637715D01*
X108431612Y-127637714D01*
X108431610Y-127637713D01*
X108374653Y-127608691D01*
X108249223Y-127544781D01*
X108054534Y-127481522D01*
X107879995Y-127453878D01*
X107852352Y-127449500D01*
X107647648Y-127449500D01*
X107623329Y-127453351D01*
X107445465Y-127481522D01*
X107250776Y-127544781D01*
X107068386Y-127637715D01*
X106902786Y-127758028D01*
X106758028Y-127902786D01*
X106637715Y-128068386D01*
X106544781Y-128250776D01*
X106481522Y-128445465D01*
X106449500Y-128647648D01*
X95048872Y-128647648D01*
X95049254Y-128445465D01*
X95054963Y-125425165D01*
X95054973Y-125419658D01*
X95057408Y-124131947D01*
X106250000Y-124131947D01*
X106250000Y-124368052D01*
X106286934Y-124601247D01*
X106359897Y-124825802D01*
X106467087Y-125036174D01*
X106527338Y-125119104D01*
X106527340Y-125119105D01*
X107226212Y-124420233D01*
X107237482Y-124462292D01*
X107309890Y-124587708D01*
X107412292Y-124690110D01*
X107537708Y-124762518D01*
X107579765Y-124773787D01*
X106880893Y-125472658D01*
X106963828Y-125532914D01*
X107174197Y-125640102D01*
X107398752Y-125713065D01*
X107398751Y-125713065D01*
X107631948Y-125750000D01*
X107868052Y-125750000D01*
X108101247Y-125713065D01*
X108325802Y-125640102D01*
X108536163Y-125532918D01*
X108536169Y-125532914D01*
X108619104Y-125472658D01*
X108619105Y-125472658D01*
X107920233Y-124773787D01*
X107962292Y-124762518D01*
X108087708Y-124690110D01*
X108190110Y-124587708D01*
X108262518Y-124462292D01*
X108273787Y-124420234D01*
X108972658Y-125119105D01*
X108972658Y-125119104D01*
X109032914Y-125036169D01*
X109032918Y-125036163D01*
X109140102Y-124825802D01*
X109213065Y-124601247D01*
X109250000Y-124368052D01*
X109250000Y-124131947D01*
X112750000Y-124131947D01*
X112750000Y-124368052D01*
X112786934Y-124601247D01*
X112859897Y-124825802D01*
X112967087Y-125036174D01*
X113027338Y-125119104D01*
X113027340Y-125119105D01*
X113726212Y-124420233D01*
X113737482Y-124462292D01*
X113809890Y-124587708D01*
X113912292Y-124690110D01*
X114037708Y-124762518D01*
X114079765Y-124773787D01*
X113380893Y-125472658D01*
X113463828Y-125532914D01*
X113674197Y-125640102D01*
X113898752Y-125713065D01*
X113898751Y-125713065D01*
X114131948Y-125750000D01*
X114368052Y-125750000D01*
X114601247Y-125713065D01*
X114825802Y-125640102D01*
X115036163Y-125532918D01*
X115036169Y-125532914D01*
X115119104Y-125472658D01*
X115119105Y-125472658D01*
X114420233Y-124773787D01*
X114462292Y-124762518D01*
X114587708Y-124690110D01*
X114690110Y-124587708D01*
X114762518Y-124462292D01*
X114773787Y-124420233D01*
X115472658Y-125119105D01*
X115472658Y-125119104D01*
X115532914Y-125036169D01*
X115532918Y-125036163D01*
X115640102Y-124825802D01*
X115713065Y-124601247D01*
X115750000Y-124368052D01*
X115750000Y-124131947D01*
X115713065Y-123898752D01*
X115640102Y-123674197D01*
X115532914Y-123463828D01*
X115472658Y-123380894D01*
X115472658Y-123380893D01*
X114773787Y-124079765D01*
X114762518Y-124037708D01*
X114690110Y-123912292D01*
X114587708Y-123809890D01*
X114462292Y-123737482D01*
X114420234Y-123726212D01*
X115119105Y-123027340D01*
X115119104Y-123027338D01*
X115036174Y-122967087D01*
X114825802Y-122859897D01*
X114601247Y-122786934D01*
X114601248Y-122786934D01*
X114368052Y-122750000D01*
X114131948Y-122750000D01*
X113898752Y-122786934D01*
X113674197Y-122859897D01*
X113463830Y-122967084D01*
X113380894Y-123027340D01*
X114079766Y-123726212D01*
X114037708Y-123737482D01*
X113912292Y-123809890D01*
X113809890Y-123912292D01*
X113737482Y-124037708D01*
X113726212Y-124079766D01*
X113027340Y-123380894D01*
X112967084Y-123463830D01*
X112859897Y-123674197D01*
X112786934Y-123898752D01*
X112750000Y-124131947D01*
X109250000Y-124131947D01*
X109213065Y-123898752D01*
X109140102Y-123674197D01*
X109032914Y-123463828D01*
X108972658Y-123380894D01*
X108972658Y-123380893D01*
X108273787Y-124079765D01*
X108262518Y-124037708D01*
X108190110Y-123912292D01*
X108087708Y-123809890D01*
X107962292Y-123737482D01*
X107920234Y-123726212D01*
X108619105Y-123027340D01*
X108619104Y-123027339D01*
X108536174Y-122967087D01*
X108325802Y-122859897D01*
X108101247Y-122786934D01*
X108101248Y-122786934D01*
X107868052Y-122750000D01*
X107631948Y-122750000D01*
X107398752Y-122786934D01*
X107174197Y-122859897D01*
X106963830Y-122967084D01*
X106880894Y-123027340D01*
X107579766Y-123726212D01*
X107537708Y-123737482D01*
X107412292Y-123809890D01*
X107309890Y-123912292D01*
X107237482Y-124037708D01*
X107226212Y-124079766D01*
X106527340Y-123380894D01*
X106467084Y-123463830D01*
X106359897Y-123674197D01*
X106286934Y-123898752D01*
X106250000Y-124131947D01*
X95057408Y-124131947D01*
X95063050Y-121147648D01*
X96949500Y-121147648D01*
X96949500Y-121352351D01*
X96981522Y-121554534D01*
X97044781Y-121749223D01*
X97137715Y-121931613D01*
X97258028Y-122097213D01*
X97402786Y-122241971D01*
X97557749Y-122354556D01*
X97568390Y-122362287D01*
X97684607Y-122421503D01*
X97750776Y-122455218D01*
X97750778Y-122455218D01*
X97750781Y-122455220D01*
X97855137Y-122489127D01*
X97945465Y-122518477D01*
X98046557Y-122534488D01*
X98147648Y-122550500D01*
X98147649Y-122550500D01*
X98352351Y-122550500D01*
X98352352Y-122550500D01*
X98554534Y-122518477D01*
X98749219Y-122455220D01*
X98931610Y-122362287D01*
X99024590Y-122294732D01*
X99097213Y-122241971D01*
X99097215Y-122241968D01*
X99097219Y-122241966D01*
X99241966Y-122097219D01*
X99241968Y-122097215D01*
X99241971Y-122097213D01*
X99294732Y-122024590D01*
X99362287Y-121931610D01*
X99455220Y-121749219D01*
X99518477Y-121554534D01*
X99550500Y-121352352D01*
X99550500Y-121147648D01*
X103449500Y-121147648D01*
X103449500Y-121352351D01*
X103481522Y-121554534D01*
X103544781Y-121749223D01*
X103637715Y-121931613D01*
X103758028Y-122097213D01*
X103902786Y-122241971D01*
X104057749Y-122354556D01*
X104068390Y-122362287D01*
X104184607Y-122421503D01*
X104250776Y-122455218D01*
X104250778Y-122455218D01*
X104250781Y-122455220D01*
X104355137Y-122489127D01*
X104445465Y-122518477D01*
X104546557Y-122534488D01*
X104647648Y-122550500D01*
X104647649Y-122550500D01*
X104852351Y-122550500D01*
X104852352Y-122550500D01*
X105054534Y-122518477D01*
X105249219Y-122455220D01*
X105431610Y-122362287D01*
X105524590Y-122294732D01*
X105597213Y-122241971D01*
X105597215Y-122241968D01*
X105597219Y-122241966D01*
X105741966Y-122097219D01*
X105741968Y-122097215D01*
X105741971Y-122097213D01*
X105794732Y-122024590D01*
X105862287Y-121931610D01*
X105955220Y-121749219D01*
X106018477Y-121554534D01*
X106050500Y-121352352D01*
X106050500Y-121147648D01*
X114449500Y-121147648D01*
X114449500Y-121352351D01*
X114481522Y-121554534D01*
X114544781Y-121749223D01*
X114637715Y-121931613D01*
X114758028Y-122097213D01*
X114902786Y-122241971D01*
X115057749Y-122354556D01*
X115068390Y-122362287D01*
X115184607Y-122421503D01*
X115250776Y-122455218D01*
X115250778Y-122455218D01*
X115250781Y-122455220D01*
X115355137Y-122489127D01*
X115445465Y-122518477D01*
X115546557Y-122534488D01*
X115647648Y-122550500D01*
X115647649Y-122550500D01*
X115852351Y-122550500D01*
X115852352Y-122550500D01*
X116054534Y-122518477D01*
X116249219Y-122455220D01*
X116431610Y-122362287D01*
X116524590Y-122294732D01*
X116597213Y-122241971D01*
X116597215Y-122241968D01*
X116597219Y-122241966D01*
X116741966Y-122097219D01*
X116741968Y-122097215D01*
X116741971Y-122097213D01*
X116794732Y-122024590D01*
X116862287Y-121931610D01*
X116955220Y-121749219D01*
X117018477Y-121554534D01*
X117050500Y-121352352D01*
X117050500Y-121147648D01*
X120949500Y-121147648D01*
X120949500Y-121352351D01*
X120981522Y-121554534D01*
X121044781Y-121749223D01*
X121137715Y-121931613D01*
X121258028Y-122097213D01*
X121402786Y-122241971D01*
X121557749Y-122354556D01*
X121568390Y-122362287D01*
X121684607Y-122421503D01*
X121750776Y-122455218D01*
X121750778Y-122455218D01*
X121750781Y-122455220D01*
X121855137Y-122489127D01*
X121945465Y-122518477D01*
X122046557Y-122534488D01*
X122147648Y-122550500D01*
X122147649Y-122550500D01*
X122352351Y-122550500D01*
X122352352Y-122550500D01*
X122554534Y-122518477D01*
X122749219Y-122455220D01*
X122931610Y-122362287D01*
X123024590Y-122294732D01*
X123097213Y-122241971D01*
X123097215Y-122241968D01*
X123097219Y-122241966D01*
X123241966Y-122097219D01*
X123241968Y-122097215D01*
X123241971Y-122097213D01*
X123294732Y-122024590D01*
X123362287Y-121931610D01*
X123455220Y-121749219D01*
X123518477Y-121554534D01*
X123550500Y-121352352D01*
X123550500Y-121147648D01*
X123518477Y-120945466D01*
X123455220Y-120750781D01*
X123455218Y-120750778D01*
X123455218Y-120750776D01*
X123421503Y-120684607D01*
X123362287Y-120568390D01*
X123354556Y-120557749D01*
X123241971Y-120402786D01*
X123097213Y-120258028D01*
X122931613Y-120137715D01*
X122931612Y-120137714D01*
X122931610Y-120137713D01*
X122874653Y-120108691D01*
X122749223Y-120044781D01*
X122554534Y-119981522D01*
X122379995Y-119953878D01*
X122352352Y-119949500D01*
X122147648Y-119949500D01*
X122123329Y-119953351D01*
X121945465Y-119981522D01*
X121750776Y-120044781D01*
X121568386Y-120137715D01*
X121402786Y-120258028D01*
X121258028Y-120402786D01*
X121137715Y-120568386D01*
X121044781Y-120750776D01*
X120981522Y-120945465D01*
X120949500Y-121147648D01*
X117050500Y-121147648D01*
X117018477Y-120945466D01*
X116955220Y-120750781D01*
X116955218Y-120750778D01*
X116955218Y-120750776D01*
X116921503Y-120684607D01*
X116862287Y-120568390D01*
X116854556Y-120557749D01*
X116741971Y-120402786D01*
X116597213Y-120258028D01*
X116431613Y-120137715D01*
X116431612Y-120137714D01*
X116431610Y-120137713D01*
X116374653Y-120108691D01*
X116249223Y-120044781D01*
X116054534Y-119981522D01*
X115879995Y-119953878D01*
X115852352Y-119949500D01*
X115647648Y-119949500D01*
X115623329Y-119953351D01*
X115445465Y-119981522D01*
X115250776Y-120044781D01*
X115068386Y-120137715D01*
X114902786Y-120258028D01*
X114758028Y-120402786D01*
X114637715Y-120568386D01*
X114544781Y-120750776D01*
X114481522Y-120945465D01*
X114449500Y-121147648D01*
X106050500Y-121147648D01*
X106018477Y-120945466D01*
X105955220Y-120750781D01*
X105955218Y-120750778D01*
X105955218Y-120750776D01*
X105921503Y-120684607D01*
X105862287Y-120568390D01*
X105854556Y-120557749D01*
X105741971Y-120402786D01*
X105597213Y-120258028D01*
X105431613Y-120137715D01*
X105431612Y-120137714D01*
X105431610Y-120137713D01*
X105374653Y-120108691D01*
X105249223Y-120044781D01*
X105054534Y-119981522D01*
X104879995Y-119953878D01*
X104852352Y-119949500D01*
X104647648Y-119949500D01*
X104623329Y-119953351D01*
X104445465Y-119981522D01*
X104250776Y-120044781D01*
X104068386Y-120137715D01*
X103902786Y-120258028D01*
X103758028Y-120402786D01*
X103637715Y-120568386D01*
X103544781Y-120750776D01*
X103481522Y-120945465D01*
X103449500Y-121147648D01*
X99550500Y-121147648D01*
X99518477Y-120945466D01*
X99455220Y-120750781D01*
X99455218Y-120750778D01*
X99455218Y-120750776D01*
X99421503Y-120684607D01*
X99362287Y-120568390D01*
X99354556Y-120557749D01*
X99241971Y-120402786D01*
X99097213Y-120258028D01*
X98931613Y-120137715D01*
X98931612Y-120137714D01*
X98931610Y-120137713D01*
X98874653Y-120108691D01*
X98749223Y-120044781D01*
X98554534Y-119981522D01*
X98379995Y-119953878D01*
X98352352Y-119949500D01*
X98147648Y-119949500D01*
X98123329Y-119953351D01*
X97945465Y-119981522D01*
X97750776Y-120044781D01*
X97568386Y-120137715D01*
X97402786Y-120258028D01*
X97258028Y-120402786D01*
X97137715Y-120568386D01*
X97044781Y-120750776D01*
X96981522Y-120945465D01*
X96949500Y-121147648D01*
X95063050Y-121147648D01*
X95063432Y-120945465D01*
X95069141Y-117925165D01*
X95069369Y-117804534D01*
X95071586Y-116631947D01*
X96750000Y-116631947D01*
X96750000Y-116868052D01*
X96786934Y-117101247D01*
X96859897Y-117325802D01*
X96967087Y-117536174D01*
X97027338Y-117619104D01*
X97027340Y-117619105D01*
X97726212Y-116920233D01*
X97737482Y-116962292D01*
X97809890Y-117087708D01*
X97912292Y-117190110D01*
X98037708Y-117262518D01*
X98079765Y-117273787D01*
X97380893Y-117972658D01*
X97463828Y-118032914D01*
X97674197Y-118140102D01*
X97898752Y-118213065D01*
X97898751Y-118213065D01*
X98131948Y-118250000D01*
X98368052Y-118250000D01*
X98601247Y-118213065D01*
X98825802Y-118140102D01*
X99036163Y-118032918D01*
X99036169Y-118032914D01*
X99119104Y-117972658D01*
X99119105Y-117972658D01*
X98420233Y-117273787D01*
X98462292Y-117262518D01*
X98587708Y-117190110D01*
X98690110Y-117087708D01*
X98762518Y-116962292D01*
X98773787Y-116920234D01*
X99472658Y-117619105D01*
X99472658Y-117619104D01*
X99532914Y-117536169D01*
X99532918Y-117536163D01*
X99640102Y-117325802D01*
X99713065Y-117101247D01*
X99750000Y-116868052D01*
X99750000Y-116631947D01*
X103250000Y-116631947D01*
X103250000Y-116868052D01*
X103286934Y-117101247D01*
X103359897Y-117325802D01*
X103467087Y-117536174D01*
X103527338Y-117619104D01*
X103527340Y-117619105D01*
X104226212Y-116920233D01*
X104237482Y-116962292D01*
X104309890Y-117087708D01*
X104412292Y-117190110D01*
X104537708Y-117262518D01*
X104579765Y-117273787D01*
X103880893Y-117972658D01*
X103963828Y-118032914D01*
X104174197Y-118140102D01*
X104398752Y-118213065D01*
X104398751Y-118213065D01*
X104631948Y-118250000D01*
X104868052Y-118250000D01*
X105101247Y-118213065D01*
X105325802Y-118140102D01*
X105536163Y-118032918D01*
X105536169Y-118032914D01*
X105619104Y-117972658D01*
X105619105Y-117972658D01*
X104920233Y-117273787D01*
X104962292Y-117262518D01*
X105087708Y-117190110D01*
X105190110Y-117087708D01*
X105262518Y-116962292D01*
X105273787Y-116920234D01*
X105972658Y-117619105D01*
X105972658Y-117619104D01*
X106032914Y-117536169D01*
X106032918Y-117536163D01*
X106140102Y-117325802D01*
X106213065Y-117101247D01*
X106250000Y-116868052D01*
X106250000Y-116631947D01*
X114250000Y-116631947D01*
X114250000Y-116868052D01*
X114286934Y-117101247D01*
X114359897Y-117325802D01*
X114467087Y-117536174D01*
X114527338Y-117619104D01*
X114527340Y-117619105D01*
X115226212Y-116920233D01*
X115237482Y-116962292D01*
X115309890Y-117087708D01*
X115412292Y-117190110D01*
X115537708Y-117262518D01*
X115579765Y-117273787D01*
X114880893Y-117972658D01*
X114963828Y-118032914D01*
X115174197Y-118140102D01*
X115398752Y-118213065D01*
X115398751Y-118213065D01*
X115631948Y-118250000D01*
X115868052Y-118250000D01*
X116101247Y-118213065D01*
X116325802Y-118140102D01*
X116536163Y-118032918D01*
X116536169Y-118032914D01*
X116619104Y-117972658D01*
X116619105Y-117972658D01*
X115920233Y-117273787D01*
X115962292Y-117262518D01*
X116087708Y-117190110D01*
X116190110Y-117087708D01*
X116262518Y-116962292D01*
X116273787Y-116920234D01*
X116972658Y-117619105D01*
X116972658Y-117619104D01*
X117032914Y-117536169D01*
X117032918Y-117536163D01*
X117140102Y-117325802D01*
X117213065Y-117101247D01*
X117250000Y-116868052D01*
X117250000Y-116631947D01*
X120750000Y-116631947D01*
X120750000Y-116868052D01*
X120786934Y-117101247D01*
X120859897Y-117325802D01*
X120967087Y-117536174D01*
X121027338Y-117619104D01*
X121027340Y-117619105D01*
X121726212Y-116920233D01*
X121737482Y-116962292D01*
X121809890Y-117087708D01*
X121912292Y-117190110D01*
X122037708Y-117262518D01*
X122079765Y-117273787D01*
X121380893Y-117972658D01*
X121463828Y-118032914D01*
X121674197Y-118140102D01*
X121898752Y-118213065D01*
X121898751Y-118213065D01*
X122131948Y-118250000D01*
X122368052Y-118250000D01*
X122601247Y-118213065D01*
X122825802Y-118140102D01*
X123036163Y-118032918D01*
X123036169Y-118032914D01*
X123119104Y-117972658D01*
X123119105Y-117972658D01*
X122420233Y-117273787D01*
X122462292Y-117262518D01*
X122587708Y-117190110D01*
X122690110Y-117087708D01*
X122762518Y-116962292D01*
X122773787Y-116920233D01*
X123472658Y-117619105D01*
X123472658Y-117619104D01*
X123532914Y-117536169D01*
X123532918Y-117536163D01*
X123603496Y-117397648D01*
X183949500Y-117397648D01*
X183949500Y-117602352D01*
X183953878Y-117629995D01*
X183981522Y-117804534D01*
X184044781Y-117999223D01*
X184137715Y-118181613D01*
X184258028Y-118347213D01*
X184402786Y-118491971D01*
X184557749Y-118604556D01*
X184568390Y-118612287D01*
X184684607Y-118671503D01*
X184750776Y-118705218D01*
X184750778Y-118705218D01*
X184750781Y-118705220D01*
X184855137Y-118739127D01*
X184945465Y-118768477D01*
X185046557Y-118784488D01*
X185147648Y-118800500D01*
X185147649Y-118800500D01*
X185352351Y-118800500D01*
X185352352Y-118800500D01*
X185554534Y-118768477D01*
X185749219Y-118705220D01*
X185931610Y-118612287D01*
X186024590Y-118544732D01*
X186097213Y-118491971D01*
X186097215Y-118491968D01*
X186097219Y-118491966D01*
X186241966Y-118347219D01*
X186241968Y-118347215D01*
X186241971Y-118347213D01*
X186312599Y-118250000D01*
X186362287Y-118181610D01*
X186455220Y-117999219D01*
X186518477Y-117804534D01*
X186550500Y-117602352D01*
X186550500Y-117397648D01*
X190449500Y-117397648D01*
X190449500Y-117602352D01*
X190453878Y-117629995D01*
X190481522Y-117804534D01*
X190544781Y-117999223D01*
X190637715Y-118181613D01*
X190758028Y-118347213D01*
X190902786Y-118491971D01*
X191057749Y-118604556D01*
X191068390Y-118612287D01*
X191184607Y-118671503D01*
X191250776Y-118705218D01*
X191250778Y-118705218D01*
X191250781Y-118705220D01*
X191355137Y-118739127D01*
X191445465Y-118768477D01*
X191546557Y-118784488D01*
X191647648Y-118800500D01*
X191647649Y-118800500D01*
X191852351Y-118800500D01*
X191852352Y-118800500D01*
X192054534Y-118768477D01*
X192249219Y-118705220D01*
X192431610Y-118612287D01*
X192524590Y-118544732D01*
X192597213Y-118491971D01*
X192597215Y-118491968D01*
X192597219Y-118491966D01*
X192741966Y-118347219D01*
X192741968Y-118347215D01*
X192741971Y-118347213D01*
X192812599Y-118250000D01*
X192862287Y-118181610D01*
X192955220Y-117999219D01*
X193018477Y-117804534D01*
X193050500Y-117602352D01*
X193050500Y-117397648D01*
X193018477Y-117195466D01*
X192955220Y-117000781D01*
X192955218Y-117000778D01*
X192955218Y-117000776D01*
X192887591Y-116868052D01*
X192862287Y-116818390D01*
X192812600Y-116750001D01*
X192741971Y-116652786D01*
X192597213Y-116508028D01*
X192431613Y-116387715D01*
X192431612Y-116387714D01*
X192431610Y-116387713D01*
X192374653Y-116358691D01*
X192249223Y-116294781D01*
X192054534Y-116231522D01*
X191879995Y-116203878D01*
X191852352Y-116199500D01*
X191647648Y-116199500D01*
X191623329Y-116203351D01*
X191445465Y-116231522D01*
X191250776Y-116294781D01*
X191068386Y-116387715D01*
X190902786Y-116508028D01*
X190758028Y-116652786D01*
X190637715Y-116818386D01*
X190544781Y-117000776D01*
X190481522Y-117195465D01*
X190464966Y-117300000D01*
X190449500Y-117397648D01*
X186550500Y-117397648D01*
X186518477Y-117195466D01*
X186455220Y-117000781D01*
X186455218Y-117000778D01*
X186455218Y-117000776D01*
X186387591Y-116868052D01*
X186362287Y-116818390D01*
X186312600Y-116750001D01*
X186241971Y-116652786D01*
X186097213Y-116508028D01*
X185931613Y-116387715D01*
X185931612Y-116387714D01*
X185931610Y-116387713D01*
X185874653Y-116358691D01*
X185749223Y-116294781D01*
X185554534Y-116231522D01*
X185379995Y-116203878D01*
X185352352Y-116199500D01*
X185147648Y-116199500D01*
X185123329Y-116203351D01*
X184945465Y-116231522D01*
X184750776Y-116294781D01*
X184568386Y-116387715D01*
X184402786Y-116508028D01*
X184258028Y-116652786D01*
X184137715Y-116818386D01*
X184044781Y-117000776D01*
X183981522Y-117195465D01*
X183964966Y-117300000D01*
X183949500Y-117397648D01*
X123603496Y-117397648D01*
X123634662Y-117336481D01*
X123634663Y-117336479D01*
X123640101Y-117325805D01*
X123713065Y-117101247D01*
X123750000Y-116868052D01*
X123750000Y-116631947D01*
X123713065Y-116398752D01*
X123640102Y-116174197D01*
X123532914Y-115963828D01*
X123472658Y-115880894D01*
X123472658Y-115880893D01*
X122773787Y-116579765D01*
X122762518Y-116537708D01*
X122690110Y-116412292D01*
X122587708Y-116309890D01*
X122462292Y-116237482D01*
X122420234Y-116226212D01*
X123119105Y-115527340D01*
X123119104Y-115527338D01*
X123036174Y-115467087D01*
X122825802Y-115359897D01*
X122601247Y-115286934D01*
X122601248Y-115286934D01*
X122368052Y-115250000D01*
X122131948Y-115250000D01*
X121898752Y-115286934D01*
X121674197Y-115359897D01*
X121463830Y-115467084D01*
X121380894Y-115527340D01*
X122079766Y-116226212D01*
X122037708Y-116237482D01*
X121912292Y-116309890D01*
X121809890Y-116412292D01*
X121737482Y-116537708D01*
X121726212Y-116579766D01*
X121027340Y-115880894D01*
X120967084Y-115963830D01*
X120859897Y-116174197D01*
X120786934Y-116398752D01*
X120750000Y-116631947D01*
X117250000Y-116631947D01*
X117213065Y-116398752D01*
X117140102Y-116174197D01*
X117032914Y-115963828D01*
X116972658Y-115880894D01*
X116972658Y-115880893D01*
X116273787Y-116579765D01*
X116262518Y-116537708D01*
X116190110Y-116412292D01*
X116087708Y-116309890D01*
X115962292Y-116237482D01*
X115920234Y-116226212D01*
X116619105Y-115527340D01*
X116619104Y-115527339D01*
X116536174Y-115467087D01*
X116325802Y-115359897D01*
X116101247Y-115286934D01*
X116101248Y-115286934D01*
X115868052Y-115250000D01*
X115631948Y-115250000D01*
X115398752Y-115286934D01*
X115174197Y-115359897D01*
X114963830Y-115467084D01*
X114880894Y-115527340D01*
X115579766Y-116226212D01*
X115537708Y-116237482D01*
X115412292Y-116309890D01*
X115309890Y-116412292D01*
X115237482Y-116537708D01*
X115226212Y-116579766D01*
X114527340Y-115880894D01*
X114467084Y-115963830D01*
X114359897Y-116174197D01*
X114286934Y-116398752D01*
X114250000Y-116631947D01*
X106250000Y-116631947D01*
X106213065Y-116398752D01*
X106140102Y-116174197D01*
X106032914Y-115963828D01*
X105972658Y-115880894D01*
X105972658Y-115880893D01*
X105273787Y-116579765D01*
X105262518Y-116537708D01*
X105190110Y-116412292D01*
X105087708Y-116309890D01*
X104962292Y-116237482D01*
X104920234Y-116226212D01*
X105619105Y-115527340D01*
X105619104Y-115527339D01*
X105536174Y-115467087D01*
X105325802Y-115359897D01*
X105101247Y-115286934D01*
X105101248Y-115286934D01*
X104868052Y-115250000D01*
X104631948Y-115250000D01*
X104398752Y-115286934D01*
X104174197Y-115359897D01*
X103963830Y-115467084D01*
X103880894Y-115527340D01*
X104579766Y-116226212D01*
X104537708Y-116237482D01*
X104412292Y-116309890D01*
X104309890Y-116412292D01*
X104237482Y-116537708D01*
X104226212Y-116579766D01*
X103527340Y-115880894D01*
X103467084Y-115963830D01*
X103359897Y-116174197D01*
X103286934Y-116398752D01*
X103250000Y-116631947D01*
X99750000Y-116631947D01*
X99713065Y-116398752D01*
X99640102Y-116174197D01*
X99532914Y-115963828D01*
X99472658Y-115880894D01*
X99472658Y-115880893D01*
X98773787Y-116579765D01*
X98762518Y-116537708D01*
X98690110Y-116412292D01*
X98587708Y-116309890D01*
X98462292Y-116237482D01*
X98420234Y-116226212D01*
X99119105Y-115527340D01*
X99119104Y-115527339D01*
X99036174Y-115467087D01*
X98825802Y-115359897D01*
X98601247Y-115286934D01*
X98601248Y-115286934D01*
X98368052Y-115250000D01*
X98131948Y-115250000D01*
X97898752Y-115286934D01*
X97674197Y-115359897D01*
X97463830Y-115467084D01*
X97380894Y-115527340D01*
X98079766Y-116226212D01*
X98037708Y-116237482D01*
X97912292Y-116309890D01*
X97809890Y-116412292D01*
X97737482Y-116537708D01*
X97726212Y-116579766D01*
X97027340Y-115880894D01*
X96967084Y-115963830D01*
X96859897Y-116174197D01*
X96786934Y-116398752D01*
X96750000Y-116631947D01*
X95071586Y-116631947D01*
X95074575Y-115050500D01*
X95077227Y-113647648D01*
X106449500Y-113647648D01*
X106449500Y-113852352D01*
X106453878Y-113879995D01*
X106481522Y-114054534D01*
X106544781Y-114249223D01*
X106637715Y-114431613D01*
X106758028Y-114597213D01*
X106902786Y-114741971D01*
X107017184Y-114825084D01*
X107068390Y-114862287D01*
X107184607Y-114921503D01*
X107250776Y-114955218D01*
X107250778Y-114955218D01*
X107250781Y-114955220D01*
X107304450Y-114972658D01*
X107445465Y-115018477D01*
X107536616Y-115032914D01*
X107647648Y-115050500D01*
X107647649Y-115050500D01*
X107852351Y-115050500D01*
X107852352Y-115050500D01*
X108054534Y-115018477D01*
X108249219Y-114955220D01*
X108431610Y-114862287D01*
X108524590Y-114794732D01*
X108597213Y-114741971D01*
X108597215Y-114741968D01*
X108597219Y-114741966D01*
X108741966Y-114597219D01*
X108741968Y-114597215D01*
X108741971Y-114597213D01*
X108812599Y-114500000D01*
X108862287Y-114431610D01*
X108955220Y-114249219D01*
X109018477Y-114054534D01*
X109050500Y-113852352D01*
X109050500Y-113647648D01*
X112949500Y-113647648D01*
X112949500Y-113852352D01*
X112953878Y-113879995D01*
X112981522Y-114054534D01*
X113044781Y-114249223D01*
X113137715Y-114431613D01*
X113258028Y-114597213D01*
X113402786Y-114741971D01*
X113517184Y-114825084D01*
X113568390Y-114862287D01*
X113684607Y-114921503D01*
X113750776Y-114955218D01*
X113750778Y-114955218D01*
X113750781Y-114955220D01*
X113804450Y-114972658D01*
X113945465Y-115018477D01*
X114036616Y-115032914D01*
X114147648Y-115050500D01*
X114147649Y-115050500D01*
X114352351Y-115050500D01*
X114352352Y-115050500D01*
X114554534Y-115018477D01*
X114749219Y-114955220D01*
X114931610Y-114862287D01*
X115097219Y-114741966D01*
X115241966Y-114597219D01*
X115241968Y-114597215D01*
X115241971Y-114597213D01*
X115312599Y-114500000D01*
X115362287Y-114431610D01*
X115455220Y-114249219D01*
X115518477Y-114054534D01*
X115550500Y-113852352D01*
X115550500Y-113647648D01*
X115533087Y-113537708D01*
X115518477Y-113445465D01*
X115474426Y-113309890D01*
X115455220Y-113250781D01*
X115455218Y-113250778D01*
X115455218Y-113250776D01*
X115387591Y-113118052D01*
X115362287Y-113068390D01*
X115335206Y-113031116D01*
X115241971Y-112902786D01*
X115097213Y-112758028D01*
X114931613Y-112637715D01*
X114931612Y-112637714D01*
X114931610Y-112637713D01*
X114878861Y-112610836D01*
X114749223Y-112544781D01*
X114638708Y-112508872D01*
X128639500Y-112508872D01*
X128639500Y-112771127D01*
X128660100Y-112927591D01*
X128673730Y-113031116D01*
X128732589Y-113250781D01*
X128741602Y-113284418D01*
X128741605Y-113284428D01*
X128841953Y-113526690D01*
X128841958Y-113526700D01*
X128973075Y-113753803D01*
X129132718Y-113961851D01*
X129132726Y-113961860D01*
X129318140Y-114147274D01*
X129318148Y-114147281D01*
X129526196Y-114306924D01*
X129753299Y-114438041D01*
X129753309Y-114438046D01*
X129995571Y-114538394D01*
X129995581Y-114538398D01*
X130248884Y-114606270D01*
X130508880Y-114640500D01*
X130508887Y-114640500D01*
X130771113Y-114640500D01*
X130771120Y-114640500D01*
X131031116Y-114606270D01*
X131284419Y-114538398D01*
X131526697Y-114438043D01*
X131753803Y-114306924D01*
X131961851Y-114147282D01*
X131961855Y-114147277D01*
X131961860Y-114147274D01*
X132147274Y-113961860D01*
X132147277Y-113961855D01*
X132147282Y-113961851D01*
X132306924Y-113753803D01*
X132438043Y-113526697D01*
X132538398Y-113284419D01*
X132606270Y-113031116D01*
X132640500Y-112771120D01*
X132640500Y-112508880D01*
X132606270Y-112248884D01*
X132538398Y-111995581D01*
X132494743Y-111890188D01*
X132438046Y-111753309D01*
X132438041Y-111753299D01*
X132306924Y-111526196D01*
X132240705Y-111439899D01*
X132147282Y-111318149D01*
X132147276Y-111318143D01*
X132147273Y-111318139D01*
X132134022Y-111304888D01*
X134897313Y-111304888D01*
X134897313Y-111890191D01*
X134938142Y-112095452D01*
X134938144Y-112095460D01*
X135018236Y-112288820D01*
X135134516Y-112462846D01*
X135282506Y-112610836D01*
X135456532Y-112727116D01*
X135531175Y-112758034D01*
X135649893Y-112807209D01*
X135855161Y-112848039D01*
X135855165Y-112848040D01*
X135855166Y-112848040D01*
X136064461Y-112848040D01*
X136064462Y-112848039D01*
X136269733Y-112807209D01*
X136463095Y-112727115D01*
X136637117Y-112610838D01*
X136785111Y-112462844D01*
X136901388Y-112288822D01*
X136981482Y-112095460D01*
X137022313Y-111890187D01*
X137022313Y-111304893D01*
X137022312Y-111304888D01*
X137437313Y-111304888D01*
X137437313Y-111890191D01*
X137478142Y-112095452D01*
X137478144Y-112095460D01*
X137558236Y-112288820D01*
X137674516Y-112462846D01*
X137822506Y-112610836D01*
X137996532Y-112727116D01*
X138071175Y-112758034D01*
X138189893Y-112807209D01*
X138395161Y-112848039D01*
X138395165Y-112848040D01*
X138395166Y-112848040D01*
X138604461Y-112848040D01*
X138604462Y-112848039D01*
X138809733Y-112807209D01*
X139003095Y-112727115D01*
X139177117Y-112610838D01*
X139325111Y-112462844D01*
X139441388Y-112288822D01*
X139521482Y-112095460D01*
X139562313Y-111890187D01*
X139562313Y-111304893D01*
X139562312Y-111304888D01*
X139977313Y-111304888D01*
X139977313Y-111890191D01*
X140018142Y-112095452D01*
X140018144Y-112095460D01*
X140098236Y-112288820D01*
X140214516Y-112462846D01*
X140362506Y-112610836D01*
X140536532Y-112727116D01*
X140611175Y-112758034D01*
X140729893Y-112807209D01*
X140935161Y-112848039D01*
X140935165Y-112848040D01*
X140935166Y-112848040D01*
X141144461Y-112848040D01*
X141144462Y-112848039D01*
X141349733Y-112807209D01*
X141543095Y-112727115D01*
X141717117Y-112610838D01*
X141865111Y-112462844D01*
X141981388Y-112288822D01*
X142061482Y-112095460D01*
X142102313Y-111890187D01*
X142102313Y-111304893D01*
X142102312Y-111304888D01*
X142517313Y-111304888D01*
X142517313Y-111890191D01*
X142558142Y-112095452D01*
X142558144Y-112095460D01*
X142638236Y-112288820D01*
X142754516Y-112462846D01*
X142902506Y-112610836D01*
X143076532Y-112727116D01*
X143151175Y-112758034D01*
X143269893Y-112807209D01*
X143475161Y-112848039D01*
X143475165Y-112848040D01*
X143475166Y-112848040D01*
X143684461Y-112848040D01*
X143684462Y-112848039D01*
X143889733Y-112807209D01*
X144083095Y-112727115D01*
X144257117Y-112610838D01*
X144405111Y-112462844D01*
X144521388Y-112288822D01*
X144601482Y-112095460D01*
X144642313Y-111890187D01*
X144642313Y-111304893D01*
X144642312Y-111304888D01*
X145057313Y-111304888D01*
X145057313Y-111890191D01*
X145098142Y-112095452D01*
X145098144Y-112095460D01*
X145178236Y-112288820D01*
X145294516Y-112462846D01*
X145442506Y-112610836D01*
X145616532Y-112727116D01*
X145691175Y-112758034D01*
X145809893Y-112807209D01*
X146015161Y-112848039D01*
X146015165Y-112848040D01*
X146015166Y-112848040D01*
X146224461Y-112848040D01*
X146224462Y-112848039D01*
X146429733Y-112807209D01*
X146623095Y-112727115D01*
X146797117Y-112610838D01*
X146945111Y-112462844D01*
X147061388Y-112288822D01*
X147141482Y-112095460D01*
X147182313Y-111890187D01*
X147182313Y-111304893D01*
X147182312Y-111304888D01*
X147597313Y-111304888D01*
X147597313Y-111890191D01*
X147638142Y-112095452D01*
X147638144Y-112095460D01*
X147718236Y-112288820D01*
X147834516Y-112462846D01*
X147982506Y-112610836D01*
X148156532Y-112727116D01*
X148231175Y-112758034D01*
X148349893Y-112807209D01*
X148555161Y-112848039D01*
X148555165Y-112848040D01*
X148555166Y-112848040D01*
X148764461Y-112848040D01*
X148764462Y-112848039D01*
X148969733Y-112807209D01*
X149163095Y-112727115D01*
X149337117Y-112610838D01*
X149485111Y-112462844D01*
X149601388Y-112288822D01*
X149681482Y-112095460D01*
X149722313Y-111890187D01*
X149722313Y-111304893D01*
X149722312Y-111304888D01*
X150137313Y-111304888D01*
X150137313Y-111890191D01*
X150178142Y-112095452D01*
X150178144Y-112095460D01*
X150258236Y-112288820D01*
X150374516Y-112462846D01*
X150522506Y-112610836D01*
X150696532Y-112727116D01*
X150771175Y-112758034D01*
X150889893Y-112807209D01*
X151095161Y-112848039D01*
X151095165Y-112848040D01*
X151095166Y-112848040D01*
X151304461Y-112848040D01*
X151304462Y-112848039D01*
X151509733Y-112807209D01*
X151703095Y-112727115D01*
X151877117Y-112610838D01*
X152025111Y-112462844D01*
X152141388Y-112288822D01*
X152221482Y-112095460D01*
X152262313Y-111890187D01*
X152262313Y-111304893D01*
X152262312Y-111304888D01*
X152677313Y-111304888D01*
X152677313Y-111890191D01*
X152718142Y-112095452D01*
X152718144Y-112095460D01*
X152798236Y-112288820D01*
X152914516Y-112462846D01*
X153062506Y-112610836D01*
X153236532Y-112727116D01*
X153311175Y-112758034D01*
X153429893Y-112807209D01*
X153635161Y-112848039D01*
X153635165Y-112848040D01*
X153635166Y-112848040D01*
X153844461Y-112848040D01*
X153844462Y-112848039D01*
X154049733Y-112807209D01*
X154243095Y-112727115D01*
X154417117Y-112610838D01*
X154565111Y-112462844D01*
X154681388Y-112288822D01*
X154761482Y-112095460D01*
X154802313Y-111890187D01*
X154802313Y-111304893D01*
X154802312Y-111304888D01*
X155217313Y-111304888D01*
X155217313Y-111890191D01*
X155258142Y-112095452D01*
X155258144Y-112095460D01*
X155338236Y-112288820D01*
X155454516Y-112462846D01*
X155602506Y-112610836D01*
X155776532Y-112727116D01*
X155851175Y-112758034D01*
X155969893Y-112807209D01*
X156175161Y-112848039D01*
X156175165Y-112848040D01*
X156175166Y-112848040D01*
X156384461Y-112848040D01*
X156384462Y-112848039D01*
X156589733Y-112807209D01*
X156783095Y-112727115D01*
X156957117Y-112610838D01*
X157105111Y-112462844D01*
X157221388Y-112288822D01*
X157301482Y-112095460D01*
X157342313Y-111890187D01*
X157342313Y-111304893D01*
X157342312Y-111304888D01*
X157757313Y-111304888D01*
X157757313Y-111890191D01*
X157798142Y-112095452D01*
X157798144Y-112095460D01*
X157878236Y-112288820D01*
X157994516Y-112462846D01*
X158142506Y-112610836D01*
X158316532Y-112727116D01*
X158391175Y-112758034D01*
X158509893Y-112807209D01*
X158715161Y-112848039D01*
X158715165Y-112848040D01*
X158715166Y-112848040D01*
X158924461Y-112848040D01*
X158924462Y-112848039D01*
X159129733Y-112807209D01*
X159323095Y-112727115D01*
X159497117Y-112610838D01*
X159645111Y-112462844D01*
X159761388Y-112288822D01*
X159841482Y-112095460D01*
X159882313Y-111890187D01*
X159882313Y-111304893D01*
X159882312Y-111304888D01*
X160297313Y-111304888D01*
X160297313Y-111890191D01*
X160338142Y-112095452D01*
X160338144Y-112095460D01*
X160418236Y-112288820D01*
X160534516Y-112462846D01*
X160682506Y-112610836D01*
X160856532Y-112727116D01*
X160931175Y-112758034D01*
X161049893Y-112807209D01*
X161255161Y-112848039D01*
X161255165Y-112848040D01*
X161255166Y-112848040D01*
X161464461Y-112848040D01*
X161464462Y-112848039D01*
X161669733Y-112807209D01*
X161863095Y-112727115D01*
X162037117Y-112610838D01*
X162185111Y-112462844D01*
X162301388Y-112288822D01*
X162381482Y-112095460D01*
X162422313Y-111890187D01*
X162422313Y-111304893D01*
X162422312Y-111304888D01*
X162837313Y-111304888D01*
X162837313Y-111890191D01*
X162878142Y-112095452D01*
X162878144Y-112095460D01*
X162958236Y-112288820D01*
X163074516Y-112462846D01*
X163222506Y-112610836D01*
X163396532Y-112727116D01*
X163471175Y-112758034D01*
X163589893Y-112807209D01*
X163795161Y-112848039D01*
X163795165Y-112848040D01*
X163795166Y-112848040D01*
X164004461Y-112848040D01*
X164004462Y-112848039D01*
X164209733Y-112807209D01*
X164403095Y-112727115D01*
X164577117Y-112610838D01*
X164725111Y-112462844D01*
X164841388Y-112288822D01*
X164921482Y-112095460D01*
X164962313Y-111890187D01*
X164962313Y-111304893D01*
X164962312Y-111304888D01*
X165377313Y-111304888D01*
X165377313Y-111890191D01*
X165418142Y-112095452D01*
X165418144Y-112095460D01*
X165498236Y-112288820D01*
X165614516Y-112462846D01*
X165762506Y-112610836D01*
X165936532Y-112727116D01*
X166011175Y-112758034D01*
X166129893Y-112807209D01*
X166335161Y-112848039D01*
X166335165Y-112848040D01*
X166335166Y-112848040D01*
X166544461Y-112848040D01*
X166544462Y-112848039D01*
X166749733Y-112807209D01*
X166943095Y-112727115D01*
X167117117Y-112610838D01*
X167265111Y-112462844D01*
X167381388Y-112288822D01*
X167461482Y-112095460D01*
X167502313Y-111890187D01*
X167502313Y-111304893D01*
X167502312Y-111304888D01*
X167917313Y-111304888D01*
X167917313Y-111890191D01*
X167958142Y-112095452D01*
X167958144Y-112095460D01*
X168038236Y-112288820D01*
X168154516Y-112462846D01*
X168302506Y-112610836D01*
X168476532Y-112727116D01*
X168551175Y-112758034D01*
X168669893Y-112807209D01*
X168875161Y-112848039D01*
X168875165Y-112848040D01*
X168875166Y-112848040D01*
X169084461Y-112848040D01*
X169084462Y-112848039D01*
X169289733Y-112807209D01*
X169483095Y-112727115D01*
X169657117Y-112610838D01*
X169805111Y-112462844D01*
X169921388Y-112288822D01*
X170001482Y-112095460D01*
X170042313Y-111890187D01*
X170042313Y-111304893D01*
X170042312Y-111304888D01*
X170457313Y-111304888D01*
X170457313Y-111890191D01*
X170498142Y-112095452D01*
X170498144Y-112095460D01*
X170578236Y-112288820D01*
X170694516Y-112462846D01*
X170842506Y-112610836D01*
X171016532Y-112727116D01*
X171091175Y-112758034D01*
X171209893Y-112807209D01*
X171415161Y-112848039D01*
X171415165Y-112848040D01*
X171415166Y-112848040D01*
X171624461Y-112848040D01*
X171624462Y-112848039D01*
X171829733Y-112807209D01*
X172023095Y-112727115D01*
X172197117Y-112610838D01*
X172299083Y-112508872D01*
X174639500Y-112508872D01*
X174639500Y-112771127D01*
X174660100Y-112927591D01*
X174673730Y-113031116D01*
X174732589Y-113250781D01*
X174741602Y-113284418D01*
X174741605Y-113284428D01*
X174841953Y-113526690D01*
X174841958Y-113526700D01*
X174973075Y-113753803D01*
X175132718Y-113961851D01*
X175132726Y-113961860D01*
X175318140Y-114147274D01*
X175318148Y-114147281D01*
X175526196Y-114306924D01*
X175753299Y-114438041D01*
X175753309Y-114438046D01*
X175995571Y-114538394D01*
X175995581Y-114538398D01*
X176248884Y-114606270D01*
X176508880Y-114640500D01*
X176508887Y-114640500D01*
X176771113Y-114640500D01*
X176771120Y-114640500D01*
X177031116Y-114606270D01*
X177284419Y-114538398D01*
X177526697Y-114438043D01*
X177753803Y-114306924D01*
X177961851Y-114147282D01*
X177961855Y-114147277D01*
X177961860Y-114147274D01*
X178147274Y-113961860D01*
X178147277Y-113961855D01*
X178147282Y-113961851D01*
X178306924Y-113753803D01*
X178438043Y-113526697D01*
X178538398Y-113284419D01*
X178606270Y-113031116D01*
X178625909Y-112881947D01*
X183750000Y-112881947D01*
X183750000Y-113118052D01*
X183786934Y-113351247D01*
X183859897Y-113575802D01*
X183967087Y-113786174D01*
X184027338Y-113869104D01*
X184027340Y-113869105D01*
X184726212Y-113170233D01*
X184737482Y-113212292D01*
X184809890Y-113337708D01*
X184912292Y-113440110D01*
X185037708Y-113512518D01*
X185079765Y-113523787D01*
X184380893Y-114222658D01*
X184463828Y-114282914D01*
X184674197Y-114390102D01*
X184898752Y-114463065D01*
X184898751Y-114463065D01*
X185131948Y-114500000D01*
X185368052Y-114500000D01*
X185601247Y-114463065D01*
X185825802Y-114390102D01*
X186036163Y-114282918D01*
X186036169Y-114282914D01*
X186119104Y-114222658D01*
X186119105Y-114222658D01*
X185420233Y-113523787D01*
X185462292Y-113512518D01*
X185587708Y-113440110D01*
X185690110Y-113337708D01*
X185762518Y-113212292D01*
X185773787Y-113170233D01*
X186472658Y-113869105D01*
X186472658Y-113869104D01*
X186532914Y-113786169D01*
X186532918Y-113786163D01*
X186640102Y-113575802D01*
X186713065Y-113351247D01*
X186750000Y-113118052D01*
X186750000Y-112881947D01*
X190250000Y-112881947D01*
X190250000Y-113118052D01*
X190286934Y-113351247D01*
X190359897Y-113575802D01*
X190467087Y-113786174D01*
X190527338Y-113869104D01*
X190527340Y-113869105D01*
X191226212Y-113170233D01*
X191237482Y-113212292D01*
X191309890Y-113337708D01*
X191412292Y-113440110D01*
X191537708Y-113512518D01*
X191579765Y-113523787D01*
X190880893Y-114222658D01*
X190963828Y-114282914D01*
X191174197Y-114390102D01*
X191398752Y-114463065D01*
X191398751Y-114463065D01*
X191631948Y-114500000D01*
X191868052Y-114500000D01*
X192101247Y-114463065D01*
X192325802Y-114390102D01*
X192536163Y-114282918D01*
X192536169Y-114282914D01*
X192619104Y-114222658D01*
X192619105Y-114222658D01*
X191920233Y-113523787D01*
X191962292Y-113512518D01*
X192087708Y-113440110D01*
X192190110Y-113337708D01*
X192262518Y-113212292D01*
X192273787Y-113170233D01*
X192972658Y-113869105D01*
X192972658Y-113869104D01*
X193032914Y-113786169D01*
X193032918Y-113786163D01*
X193111495Y-113631947D01*
X194250000Y-113631947D01*
X194250000Y-113868052D01*
X194286934Y-114101247D01*
X194359897Y-114325802D01*
X194467087Y-114536174D01*
X194527338Y-114619104D01*
X194527340Y-114619105D01*
X195226212Y-113920233D01*
X195237482Y-113962292D01*
X195309890Y-114087708D01*
X195412292Y-114190110D01*
X195537708Y-114262518D01*
X195579765Y-114273787D01*
X194880893Y-114972658D01*
X194963828Y-115032914D01*
X195174197Y-115140102D01*
X195398752Y-115213065D01*
X195398751Y-115213065D01*
X195631948Y-115250000D01*
X195868052Y-115250000D01*
X196101247Y-115213065D01*
X196325802Y-115140102D01*
X196536163Y-115032918D01*
X196536169Y-115032914D01*
X196619104Y-114972658D01*
X196619105Y-114972658D01*
X195920233Y-114273787D01*
X195962292Y-114262518D01*
X196087708Y-114190110D01*
X196190110Y-114087708D01*
X196262518Y-113962292D01*
X196273787Y-113920234D01*
X196972658Y-114619105D01*
X196972658Y-114619104D01*
X197032914Y-114536169D01*
X197032918Y-114536163D01*
X197140102Y-114325802D01*
X197213065Y-114101247D01*
X197250000Y-113868052D01*
X197250000Y-113631947D01*
X200750000Y-113631947D01*
X200750000Y-113868052D01*
X200786934Y-114101247D01*
X200859897Y-114325802D01*
X200967087Y-114536174D01*
X201027338Y-114619104D01*
X201027340Y-114619105D01*
X201726212Y-113920233D01*
X201737482Y-113962292D01*
X201809890Y-114087708D01*
X201912292Y-114190110D01*
X202037708Y-114262518D01*
X202079765Y-114273787D01*
X201380893Y-114972658D01*
X201463828Y-115032914D01*
X201674197Y-115140102D01*
X201898752Y-115213065D01*
X201898751Y-115213065D01*
X202131948Y-115250000D01*
X202368052Y-115250000D01*
X202601247Y-115213065D01*
X202825802Y-115140102D01*
X203036163Y-115032918D01*
X203036169Y-115032914D01*
X203119104Y-114972658D01*
X203119105Y-114972658D01*
X202420233Y-114273787D01*
X202462292Y-114262518D01*
X202587708Y-114190110D01*
X202690110Y-114087708D01*
X202762518Y-113962292D01*
X202773787Y-113920234D01*
X203472658Y-114619105D01*
X203472658Y-114619104D01*
X203532914Y-114536169D01*
X203532918Y-114536163D01*
X203640102Y-114325802D01*
X203713065Y-114101247D01*
X203750000Y-113868052D01*
X203750000Y-113631947D01*
X203713065Y-113398752D01*
X203640102Y-113174197D01*
X203532914Y-112963828D01*
X203472658Y-112880894D01*
X203472658Y-112880893D01*
X202773787Y-113579765D01*
X202762518Y-113537708D01*
X202690110Y-113412292D01*
X202587708Y-113309890D01*
X202462292Y-113237482D01*
X202420234Y-113226212D01*
X203119105Y-112527340D01*
X203119104Y-112527338D01*
X203036174Y-112467087D01*
X202825802Y-112359897D01*
X202601247Y-112286934D01*
X202601248Y-112286934D01*
X202368052Y-112250000D01*
X202131948Y-112250000D01*
X201898752Y-112286934D01*
X201674197Y-112359897D01*
X201463830Y-112467084D01*
X201380894Y-112527340D01*
X202079766Y-113226212D01*
X202037708Y-113237482D01*
X201912292Y-113309890D01*
X201809890Y-113412292D01*
X201737482Y-113537708D01*
X201726212Y-113579765D01*
X201027340Y-112880894D01*
X200967084Y-112963830D01*
X200859897Y-113174197D01*
X200786934Y-113398752D01*
X200750000Y-113631947D01*
X197250000Y-113631947D01*
X197213065Y-113398752D01*
X197140102Y-113174197D01*
X197032914Y-112963828D01*
X196972658Y-112880894D01*
X196972658Y-112880893D01*
X196273787Y-113579765D01*
X196262518Y-113537708D01*
X196190110Y-113412292D01*
X196087708Y-113309890D01*
X195962292Y-113237482D01*
X195920234Y-113226212D01*
X196619105Y-112527340D01*
X196619104Y-112527339D01*
X196536174Y-112467087D01*
X196325802Y-112359897D01*
X196101247Y-112286934D01*
X196101248Y-112286934D01*
X195868052Y-112250000D01*
X195631948Y-112250000D01*
X195398752Y-112286934D01*
X195174197Y-112359897D01*
X194963830Y-112467084D01*
X194880894Y-112527340D01*
X195579766Y-113226212D01*
X195537708Y-113237482D01*
X195412292Y-113309890D01*
X195309890Y-113412292D01*
X195237482Y-113537708D01*
X195226212Y-113579766D01*
X194527340Y-112880894D01*
X194467084Y-112963830D01*
X194359897Y-113174197D01*
X194286934Y-113398752D01*
X194250000Y-113631947D01*
X193111495Y-113631947D01*
X193140102Y-113575802D01*
X193213065Y-113351247D01*
X193250000Y-113118052D01*
X193250000Y-112881947D01*
X193213065Y-112648752D01*
X193201422Y-112612917D01*
X193140102Y-112424197D01*
X193032914Y-112213828D01*
X192972658Y-112130894D01*
X192972658Y-112130893D01*
X192273787Y-112829765D01*
X192262518Y-112787708D01*
X192190110Y-112662292D01*
X192087708Y-112559890D01*
X191962292Y-112487482D01*
X191920234Y-112476212D01*
X192619105Y-111777340D01*
X192619104Y-111777338D01*
X192536174Y-111717087D01*
X192325802Y-111609897D01*
X192101247Y-111536934D01*
X192101248Y-111536934D01*
X191868052Y-111500000D01*
X191631948Y-111500000D01*
X191398752Y-111536934D01*
X191174197Y-111609897D01*
X190963830Y-111717084D01*
X190880894Y-111777340D01*
X191579766Y-112476212D01*
X191537708Y-112487482D01*
X191412292Y-112559890D01*
X191309890Y-112662292D01*
X191237482Y-112787708D01*
X191226212Y-112829765D01*
X190527340Y-112130894D01*
X190467084Y-112213830D01*
X190359897Y-112424197D01*
X190286934Y-112648752D01*
X190250000Y-112881947D01*
X186750000Y-112881947D01*
X186713065Y-112648752D01*
X186640102Y-112424197D01*
X186532914Y-112213828D01*
X186472658Y-112130894D01*
X186472658Y-112130893D01*
X185773787Y-112829765D01*
X185762518Y-112787708D01*
X185690110Y-112662292D01*
X185587708Y-112559890D01*
X185462292Y-112487482D01*
X185420234Y-112476212D01*
X186119105Y-111777340D01*
X186119104Y-111777339D01*
X186036174Y-111717087D01*
X185825802Y-111609897D01*
X185601247Y-111536934D01*
X185601248Y-111536934D01*
X185368052Y-111500000D01*
X185131948Y-111500000D01*
X184898752Y-111536934D01*
X184674197Y-111609897D01*
X184463830Y-111717084D01*
X184380894Y-111777340D01*
X185079766Y-112476212D01*
X185037708Y-112487482D01*
X184912292Y-112559890D01*
X184809890Y-112662292D01*
X184737482Y-112787708D01*
X184726212Y-112829766D01*
X184027340Y-112130894D01*
X183967084Y-112213830D01*
X183859897Y-112424197D01*
X183786934Y-112648752D01*
X183750000Y-112881947D01*
X178625909Y-112881947D01*
X178640500Y-112771120D01*
X178640500Y-112508880D01*
X178606270Y-112248884D01*
X178538398Y-111995581D01*
X178494743Y-111890188D01*
X178487231Y-111872052D01*
X178438046Y-111753309D01*
X178438041Y-111753299D01*
X178306924Y-111526196D01*
X178147281Y-111318148D01*
X178147274Y-111318140D01*
X177961860Y-111132726D01*
X177961851Y-111132718D01*
X177753803Y-110973075D01*
X177526700Y-110841958D01*
X177526690Y-110841953D01*
X177284428Y-110741605D01*
X177284421Y-110741603D01*
X177284419Y-110741602D01*
X177031116Y-110673730D01*
X176973339Y-110666123D01*
X176771127Y-110639500D01*
X176771120Y-110639500D01*
X176508880Y-110639500D01*
X176508872Y-110639500D01*
X176277772Y-110669926D01*
X176248884Y-110673730D01*
X176102083Y-110713065D01*
X175995581Y-110741602D01*
X175995571Y-110741605D01*
X175753309Y-110841953D01*
X175753299Y-110841958D01*
X175526196Y-110973075D01*
X175318148Y-111132718D01*
X175132718Y-111318148D01*
X174973075Y-111526196D01*
X174841958Y-111753299D01*
X174841953Y-111753309D01*
X174741605Y-111995571D01*
X174741602Y-111995581D01*
X174705346Y-112130893D01*
X174673730Y-112248885D01*
X174639500Y-112508872D01*
X172299083Y-112508872D01*
X172345111Y-112462844D01*
X172461388Y-112288822D01*
X172541482Y-112095460D01*
X172582313Y-111890187D01*
X172582313Y-111304893D01*
X172541482Y-111099620D01*
X172489065Y-110973075D01*
X172461389Y-110906259D01*
X172345109Y-110732233D01*
X172197119Y-110584243D01*
X172023093Y-110467963D01*
X171829733Y-110387871D01*
X171829725Y-110387869D01*
X171624464Y-110347040D01*
X171624460Y-110347040D01*
X171415166Y-110347040D01*
X171415161Y-110347040D01*
X171209900Y-110387869D01*
X171209892Y-110387871D01*
X171016532Y-110467963D01*
X170842506Y-110584243D01*
X170694516Y-110732233D01*
X170578236Y-110906259D01*
X170498144Y-111099619D01*
X170498142Y-111099627D01*
X170457313Y-111304888D01*
X170042312Y-111304888D01*
X170001482Y-111099620D01*
X169949065Y-110973075D01*
X169921389Y-110906259D01*
X169805109Y-110732233D01*
X169657119Y-110584243D01*
X169483093Y-110467963D01*
X169289733Y-110387871D01*
X169289725Y-110387869D01*
X169084464Y-110347040D01*
X169084460Y-110347040D01*
X168875166Y-110347040D01*
X168875161Y-110347040D01*
X168669900Y-110387869D01*
X168669892Y-110387871D01*
X168476532Y-110467963D01*
X168302506Y-110584243D01*
X168154516Y-110732233D01*
X168038236Y-110906259D01*
X167958144Y-111099619D01*
X167958142Y-111099627D01*
X167917313Y-111304888D01*
X167502312Y-111304888D01*
X167461482Y-111099620D01*
X167409065Y-110973075D01*
X167381389Y-110906259D01*
X167265109Y-110732233D01*
X167117119Y-110584243D01*
X166943093Y-110467963D01*
X166749733Y-110387871D01*
X166749725Y-110387869D01*
X166544464Y-110347040D01*
X166544460Y-110347040D01*
X166335166Y-110347040D01*
X166335161Y-110347040D01*
X166129900Y-110387869D01*
X166129892Y-110387871D01*
X165936532Y-110467963D01*
X165762506Y-110584243D01*
X165614516Y-110732233D01*
X165498236Y-110906259D01*
X165418144Y-111099619D01*
X165418142Y-111099627D01*
X165377313Y-111304888D01*
X164962312Y-111304888D01*
X164921482Y-111099620D01*
X164869065Y-110973075D01*
X164841389Y-110906259D01*
X164725109Y-110732233D01*
X164577119Y-110584243D01*
X164403093Y-110467963D01*
X164209733Y-110387871D01*
X164209725Y-110387869D01*
X164004464Y-110347040D01*
X164004460Y-110347040D01*
X163795166Y-110347040D01*
X163795161Y-110347040D01*
X163589900Y-110387869D01*
X163589892Y-110387871D01*
X163396532Y-110467963D01*
X163222506Y-110584243D01*
X163074516Y-110732233D01*
X162958236Y-110906259D01*
X162878144Y-111099619D01*
X162878142Y-111099627D01*
X162837313Y-111304888D01*
X162422312Y-111304888D01*
X162381482Y-111099620D01*
X162329065Y-110973075D01*
X162301389Y-110906259D01*
X162185109Y-110732233D01*
X162037119Y-110584243D01*
X161863093Y-110467963D01*
X161669733Y-110387871D01*
X161669725Y-110387869D01*
X161464464Y-110347040D01*
X161464460Y-110347040D01*
X161255166Y-110347040D01*
X161255161Y-110347040D01*
X161049900Y-110387869D01*
X161049892Y-110387871D01*
X160856532Y-110467963D01*
X160682506Y-110584243D01*
X160534516Y-110732233D01*
X160418236Y-110906259D01*
X160338144Y-111099619D01*
X160338142Y-111099627D01*
X160297313Y-111304888D01*
X159882312Y-111304888D01*
X159841482Y-111099620D01*
X159789065Y-110973075D01*
X159761389Y-110906259D01*
X159645109Y-110732233D01*
X159497119Y-110584243D01*
X159323093Y-110467963D01*
X159129733Y-110387871D01*
X159129725Y-110387869D01*
X158924464Y-110347040D01*
X158924460Y-110347040D01*
X158715166Y-110347040D01*
X158715161Y-110347040D01*
X158509900Y-110387869D01*
X158509892Y-110387871D01*
X158316532Y-110467963D01*
X158142506Y-110584243D01*
X157994516Y-110732233D01*
X157878236Y-110906259D01*
X157798144Y-111099619D01*
X157798142Y-111099627D01*
X157757313Y-111304888D01*
X157342312Y-111304888D01*
X157301482Y-111099620D01*
X157249065Y-110973075D01*
X157221389Y-110906259D01*
X157105109Y-110732233D01*
X156957119Y-110584243D01*
X156783093Y-110467963D01*
X156589733Y-110387871D01*
X156589725Y-110387869D01*
X156384464Y-110347040D01*
X156384460Y-110347040D01*
X156175166Y-110347040D01*
X156175161Y-110347040D01*
X155969900Y-110387869D01*
X155969892Y-110387871D01*
X155776532Y-110467963D01*
X155602506Y-110584243D01*
X155454516Y-110732233D01*
X155338236Y-110906259D01*
X155258144Y-111099619D01*
X155258142Y-111099627D01*
X155217313Y-111304888D01*
X154802312Y-111304888D01*
X154761482Y-111099620D01*
X154709065Y-110973075D01*
X154681389Y-110906259D01*
X154565109Y-110732233D01*
X154417119Y-110584243D01*
X154243093Y-110467963D01*
X154049733Y-110387871D01*
X154049725Y-110387869D01*
X153844464Y-110347040D01*
X153844460Y-110347040D01*
X153635166Y-110347040D01*
X153635161Y-110347040D01*
X153429900Y-110387869D01*
X153429892Y-110387871D01*
X153236532Y-110467963D01*
X153062506Y-110584243D01*
X152914516Y-110732233D01*
X152798236Y-110906259D01*
X152718144Y-111099619D01*
X152718142Y-111099627D01*
X152677313Y-111304888D01*
X152262312Y-111304888D01*
X152221482Y-111099620D01*
X152169065Y-110973075D01*
X152141389Y-110906259D01*
X152025109Y-110732233D01*
X151877119Y-110584243D01*
X151703093Y-110467963D01*
X151509733Y-110387871D01*
X151509725Y-110387869D01*
X151304464Y-110347040D01*
X151304460Y-110347040D01*
X151095166Y-110347040D01*
X151095161Y-110347040D01*
X150889900Y-110387869D01*
X150889892Y-110387871D01*
X150696532Y-110467963D01*
X150522506Y-110584243D01*
X150374516Y-110732233D01*
X150258236Y-110906259D01*
X150178144Y-111099619D01*
X150178142Y-111099627D01*
X150137313Y-111304888D01*
X149722312Y-111304888D01*
X149681482Y-111099620D01*
X149629065Y-110973075D01*
X149601389Y-110906259D01*
X149485109Y-110732233D01*
X149337119Y-110584243D01*
X149163093Y-110467963D01*
X148969733Y-110387871D01*
X148969725Y-110387869D01*
X148764464Y-110347040D01*
X148764460Y-110347040D01*
X148555166Y-110347040D01*
X148555161Y-110347040D01*
X148349900Y-110387869D01*
X148349892Y-110387871D01*
X148156532Y-110467963D01*
X147982506Y-110584243D01*
X147834516Y-110732233D01*
X147718236Y-110906259D01*
X147638144Y-111099619D01*
X147638142Y-111099627D01*
X147597313Y-111304888D01*
X147182312Y-111304888D01*
X147141482Y-111099620D01*
X147089065Y-110973075D01*
X147061389Y-110906259D01*
X146945109Y-110732233D01*
X146797119Y-110584243D01*
X146623093Y-110467963D01*
X146429733Y-110387871D01*
X146429725Y-110387869D01*
X146224464Y-110347040D01*
X146224460Y-110347040D01*
X146015166Y-110347040D01*
X146015161Y-110347040D01*
X145809900Y-110387869D01*
X145809892Y-110387871D01*
X145616532Y-110467963D01*
X145442506Y-110584243D01*
X145294516Y-110732233D01*
X145178236Y-110906259D01*
X145098144Y-111099619D01*
X145098142Y-111099627D01*
X145057313Y-111304888D01*
X144642312Y-111304888D01*
X144601482Y-111099620D01*
X144549065Y-110973075D01*
X144521389Y-110906259D01*
X144405109Y-110732233D01*
X144257119Y-110584243D01*
X144083093Y-110467963D01*
X143889733Y-110387871D01*
X143889725Y-110387869D01*
X143684464Y-110347040D01*
X143684460Y-110347040D01*
X143475166Y-110347040D01*
X143475161Y-110347040D01*
X143269900Y-110387869D01*
X143269892Y-110387871D01*
X143076532Y-110467963D01*
X142902506Y-110584243D01*
X142754516Y-110732233D01*
X142638236Y-110906259D01*
X142558144Y-111099619D01*
X142558142Y-111099627D01*
X142517313Y-111304888D01*
X142102312Y-111304888D01*
X142061482Y-111099620D01*
X142009065Y-110973075D01*
X141981389Y-110906259D01*
X141865109Y-110732233D01*
X141717119Y-110584243D01*
X141543093Y-110467963D01*
X141349733Y-110387871D01*
X141349725Y-110387869D01*
X141144464Y-110347040D01*
X141144460Y-110347040D01*
X140935166Y-110347040D01*
X140935161Y-110347040D01*
X140729900Y-110387869D01*
X140729892Y-110387871D01*
X140536532Y-110467963D01*
X140362506Y-110584243D01*
X140214516Y-110732233D01*
X140098236Y-110906259D01*
X140018144Y-111099619D01*
X140018142Y-111099627D01*
X139977313Y-111304888D01*
X139562312Y-111304888D01*
X139521482Y-111099620D01*
X139469065Y-110973075D01*
X139441389Y-110906259D01*
X139325109Y-110732233D01*
X139177119Y-110584243D01*
X139003093Y-110467963D01*
X138809733Y-110387871D01*
X138809725Y-110387869D01*
X138604464Y-110347040D01*
X138604460Y-110347040D01*
X138395166Y-110347040D01*
X138395161Y-110347040D01*
X138189900Y-110387869D01*
X138189892Y-110387871D01*
X137996532Y-110467963D01*
X137822506Y-110584243D01*
X137674516Y-110732233D01*
X137558236Y-110906259D01*
X137478144Y-111099619D01*
X137478142Y-111099627D01*
X137437313Y-111304888D01*
X137022312Y-111304888D01*
X136981482Y-111099620D01*
X136929065Y-110973075D01*
X136901389Y-110906259D01*
X136785109Y-110732233D01*
X136637119Y-110584243D01*
X136463093Y-110467963D01*
X136269733Y-110387871D01*
X136269725Y-110387869D01*
X136064464Y-110347040D01*
X136064460Y-110347040D01*
X135855166Y-110347040D01*
X135855161Y-110347040D01*
X135649900Y-110387869D01*
X135649892Y-110387871D01*
X135456532Y-110467963D01*
X135282506Y-110584243D01*
X135134516Y-110732233D01*
X135018236Y-110906259D01*
X134938144Y-111099619D01*
X134938142Y-111099627D01*
X134897313Y-111304888D01*
X132134022Y-111304888D01*
X131961860Y-111132726D01*
X131961851Y-111132718D01*
X131753803Y-110973075D01*
X131526700Y-110841958D01*
X131526690Y-110841953D01*
X131284428Y-110741605D01*
X131284421Y-110741603D01*
X131284419Y-110741602D01*
X131031116Y-110673730D01*
X130973339Y-110666123D01*
X130771127Y-110639500D01*
X130771120Y-110639500D01*
X130508880Y-110639500D01*
X130508872Y-110639500D01*
X130277772Y-110669926D01*
X130248884Y-110673730D01*
X130102083Y-110713065D01*
X129995581Y-110741602D01*
X129995571Y-110741605D01*
X129753309Y-110841953D01*
X129753299Y-110841958D01*
X129526196Y-110973075D01*
X129318148Y-111132718D01*
X129132718Y-111318148D01*
X128973075Y-111526196D01*
X128841958Y-111753299D01*
X128841953Y-111753309D01*
X128741605Y-111995571D01*
X128741602Y-111995581D01*
X128705346Y-112130893D01*
X128673730Y-112248885D01*
X128639500Y-112508872D01*
X114638708Y-112508872D01*
X114554534Y-112481522D01*
X114379995Y-112453878D01*
X114352352Y-112449500D01*
X114147648Y-112449500D01*
X114123329Y-112453351D01*
X113945465Y-112481522D01*
X113750776Y-112544781D01*
X113568386Y-112637715D01*
X113402786Y-112758028D01*
X113258028Y-112902786D01*
X113137715Y-113068386D01*
X113044781Y-113250776D01*
X112981522Y-113445465D01*
X112964966Y-113550000D01*
X112949500Y-113647648D01*
X109050500Y-113647648D01*
X109033087Y-113537708D01*
X109018477Y-113445465D01*
X108974426Y-113309890D01*
X108955220Y-113250781D01*
X108955218Y-113250778D01*
X108955218Y-113250776D01*
X108887591Y-113118052D01*
X108862287Y-113068390D01*
X108835206Y-113031116D01*
X108741971Y-112902786D01*
X108597213Y-112758028D01*
X108431613Y-112637715D01*
X108431612Y-112637714D01*
X108431610Y-112637713D01*
X108374653Y-112608691D01*
X108249223Y-112544781D01*
X108054534Y-112481522D01*
X107879995Y-112453878D01*
X107852352Y-112449500D01*
X107647648Y-112449500D01*
X107623329Y-112453351D01*
X107445465Y-112481522D01*
X107250776Y-112544781D01*
X107068386Y-112637715D01*
X106902786Y-112758028D01*
X106758028Y-112902786D01*
X106637715Y-113068386D01*
X106544781Y-113250776D01*
X106481522Y-113445465D01*
X106464966Y-113550000D01*
X106449500Y-113647648D01*
X95077227Y-113647648D01*
X95077237Y-113642542D01*
X95083319Y-110425165D01*
X95083665Y-110241971D01*
X95085763Y-109131947D01*
X106250000Y-109131947D01*
X106250000Y-109368052D01*
X106286934Y-109601247D01*
X106359897Y-109825802D01*
X106467087Y-110036174D01*
X106527338Y-110119104D01*
X106527340Y-110119105D01*
X107226212Y-109420233D01*
X107237482Y-109462292D01*
X107309890Y-109587708D01*
X107412292Y-109690110D01*
X107537708Y-109762518D01*
X107579765Y-109773787D01*
X106880893Y-110472658D01*
X106963828Y-110532914D01*
X107174197Y-110640102D01*
X107398752Y-110713065D01*
X107398751Y-110713065D01*
X107631948Y-110750000D01*
X107868052Y-110750000D01*
X108101247Y-110713065D01*
X108325802Y-110640102D01*
X108536163Y-110532918D01*
X108536169Y-110532914D01*
X108619104Y-110472658D01*
X108619105Y-110472658D01*
X107920233Y-109773787D01*
X107962292Y-109762518D01*
X108087708Y-109690110D01*
X108190110Y-109587708D01*
X108262518Y-109462292D01*
X108273787Y-109420234D01*
X108972658Y-110119105D01*
X108972658Y-110119104D01*
X109032914Y-110036169D01*
X109032918Y-110036163D01*
X109140102Y-109825802D01*
X109213065Y-109601247D01*
X109250000Y-109368052D01*
X109250000Y-109131947D01*
X112750000Y-109131947D01*
X112750000Y-109368052D01*
X112786934Y-109601247D01*
X112859897Y-109825802D01*
X112967087Y-110036174D01*
X113027338Y-110119104D01*
X113027340Y-110119105D01*
X113726212Y-109420233D01*
X113737482Y-109462292D01*
X113809890Y-109587708D01*
X113912292Y-109690110D01*
X114037708Y-109762518D01*
X114079765Y-109773787D01*
X113380893Y-110472658D01*
X113463828Y-110532914D01*
X113674197Y-110640102D01*
X113898752Y-110713065D01*
X113898751Y-110713065D01*
X114131948Y-110750000D01*
X114368052Y-110750000D01*
X114601247Y-110713065D01*
X114825802Y-110640102D01*
X115036163Y-110532918D01*
X115036169Y-110532914D01*
X115119104Y-110472658D01*
X115119105Y-110472658D01*
X114420233Y-109773787D01*
X114462292Y-109762518D01*
X114587708Y-109690110D01*
X114690110Y-109587708D01*
X114762518Y-109462292D01*
X114773787Y-109420233D01*
X115472658Y-110119105D01*
X115472658Y-110119104D01*
X115532914Y-110036169D01*
X115532918Y-110036163D01*
X115640102Y-109825802D01*
X115713065Y-109601247D01*
X115750000Y-109368052D01*
X115750000Y-109147648D01*
X194449500Y-109147648D01*
X194449500Y-109352351D01*
X194481522Y-109554534D01*
X194544781Y-109749223D01*
X194637715Y-109931613D01*
X194758028Y-110097213D01*
X194902786Y-110241971D01*
X195047404Y-110347040D01*
X195068390Y-110362287D01*
X195184607Y-110421503D01*
X195250776Y-110455218D01*
X195250778Y-110455218D01*
X195250781Y-110455220D01*
X195304450Y-110472658D01*
X195445465Y-110518477D01*
X195536616Y-110532914D01*
X195647648Y-110550500D01*
X195647649Y-110550500D01*
X195852351Y-110550500D01*
X195852352Y-110550500D01*
X196054534Y-110518477D01*
X196249219Y-110455220D01*
X196431610Y-110362287D01*
X196524590Y-110294732D01*
X196597213Y-110241971D01*
X196597215Y-110241968D01*
X196597219Y-110241966D01*
X196741966Y-110097219D01*
X196741968Y-110097215D01*
X196741971Y-110097213D01*
X196794732Y-110024590D01*
X196862287Y-109931610D01*
X196955220Y-109749219D01*
X197018477Y-109554534D01*
X197050500Y-109352352D01*
X197050500Y-109147648D01*
X200949500Y-109147648D01*
X200949500Y-109352351D01*
X200981522Y-109554534D01*
X201044781Y-109749223D01*
X201137715Y-109931613D01*
X201258028Y-110097213D01*
X201402786Y-110241971D01*
X201547404Y-110347040D01*
X201568390Y-110362287D01*
X201684607Y-110421503D01*
X201750776Y-110455218D01*
X201750778Y-110455218D01*
X201750781Y-110455220D01*
X201804450Y-110472658D01*
X201945465Y-110518477D01*
X202036616Y-110532914D01*
X202147648Y-110550500D01*
X202147649Y-110550500D01*
X202352351Y-110550500D01*
X202352352Y-110550500D01*
X202554534Y-110518477D01*
X202749219Y-110455220D01*
X202931610Y-110362287D01*
X203024590Y-110294732D01*
X203097213Y-110241971D01*
X203097215Y-110241968D01*
X203097219Y-110241966D01*
X203241966Y-110097219D01*
X203241968Y-110097215D01*
X203241971Y-110097213D01*
X203294732Y-110024590D01*
X203362287Y-109931610D01*
X203455220Y-109749219D01*
X203518477Y-109554534D01*
X203550500Y-109352352D01*
X203550500Y-109147648D01*
X203518477Y-108945466D01*
X203502549Y-108896446D01*
X203455218Y-108750776D01*
X203416198Y-108674197D01*
X203362287Y-108568390D01*
X203354556Y-108557749D01*
X203241971Y-108402786D01*
X203097213Y-108258028D01*
X202931613Y-108137715D01*
X202931612Y-108137714D01*
X202931610Y-108137713D01*
X202874653Y-108108691D01*
X202749223Y-108044781D01*
X202554534Y-107981522D01*
X202379995Y-107953878D01*
X202352352Y-107949500D01*
X202147648Y-107949500D01*
X202123329Y-107953351D01*
X201945465Y-107981522D01*
X201750776Y-108044781D01*
X201568386Y-108137715D01*
X201402786Y-108258028D01*
X201258028Y-108402786D01*
X201137715Y-108568386D01*
X201044781Y-108750776D01*
X200981522Y-108945465D01*
X200949500Y-109147648D01*
X197050500Y-109147648D01*
X197018477Y-108945466D01*
X197002549Y-108896446D01*
X196955218Y-108750776D01*
X196916198Y-108674197D01*
X196862287Y-108568390D01*
X196854556Y-108557749D01*
X196741971Y-108402786D01*
X196597213Y-108258028D01*
X196431613Y-108137715D01*
X196431612Y-108137714D01*
X196431610Y-108137713D01*
X196374653Y-108108691D01*
X196249223Y-108044781D01*
X196054534Y-107981522D01*
X195879995Y-107953878D01*
X195852352Y-107949500D01*
X195647648Y-107949500D01*
X195623329Y-107953351D01*
X195445465Y-107981522D01*
X195250776Y-108044781D01*
X195068386Y-108137715D01*
X194902786Y-108258028D01*
X194758028Y-108402786D01*
X194637715Y-108568386D01*
X194544781Y-108750776D01*
X194481522Y-108945465D01*
X194449500Y-109147648D01*
X115750000Y-109147648D01*
X115750000Y-109131947D01*
X115713065Y-108898752D01*
X115640102Y-108674197D01*
X115532914Y-108463828D01*
X115472658Y-108380894D01*
X115472658Y-108380893D01*
X114773787Y-109079765D01*
X114762518Y-109037708D01*
X114690110Y-108912292D01*
X114587708Y-108809890D01*
X114462292Y-108737482D01*
X114420234Y-108726212D01*
X115119105Y-108027340D01*
X115119104Y-108027338D01*
X115036174Y-107967087D01*
X114825802Y-107859897D01*
X114601247Y-107786934D01*
X114601248Y-107786934D01*
X114368052Y-107750000D01*
X114131948Y-107750000D01*
X113898752Y-107786934D01*
X113674197Y-107859897D01*
X113463830Y-107967084D01*
X113380894Y-108027340D01*
X114079766Y-108726212D01*
X114037708Y-108737482D01*
X113912292Y-108809890D01*
X113809890Y-108912292D01*
X113737482Y-109037708D01*
X113726212Y-109079766D01*
X113027340Y-108380894D01*
X112967084Y-108463830D01*
X112859897Y-108674197D01*
X112786934Y-108898752D01*
X112750000Y-109131947D01*
X109250000Y-109131947D01*
X109213065Y-108898752D01*
X109140102Y-108674197D01*
X109032914Y-108463828D01*
X108972658Y-108380894D01*
X108972658Y-108380893D01*
X108273787Y-109079765D01*
X108262518Y-109037708D01*
X108190110Y-108912292D01*
X108087708Y-108809890D01*
X107962292Y-108737482D01*
X107920234Y-108726212D01*
X108619105Y-108027340D01*
X108619104Y-108027339D01*
X108536174Y-107967087D01*
X108325802Y-107859897D01*
X108101247Y-107786934D01*
X108101248Y-107786934D01*
X107868052Y-107750000D01*
X107631948Y-107750000D01*
X107398752Y-107786934D01*
X107174197Y-107859897D01*
X106963830Y-107967084D01*
X106880894Y-108027340D01*
X107579766Y-108726212D01*
X107537708Y-108737482D01*
X107412292Y-108809890D01*
X107309890Y-108912292D01*
X107237482Y-109037708D01*
X107226212Y-109079766D01*
X106527340Y-108380894D01*
X106467084Y-108463830D01*
X106359897Y-108674197D01*
X106286934Y-108898752D01*
X106250000Y-109131947D01*
X95085763Y-109131947D01*
X95094683Y-104413396D01*
X95114494Y-104346396D01*
X95167385Y-104300741D01*
X95218915Y-104289633D01*
X206375943Y-104499765D01*
G37*
%TD.AperFunction*%
%TD*%
M02*
