%TF.GenerationSoftware,KiCad,Pcbnew,10.0.3*%
%TF.CreationDate,2026-06-03T21:09:29+05:30*%
%TF.ProjectId,KiCad,4b694361-642e-46b6-9963-61645f706362,rev?*%
%TF.SameCoordinates,Original*%
%TF.FileFunction,Copper,L1,Top*%
%TF.FilePolarity,Positive*%
%FSLAX46Y46*%
G04 Gerber Fmt 4.6, Leading zero omitted, Abs format (unit mm)*
G04 Created by KiCad (PCBNEW 10.0.3) date 2026-06-03 21:09:29*
%MOMM*%
%LPD*%
G01*
G04 APERTURE LIST*
G04 Aperture macros list*
%AMRoundRect*
0 Rectangle with rounded corners*
0 $1 Rounding radius*
0 $2 $3 $4 $5 $6 $7 $8 $9 X,Y pos of 4 corners*
0 Add a 4 corners polygon primitive as box body*
4,1,4,$2,$3,$4,$5,$6,$7,$8,$9,$2,$3,0*
0 Add four circle primitives for the rounded corners*
1,1,$1+$1,$2,$3*
1,1,$1+$1,$4,$5*
1,1,$1+$1,$6,$7*
1,1,$1+$1,$8,$9*
0 Add four rect primitives between the rounded corners*
20,1,$1+$1,$2,$3,$4,$5,0*
20,1,$1+$1,$4,$5,$6,$7,0*
20,1,$1+$1,$6,$7,$8,$9,0*
20,1,$1+$1,$8,$9,$2,$3,0*%
G04 Aperture macros list end*
%TA.AperFunction,ComponentPad*%
%ADD10C,2.000000*%
%TD*%
%TA.AperFunction,ComponentPad*%
%ADD11C,1.600000*%
%TD*%
%TA.AperFunction,SMDPad,CuDef*%
%ADD12C,1.500000*%
%TD*%
%TA.AperFunction,ComponentPad*%
%ADD13RoundRect,0.250000X-0.600000X-0.750000X0.600000X-0.750000X0.600000X0.750000X-0.600000X0.750000X0*%
%TD*%
%TA.AperFunction,ComponentPad*%
%ADD14O,1.700000X2.000000*%
%TD*%
%TA.AperFunction,ComponentPad*%
%ADD15O,1.524000X1.900000*%
%TD*%
%TA.AperFunction,ComponentPad*%
%ADD16R,1.500000X1.500000*%
%TD*%
%TA.AperFunction,ComponentPad*%
%ADD17R,1.800000X1.800000*%
%TD*%
%TA.AperFunction,ComponentPad*%
%ADD18C,1.800000*%
%TD*%
%TA.AperFunction,Conductor*%
%ADD19C,0.400000*%
%TD*%
%TA.AperFunction,Conductor*%
%ADD20C,0.800000*%
%TD*%
G04 APERTURE END LIST*
D10*
%TO.P,Up,1,1_1*%
%TO.N,Net-(U1-GPIO3)*%
X114250000Y-113750000D03*
X107750000Y-113750000D03*
%TO.P,Up,2,2_2*%
%TO.N,Net-(Bat_Pos1-Pin_1)*%
X114250000Y-109250000D03*
X107750000Y-109250000D03*
%TD*%
D11*
%TO.P,R1,1*%
%TO.N,Net-(U1-GPIO33)*%
X149100000Y-142690000D03*
%TO.P,R1,2*%
%TO.N,Net-(D1-BA)*%
X149100000Y-150310000D03*
%TD*%
D12*
%TO.P,TP1,1,1_1*%
%TO.N,Net-(U1-GPIO15)*%
X182000000Y-109000000D03*
%TD*%
D10*
%TO.P,B,1,1_1*%
%TO.N,Net-(U1-GPIO15)*%
X195750000Y-109250000D03*
X202250000Y-109250000D03*
%TO.P,B,2,2_2*%
%TO.N,Net-(Bat_Pos1-Pin_1)*%
X195750000Y-113750000D03*
X202250000Y-113750000D03*
%TD*%
D12*
%TO.P,TP4,1,1_1*%
%TO.N,Net-(U1-GPIO16)*%
X182500000Y-135500000D03*
%TD*%
%TO.P,TP5,1,1_1*%
%TO.N,Net-(U1-GPIO17)*%
X126000000Y-132000000D03*
%TD*%
D13*
%TO.P,Battery,1,Pin_1_1*%
%TO.N,Net-(Bat_Pos1-Pin_1)*%
X169000000Y-144500000D03*
D14*
%TO.P,Battery,2,Pin_2_2*%
%TO.N,Net-(Bat_Pos1-Pin_2)*%
X171500000Y-144500000D03*
%TD*%
D15*
%TO.P,U1,1,VIN_1*%
%TO.N,Net-(SW13-B)*%
X171519813Y-136997540D03*
%TO.P,U1,2,GND_2*%
%TO.N,Net-(Bat_Pos1-Pin_1)*%
X168979813Y-136997540D03*
%TO.P,U1,3,GPIO13_3*%
%TO.N,unconnected-(U1-GPIO13-Pad3)*%
X166439813Y-136997540D03*
%TO.P,U1,4,GPIO12_4*%
%TO.N,unconnected-(U1-GPIO12-Pad4)*%
X163899813Y-136997540D03*
%TO.P,U1,5,GPIO14_5*%
%TO.N,unconnected-(U1-GPIO14-Pad5)*%
X161359813Y-136997540D03*
%TO.P,U1,6,GPIO27_6*%
%TO.N,unconnected-(U1-GPIO27-Pad6)*%
X158819813Y-136997540D03*
%TO.P,U1,7,GPIO26_7*%
%TO.N,unconnected-(U1-GPIO26-Pad7)*%
X156279813Y-136997540D03*
%TO.P,U1,8,GPIO25_8*%
%TO.N,unconnected-(U1-GPIO25-Pad8)*%
X153739813Y-136997540D03*
%TO.P,U1,9,GPIO33_9*%
%TO.N,Net-(U1-GPIO33)*%
X151199813Y-136997540D03*
%TO.P,U1,10,GPIO32_10*%
%TO.N,unconnected-(U1-GPIO32-Pad10)*%
X148659813Y-136997540D03*
%TO.P,U1,11,GPIO35_11*%
%TO.N,Net-(U1-GPIO35)*%
X146119813Y-136997540D03*
%TO.P,U1,12,GPIO34_12*%
%TO.N,unconnected-(U1-GPIO34-Pad12)*%
X143579813Y-136997540D03*
%TO.P,U1,13,GPIO39_13*%
%TO.N,Net-(U1-GPIO39)*%
X141039813Y-136997540D03*
%TO.P,U1,14,GPIO36_14*%
%TO.N,unconnected-(U1-GPIO36-Pad14)*%
X138499813Y-136997540D03*
%TO.P,U1,15,EN_15*%
%TO.N,Net-(U1-EN)*%
X135959813Y-136997540D03*
%TO.P,U1,16,3.3v_16*%
%TO.N,unconnected-(U1-3.3v-Pad16)*%
X171519813Y-111597540D03*
%TO.P,U1,17,GND_17*%
%TO.N,unconnected-(U1-GND-Pad17)*%
X168979813Y-111597540D03*
%TO.P,U1,18,GPIO15_18*%
%TO.N,Net-(U1-GPIO15)*%
X166439813Y-111597540D03*
%TO.P,U1,19,GPIO2_19*%
%TO.N,Net-(U1-GPIO2)*%
X163899813Y-111597540D03*
%TO.P,U1,20,GPIO4_20*%
%TO.N,Net-(U1-GPIO4)*%
X161359813Y-111597540D03*
%TO.P,U1,21,GPIO16_21*%
%TO.N,Net-(U1-GPIO16)*%
X158819813Y-111597540D03*
%TO.P,U1,22,GPIO17_22*%
%TO.N,Net-(U1-GPIO17)*%
X156279813Y-111597540D03*
%TO.P,U1,23,GPIO5_23*%
%TO.N,Net-(U1-GPIO5)*%
X153739813Y-111597540D03*
%TO.P,U1,24,GPIO18_24*%
%TO.N,Net-(U1-GPIO18)*%
X151199813Y-111597540D03*
%TO.P,U1,25,GPIO19_25*%
%TO.N,Net-(U1-GPIO19)*%
X148659813Y-111597540D03*
%TO.P,U1,26,GPIO21_26*%
%TO.N,Net-(U1-GPIO21)*%
X146119813Y-111597540D03*
%TO.P,U1,27,GPIO3_27*%
%TO.N,Net-(U1-GPIO3)*%
X143579813Y-111597540D03*
%TO.P,U1,28,GPIO1_28*%
%TO.N,unconnected-(U1-GPIO1-Pad28)*%
X141039813Y-111597540D03*
%TO.P,U1,29,GPIO22_29*%
%TO.N,unconnected-(U1-GPIO22-Pad29)*%
X138499813Y-111597540D03*
%TO.P,U1,30,GPIO23_30*%
%TO.N,unconnected-(U1-GPIO23-Pad30)*%
X135959813Y-111597540D03*
%TD*%
D10*
%TO.P,extra2,1,1_1*%
%TO.N,Net-(U1-GPIO17)*%
X114750000Y-133750000D03*
X121250000Y-133750000D03*
%TO.P,extra2,2,2_2*%
%TO.N,Net-(Bat_Pos1-Pin_1)*%
X114750000Y-138250000D03*
X121250000Y-138250000D03*
%TD*%
D12*
%TO.P,TP6,1,1_1*%
%TO.N,Net-(U1-GPIO5)*%
X104000000Y-130500000D03*
%TD*%
%TO.P,TP2,1,1_1*%
%TO.N,Net-(U1-GPIO2)*%
X182000000Y-117500000D03*
%TD*%
D16*
%TO.P,switch,1,A_1*%
%TO.N,Net-(Bat_Pos1-Pin_2)*%
X180460000Y-143000000D03*
D11*
%TO.P,switch,2,B_2*%
%TO.N,Net-(SW13-B)*%
X177920000Y-143000000D03*
%TO.P,switch,3,C_3*%
%TO.N,unconnected-(SW13-C-Pad3)*%
X183000000Y-143000000D03*
%TD*%
D10*
%TO.P,Extra1,1,1_1*%
%TO.N,Net-(U1-GPIO5)*%
X103000000Y-134000000D03*
X109500000Y-134000000D03*
%TO.P,Extra1,2,2_2*%
%TO.N,Net-(Bat_Pos1-Pin_1)*%
X103000000Y-138500000D03*
X109500000Y-138500000D03*
%TD*%
%TO.P,Reset,1,1_1*%
%TO.N,Net-(Bat_Pos1-Pin_1)*%
X133500000Y-148500000D03*
X127000000Y-148500000D03*
%TO.P,Reset,2,2_2*%
%TO.N,Net-(U1-EN)*%
X133500000Y-144000000D03*
X127000000Y-144000000D03*
%TD*%
%TO.P,Start,1,1_1*%
%TO.N,Net-(U1-GPIO4)*%
X202944365Y-135500000D03*
X196444365Y-135500000D03*
%TO.P,Start,2,2_2*%
%TO.N,Net-(Bat_Pos1-Pin_1)*%
X202944365Y-131000000D03*
X196444365Y-131000000D03*
%TD*%
D12*
%TO.P,TP8,1,1_1*%
%TO.N,Net-(U1-GPIO19)*%
X107500000Y-121250000D03*
%TD*%
%TO.P,TP10,1,1_1*%
%TO.N,Net-(U1-GPIO3)*%
X120000000Y-113500000D03*
%TD*%
D11*
%TO.P,R3,1*%
%TO.N,Net-(U1-GPIO39)*%
X141000000Y-142690000D03*
%TO.P,R3,2*%
%TO.N,Net-(D1-RA)*%
X141000000Y-150310000D03*
%TD*%
D17*
%TO.P,IND_LED,1,BA_1*%
%TO.N,Net-(D1-BA)*%
X158000000Y-143182000D03*
D18*
%TO.P,IND_LED,2,GA_2*%
%TO.N,Net-(D1-GA)*%
X158000000Y-145341000D03*
%TO.P,IND_LED,3,K_3*%
%TO.N,Net-(Bat_Pos1-Pin_1)*%
X158000000Y-147500000D03*
%TO.P,IND_LED,4,RA_4*%
%TO.N,Net-(D1-RA)*%
X158000000Y-149659000D03*
%TD*%
D10*
%TO.P,Select,1,1_1*%
%TO.N,Net-(U1-GPIO16)*%
X192444365Y-135500000D03*
X198944365Y-135500000D03*
%TO.P,Select,2,2_2*%
%TO.N,Net-(Bat_Pos1-Pin_1)*%
X192444365Y-131000000D03*
X198944365Y-131000000D03*
%TD*%
D12*
%TO.P,TP9,1,1_1*%
%TO.N,Net-(U1-GPIO21)*%
X126500000Y-121000000D03*
%TD*%
D10*
%TO.P,Left,1,1_1*%
%TO.N,Net-(U1-GPIO19)*%
X104750000Y-121250000D03*
X98250000Y-121250000D03*
%TO.P,Left,2,2_2*%
%TO.N,Net-(Bat_Pos1-Pin_1)*%
X104750000Y-116750000D03*
X98250000Y-116750000D03*
%TD*%
D12*
%TO.P,TP7,1,1_1*%
%TO.N,Net-(U1-GPIO18)*%
X119500000Y-128750000D03*
%TD*%
%TO.P,TP13,1,1_1*%
%TO.N,Net-(Bat_Pos1-Pin_2)*%
X176500000Y-147000000D03*
%TD*%
%TO.P,TP3,1,1_1*%
%TO.N,Net-(U1-GPIO4)*%
X182500000Y-130000000D03*
%TD*%
D10*
%TO.P,A,1,1_1*%
%TO.N,Net-(U1-GPIO2)*%
X191750000Y-117500000D03*
X185250000Y-117500000D03*
%TO.P,A,2,2_2*%
%TO.N,Net-(Bat_Pos1-Pin_1)*%
X191750000Y-113000000D03*
X185250000Y-113000000D03*
%TD*%
D11*
%TO.P,R2,1*%
%TO.N,Net-(U1-GPIO35)*%
X145050000Y-142690000D03*
%TO.P,R2,2*%
%TO.N,Net-(D1-GA)*%
X145050000Y-150310000D03*
%TD*%
D10*
%TO.P,Right,1,1_1*%
%TO.N,Net-(U1-GPIO21)*%
X122250000Y-121250000D03*
X115750000Y-121250000D03*
%TO.P,Right,2,2_2*%
%TO.N,Net-(Bat_Pos1-Pin_1)*%
X122250000Y-116750000D03*
X115750000Y-116750000D03*
%TD*%
%TO.P,Down,1,1_1*%
%TO.N,Net-(U1-GPIO18)*%
X114250000Y-128750000D03*
X107750000Y-128750000D03*
%TO.P,Down,2,2_2*%
%TO.N,Net-(Bat_Pos1-Pin_1)*%
X114250000Y-124250000D03*
X107750000Y-124250000D03*
%TD*%
D12*
%TO.P,TP12,1,1_1*%
%TO.N,Net-(U1-EN)*%
X136000000Y-140500000D03*
%TD*%
%TO.N,Net-(U1-GPIO19)*%
D19*
X148659813Y-111597540D02*
X134607353Y-125650000D01*
X134607353Y-125650000D02*
X113150000Y-125650000D01*
X113150000Y-125650000D02*
X108750000Y-121250000D01*
X108750000Y-121250000D02*
X104750000Y-121250000D01*
%TO.N,Net-(U1-GPIO5)*%
X104000000Y-130500000D02*
X103000000Y-131500000D01*
%TO.N,Net-(U1-GPIO17)*%
X154750000Y-132000000D02*
X123000000Y-132000000D01*
X123000000Y-132000000D02*
X121250000Y-133750000D01*
%TO.N,Net-(U1-EN)*%
X135959813Y-136997540D02*
X135959813Y-143540187D01*
X135959813Y-143540187D02*
X135500000Y-144000000D01*
X135500000Y-144000000D02*
X127000000Y-144000000D01*
%TO.N,Net-(D1-RA)*%
X156500000Y-153500000D02*
X158000000Y-152000000D01*
%TO.N,Net-(D1-GA)*%
X155000000Y-152500000D02*
X156000000Y-151500000D01*
%TO.N,Net-(D1-BA)*%
X155000000Y-151400000D02*
X155000000Y-146182000D01*
X155000000Y-146182000D02*
X158000000Y-143182000D01*
X149400000Y-151900000D02*
X154500000Y-151900000D01*
X149100000Y-151600000D02*
X149400000Y-151900000D01*
X154500000Y-151900000D02*
X155000000Y-151400000D01*
X149100000Y-150310000D02*
X149100000Y-151600000D01*
%TO.N,Net-(D1-RA)*%
X141000000Y-152500000D02*
X142000000Y-153500000D01*
%TO.N,Net-(Bat_Pos1-Pin_1)*%
D20*
X169000000Y-137017727D02*
X168979813Y-136997540D01*
%TO.N,Net-(Bat_Pos1-Pin_2)*%
X176500000Y-144500000D02*
X178960000Y-144500000D01*
X176500000Y-144500000D02*
X176500000Y-147000000D01*
X178960000Y-144500000D02*
X180460000Y-143000000D01*
X171500000Y-144500000D02*
X176500000Y-144500000D01*
%TO.N,Net-(D1-GA)*%
D19*
X145050000Y-150310000D02*
X145050000Y-152050000D01*
X145050000Y-152050000D02*
X145500000Y-152500000D01*
X156000000Y-151500000D02*
X156000000Y-147341000D01*
X156000000Y-147341000D02*
X158000000Y-145341000D01*
X145500000Y-152500000D02*
X155000000Y-152500000D01*
%TO.N,Net-(D1-RA)*%
X142000000Y-153500000D02*
X156500000Y-153500000D01*
X141000000Y-150310000D02*
X141000000Y-152500000D01*
X158000000Y-152000000D02*
X158000000Y-149659000D01*
%TO.N,Net-(U1-GPIO33)*%
X149100000Y-139097353D02*
X151199813Y-136997540D01*
X149100000Y-142690000D02*
X149100000Y-139097353D01*
%TO.N,Net-(U1-GPIO35)*%
X145050000Y-142690000D02*
X145050000Y-138067353D01*
X145050000Y-138067353D02*
X146119813Y-136997540D01*
%TO.N,Net-(U1-GPIO39)*%
X141000000Y-142690000D02*
X141000000Y-137037353D01*
X141000000Y-137037353D02*
X141039813Y-136997540D01*
%TO.N,Net-(U1-GPIO15)*%
X166439813Y-111597540D02*
X168787353Y-109250000D01*
X168787353Y-109250000D02*
X202250000Y-109250000D01*
%TO.N,Net-(U1-GPIO2)*%
X164500000Y-117500000D02*
X185250000Y-117500000D01*
X163899813Y-116899813D02*
X164500000Y-117500000D01*
X185250000Y-117500000D02*
X191750000Y-117500000D01*
X163899813Y-111597540D02*
X163899813Y-116899813D01*
%TO.N,Net-(U1-GPIO4)*%
X186600000Y-134100000D02*
X195044365Y-134100000D01*
X161359813Y-111597540D02*
X161359813Y-115359813D01*
X176000000Y-130000000D02*
X182500000Y-130000000D01*
X195044365Y-134100000D02*
X196444365Y-135500000D01*
X196444365Y-135500000D02*
X202944365Y-135500000D01*
X161359813Y-115359813D02*
X176000000Y-130000000D01*
X182500000Y-130000000D02*
X186600000Y-134100000D01*
%TO.N,Net-(U1-GPIO16)*%
X158819813Y-114708543D02*
X179611270Y-135500000D01*
X158819813Y-111597540D02*
X158819813Y-114708543D01*
X179611270Y-135500000D02*
X192444365Y-135500000D01*
%TO.N,Net-(U1-GPIO17)*%
X121250000Y-133750000D02*
X114750000Y-133750000D01*
X156279813Y-130470187D02*
X154750000Y-132000000D01*
X156279813Y-111597540D02*
X156279813Y-130470187D01*
X156279813Y-111597540D02*
X156402460Y-111597540D01*
X156402460Y-111597540D02*
X156500000Y-111500000D01*
%TO.N,Net-(U1-GPIO5)*%
X109500000Y-134000000D02*
X103000000Y-134000000D01*
X153739813Y-129000000D02*
X152239813Y-130500000D01*
X153739813Y-111597540D02*
X153739813Y-129000000D01*
X103000000Y-131500000D02*
X103000000Y-134000000D01*
X152239813Y-130500000D02*
X104000000Y-130500000D01*
%TO.N,Net-(U1-GPIO18)*%
X151199813Y-111597540D02*
X134047353Y-128750000D01*
X114250000Y-128750000D02*
X107750000Y-128750000D01*
X134047353Y-128750000D02*
X114250000Y-128750000D01*
%TO.N,Net-(U1-GPIO19)*%
X104750000Y-121250000D02*
X98250000Y-121250000D01*
%TO.N,Net-(U1-GPIO21)*%
X136467353Y-121250000D02*
X115750000Y-121250000D01*
X146119813Y-111597540D02*
X136467353Y-121250000D01*
%TO.N,Net-(U1-GPIO3)*%
X126319899Y-114840000D02*
X123819899Y-114840000D01*
X123819899Y-114840000D02*
X122729899Y-113750000D01*
X140337353Y-114840000D02*
X126319899Y-114840000D01*
X122729899Y-113750000D02*
X107750000Y-113750000D01*
X143579813Y-111597540D02*
X140337353Y-114840000D01*
%TO.N,Net-(SW13-B)*%
D20*
X171500000Y-137017353D02*
X171519813Y-136997540D01*
X177920000Y-143000000D02*
X171917540Y-136997540D01*
X171917540Y-136997540D02*
X171519813Y-136997540D01*
%TD*%
M02*
