%TF.GenerationSoftware,KiCad,Pcbnew,10.0.3*%
%TF.CreationDate,2026-06-03T21:09:29+05:30*%
%TF.ProjectId,KiCad,4b694361-642e-46b6-9963-61645f706362,rev?*%
%TF.SameCoordinates,Original*%
%TF.FileFunction,Legend,Top*%
%TF.FilePolarity,Positive*%
%FSLAX46Y46*%
G04 Gerber Fmt 4.6, Leading zero omitted, Abs format (unit mm)*
G04 Created by KiCad (PCBNEW 10.0.3) date 2026-06-03 21:09:29*
%MOMM*%
%LPD*%
G01*
G04 APERTURE LIST*
%ADD10C,0.100000*%
%ADD11C,0.150000*%
%ADD12C,0.120000*%
%ADD13C,0.200000*%
G04 APERTURE END LIST*
D10*
X185873884Y-153372419D02*
X185873884Y-152372419D01*
X185873884Y-152372419D02*
X186111979Y-152372419D01*
X186111979Y-152372419D02*
X186254836Y-152420038D01*
X186254836Y-152420038D02*
X186350074Y-152515276D01*
X186350074Y-152515276D02*
X186397693Y-152610514D01*
X186397693Y-152610514D02*
X186445312Y-152800990D01*
X186445312Y-152800990D02*
X186445312Y-152943847D01*
X186445312Y-152943847D02*
X186397693Y-153134323D01*
X186397693Y-153134323D02*
X186350074Y-153229561D01*
X186350074Y-153229561D02*
X186254836Y-153324800D01*
X186254836Y-153324800D02*
X186111979Y-153372419D01*
X186111979Y-153372419D02*
X185873884Y-153372419D01*
X187254836Y-153324800D02*
X187159598Y-153372419D01*
X187159598Y-153372419D02*
X186969122Y-153372419D01*
X186969122Y-153372419D02*
X186873884Y-153324800D01*
X186873884Y-153324800D02*
X186826265Y-153229561D01*
X186826265Y-153229561D02*
X186826265Y-152848609D01*
X186826265Y-152848609D02*
X186873884Y-152753371D01*
X186873884Y-152753371D02*
X186969122Y-152705752D01*
X186969122Y-152705752D02*
X187159598Y-152705752D01*
X187159598Y-152705752D02*
X187254836Y-152753371D01*
X187254836Y-152753371D02*
X187302455Y-152848609D01*
X187302455Y-152848609D02*
X187302455Y-152943847D01*
X187302455Y-152943847D02*
X186826265Y-153039085D01*
X187683408Y-153324800D02*
X187778646Y-153372419D01*
X187778646Y-153372419D02*
X187969122Y-153372419D01*
X187969122Y-153372419D02*
X188064360Y-153324800D01*
X188064360Y-153324800D02*
X188111979Y-153229561D01*
X188111979Y-153229561D02*
X188111979Y-153181942D01*
X188111979Y-153181942D02*
X188064360Y-153086704D01*
X188064360Y-153086704D02*
X187969122Y-153039085D01*
X187969122Y-153039085D02*
X187826265Y-153039085D01*
X187826265Y-153039085D02*
X187731027Y-152991466D01*
X187731027Y-152991466D02*
X187683408Y-152896228D01*
X187683408Y-152896228D02*
X187683408Y-152848609D01*
X187683408Y-152848609D02*
X187731027Y-152753371D01*
X187731027Y-152753371D02*
X187826265Y-152705752D01*
X187826265Y-152705752D02*
X187969122Y-152705752D01*
X187969122Y-152705752D02*
X188064360Y-152753371D01*
X188540551Y-153372419D02*
X188540551Y-152705752D01*
X188540551Y-152372419D02*
X188492932Y-152420038D01*
X188492932Y-152420038D02*
X188540551Y-152467657D01*
X188540551Y-152467657D02*
X188588170Y-152420038D01*
X188588170Y-152420038D02*
X188540551Y-152372419D01*
X188540551Y-152372419D02*
X188540551Y-152467657D01*
X189445312Y-152705752D02*
X189445312Y-153515276D01*
X189445312Y-153515276D02*
X189397693Y-153610514D01*
X189397693Y-153610514D02*
X189350074Y-153658133D01*
X189350074Y-153658133D02*
X189254836Y-153705752D01*
X189254836Y-153705752D02*
X189111979Y-153705752D01*
X189111979Y-153705752D02*
X189016741Y-153658133D01*
X189445312Y-153324800D02*
X189350074Y-153372419D01*
X189350074Y-153372419D02*
X189159598Y-153372419D01*
X189159598Y-153372419D02*
X189064360Y-153324800D01*
X189064360Y-153324800D02*
X189016741Y-153277180D01*
X189016741Y-153277180D02*
X188969122Y-153181942D01*
X188969122Y-153181942D02*
X188969122Y-152896228D01*
X188969122Y-152896228D02*
X189016741Y-152800990D01*
X189016741Y-152800990D02*
X189064360Y-152753371D01*
X189064360Y-152753371D02*
X189159598Y-152705752D01*
X189159598Y-152705752D02*
X189350074Y-152705752D01*
X189350074Y-152705752D02*
X189445312Y-152753371D01*
X189921503Y-152705752D02*
X189921503Y-153372419D01*
X189921503Y-152800990D02*
X189969122Y-152753371D01*
X189969122Y-152753371D02*
X190064360Y-152705752D01*
X190064360Y-152705752D02*
X190207217Y-152705752D01*
X190207217Y-152705752D02*
X190302455Y-152753371D01*
X190302455Y-152753371D02*
X190350074Y-152848609D01*
X190350074Y-152848609D02*
X190350074Y-153372419D01*
X191207217Y-153324800D02*
X191111979Y-153372419D01*
X191111979Y-153372419D02*
X190921503Y-153372419D01*
X190921503Y-153372419D02*
X190826265Y-153324800D01*
X190826265Y-153324800D02*
X190778646Y-153229561D01*
X190778646Y-153229561D02*
X190778646Y-152848609D01*
X190778646Y-152848609D02*
X190826265Y-152753371D01*
X190826265Y-152753371D02*
X190921503Y-152705752D01*
X190921503Y-152705752D02*
X191111979Y-152705752D01*
X191111979Y-152705752D02*
X191207217Y-152753371D01*
X191207217Y-152753371D02*
X191254836Y-152848609D01*
X191254836Y-152848609D02*
X191254836Y-152943847D01*
X191254836Y-152943847D02*
X190778646Y-153039085D01*
X192111979Y-153372419D02*
X192111979Y-152372419D01*
X192111979Y-153324800D02*
X192016741Y-153372419D01*
X192016741Y-153372419D02*
X191826265Y-153372419D01*
X191826265Y-153372419D02*
X191731027Y-153324800D01*
X191731027Y-153324800D02*
X191683408Y-153277180D01*
X191683408Y-153277180D02*
X191635789Y-153181942D01*
X191635789Y-153181942D02*
X191635789Y-152896228D01*
X191635789Y-152896228D02*
X191683408Y-152800990D01*
X191683408Y-152800990D02*
X191731027Y-152753371D01*
X191731027Y-152753371D02*
X191826265Y-152705752D01*
X191826265Y-152705752D02*
X192016741Y-152705752D01*
X192016741Y-152705752D02*
X192111979Y-152753371D01*
X193683408Y-152848609D02*
X193826265Y-152896228D01*
X193826265Y-152896228D02*
X193873884Y-152943847D01*
X193873884Y-152943847D02*
X193921503Y-153039085D01*
X193921503Y-153039085D02*
X193921503Y-153181942D01*
X193921503Y-153181942D02*
X193873884Y-153277180D01*
X193873884Y-153277180D02*
X193826265Y-153324800D01*
X193826265Y-153324800D02*
X193731027Y-153372419D01*
X193731027Y-153372419D02*
X193350075Y-153372419D01*
X193350075Y-153372419D02*
X193350075Y-152372419D01*
X193350075Y-152372419D02*
X193683408Y-152372419D01*
X193683408Y-152372419D02*
X193778646Y-152420038D01*
X193778646Y-152420038D02*
X193826265Y-152467657D01*
X193826265Y-152467657D02*
X193873884Y-152562895D01*
X193873884Y-152562895D02*
X193873884Y-152658133D01*
X193873884Y-152658133D02*
X193826265Y-152753371D01*
X193826265Y-152753371D02*
X193778646Y-152800990D01*
X193778646Y-152800990D02*
X193683408Y-152848609D01*
X193683408Y-152848609D02*
X193350075Y-152848609D01*
X194254837Y-152705752D02*
X194492932Y-153372419D01*
X194731027Y-152705752D02*
X194492932Y-153372419D01*
X194492932Y-153372419D02*
X194397694Y-153610514D01*
X194397694Y-153610514D02*
X194350075Y-153658133D01*
X194350075Y-153658133D02*
X194254837Y-153705752D01*
X195873885Y-152848609D02*
X196207218Y-152848609D01*
X196350075Y-153372419D02*
X195873885Y-153372419D01*
X195873885Y-153372419D02*
X195873885Y-152372419D01*
X195873885Y-152372419D02*
X196350075Y-152372419D01*
X196778647Y-153372419D02*
X196778647Y-152705752D01*
X196778647Y-152800990D02*
X196826266Y-152753371D01*
X196826266Y-152753371D02*
X196921504Y-152705752D01*
X196921504Y-152705752D02*
X197064361Y-152705752D01*
X197064361Y-152705752D02*
X197159599Y-152753371D01*
X197159599Y-152753371D02*
X197207218Y-152848609D01*
X197207218Y-152848609D02*
X197207218Y-153372419D01*
X197207218Y-152848609D02*
X197254837Y-152753371D01*
X197254837Y-152753371D02*
X197350075Y-152705752D01*
X197350075Y-152705752D02*
X197492932Y-152705752D01*
X197492932Y-152705752D02*
X197588171Y-152753371D01*
X197588171Y-152753371D02*
X197635790Y-152848609D01*
X197635790Y-152848609D02*
X197635790Y-153372419D01*
X198111980Y-152705752D02*
X198111980Y-153705752D01*
X198111980Y-152753371D02*
X198207218Y-152705752D01*
X198207218Y-152705752D02*
X198397694Y-152705752D01*
X198397694Y-152705752D02*
X198492932Y-152753371D01*
X198492932Y-152753371D02*
X198540551Y-152800990D01*
X198540551Y-152800990D02*
X198588170Y-152896228D01*
X198588170Y-152896228D02*
X198588170Y-153181942D01*
X198588170Y-153181942D02*
X198540551Y-153277180D01*
X198540551Y-153277180D02*
X198492932Y-153324800D01*
X198492932Y-153324800D02*
X198397694Y-153372419D01*
X198397694Y-153372419D02*
X198207218Y-153372419D01*
X198207218Y-153372419D02*
X198111980Y-153324800D01*
X198873885Y-152705752D02*
X199254837Y-152705752D01*
X199016742Y-152372419D02*
X199016742Y-153229561D01*
X199016742Y-153229561D02*
X199064361Y-153324800D01*
X199064361Y-153324800D02*
X199159599Y-153372419D01*
X199159599Y-153372419D02*
X199254837Y-153372419D01*
X199588171Y-153372419D02*
X199588171Y-152705752D01*
X199588171Y-152372419D02*
X199540552Y-152420038D01*
X199540552Y-152420038D02*
X199588171Y-152467657D01*
X199588171Y-152467657D02*
X199635790Y-152420038D01*
X199635790Y-152420038D02*
X199588171Y-152372419D01*
X199588171Y-152372419D02*
X199588171Y-152467657D01*
X200445313Y-153324800D02*
X200350075Y-153372419D01*
X200350075Y-153372419D02*
X200159599Y-153372419D01*
X200159599Y-153372419D02*
X200064361Y-153324800D01*
X200064361Y-153324800D02*
X200016742Y-153229561D01*
X200016742Y-153229561D02*
X200016742Y-152848609D01*
X200016742Y-152848609D02*
X200064361Y-152753371D01*
X200064361Y-152753371D02*
X200159599Y-152705752D01*
X200159599Y-152705752D02*
X200350075Y-152705752D01*
X200350075Y-152705752D02*
X200445313Y-152753371D01*
X200445313Y-152753371D02*
X200492932Y-152848609D01*
X200492932Y-152848609D02*
X200492932Y-152943847D01*
X200492932Y-152943847D02*
X200016742Y-153039085D01*
X201350075Y-153372419D02*
X201350075Y-152372419D01*
X201350075Y-153324800D02*
X201254837Y-153372419D01*
X201254837Y-153372419D02*
X201064361Y-153372419D01*
X201064361Y-153372419D02*
X200969123Y-153324800D01*
X200969123Y-153324800D02*
X200921504Y-153277180D01*
X200921504Y-153277180D02*
X200873885Y-153181942D01*
X200873885Y-153181942D02*
X200873885Y-152896228D01*
X200873885Y-152896228D02*
X200921504Y-152800990D01*
X200921504Y-152800990D02*
X200969123Y-152753371D01*
X200969123Y-152753371D02*
X201064361Y-152705752D01*
X201064361Y-152705752D02*
X201254837Y-152705752D01*
X201254837Y-152705752D02*
X201350075Y-152753371D01*
X201683409Y-152705752D02*
X202064361Y-152705752D01*
X201826266Y-153372419D02*
X201826266Y-152515276D01*
X201826266Y-152515276D02*
X201873885Y-152420038D01*
X201873885Y-152420038D02*
X201969123Y-152372419D01*
X201969123Y-152372419D02*
X202064361Y-152372419D01*
X202826266Y-152705752D02*
X202826266Y-153372419D01*
X202397695Y-152705752D02*
X202397695Y-153229561D01*
X202397695Y-153229561D02*
X202445314Y-153324800D01*
X202445314Y-153324800D02*
X202540552Y-153372419D01*
X202540552Y-153372419D02*
X202683409Y-153372419D01*
X202683409Y-153372419D02*
X202778647Y-153324800D01*
X202778647Y-153324800D02*
X202826266Y-153277180D01*
X203445314Y-153372419D02*
X203350076Y-153324800D01*
X203350076Y-153324800D02*
X203302457Y-153229561D01*
X203302457Y-153229561D02*
X203302457Y-152372419D01*
X203969124Y-153372419D02*
X203873886Y-153324800D01*
X203873886Y-153324800D02*
X203826267Y-153229561D01*
X203826267Y-153229561D02*
X203826267Y-152372419D01*
D11*
X110261905Y-115204819D02*
X110261905Y-116014342D01*
X110261905Y-116014342D02*
X110309524Y-116109580D01*
X110309524Y-116109580D02*
X110357143Y-116157200D01*
X110357143Y-116157200D02*
X110452381Y-116204819D01*
X110452381Y-116204819D02*
X110642857Y-116204819D01*
X110642857Y-116204819D02*
X110738095Y-116157200D01*
X110738095Y-116157200D02*
X110785714Y-116109580D01*
X110785714Y-116109580D02*
X110833333Y-116014342D01*
X110833333Y-116014342D02*
X110833333Y-115204819D01*
X111309524Y-115538152D02*
X111309524Y-116538152D01*
X111309524Y-115585771D02*
X111404762Y-115538152D01*
X111404762Y-115538152D02*
X111595238Y-115538152D01*
X111595238Y-115538152D02*
X111690476Y-115585771D01*
X111690476Y-115585771D02*
X111738095Y-115633390D01*
X111738095Y-115633390D02*
X111785714Y-115728628D01*
X111785714Y-115728628D02*
X111785714Y-116014342D01*
X111785714Y-116014342D02*
X111738095Y-116109580D01*
X111738095Y-116109580D02*
X111690476Y-116157200D01*
X111690476Y-116157200D02*
X111595238Y-116204819D01*
X111595238Y-116204819D02*
X111404762Y-116204819D01*
X111404762Y-116204819D02*
X111309524Y-116157200D01*
X149554819Y-146666666D02*
X149078628Y-146999999D01*
X149554819Y-147238094D02*
X148554819Y-147238094D01*
X148554819Y-147238094D02*
X148554819Y-146857142D01*
X148554819Y-146857142D02*
X148602438Y-146761904D01*
X148602438Y-146761904D02*
X148650057Y-146714285D01*
X148650057Y-146714285D02*
X148745295Y-146666666D01*
X148745295Y-146666666D02*
X148888152Y-146666666D01*
X148888152Y-146666666D02*
X148983390Y-146714285D01*
X148983390Y-146714285D02*
X149031009Y-146761904D01*
X149031009Y-146761904D02*
X149078628Y-146857142D01*
X149078628Y-146857142D02*
X149078628Y-147238094D01*
X149554819Y-145714285D02*
X149554819Y-146285713D01*
X149554819Y-145999999D02*
X148554819Y-145999999D01*
X148554819Y-145999999D02*
X148697676Y-146095237D01*
X148697676Y-146095237D02*
X148792914Y-146190475D01*
X148792914Y-146190475D02*
X148840533Y-146285713D01*
X179806819Y-110261904D02*
X179806819Y-109690476D01*
X180806819Y-109976190D02*
X179806819Y-109976190D01*
X180806819Y-109357142D02*
X179806819Y-109357142D01*
X179806819Y-109357142D02*
X179806819Y-108976190D01*
X179806819Y-108976190D02*
X179854438Y-108880952D01*
X179854438Y-108880952D02*
X179902057Y-108833333D01*
X179902057Y-108833333D02*
X179997295Y-108785714D01*
X179997295Y-108785714D02*
X180140152Y-108785714D01*
X180140152Y-108785714D02*
X180235390Y-108833333D01*
X180235390Y-108833333D02*
X180283009Y-108880952D01*
X180283009Y-108880952D02*
X180330628Y-108976190D01*
X180330628Y-108976190D02*
X180330628Y-109357142D01*
X180806819Y-107833333D02*
X180806819Y-108404761D01*
X180806819Y-108119047D02*
X179806819Y-108119047D01*
X179806819Y-108119047D02*
X179949676Y-108214285D01*
X179949676Y-108214285D02*
X180044914Y-108309523D01*
X180044914Y-108309523D02*
X180092533Y-108404761D01*
X199071428Y-107181009D02*
X199214285Y-107228628D01*
X199214285Y-107228628D02*
X199261904Y-107276247D01*
X199261904Y-107276247D02*
X199309523Y-107371485D01*
X199309523Y-107371485D02*
X199309523Y-107514342D01*
X199309523Y-107514342D02*
X199261904Y-107609580D01*
X199261904Y-107609580D02*
X199214285Y-107657200D01*
X199214285Y-107657200D02*
X199119047Y-107704819D01*
X199119047Y-107704819D02*
X198738095Y-107704819D01*
X198738095Y-107704819D02*
X198738095Y-106704819D01*
X198738095Y-106704819D02*
X199071428Y-106704819D01*
X199071428Y-106704819D02*
X199166666Y-106752438D01*
X199166666Y-106752438D02*
X199214285Y-106800057D01*
X199214285Y-106800057D02*
X199261904Y-106895295D01*
X199261904Y-106895295D02*
X199261904Y-106990533D01*
X199261904Y-106990533D02*
X199214285Y-107085771D01*
X199214285Y-107085771D02*
X199166666Y-107133390D01*
X199166666Y-107133390D02*
X199071428Y-107181009D01*
X199071428Y-107181009D02*
X198738095Y-107181009D01*
X180306819Y-136761904D02*
X180306819Y-136190476D01*
X181306819Y-136476190D02*
X180306819Y-136476190D01*
X181306819Y-135857142D02*
X180306819Y-135857142D01*
X180306819Y-135857142D02*
X180306819Y-135476190D01*
X180306819Y-135476190D02*
X180354438Y-135380952D01*
X180354438Y-135380952D02*
X180402057Y-135333333D01*
X180402057Y-135333333D02*
X180497295Y-135285714D01*
X180497295Y-135285714D02*
X180640152Y-135285714D01*
X180640152Y-135285714D02*
X180735390Y-135333333D01*
X180735390Y-135333333D02*
X180783009Y-135380952D01*
X180783009Y-135380952D02*
X180830628Y-135476190D01*
X180830628Y-135476190D02*
X180830628Y-135857142D01*
X180640152Y-134428571D02*
X181306819Y-134428571D01*
X180259200Y-134666666D02*
X180973485Y-134904761D01*
X180973485Y-134904761D02*
X180973485Y-134285714D01*
X124738095Y-133102819D02*
X125309523Y-133102819D01*
X125023809Y-134102819D02*
X125023809Y-133102819D01*
X125642857Y-134102819D02*
X125642857Y-133102819D01*
X125642857Y-133102819D02*
X126023809Y-133102819D01*
X126023809Y-133102819D02*
X126119047Y-133150438D01*
X126119047Y-133150438D02*
X126166666Y-133198057D01*
X126166666Y-133198057D02*
X126214285Y-133293295D01*
X126214285Y-133293295D02*
X126214285Y-133436152D01*
X126214285Y-133436152D02*
X126166666Y-133531390D01*
X126166666Y-133531390D02*
X126119047Y-133579009D01*
X126119047Y-133579009D02*
X126023809Y-133626628D01*
X126023809Y-133626628D02*
X125642857Y-133626628D01*
X127119047Y-133102819D02*
X126642857Y-133102819D01*
X126642857Y-133102819D02*
X126595238Y-133579009D01*
X126595238Y-133579009D02*
X126642857Y-133531390D01*
X126642857Y-133531390D02*
X126738095Y-133483771D01*
X126738095Y-133483771D02*
X126976190Y-133483771D01*
X126976190Y-133483771D02*
X127071428Y-133531390D01*
X127071428Y-133531390D02*
X127119047Y-133579009D01*
X127119047Y-133579009D02*
X127166666Y-133674247D01*
X127166666Y-133674247D02*
X127166666Y-133912342D01*
X127166666Y-133912342D02*
X127119047Y-134007580D01*
X127119047Y-134007580D02*
X127071428Y-134055200D01*
X127071428Y-134055200D02*
X126976190Y-134102819D01*
X126976190Y-134102819D02*
X126738095Y-134102819D01*
X126738095Y-134102819D02*
X126642857Y-134055200D01*
X126642857Y-134055200D02*
X126595238Y-134007580D01*
X168178570Y-141631009D02*
X168321427Y-141678628D01*
X168321427Y-141678628D02*
X168369046Y-141726247D01*
X168369046Y-141726247D02*
X168416665Y-141821485D01*
X168416665Y-141821485D02*
X168416665Y-141964342D01*
X168416665Y-141964342D02*
X168369046Y-142059580D01*
X168369046Y-142059580D02*
X168321427Y-142107200D01*
X168321427Y-142107200D02*
X168226189Y-142154819D01*
X168226189Y-142154819D02*
X167845237Y-142154819D01*
X167845237Y-142154819D02*
X167845237Y-141154819D01*
X167845237Y-141154819D02*
X168178570Y-141154819D01*
X168178570Y-141154819D02*
X168273808Y-141202438D01*
X168273808Y-141202438D02*
X168321427Y-141250057D01*
X168321427Y-141250057D02*
X168369046Y-141345295D01*
X168369046Y-141345295D02*
X168369046Y-141440533D01*
X168369046Y-141440533D02*
X168321427Y-141535771D01*
X168321427Y-141535771D02*
X168273808Y-141583390D01*
X168273808Y-141583390D02*
X168178570Y-141631009D01*
X168178570Y-141631009D02*
X167845237Y-141631009D01*
X169273808Y-142154819D02*
X169273808Y-141631009D01*
X169273808Y-141631009D02*
X169226189Y-141535771D01*
X169226189Y-141535771D02*
X169130951Y-141488152D01*
X169130951Y-141488152D02*
X168940475Y-141488152D01*
X168940475Y-141488152D02*
X168845237Y-141535771D01*
X169273808Y-142107200D02*
X169178570Y-142154819D01*
X169178570Y-142154819D02*
X168940475Y-142154819D01*
X168940475Y-142154819D02*
X168845237Y-142107200D01*
X168845237Y-142107200D02*
X168797618Y-142011961D01*
X168797618Y-142011961D02*
X168797618Y-141916723D01*
X168797618Y-141916723D02*
X168845237Y-141821485D01*
X168845237Y-141821485D02*
X168940475Y-141773866D01*
X168940475Y-141773866D02*
X169178570Y-141773866D01*
X169178570Y-141773866D02*
X169273808Y-141726247D01*
X169607142Y-141488152D02*
X169988094Y-141488152D01*
X169749999Y-141154819D02*
X169749999Y-142011961D01*
X169749999Y-142011961D02*
X169797618Y-142107200D01*
X169797618Y-142107200D02*
X169892856Y-142154819D01*
X169892856Y-142154819D02*
X169988094Y-142154819D01*
X170178571Y-141488152D02*
X170559523Y-141488152D01*
X170321428Y-141154819D02*
X170321428Y-142011961D01*
X170321428Y-142011961D02*
X170369047Y-142107200D01*
X170369047Y-142107200D02*
X170464285Y-142154819D01*
X170464285Y-142154819D02*
X170559523Y-142154819D01*
X171273809Y-142107200D02*
X171178571Y-142154819D01*
X171178571Y-142154819D02*
X170988095Y-142154819D01*
X170988095Y-142154819D02*
X170892857Y-142107200D01*
X170892857Y-142107200D02*
X170845238Y-142011961D01*
X170845238Y-142011961D02*
X170845238Y-141631009D01*
X170845238Y-141631009D02*
X170892857Y-141535771D01*
X170892857Y-141535771D02*
X170988095Y-141488152D01*
X170988095Y-141488152D02*
X171178571Y-141488152D01*
X171178571Y-141488152D02*
X171273809Y-141535771D01*
X171273809Y-141535771D02*
X171321428Y-141631009D01*
X171321428Y-141631009D02*
X171321428Y-141726247D01*
X171321428Y-141726247D02*
X170845238Y-141821485D01*
X171750000Y-142154819D02*
X171750000Y-141488152D01*
X171750000Y-141678628D02*
X171797619Y-141583390D01*
X171797619Y-141583390D02*
X171845238Y-141535771D01*
X171845238Y-141535771D02*
X171940476Y-141488152D01*
X171940476Y-141488152D02*
X172035714Y-141488152D01*
X172273810Y-141488152D02*
X172511905Y-142154819D01*
X172750000Y-141488152D02*
X172511905Y-142154819D01*
X172511905Y-142154819D02*
X172416667Y-142392914D01*
X172416667Y-142392914D02*
X172369048Y-142440533D01*
X172369048Y-142440533D02*
X172273810Y-142488152D01*
X152342908Y-123252359D02*
X152342908Y-124061882D01*
X152342908Y-124061882D02*
X152390527Y-124157120D01*
X152390527Y-124157120D02*
X152438146Y-124204740D01*
X152438146Y-124204740D02*
X152533384Y-124252359D01*
X152533384Y-124252359D02*
X152723860Y-124252359D01*
X152723860Y-124252359D02*
X152819098Y-124204740D01*
X152819098Y-124204740D02*
X152866717Y-124157120D01*
X152866717Y-124157120D02*
X152914336Y-124061882D01*
X152914336Y-124061882D02*
X152914336Y-123252359D01*
X153914336Y-124252359D02*
X153342908Y-124252359D01*
X153628622Y-124252359D02*
X153628622Y-123252359D01*
X153628622Y-123252359D02*
X153533384Y-123395216D01*
X153533384Y-123395216D02*
X153438146Y-123490454D01*
X153438146Y-123490454D02*
X153342908Y-123538073D01*
D10*
X135420038Y-117666115D02*
X135372419Y-117770877D01*
X135372419Y-117770877D02*
X135372419Y-117928020D01*
X135372419Y-117928020D02*
X135420038Y-118085163D01*
X135420038Y-118085163D02*
X135515276Y-118189925D01*
X135515276Y-118189925D02*
X135610514Y-118242306D01*
X135610514Y-118242306D02*
X135800990Y-118294687D01*
X135800990Y-118294687D02*
X135943847Y-118294687D01*
X135943847Y-118294687D02*
X136134323Y-118242306D01*
X136134323Y-118242306D02*
X136229561Y-118189925D01*
X136229561Y-118189925D02*
X136324800Y-118085163D01*
X136324800Y-118085163D02*
X136372419Y-117928020D01*
X136372419Y-117928020D02*
X136372419Y-117823258D01*
X136372419Y-117823258D02*
X136324800Y-117666115D01*
X136324800Y-117666115D02*
X136277180Y-117613734D01*
X136277180Y-117613734D02*
X135943847Y-117613734D01*
X135943847Y-117613734D02*
X135943847Y-117823258D01*
X136372419Y-117142306D02*
X135372419Y-117142306D01*
X135372419Y-117142306D02*
X135372419Y-116723258D01*
X135372419Y-116723258D02*
X135420038Y-116618496D01*
X135420038Y-116618496D02*
X135467657Y-116566115D01*
X135467657Y-116566115D02*
X135562895Y-116513734D01*
X135562895Y-116513734D02*
X135705752Y-116513734D01*
X135705752Y-116513734D02*
X135800990Y-116566115D01*
X135800990Y-116566115D02*
X135848609Y-116618496D01*
X135848609Y-116618496D02*
X135896228Y-116723258D01*
X135896228Y-116723258D02*
X135896228Y-117142306D01*
X136372419Y-116042306D02*
X135372419Y-116042306D01*
X135372419Y-115308972D02*
X135372419Y-115099448D01*
X135372419Y-115099448D02*
X135420038Y-114994686D01*
X135420038Y-114994686D02*
X135515276Y-114889924D01*
X135515276Y-114889924D02*
X135705752Y-114837543D01*
X135705752Y-114837543D02*
X136039085Y-114837543D01*
X136039085Y-114837543D02*
X136229561Y-114889924D01*
X136229561Y-114889924D02*
X136324800Y-114994686D01*
X136324800Y-114994686D02*
X136372419Y-115099448D01*
X136372419Y-115099448D02*
X136372419Y-115308972D01*
X136372419Y-115308972D02*
X136324800Y-115413734D01*
X136324800Y-115413734D02*
X136229561Y-115518496D01*
X136229561Y-115518496D02*
X136039085Y-115570877D01*
X136039085Y-115570877D02*
X135705752Y-115570877D01*
X135705752Y-115570877D02*
X135515276Y-115518496D01*
X135515276Y-115518496D02*
X135420038Y-115413734D01*
X135420038Y-115413734D02*
X135372419Y-115308972D01*
X135467657Y-114418496D02*
X135420038Y-114366115D01*
X135420038Y-114366115D02*
X135372419Y-114261353D01*
X135372419Y-114261353D02*
X135372419Y-113999448D01*
X135372419Y-113999448D02*
X135420038Y-113894686D01*
X135420038Y-113894686D02*
X135467657Y-113842305D01*
X135467657Y-113842305D02*
X135562895Y-113789924D01*
X135562895Y-113789924D02*
X135658133Y-113789924D01*
X135658133Y-113789924D02*
X135800990Y-113842305D01*
X135800990Y-113842305D02*
X136372419Y-114470877D01*
X136372419Y-114470877D02*
X136372419Y-113789924D01*
X135372419Y-113423258D02*
X135372419Y-112742305D01*
X135372419Y-112742305D02*
X135753371Y-113108972D01*
X135753371Y-113108972D02*
X135753371Y-112951829D01*
X135753371Y-112951829D02*
X135800990Y-112847067D01*
X135800990Y-112847067D02*
X135848609Y-112794686D01*
X135848609Y-112794686D02*
X135943847Y-112742305D01*
X135943847Y-112742305D02*
X136181942Y-112742305D01*
X136181942Y-112742305D02*
X136277180Y-112794686D01*
X136277180Y-112794686D02*
X136324800Y-112847067D01*
X136324800Y-112847067D02*
X136372419Y-112951829D01*
X136372419Y-112951829D02*
X136372419Y-113266115D01*
X136372419Y-113266115D02*
X136324800Y-113370877D01*
X136324800Y-113370877D02*
X136277180Y-113423258D01*
X136348609Y-135742306D02*
X136348609Y-135375639D01*
X136872419Y-135218496D02*
X136872419Y-135742306D01*
X136872419Y-135742306D02*
X135872419Y-135742306D01*
X135872419Y-135742306D02*
X135872419Y-135218496D01*
X136872419Y-134747068D02*
X135872419Y-134747068D01*
X135872419Y-134747068D02*
X136872419Y-134118496D01*
X136872419Y-134118496D02*
X135872419Y-134118496D01*
X137920038Y-117666115D02*
X137872419Y-117770877D01*
X137872419Y-117770877D02*
X137872419Y-117928020D01*
X137872419Y-117928020D02*
X137920038Y-118085163D01*
X137920038Y-118085163D02*
X138015276Y-118189925D01*
X138015276Y-118189925D02*
X138110514Y-118242306D01*
X138110514Y-118242306D02*
X138300990Y-118294687D01*
X138300990Y-118294687D02*
X138443847Y-118294687D01*
X138443847Y-118294687D02*
X138634323Y-118242306D01*
X138634323Y-118242306D02*
X138729561Y-118189925D01*
X138729561Y-118189925D02*
X138824800Y-118085163D01*
X138824800Y-118085163D02*
X138872419Y-117928020D01*
X138872419Y-117928020D02*
X138872419Y-117823258D01*
X138872419Y-117823258D02*
X138824800Y-117666115D01*
X138824800Y-117666115D02*
X138777180Y-117613734D01*
X138777180Y-117613734D02*
X138443847Y-117613734D01*
X138443847Y-117613734D02*
X138443847Y-117823258D01*
X138872419Y-117142306D02*
X137872419Y-117142306D01*
X137872419Y-117142306D02*
X137872419Y-116723258D01*
X137872419Y-116723258D02*
X137920038Y-116618496D01*
X137920038Y-116618496D02*
X137967657Y-116566115D01*
X137967657Y-116566115D02*
X138062895Y-116513734D01*
X138062895Y-116513734D02*
X138205752Y-116513734D01*
X138205752Y-116513734D02*
X138300990Y-116566115D01*
X138300990Y-116566115D02*
X138348609Y-116618496D01*
X138348609Y-116618496D02*
X138396228Y-116723258D01*
X138396228Y-116723258D02*
X138396228Y-117142306D01*
X138872419Y-116042306D02*
X137872419Y-116042306D01*
X137872419Y-115308972D02*
X137872419Y-115099448D01*
X137872419Y-115099448D02*
X137920038Y-114994686D01*
X137920038Y-114994686D02*
X138015276Y-114889924D01*
X138015276Y-114889924D02*
X138205752Y-114837543D01*
X138205752Y-114837543D02*
X138539085Y-114837543D01*
X138539085Y-114837543D02*
X138729561Y-114889924D01*
X138729561Y-114889924D02*
X138824800Y-114994686D01*
X138824800Y-114994686D02*
X138872419Y-115099448D01*
X138872419Y-115099448D02*
X138872419Y-115308972D01*
X138872419Y-115308972D02*
X138824800Y-115413734D01*
X138824800Y-115413734D02*
X138729561Y-115518496D01*
X138729561Y-115518496D02*
X138539085Y-115570877D01*
X138539085Y-115570877D02*
X138205752Y-115570877D01*
X138205752Y-115570877D02*
X138015276Y-115518496D01*
X138015276Y-115518496D02*
X137920038Y-115413734D01*
X137920038Y-115413734D02*
X137872419Y-115308972D01*
X137967657Y-114418496D02*
X137920038Y-114366115D01*
X137920038Y-114366115D02*
X137872419Y-114261353D01*
X137872419Y-114261353D02*
X137872419Y-113999448D01*
X137872419Y-113999448D02*
X137920038Y-113894686D01*
X137920038Y-113894686D02*
X137967657Y-113842305D01*
X137967657Y-113842305D02*
X138062895Y-113789924D01*
X138062895Y-113789924D02*
X138158133Y-113789924D01*
X138158133Y-113789924D02*
X138300990Y-113842305D01*
X138300990Y-113842305D02*
X138872419Y-114470877D01*
X138872419Y-114470877D02*
X138872419Y-113789924D01*
X137967657Y-113370877D02*
X137920038Y-113318496D01*
X137920038Y-113318496D02*
X137872419Y-113213734D01*
X137872419Y-113213734D02*
X137872419Y-112951829D01*
X137872419Y-112951829D02*
X137920038Y-112847067D01*
X137920038Y-112847067D02*
X137967657Y-112794686D01*
X137967657Y-112794686D02*
X138062895Y-112742305D01*
X138062895Y-112742305D02*
X138158133Y-112742305D01*
X138158133Y-112742305D02*
X138300990Y-112794686D01*
X138300990Y-112794686D02*
X138872419Y-113423258D01*
X138872419Y-113423258D02*
X138872419Y-112742305D01*
X138420038Y-135166115D02*
X138372419Y-135270877D01*
X138372419Y-135270877D02*
X138372419Y-135428020D01*
X138372419Y-135428020D02*
X138420038Y-135585163D01*
X138420038Y-135585163D02*
X138515276Y-135689925D01*
X138515276Y-135689925D02*
X138610514Y-135742306D01*
X138610514Y-135742306D02*
X138800990Y-135794687D01*
X138800990Y-135794687D02*
X138943847Y-135794687D01*
X138943847Y-135794687D02*
X139134323Y-135742306D01*
X139134323Y-135742306D02*
X139229561Y-135689925D01*
X139229561Y-135689925D02*
X139324800Y-135585163D01*
X139324800Y-135585163D02*
X139372419Y-135428020D01*
X139372419Y-135428020D02*
X139372419Y-135323258D01*
X139372419Y-135323258D02*
X139324800Y-135166115D01*
X139324800Y-135166115D02*
X139277180Y-135113734D01*
X139277180Y-135113734D02*
X138943847Y-135113734D01*
X138943847Y-135113734D02*
X138943847Y-135323258D01*
X139372419Y-134642306D02*
X138372419Y-134642306D01*
X138372419Y-134642306D02*
X138372419Y-134223258D01*
X138372419Y-134223258D02*
X138420038Y-134118496D01*
X138420038Y-134118496D02*
X138467657Y-134066115D01*
X138467657Y-134066115D02*
X138562895Y-134013734D01*
X138562895Y-134013734D02*
X138705752Y-134013734D01*
X138705752Y-134013734D02*
X138800990Y-134066115D01*
X138800990Y-134066115D02*
X138848609Y-134118496D01*
X138848609Y-134118496D02*
X138896228Y-134223258D01*
X138896228Y-134223258D02*
X138896228Y-134642306D01*
X139372419Y-133542306D02*
X138372419Y-133542306D01*
X138372419Y-132808972D02*
X138372419Y-132599448D01*
X138372419Y-132599448D02*
X138420038Y-132494686D01*
X138420038Y-132494686D02*
X138515276Y-132389924D01*
X138515276Y-132389924D02*
X138705752Y-132337543D01*
X138705752Y-132337543D02*
X139039085Y-132337543D01*
X139039085Y-132337543D02*
X139229561Y-132389924D01*
X139229561Y-132389924D02*
X139324800Y-132494686D01*
X139324800Y-132494686D02*
X139372419Y-132599448D01*
X139372419Y-132599448D02*
X139372419Y-132808972D01*
X139372419Y-132808972D02*
X139324800Y-132913734D01*
X139324800Y-132913734D02*
X139229561Y-133018496D01*
X139229561Y-133018496D02*
X139039085Y-133070877D01*
X139039085Y-133070877D02*
X138705752Y-133070877D01*
X138705752Y-133070877D02*
X138515276Y-133018496D01*
X138515276Y-133018496D02*
X138420038Y-132913734D01*
X138420038Y-132913734D02*
X138372419Y-132808972D01*
X138372419Y-131970877D02*
X138372419Y-131289924D01*
X138372419Y-131289924D02*
X138753371Y-131656591D01*
X138753371Y-131656591D02*
X138753371Y-131499448D01*
X138753371Y-131499448D02*
X138800990Y-131394686D01*
X138800990Y-131394686D02*
X138848609Y-131342305D01*
X138848609Y-131342305D02*
X138943847Y-131289924D01*
X138943847Y-131289924D02*
X139181942Y-131289924D01*
X139181942Y-131289924D02*
X139277180Y-131342305D01*
X139277180Y-131342305D02*
X139324800Y-131394686D01*
X139324800Y-131394686D02*
X139372419Y-131499448D01*
X139372419Y-131499448D02*
X139372419Y-131813734D01*
X139372419Y-131813734D02*
X139324800Y-131918496D01*
X139324800Y-131918496D02*
X139277180Y-131970877D01*
X138372419Y-130347067D02*
X138372419Y-130556591D01*
X138372419Y-130556591D02*
X138420038Y-130661353D01*
X138420038Y-130661353D02*
X138467657Y-130713734D01*
X138467657Y-130713734D02*
X138610514Y-130818496D01*
X138610514Y-130818496D02*
X138800990Y-130870877D01*
X138800990Y-130870877D02*
X139181942Y-130870877D01*
X139181942Y-130870877D02*
X139277180Y-130818496D01*
X139277180Y-130818496D02*
X139324800Y-130766115D01*
X139324800Y-130766115D02*
X139372419Y-130661353D01*
X139372419Y-130661353D02*
X139372419Y-130451829D01*
X139372419Y-130451829D02*
X139324800Y-130347067D01*
X139324800Y-130347067D02*
X139277180Y-130294686D01*
X139277180Y-130294686D02*
X139181942Y-130242305D01*
X139181942Y-130242305D02*
X138943847Y-130242305D01*
X138943847Y-130242305D02*
X138848609Y-130294686D01*
X138848609Y-130294686D02*
X138800990Y-130347067D01*
X138800990Y-130347067D02*
X138753371Y-130451829D01*
X138753371Y-130451829D02*
X138753371Y-130661353D01*
X138753371Y-130661353D02*
X138800990Y-130766115D01*
X138800990Y-130766115D02*
X138848609Y-130818496D01*
X138848609Y-130818496D02*
X138943847Y-130870877D01*
X140420038Y-116666115D02*
X140372419Y-116770877D01*
X140372419Y-116770877D02*
X140372419Y-116928020D01*
X140372419Y-116928020D02*
X140420038Y-117085163D01*
X140420038Y-117085163D02*
X140515276Y-117189925D01*
X140515276Y-117189925D02*
X140610514Y-117242306D01*
X140610514Y-117242306D02*
X140800990Y-117294687D01*
X140800990Y-117294687D02*
X140943847Y-117294687D01*
X140943847Y-117294687D02*
X141134323Y-117242306D01*
X141134323Y-117242306D02*
X141229561Y-117189925D01*
X141229561Y-117189925D02*
X141324800Y-117085163D01*
X141324800Y-117085163D02*
X141372419Y-116928020D01*
X141372419Y-116928020D02*
X141372419Y-116823258D01*
X141372419Y-116823258D02*
X141324800Y-116666115D01*
X141324800Y-116666115D02*
X141277180Y-116613734D01*
X141277180Y-116613734D02*
X140943847Y-116613734D01*
X140943847Y-116613734D02*
X140943847Y-116823258D01*
X141372419Y-116142306D02*
X140372419Y-116142306D01*
X140372419Y-116142306D02*
X140372419Y-115723258D01*
X140372419Y-115723258D02*
X140420038Y-115618496D01*
X140420038Y-115618496D02*
X140467657Y-115566115D01*
X140467657Y-115566115D02*
X140562895Y-115513734D01*
X140562895Y-115513734D02*
X140705752Y-115513734D01*
X140705752Y-115513734D02*
X140800990Y-115566115D01*
X140800990Y-115566115D02*
X140848609Y-115618496D01*
X140848609Y-115618496D02*
X140896228Y-115723258D01*
X140896228Y-115723258D02*
X140896228Y-116142306D01*
X141372419Y-115042306D02*
X140372419Y-115042306D01*
X140372419Y-114308972D02*
X140372419Y-114099448D01*
X140372419Y-114099448D02*
X140420038Y-113994686D01*
X140420038Y-113994686D02*
X140515276Y-113889924D01*
X140515276Y-113889924D02*
X140705752Y-113837543D01*
X140705752Y-113837543D02*
X141039085Y-113837543D01*
X141039085Y-113837543D02*
X141229561Y-113889924D01*
X141229561Y-113889924D02*
X141324800Y-113994686D01*
X141324800Y-113994686D02*
X141372419Y-114099448D01*
X141372419Y-114099448D02*
X141372419Y-114308972D01*
X141372419Y-114308972D02*
X141324800Y-114413734D01*
X141324800Y-114413734D02*
X141229561Y-114518496D01*
X141229561Y-114518496D02*
X141039085Y-114570877D01*
X141039085Y-114570877D02*
X140705752Y-114570877D01*
X140705752Y-114570877D02*
X140515276Y-114518496D01*
X140515276Y-114518496D02*
X140420038Y-114413734D01*
X140420038Y-114413734D02*
X140372419Y-114308972D01*
X141372419Y-112789924D02*
X141372419Y-113418496D01*
X141372419Y-113104210D02*
X140372419Y-113104210D01*
X140372419Y-113104210D02*
X140515276Y-113208972D01*
X140515276Y-113208972D02*
X140610514Y-113313734D01*
X140610514Y-113313734D02*
X140658133Y-113418496D01*
X140920038Y-135166115D02*
X140872419Y-135270877D01*
X140872419Y-135270877D02*
X140872419Y-135428020D01*
X140872419Y-135428020D02*
X140920038Y-135585163D01*
X140920038Y-135585163D02*
X141015276Y-135689925D01*
X141015276Y-135689925D02*
X141110514Y-135742306D01*
X141110514Y-135742306D02*
X141300990Y-135794687D01*
X141300990Y-135794687D02*
X141443847Y-135794687D01*
X141443847Y-135794687D02*
X141634323Y-135742306D01*
X141634323Y-135742306D02*
X141729561Y-135689925D01*
X141729561Y-135689925D02*
X141824800Y-135585163D01*
X141824800Y-135585163D02*
X141872419Y-135428020D01*
X141872419Y-135428020D02*
X141872419Y-135323258D01*
X141872419Y-135323258D02*
X141824800Y-135166115D01*
X141824800Y-135166115D02*
X141777180Y-135113734D01*
X141777180Y-135113734D02*
X141443847Y-135113734D01*
X141443847Y-135113734D02*
X141443847Y-135323258D01*
X141872419Y-134642306D02*
X140872419Y-134642306D01*
X140872419Y-134642306D02*
X140872419Y-134223258D01*
X140872419Y-134223258D02*
X140920038Y-134118496D01*
X140920038Y-134118496D02*
X140967657Y-134066115D01*
X140967657Y-134066115D02*
X141062895Y-134013734D01*
X141062895Y-134013734D02*
X141205752Y-134013734D01*
X141205752Y-134013734D02*
X141300990Y-134066115D01*
X141300990Y-134066115D02*
X141348609Y-134118496D01*
X141348609Y-134118496D02*
X141396228Y-134223258D01*
X141396228Y-134223258D02*
X141396228Y-134642306D01*
X141872419Y-133542306D02*
X140872419Y-133542306D01*
X140872419Y-132808972D02*
X140872419Y-132599448D01*
X140872419Y-132599448D02*
X140920038Y-132494686D01*
X140920038Y-132494686D02*
X141015276Y-132389924D01*
X141015276Y-132389924D02*
X141205752Y-132337543D01*
X141205752Y-132337543D02*
X141539085Y-132337543D01*
X141539085Y-132337543D02*
X141729561Y-132389924D01*
X141729561Y-132389924D02*
X141824800Y-132494686D01*
X141824800Y-132494686D02*
X141872419Y-132599448D01*
X141872419Y-132599448D02*
X141872419Y-132808972D01*
X141872419Y-132808972D02*
X141824800Y-132913734D01*
X141824800Y-132913734D02*
X141729561Y-133018496D01*
X141729561Y-133018496D02*
X141539085Y-133070877D01*
X141539085Y-133070877D02*
X141205752Y-133070877D01*
X141205752Y-133070877D02*
X141015276Y-133018496D01*
X141015276Y-133018496D02*
X140920038Y-132913734D01*
X140920038Y-132913734D02*
X140872419Y-132808972D01*
X140872419Y-131970877D02*
X140872419Y-131289924D01*
X140872419Y-131289924D02*
X141253371Y-131656591D01*
X141253371Y-131656591D02*
X141253371Y-131499448D01*
X141253371Y-131499448D02*
X141300990Y-131394686D01*
X141300990Y-131394686D02*
X141348609Y-131342305D01*
X141348609Y-131342305D02*
X141443847Y-131289924D01*
X141443847Y-131289924D02*
X141681942Y-131289924D01*
X141681942Y-131289924D02*
X141777180Y-131342305D01*
X141777180Y-131342305D02*
X141824800Y-131394686D01*
X141824800Y-131394686D02*
X141872419Y-131499448D01*
X141872419Y-131499448D02*
X141872419Y-131813734D01*
X141872419Y-131813734D02*
X141824800Y-131918496D01*
X141824800Y-131918496D02*
X141777180Y-131970877D01*
X141872419Y-130766115D02*
X141872419Y-130556591D01*
X141872419Y-130556591D02*
X141824800Y-130451829D01*
X141824800Y-130451829D02*
X141777180Y-130399448D01*
X141777180Y-130399448D02*
X141634323Y-130294686D01*
X141634323Y-130294686D02*
X141443847Y-130242305D01*
X141443847Y-130242305D02*
X141062895Y-130242305D01*
X141062895Y-130242305D02*
X140967657Y-130294686D01*
X140967657Y-130294686D02*
X140920038Y-130347067D01*
X140920038Y-130347067D02*
X140872419Y-130451829D01*
X140872419Y-130451829D02*
X140872419Y-130661353D01*
X140872419Y-130661353D02*
X140920038Y-130766115D01*
X140920038Y-130766115D02*
X140967657Y-130818496D01*
X140967657Y-130818496D02*
X141062895Y-130870877D01*
X141062895Y-130870877D02*
X141300990Y-130870877D01*
X141300990Y-130870877D02*
X141396228Y-130818496D01*
X141396228Y-130818496D02*
X141443847Y-130766115D01*
X141443847Y-130766115D02*
X141491466Y-130661353D01*
X141491466Y-130661353D02*
X141491466Y-130451829D01*
X141491466Y-130451829D02*
X141443847Y-130347067D01*
X141443847Y-130347067D02*
X141396228Y-130294686D01*
X141396228Y-130294686D02*
X141300990Y-130242305D01*
X143420038Y-116666115D02*
X143372419Y-116770877D01*
X143372419Y-116770877D02*
X143372419Y-116928020D01*
X143372419Y-116928020D02*
X143420038Y-117085163D01*
X143420038Y-117085163D02*
X143515276Y-117189925D01*
X143515276Y-117189925D02*
X143610514Y-117242306D01*
X143610514Y-117242306D02*
X143800990Y-117294687D01*
X143800990Y-117294687D02*
X143943847Y-117294687D01*
X143943847Y-117294687D02*
X144134323Y-117242306D01*
X144134323Y-117242306D02*
X144229561Y-117189925D01*
X144229561Y-117189925D02*
X144324800Y-117085163D01*
X144324800Y-117085163D02*
X144372419Y-116928020D01*
X144372419Y-116928020D02*
X144372419Y-116823258D01*
X144372419Y-116823258D02*
X144324800Y-116666115D01*
X144324800Y-116666115D02*
X144277180Y-116613734D01*
X144277180Y-116613734D02*
X143943847Y-116613734D01*
X143943847Y-116613734D02*
X143943847Y-116823258D01*
X144372419Y-116142306D02*
X143372419Y-116142306D01*
X143372419Y-116142306D02*
X143372419Y-115723258D01*
X143372419Y-115723258D02*
X143420038Y-115618496D01*
X143420038Y-115618496D02*
X143467657Y-115566115D01*
X143467657Y-115566115D02*
X143562895Y-115513734D01*
X143562895Y-115513734D02*
X143705752Y-115513734D01*
X143705752Y-115513734D02*
X143800990Y-115566115D01*
X143800990Y-115566115D02*
X143848609Y-115618496D01*
X143848609Y-115618496D02*
X143896228Y-115723258D01*
X143896228Y-115723258D02*
X143896228Y-116142306D01*
X144372419Y-115042306D02*
X143372419Y-115042306D01*
X143372419Y-114308972D02*
X143372419Y-114099448D01*
X143372419Y-114099448D02*
X143420038Y-113994686D01*
X143420038Y-113994686D02*
X143515276Y-113889924D01*
X143515276Y-113889924D02*
X143705752Y-113837543D01*
X143705752Y-113837543D02*
X144039085Y-113837543D01*
X144039085Y-113837543D02*
X144229561Y-113889924D01*
X144229561Y-113889924D02*
X144324800Y-113994686D01*
X144324800Y-113994686D02*
X144372419Y-114099448D01*
X144372419Y-114099448D02*
X144372419Y-114308972D01*
X144372419Y-114308972D02*
X144324800Y-114413734D01*
X144324800Y-114413734D02*
X144229561Y-114518496D01*
X144229561Y-114518496D02*
X144039085Y-114570877D01*
X144039085Y-114570877D02*
X143705752Y-114570877D01*
X143705752Y-114570877D02*
X143515276Y-114518496D01*
X143515276Y-114518496D02*
X143420038Y-114413734D01*
X143420038Y-114413734D02*
X143372419Y-114308972D01*
X143372419Y-113470877D02*
X143372419Y-112789924D01*
X143372419Y-112789924D02*
X143753371Y-113156591D01*
X143753371Y-113156591D02*
X143753371Y-112999448D01*
X143753371Y-112999448D02*
X143800990Y-112894686D01*
X143800990Y-112894686D02*
X143848609Y-112842305D01*
X143848609Y-112842305D02*
X143943847Y-112789924D01*
X143943847Y-112789924D02*
X144181942Y-112789924D01*
X144181942Y-112789924D02*
X144277180Y-112842305D01*
X144277180Y-112842305D02*
X144324800Y-112894686D01*
X144324800Y-112894686D02*
X144372419Y-112999448D01*
X144372419Y-112999448D02*
X144372419Y-113313734D01*
X144372419Y-113313734D02*
X144324800Y-113418496D01*
X144324800Y-113418496D02*
X144277180Y-113470877D01*
X143420038Y-135166115D02*
X143372419Y-135270877D01*
X143372419Y-135270877D02*
X143372419Y-135428020D01*
X143372419Y-135428020D02*
X143420038Y-135585163D01*
X143420038Y-135585163D02*
X143515276Y-135689925D01*
X143515276Y-135689925D02*
X143610514Y-135742306D01*
X143610514Y-135742306D02*
X143800990Y-135794687D01*
X143800990Y-135794687D02*
X143943847Y-135794687D01*
X143943847Y-135794687D02*
X144134323Y-135742306D01*
X144134323Y-135742306D02*
X144229561Y-135689925D01*
X144229561Y-135689925D02*
X144324800Y-135585163D01*
X144324800Y-135585163D02*
X144372419Y-135428020D01*
X144372419Y-135428020D02*
X144372419Y-135323258D01*
X144372419Y-135323258D02*
X144324800Y-135166115D01*
X144324800Y-135166115D02*
X144277180Y-135113734D01*
X144277180Y-135113734D02*
X143943847Y-135113734D01*
X143943847Y-135113734D02*
X143943847Y-135323258D01*
X144372419Y-134642306D02*
X143372419Y-134642306D01*
X143372419Y-134642306D02*
X143372419Y-134223258D01*
X143372419Y-134223258D02*
X143420038Y-134118496D01*
X143420038Y-134118496D02*
X143467657Y-134066115D01*
X143467657Y-134066115D02*
X143562895Y-134013734D01*
X143562895Y-134013734D02*
X143705752Y-134013734D01*
X143705752Y-134013734D02*
X143800990Y-134066115D01*
X143800990Y-134066115D02*
X143848609Y-134118496D01*
X143848609Y-134118496D02*
X143896228Y-134223258D01*
X143896228Y-134223258D02*
X143896228Y-134642306D01*
X144372419Y-133542306D02*
X143372419Y-133542306D01*
X143372419Y-132808972D02*
X143372419Y-132599448D01*
X143372419Y-132599448D02*
X143420038Y-132494686D01*
X143420038Y-132494686D02*
X143515276Y-132389924D01*
X143515276Y-132389924D02*
X143705752Y-132337543D01*
X143705752Y-132337543D02*
X144039085Y-132337543D01*
X144039085Y-132337543D02*
X144229561Y-132389924D01*
X144229561Y-132389924D02*
X144324800Y-132494686D01*
X144324800Y-132494686D02*
X144372419Y-132599448D01*
X144372419Y-132599448D02*
X144372419Y-132808972D01*
X144372419Y-132808972D02*
X144324800Y-132913734D01*
X144324800Y-132913734D02*
X144229561Y-133018496D01*
X144229561Y-133018496D02*
X144039085Y-133070877D01*
X144039085Y-133070877D02*
X143705752Y-133070877D01*
X143705752Y-133070877D02*
X143515276Y-133018496D01*
X143515276Y-133018496D02*
X143420038Y-132913734D01*
X143420038Y-132913734D02*
X143372419Y-132808972D01*
X143372419Y-131970877D02*
X143372419Y-131289924D01*
X143372419Y-131289924D02*
X143753371Y-131656591D01*
X143753371Y-131656591D02*
X143753371Y-131499448D01*
X143753371Y-131499448D02*
X143800990Y-131394686D01*
X143800990Y-131394686D02*
X143848609Y-131342305D01*
X143848609Y-131342305D02*
X143943847Y-131289924D01*
X143943847Y-131289924D02*
X144181942Y-131289924D01*
X144181942Y-131289924D02*
X144277180Y-131342305D01*
X144277180Y-131342305D02*
X144324800Y-131394686D01*
X144324800Y-131394686D02*
X144372419Y-131499448D01*
X144372419Y-131499448D02*
X144372419Y-131813734D01*
X144372419Y-131813734D02*
X144324800Y-131918496D01*
X144324800Y-131918496D02*
X144277180Y-131970877D01*
X143705752Y-130347067D02*
X144372419Y-130347067D01*
X143324800Y-130608972D02*
X144039085Y-130870877D01*
X144039085Y-130870877D02*
X144039085Y-130189924D01*
X145920038Y-117666115D02*
X145872419Y-117770877D01*
X145872419Y-117770877D02*
X145872419Y-117928020D01*
X145872419Y-117928020D02*
X145920038Y-118085163D01*
X145920038Y-118085163D02*
X146015276Y-118189925D01*
X146015276Y-118189925D02*
X146110514Y-118242306D01*
X146110514Y-118242306D02*
X146300990Y-118294687D01*
X146300990Y-118294687D02*
X146443847Y-118294687D01*
X146443847Y-118294687D02*
X146634323Y-118242306D01*
X146634323Y-118242306D02*
X146729561Y-118189925D01*
X146729561Y-118189925D02*
X146824800Y-118085163D01*
X146824800Y-118085163D02*
X146872419Y-117928020D01*
X146872419Y-117928020D02*
X146872419Y-117823258D01*
X146872419Y-117823258D02*
X146824800Y-117666115D01*
X146824800Y-117666115D02*
X146777180Y-117613734D01*
X146777180Y-117613734D02*
X146443847Y-117613734D01*
X146443847Y-117613734D02*
X146443847Y-117823258D01*
X146872419Y-117142306D02*
X145872419Y-117142306D01*
X145872419Y-117142306D02*
X145872419Y-116723258D01*
X145872419Y-116723258D02*
X145920038Y-116618496D01*
X145920038Y-116618496D02*
X145967657Y-116566115D01*
X145967657Y-116566115D02*
X146062895Y-116513734D01*
X146062895Y-116513734D02*
X146205752Y-116513734D01*
X146205752Y-116513734D02*
X146300990Y-116566115D01*
X146300990Y-116566115D02*
X146348609Y-116618496D01*
X146348609Y-116618496D02*
X146396228Y-116723258D01*
X146396228Y-116723258D02*
X146396228Y-117142306D01*
X146872419Y-116042306D02*
X145872419Y-116042306D01*
X145872419Y-115308972D02*
X145872419Y-115099448D01*
X145872419Y-115099448D02*
X145920038Y-114994686D01*
X145920038Y-114994686D02*
X146015276Y-114889924D01*
X146015276Y-114889924D02*
X146205752Y-114837543D01*
X146205752Y-114837543D02*
X146539085Y-114837543D01*
X146539085Y-114837543D02*
X146729561Y-114889924D01*
X146729561Y-114889924D02*
X146824800Y-114994686D01*
X146824800Y-114994686D02*
X146872419Y-115099448D01*
X146872419Y-115099448D02*
X146872419Y-115308972D01*
X146872419Y-115308972D02*
X146824800Y-115413734D01*
X146824800Y-115413734D02*
X146729561Y-115518496D01*
X146729561Y-115518496D02*
X146539085Y-115570877D01*
X146539085Y-115570877D02*
X146205752Y-115570877D01*
X146205752Y-115570877D02*
X146015276Y-115518496D01*
X146015276Y-115518496D02*
X145920038Y-115413734D01*
X145920038Y-115413734D02*
X145872419Y-115308972D01*
X145967657Y-114418496D02*
X145920038Y-114366115D01*
X145920038Y-114366115D02*
X145872419Y-114261353D01*
X145872419Y-114261353D02*
X145872419Y-113999448D01*
X145872419Y-113999448D02*
X145920038Y-113894686D01*
X145920038Y-113894686D02*
X145967657Y-113842305D01*
X145967657Y-113842305D02*
X146062895Y-113789924D01*
X146062895Y-113789924D02*
X146158133Y-113789924D01*
X146158133Y-113789924D02*
X146300990Y-113842305D01*
X146300990Y-113842305D02*
X146872419Y-114470877D01*
X146872419Y-114470877D02*
X146872419Y-113789924D01*
X146872419Y-112742305D02*
X146872419Y-113370877D01*
X146872419Y-113056591D02*
X145872419Y-113056591D01*
X145872419Y-113056591D02*
X146015276Y-113161353D01*
X146015276Y-113161353D02*
X146110514Y-113266115D01*
X146110514Y-113266115D02*
X146158133Y-113370877D01*
X145920038Y-135166115D02*
X145872419Y-135270877D01*
X145872419Y-135270877D02*
X145872419Y-135428020D01*
X145872419Y-135428020D02*
X145920038Y-135585163D01*
X145920038Y-135585163D02*
X146015276Y-135689925D01*
X146015276Y-135689925D02*
X146110514Y-135742306D01*
X146110514Y-135742306D02*
X146300990Y-135794687D01*
X146300990Y-135794687D02*
X146443847Y-135794687D01*
X146443847Y-135794687D02*
X146634323Y-135742306D01*
X146634323Y-135742306D02*
X146729561Y-135689925D01*
X146729561Y-135689925D02*
X146824800Y-135585163D01*
X146824800Y-135585163D02*
X146872419Y-135428020D01*
X146872419Y-135428020D02*
X146872419Y-135323258D01*
X146872419Y-135323258D02*
X146824800Y-135166115D01*
X146824800Y-135166115D02*
X146777180Y-135113734D01*
X146777180Y-135113734D02*
X146443847Y-135113734D01*
X146443847Y-135113734D02*
X146443847Y-135323258D01*
X146872419Y-134642306D02*
X145872419Y-134642306D01*
X145872419Y-134642306D02*
X145872419Y-134223258D01*
X145872419Y-134223258D02*
X145920038Y-134118496D01*
X145920038Y-134118496D02*
X145967657Y-134066115D01*
X145967657Y-134066115D02*
X146062895Y-134013734D01*
X146062895Y-134013734D02*
X146205752Y-134013734D01*
X146205752Y-134013734D02*
X146300990Y-134066115D01*
X146300990Y-134066115D02*
X146348609Y-134118496D01*
X146348609Y-134118496D02*
X146396228Y-134223258D01*
X146396228Y-134223258D02*
X146396228Y-134642306D01*
X146872419Y-133542306D02*
X145872419Y-133542306D01*
X145872419Y-132808972D02*
X145872419Y-132599448D01*
X145872419Y-132599448D02*
X145920038Y-132494686D01*
X145920038Y-132494686D02*
X146015276Y-132389924D01*
X146015276Y-132389924D02*
X146205752Y-132337543D01*
X146205752Y-132337543D02*
X146539085Y-132337543D01*
X146539085Y-132337543D02*
X146729561Y-132389924D01*
X146729561Y-132389924D02*
X146824800Y-132494686D01*
X146824800Y-132494686D02*
X146872419Y-132599448D01*
X146872419Y-132599448D02*
X146872419Y-132808972D01*
X146872419Y-132808972D02*
X146824800Y-132913734D01*
X146824800Y-132913734D02*
X146729561Y-133018496D01*
X146729561Y-133018496D02*
X146539085Y-133070877D01*
X146539085Y-133070877D02*
X146205752Y-133070877D01*
X146205752Y-133070877D02*
X146015276Y-133018496D01*
X146015276Y-133018496D02*
X145920038Y-132913734D01*
X145920038Y-132913734D02*
X145872419Y-132808972D01*
X145872419Y-131970877D02*
X145872419Y-131289924D01*
X145872419Y-131289924D02*
X146253371Y-131656591D01*
X146253371Y-131656591D02*
X146253371Y-131499448D01*
X146253371Y-131499448D02*
X146300990Y-131394686D01*
X146300990Y-131394686D02*
X146348609Y-131342305D01*
X146348609Y-131342305D02*
X146443847Y-131289924D01*
X146443847Y-131289924D02*
X146681942Y-131289924D01*
X146681942Y-131289924D02*
X146777180Y-131342305D01*
X146777180Y-131342305D02*
X146824800Y-131394686D01*
X146824800Y-131394686D02*
X146872419Y-131499448D01*
X146872419Y-131499448D02*
X146872419Y-131813734D01*
X146872419Y-131813734D02*
X146824800Y-131918496D01*
X146824800Y-131918496D02*
X146777180Y-131970877D01*
X145872419Y-130294686D02*
X145872419Y-130818496D01*
X145872419Y-130818496D02*
X146348609Y-130870877D01*
X146348609Y-130870877D02*
X146300990Y-130818496D01*
X146300990Y-130818496D02*
X146253371Y-130713734D01*
X146253371Y-130713734D02*
X146253371Y-130451829D01*
X146253371Y-130451829D02*
X146300990Y-130347067D01*
X146300990Y-130347067D02*
X146348609Y-130294686D01*
X146348609Y-130294686D02*
X146443847Y-130242305D01*
X146443847Y-130242305D02*
X146681942Y-130242305D01*
X146681942Y-130242305D02*
X146777180Y-130294686D01*
X146777180Y-130294686D02*
X146824800Y-130347067D01*
X146824800Y-130347067D02*
X146872419Y-130451829D01*
X146872419Y-130451829D02*
X146872419Y-130713734D01*
X146872419Y-130713734D02*
X146824800Y-130818496D01*
X146824800Y-130818496D02*
X146777180Y-130870877D01*
X148420038Y-117666115D02*
X148372419Y-117770877D01*
X148372419Y-117770877D02*
X148372419Y-117928020D01*
X148372419Y-117928020D02*
X148420038Y-118085163D01*
X148420038Y-118085163D02*
X148515276Y-118189925D01*
X148515276Y-118189925D02*
X148610514Y-118242306D01*
X148610514Y-118242306D02*
X148800990Y-118294687D01*
X148800990Y-118294687D02*
X148943847Y-118294687D01*
X148943847Y-118294687D02*
X149134323Y-118242306D01*
X149134323Y-118242306D02*
X149229561Y-118189925D01*
X149229561Y-118189925D02*
X149324800Y-118085163D01*
X149324800Y-118085163D02*
X149372419Y-117928020D01*
X149372419Y-117928020D02*
X149372419Y-117823258D01*
X149372419Y-117823258D02*
X149324800Y-117666115D01*
X149324800Y-117666115D02*
X149277180Y-117613734D01*
X149277180Y-117613734D02*
X148943847Y-117613734D01*
X148943847Y-117613734D02*
X148943847Y-117823258D01*
X149372419Y-117142306D02*
X148372419Y-117142306D01*
X148372419Y-117142306D02*
X148372419Y-116723258D01*
X148372419Y-116723258D02*
X148420038Y-116618496D01*
X148420038Y-116618496D02*
X148467657Y-116566115D01*
X148467657Y-116566115D02*
X148562895Y-116513734D01*
X148562895Y-116513734D02*
X148705752Y-116513734D01*
X148705752Y-116513734D02*
X148800990Y-116566115D01*
X148800990Y-116566115D02*
X148848609Y-116618496D01*
X148848609Y-116618496D02*
X148896228Y-116723258D01*
X148896228Y-116723258D02*
X148896228Y-117142306D01*
X149372419Y-116042306D02*
X148372419Y-116042306D01*
X148372419Y-115308972D02*
X148372419Y-115099448D01*
X148372419Y-115099448D02*
X148420038Y-114994686D01*
X148420038Y-114994686D02*
X148515276Y-114889924D01*
X148515276Y-114889924D02*
X148705752Y-114837543D01*
X148705752Y-114837543D02*
X149039085Y-114837543D01*
X149039085Y-114837543D02*
X149229561Y-114889924D01*
X149229561Y-114889924D02*
X149324800Y-114994686D01*
X149324800Y-114994686D02*
X149372419Y-115099448D01*
X149372419Y-115099448D02*
X149372419Y-115308972D01*
X149372419Y-115308972D02*
X149324800Y-115413734D01*
X149324800Y-115413734D02*
X149229561Y-115518496D01*
X149229561Y-115518496D02*
X149039085Y-115570877D01*
X149039085Y-115570877D02*
X148705752Y-115570877D01*
X148705752Y-115570877D02*
X148515276Y-115518496D01*
X148515276Y-115518496D02*
X148420038Y-115413734D01*
X148420038Y-115413734D02*
X148372419Y-115308972D01*
X149372419Y-113789924D02*
X149372419Y-114418496D01*
X149372419Y-114104210D02*
X148372419Y-114104210D01*
X148372419Y-114104210D02*
X148515276Y-114208972D01*
X148515276Y-114208972D02*
X148610514Y-114313734D01*
X148610514Y-114313734D02*
X148658133Y-114418496D01*
X149372419Y-113266115D02*
X149372419Y-113056591D01*
X149372419Y-113056591D02*
X149324800Y-112951829D01*
X149324800Y-112951829D02*
X149277180Y-112899448D01*
X149277180Y-112899448D02*
X149134323Y-112794686D01*
X149134323Y-112794686D02*
X148943847Y-112742305D01*
X148943847Y-112742305D02*
X148562895Y-112742305D01*
X148562895Y-112742305D02*
X148467657Y-112794686D01*
X148467657Y-112794686D02*
X148420038Y-112847067D01*
X148420038Y-112847067D02*
X148372419Y-112951829D01*
X148372419Y-112951829D02*
X148372419Y-113161353D01*
X148372419Y-113161353D02*
X148420038Y-113266115D01*
X148420038Y-113266115D02*
X148467657Y-113318496D01*
X148467657Y-113318496D02*
X148562895Y-113370877D01*
X148562895Y-113370877D02*
X148800990Y-113370877D01*
X148800990Y-113370877D02*
X148896228Y-113318496D01*
X148896228Y-113318496D02*
X148943847Y-113266115D01*
X148943847Y-113266115D02*
X148991466Y-113161353D01*
X148991466Y-113161353D02*
X148991466Y-112951829D01*
X148991466Y-112951829D02*
X148943847Y-112847067D01*
X148943847Y-112847067D02*
X148896228Y-112794686D01*
X148896228Y-112794686D02*
X148800990Y-112742305D01*
X148420038Y-135166115D02*
X148372419Y-135270877D01*
X148372419Y-135270877D02*
X148372419Y-135428020D01*
X148372419Y-135428020D02*
X148420038Y-135585163D01*
X148420038Y-135585163D02*
X148515276Y-135689925D01*
X148515276Y-135689925D02*
X148610514Y-135742306D01*
X148610514Y-135742306D02*
X148800990Y-135794687D01*
X148800990Y-135794687D02*
X148943847Y-135794687D01*
X148943847Y-135794687D02*
X149134323Y-135742306D01*
X149134323Y-135742306D02*
X149229561Y-135689925D01*
X149229561Y-135689925D02*
X149324800Y-135585163D01*
X149324800Y-135585163D02*
X149372419Y-135428020D01*
X149372419Y-135428020D02*
X149372419Y-135323258D01*
X149372419Y-135323258D02*
X149324800Y-135166115D01*
X149324800Y-135166115D02*
X149277180Y-135113734D01*
X149277180Y-135113734D02*
X148943847Y-135113734D01*
X148943847Y-135113734D02*
X148943847Y-135323258D01*
X149372419Y-134642306D02*
X148372419Y-134642306D01*
X148372419Y-134642306D02*
X148372419Y-134223258D01*
X148372419Y-134223258D02*
X148420038Y-134118496D01*
X148420038Y-134118496D02*
X148467657Y-134066115D01*
X148467657Y-134066115D02*
X148562895Y-134013734D01*
X148562895Y-134013734D02*
X148705752Y-134013734D01*
X148705752Y-134013734D02*
X148800990Y-134066115D01*
X148800990Y-134066115D02*
X148848609Y-134118496D01*
X148848609Y-134118496D02*
X148896228Y-134223258D01*
X148896228Y-134223258D02*
X148896228Y-134642306D01*
X149372419Y-133542306D02*
X148372419Y-133542306D01*
X148372419Y-132808972D02*
X148372419Y-132599448D01*
X148372419Y-132599448D02*
X148420038Y-132494686D01*
X148420038Y-132494686D02*
X148515276Y-132389924D01*
X148515276Y-132389924D02*
X148705752Y-132337543D01*
X148705752Y-132337543D02*
X149039085Y-132337543D01*
X149039085Y-132337543D02*
X149229561Y-132389924D01*
X149229561Y-132389924D02*
X149324800Y-132494686D01*
X149324800Y-132494686D02*
X149372419Y-132599448D01*
X149372419Y-132599448D02*
X149372419Y-132808972D01*
X149372419Y-132808972D02*
X149324800Y-132913734D01*
X149324800Y-132913734D02*
X149229561Y-133018496D01*
X149229561Y-133018496D02*
X149039085Y-133070877D01*
X149039085Y-133070877D02*
X148705752Y-133070877D01*
X148705752Y-133070877D02*
X148515276Y-133018496D01*
X148515276Y-133018496D02*
X148420038Y-132913734D01*
X148420038Y-132913734D02*
X148372419Y-132808972D01*
X148372419Y-131970877D02*
X148372419Y-131289924D01*
X148372419Y-131289924D02*
X148753371Y-131656591D01*
X148753371Y-131656591D02*
X148753371Y-131499448D01*
X148753371Y-131499448D02*
X148800990Y-131394686D01*
X148800990Y-131394686D02*
X148848609Y-131342305D01*
X148848609Y-131342305D02*
X148943847Y-131289924D01*
X148943847Y-131289924D02*
X149181942Y-131289924D01*
X149181942Y-131289924D02*
X149277180Y-131342305D01*
X149277180Y-131342305D02*
X149324800Y-131394686D01*
X149324800Y-131394686D02*
X149372419Y-131499448D01*
X149372419Y-131499448D02*
X149372419Y-131813734D01*
X149372419Y-131813734D02*
X149324800Y-131918496D01*
X149324800Y-131918496D02*
X149277180Y-131970877D01*
X148467657Y-130870877D02*
X148420038Y-130818496D01*
X148420038Y-130818496D02*
X148372419Y-130713734D01*
X148372419Y-130713734D02*
X148372419Y-130451829D01*
X148372419Y-130451829D02*
X148420038Y-130347067D01*
X148420038Y-130347067D02*
X148467657Y-130294686D01*
X148467657Y-130294686D02*
X148562895Y-130242305D01*
X148562895Y-130242305D02*
X148658133Y-130242305D01*
X148658133Y-130242305D02*
X148800990Y-130294686D01*
X148800990Y-130294686D02*
X149372419Y-130923258D01*
X149372419Y-130923258D02*
X149372419Y-130242305D01*
X150920038Y-117666115D02*
X150872419Y-117770877D01*
X150872419Y-117770877D02*
X150872419Y-117928020D01*
X150872419Y-117928020D02*
X150920038Y-118085163D01*
X150920038Y-118085163D02*
X151015276Y-118189925D01*
X151015276Y-118189925D02*
X151110514Y-118242306D01*
X151110514Y-118242306D02*
X151300990Y-118294687D01*
X151300990Y-118294687D02*
X151443847Y-118294687D01*
X151443847Y-118294687D02*
X151634323Y-118242306D01*
X151634323Y-118242306D02*
X151729561Y-118189925D01*
X151729561Y-118189925D02*
X151824800Y-118085163D01*
X151824800Y-118085163D02*
X151872419Y-117928020D01*
X151872419Y-117928020D02*
X151872419Y-117823258D01*
X151872419Y-117823258D02*
X151824800Y-117666115D01*
X151824800Y-117666115D02*
X151777180Y-117613734D01*
X151777180Y-117613734D02*
X151443847Y-117613734D01*
X151443847Y-117613734D02*
X151443847Y-117823258D01*
X151872419Y-117142306D02*
X150872419Y-117142306D01*
X150872419Y-117142306D02*
X150872419Y-116723258D01*
X150872419Y-116723258D02*
X150920038Y-116618496D01*
X150920038Y-116618496D02*
X150967657Y-116566115D01*
X150967657Y-116566115D02*
X151062895Y-116513734D01*
X151062895Y-116513734D02*
X151205752Y-116513734D01*
X151205752Y-116513734D02*
X151300990Y-116566115D01*
X151300990Y-116566115D02*
X151348609Y-116618496D01*
X151348609Y-116618496D02*
X151396228Y-116723258D01*
X151396228Y-116723258D02*
X151396228Y-117142306D01*
X151872419Y-116042306D02*
X150872419Y-116042306D01*
X150872419Y-115308972D02*
X150872419Y-115099448D01*
X150872419Y-115099448D02*
X150920038Y-114994686D01*
X150920038Y-114994686D02*
X151015276Y-114889924D01*
X151015276Y-114889924D02*
X151205752Y-114837543D01*
X151205752Y-114837543D02*
X151539085Y-114837543D01*
X151539085Y-114837543D02*
X151729561Y-114889924D01*
X151729561Y-114889924D02*
X151824800Y-114994686D01*
X151824800Y-114994686D02*
X151872419Y-115099448D01*
X151872419Y-115099448D02*
X151872419Y-115308972D01*
X151872419Y-115308972D02*
X151824800Y-115413734D01*
X151824800Y-115413734D02*
X151729561Y-115518496D01*
X151729561Y-115518496D02*
X151539085Y-115570877D01*
X151539085Y-115570877D02*
X151205752Y-115570877D01*
X151205752Y-115570877D02*
X151015276Y-115518496D01*
X151015276Y-115518496D02*
X150920038Y-115413734D01*
X150920038Y-115413734D02*
X150872419Y-115308972D01*
X151872419Y-113789924D02*
X151872419Y-114418496D01*
X151872419Y-114104210D02*
X150872419Y-114104210D01*
X150872419Y-114104210D02*
X151015276Y-114208972D01*
X151015276Y-114208972D02*
X151110514Y-114313734D01*
X151110514Y-114313734D02*
X151158133Y-114418496D01*
X151300990Y-113161353D02*
X151253371Y-113266115D01*
X151253371Y-113266115D02*
X151205752Y-113318496D01*
X151205752Y-113318496D02*
X151110514Y-113370877D01*
X151110514Y-113370877D02*
X151062895Y-113370877D01*
X151062895Y-113370877D02*
X150967657Y-113318496D01*
X150967657Y-113318496D02*
X150920038Y-113266115D01*
X150920038Y-113266115D02*
X150872419Y-113161353D01*
X150872419Y-113161353D02*
X150872419Y-112951829D01*
X150872419Y-112951829D02*
X150920038Y-112847067D01*
X150920038Y-112847067D02*
X150967657Y-112794686D01*
X150967657Y-112794686D02*
X151062895Y-112742305D01*
X151062895Y-112742305D02*
X151110514Y-112742305D01*
X151110514Y-112742305D02*
X151205752Y-112794686D01*
X151205752Y-112794686D02*
X151253371Y-112847067D01*
X151253371Y-112847067D02*
X151300990Y-112951829D01*
X151300990Y-112951829D02*
X151300990Y-113161353D01*
X151300990Y-113161353D02*
X151348609Y-113266115D01*
X151348609Y-113266115D02*
X151396228Y-113318496D01*
X151396228Y-113318496D02*
X151491466Y-113370877D01*
X151491466Y-113370877D02*
X151681942Y-113370877D01*
X151681942Y-113370877D02*
X151777180Y-113318496D01*
X151777180Y-113318496D02*
X151824800Y-113266115D01*
X151824800Y-113266115D02*
X151872419Y-113161353D01*
X151872419Y-113161353D02*
X151872419Y-112951829D01*
X151872419Y-112951829D02*
X151824800Y-112847067D01*
X151824800Y-112847067D02*
X151777180Y-112794686D01*
X151777180Y-112794686D02*
X151681942Y-112742305D01*
X151681942Y-112742305D02*
X151491466Y-112742305D01*
X151491466Y-112742305D02*
X151396228Y-112794686D01*
X151396228Y-112794686D02*
X151348609Y-112847067D01*
X151348609Y-112847067D02*
X151300990Y-112951829D01*
X150920038Y-135166115D02*
X150872419Y-135270877D01*
X150872419Y-135270877D02*
X150872419Y-135428020D01*
X150872419Y-135428020D02*
X150920038Y-135585163D01*
X150920038Y-135585163D02*
X151015276Y-135689925D01*
X151015276Y-135689925D02*
X151110514Y-135742306D01*
X151110514Y-135742306D02*
X151300990Y-135794687D01*
X151300990Y-135794687D02*
X151443847Y-135794687D01*
X151443847Y-135794687D02*
X151634323Y-135742306D01*
X151634323Y-135742306D02*
X151729561Y-135689925D01*
X151729561Y-135689925D02*
X151824800Y-135585163D01*
X151824800Y-135585163D02*
X151872419Y-135428020D01*
X151872419Y-135428020D02*
X151872419Y-135323258D01*
X151872419Y-135323258D02*
X151824800Y-135166115D01*
X151824800Y-135166115D02*
X151777180Y-135113734D01*
X151777180Y-135113734D02*
X151443847Y-135113734D01*
X151443847Y-135113734D02*
X151443847Y-135323258D01*
X151872419Y-134642306D02*
X150872419Y-134642306D01*
X150872419Y-134642306D02*
X150872419Y-134223258D01*
X150872419Y-134223258D02*
X150920038Y-134118496D01*
X150920038Y-134118496D02*
X150967657Y-134066115D01*
X150967657Y-134066115D02*
X151062895Y-134013734D01*
X151062895Y-134013734D02*
X151205752Y-134013734D01*
X151205752Y-134013734D02*
X151300990Y-134066115D01*
X151300990Y-134066115D02*
X151348609Y-134118496D01*
X151348609Y-134118496D02*
X151396228Y-134223258D01*
X151396228Y-134223258D02*
X151396228Y-134642306D01*
X151872419Y-133542306D02*
X150872419Y-133542306D01*
X150872419Y-132808972D02*
X150872419Y-132599448D01*
X150872419Y-132599448D02*
X150920038Y-132494686D01*
X150920038Y-132494686D02*
X151015276Y-132389924D01*
X151015276Y-132389924D02*
X151205752Y-132337543D01*
X151205752Y-132337543D02*
X151539085Y-132337543D01*
X151539085Y-132337543D02*
X151729561Y-132389924D01*
X151729561Y-132389924D02*
X151824800Y-132494686D01*
X151824800Y-132494686D02*
X151872419Y-132599448D01*
X151872419Y-132599448D02*
X151872419Y-132808972D01*
X151872419Y-132808972D02*
X151824800Y-132913734D01*
X151824800Y-132913734D02*
X151729561Y-133018496D01*
X151729561Y-133018496D02*
X151539085Y-133070877D01*
X151539085Y-133070877D02*
X151205752Y-133070877D01*
X151205752Y-133070877D02*
X151015276Y-133018496D01*
X151015276Y-133018496D02*
X150920038Y-132913734D01*
X150920038Y-132913734D02*
X150872419Y-132808972D01*
X150872419Y-131970877D02*
X150872419Y-131289924D01*
X150872419Y-131289924D02*
X151253371Y-131656591D01*
X151253371Y-131656591D02*
X151253371Y-131499448D01*
X151253371Y-131499448D02*
X151300990Y-131394686D01*
X151300990Y-131394686D02*
X151348609Y-131342305D01*
X151348609Y-131342305D02*
X151443847Y-131289924D01*
X151443847Y-131289924D02*
X151681942Y-131289924D01*
X151681942Y-131289924D02*
X151777180Y-131342305D01*
X151777180Y-131342305D02*
X151824800Y-131394686D01*
X151824800Y-131394686D02*
X151872419Y-131499448D01*
X151872419Y-131499448D02*
X151872419Y-131813734D01*
X151872419Y-131813734D02*
X151824800Y-131918496D01*
X151824800Y-131918496D02*
X151777180Y-131970877D01*
X150872419Y-130923258D02*
X150872419Y-130242305D01*
X150872419Y-130242305D02*
X151253371Y-130608972D01*
X151253371Y-130608972D02*
X151253371Y-130451829D01*
X151253371Y-130451829D02*
X151300990Y-130347067D01*
X151300990Y-130347067D02*
X151348609Y-130294686D01*
X151348609Y-130294686D02*
X151443847Y-130242305D01*
X151443847Y-130242305D02*
X151681942Y-130242305D01*
X151681942Y-130242305D02*
X151777180Y-130294686D01*
X151777180Y-130294686D02*
X151824800Y-130347067D01*
X151824800Y-130347067D02*
X151872419Y-130451829D01*
X151872419Y-130451829D02*
X151872419Y-130766115D01*
X151872419Y-130766115D02*
X151824800Y-130870877D01*
X151824800Y-130870877D02*
X151777180Y-130923258D01*
X153420038Y-116666115D02*
X153372419Y-116770877D01*
X153372419Y-116770877D02*
X153372419Y-116928020D01*
X153372419Y-116928020D02*
X153420038Y-117085163D01*
X153420038Y-117085163D02*
X153515276Y-117189925D01*
X153515276Y-117189925D02*
X153610514Y-117242306D01*
X153610514Y-117242306D02*
X153800990Y-117294687D01*
X153800990Y-117294687D02*
X153943847Y-117294687D01*
X153943847Y-117294687D02*
X154134323Y-117242306D01*
X154134323Y-117242306D02*
X154229561Y-117189925D01*
X154229561Y-117189925D02*
X154324800Y-117085163D01*
X154324800Y-117085163D02*
X154372419Y-116928020D01*
X154372419Y-116928020D02*
X154372419Y-116823258D01*
X154372419Y-116823258D02*
X154324800Y-116666115D01*
X154324800Y-116666115D02*
X154277180Y-116613734D01*
X154277180Y-116613734D02*
X153943847Y-116613734D01*
X153943847Y-116613734D02*
X153943847Y-116823258D01*
X154372419Y-116142306D02*
X153372419Y-116142306D01*
X153372419Y-116142306D02*
X153372419Y-115723258D01*
X153372419Y-115723258D02*
X153420038Y-115618496D01*
X153420038Y-115618496D02*
X153467657Y-115566115D01*
X153467657Y-115566115D02*
X153562895Y-115513734D01*
X153562895Y-115513734D02*
X153705752Y-115513734D01*
X153705752Y-115513734D02*
X153800990Y-115566115D01*
X153800990Y-115566115D02*
X153848609Y-115618496D01*
X153848609Y-115618496D02*
X153896228Y-115723258D01*
X153896228Y-115723258D02*
X153896228Y-116142306D01*
X154372419Y-115042306D02*
X153372419Y-115042306D01*
X153372419Y-114308972D02*
X153372419Y-114099448D01*
X153372419Y-114099448D02*
X153420038Y-113994686D01*
X153420038Y-113994686D02*
X153515276Y-113889924D01*
X153515276Y-113889924D02*
X153705752Y-113837543D01*
X153705752Y-113837543D02*
X154039085Y-113837543D01*
X154039085Y-113837543D02*
X154229561Y-113889924D01*
X154229561Y-113889924D02*
X154324800Y-113994686D01*
X154324800Y-113994686D02*
X154372419Y-114099448D01*
X154372419Y-114099448D02*
X154372419Y-114308972D01*
X154372419Y-114308972D02*
X154324800Y-114413734D01*
X154324800Y-114413734D02*
X154229561Y-114518496D01*
X154229561Y-114518496D02*
X154039085Y-114570877D01*
X154039085Y-114570877D02*
X153705752Y-114570877D01*
X153705752Y-114570877D02*
X153515276Y-114518496D01*
X153515276Y-114518496D02*
X153420038Y-114413734D01*
X153420038Y-114413734D02*
X153372419Y-114308972D01*
X153372419Y-112842305D02*
X153372419Y-113366115D01*
X153372419Y-113366115D02*
X153848609Y-113418496D01*
X153848609Y-113418496D02*
X153800990Y-113366115D01*
X153800990Y-113366115D02*
X153753371Y-113261353D01*
X153753371Y-113261353D02*
X153753371Y-112999448D01*
X153753371Y-112999448D02*
X153800990Y-112894686D01*
X153800990Y-112894686D02*
X153848609Y-112842305D01*
X153848609Y-112842305D02*
X153943847Y-112789924D01*
X153943847Y-112789924D02*
X154181942Y-112789924D01*
X154181942Y-112789924D02*
X154277180Y-112842305D01*
X154277180Y-112842305D02*
X154324800Y-112894686D01*
X154324800Y-112894686D02*
X154372419Y-112999448D01*
X154372419Y-112999448D02*
X154372419Y-113261353D01*
X154372419Y-113261353D02*
X154324800Y-113366115D01*
X154324800Y-113366115D02*
X154277180Y-113418496D01*
X153420038Y-135166115D02*
X153372419Y-135270877D01*
X153372419Y-135270877D02*
X153372419Y-135428020D01*
X153372419Y-135428020D02*
X153420038Y-135585163D01*
X153420038Y-135585163D02*
X153515276Y-135689925D01*
X153515276Y-135689925D02*
X153610514Y-135742306D01*
X153610514Y-135742306D02*
X153800990Y-135794687D01*
X153800990Y-135794687D02*
X153943847Y-135794687D01*
X153943847Y-135794687D02*
X154134323Y-135742306D01*
X154134323Y-135742306D02*
X154229561Y-135689925D01*
X154229561Y-135689925D02*
X154324800Y-135585163D01*
X154324800Y-135585163D02*
X154372419Y-135428020D01*
X154372419Y-135428020D02*
X154372419Y-135323258D01*
X154372419Y-135323258D02*
X154324800Y-135166115D01*
X154324800Y-135166115D02*
X154277180Y-135113734D01*
X154277180Y-135113734D02*
X153943847Y-135113734D01*
X153943847Y-135113734D02*
X153943847Y-135323258D01*
X154372419Y-134642306D02*
X153372419Y-134642306D01*
X153372419Y-134642306D02*
X153372419Y-134223258D01*
X153372419Y-134223258D02*
X153420038Y-134118496D01*
X153420038Y-134118496D02*
X153467657Y-134066115D01*
X153467657Y-134066115D02*
X153562895Y-134013734D01*
X153562895Y-134013734D02*
X153705752Y-134013734D01*
X153705752Y-134013734D02*
X153800990Y-134066115D01*
X153800990Y-134066115D02*
X153848609Y-134118496D01*
X153848609Y-134118496D02*
X153896228Y-134223258D01*
X153896228Y-134223258D02*
X153896228Y-134642306D01*
X154372419Y-133542306D02*
X153372419Y-133542306D01*
X153372419Y-132808972D02*
X153372419Y-132599448D01*
X153372419Y-132599448D02*
X153420038Y-132494686D01*
X153420038Y-132494686D02*
X153515276Y-132389924D01*
X153515276Y-132389924D02*
X153705752Y-132337543D01*
X153705752Y-132337543D02*
X154039085Y-132337543D01*
X154039085Y-132337543D02*
X154229561Y-132389924D01*
X154229561Y-132389924D02*
X154324800Y-132494686D01*
X154324800Y-132494686D02*
X154372419Y-132599448D01*
X154372419Y-132599448D02*
X154372419Y-132808972D01*
X154372419Y-132808972D02*
X154324800Y-132913734D01*
X154324800Y-132913734D02*
X154229561Y-133018496D01*
X154229561Y-133018496D02*
X154039085Y-133070877D01*
X154039085Y-133070877D02*
X153705752Y-133070877D01*
X153705752Y-133070877D02*
X153515276Y-133018496D01*
X153515276Y-133018496D02*
X153420038Y-132913734D01*
X153420038Y-132913734D02*
X153372419Y-132808972D01*
X153467657Y-131918496D02*
X153420038Y-131866115D01*
X153420038Y-131866115D02*
X153372419Y-131761353D01*
X153372419Y-131761353D02*
X153372419Y-131499448D01*
X153372419Y-131499448D02*
X153420038Y-131394686D01*
X153420038Y-131394686D02*
X153467657Y-131342305D01*
X153467657Y-131342305D02*
X153562895Y-131289924D01*
X153562895Y-131289924D02*
X153658133Y-131289924D01*
X153658133Y-131289924D02*
X153800990Y-131342305D01*
X153800990Y-131342305D02*
X154372419Y-131970877D01*
X154372419Y-131970877D02*
X154372419Y-131289924D01*
X153372419Y-130294686D02*
X153372419Y-130818496D01*
X153372419Y-130818496D02*
X153848609Y-130870877D01*
X153848609Y-130870877D02*
X153800990Y-130818496D01*
X153800990Y-130818496D02*
X153753371Y-130713734D01*
X153753371Y-130713734D02*
X153753371Y-130451829D01*
X153753371Y-130451829D02*
X153800990Y-130347067D01*
X153800990Y-130347067D02*
X153848609Y-130294686D01*
X153848609Y-130294686D02*
X153943847Y-130242305D01*
X153943847Y-130242305D02*
X154181942Y-130242305D01*
X154181942Y-130242305D02*
X154277180Y-130294686D01*
X154277180Y-130294686D02*
X154324800Y-130347067D01*
X154324800Y-130347067D02*
X154372419Y-130451829D01*
X154372419Y-130451829D02*
X154372419Y-130713734D01*
X154372419Y-130713734D02*
X154324800Y-130818496D01*
X154324800Y-130818496D02*
X154277180Y-130870877D01*
X155920038Y-117666115D02*
X155872419Y-117770877D01*
X155872419Y-117770877D02*
X155872419Y-117928020D01*
X155872419Y-117928020D02*
X155920038Y-118085163D01*
X155920038Y-118085163D02*
X156015276Y-118189925D01*
X156015276Y-118189925D02*
X156110514Y-118242306D01*
X156110514Y-118242306D02*
X156300990Y-118294687D01*
X156300990Y-118294687D02*
X156443847Y-118294687D01*
X156443847Y-118294687D02*
X156634323Y-118242306D01*
X156634323Y-118242306D02*
X156729561Y-118189925D01*
X156729561Y-118189925D02*
X156824800Y-118085163D01*
X156824800Y-118085163D02*
X156872419Y-117928020D01*
X156872419Y-117928020D02*
X156872419Y-117823258D01*
X156872419Y-117823258D02*
X156824800Y-117666115D01*
X156824800Y-117666115D02*
X156777180Y-117613734D01*
X156777180Y-117613734D02*
X156443847Y-117613734D01*
X156443847Y-117613734D02*
X156443847Y-117823258D01*
X156872419Y-117142306D02*
X155872419Y-117142306D01*
X155872419Y-117142306D02*
X155872419Y-116723258D01*
X155872419Y-116723258D02*
X155920038Y-116618496D01*
X155920038Y-116618496D02*
X155967657Y-116566115D01*
X155967657Y-116566115D02*
X156062895Y-116513734D01*
X156062895Y-116513734D02*
X156205752Y-116513734D01*
X156205752Y-116513734D02*
X156300990Y-116566115D01*
X156300990Y-116566115D02*
X156348609Y-116618496D01*
X156348609Y-116618496D02*
X156396228Y-116723258D01*
X156396228Y-116723258D02*
X156396228Y-117142306D01*
X156872419Y-116042306D02*
X155872419Y-116042306D01*
X155872419Y-115308972D02*
X155872419Y-115099448D01*
X155872419Y-115099448D02*
X155920038Y-114994686D01*
X155920038Y-114994686D02*
X156015276Y-114889924D01*
X156015276Y-114889924D02*
X156205752Y-114837543D01*
X156205752Y-114837543D02*
X156539085Y-114837543D01*
X156539085Y-114837543D02*
X156729561Y-114889924D01*
X156729561Y-114889924D02*
X156824800Y-114994686D01*
X156824800Y-114994686D02*
X156872419Y-115099448D01*
X156872419Y-115099448D02*
X156872419Y-115308972D01*
X156872419Y-115308972D02*
X156824800Y-115413734D01*
X156824800Y-115413734D02*
X156729561Y-115518496D01*
X156729561Y-115518496D02*
X156539085Y-115570877D01*
X156539085Y-115570877D02*
X156205752Y-115570877D01*
X156205752Y-115570877D02*
X156015276Y-115518496D01*
X156015276Y-115518496D02*
X155920038Y-115413734D01*
X155920038Y-115413734D02*
X155872419Y-115308972D01*
X156872419Y-113789924D02*
X156872419Y-114418496D01*
X156872419Y-114104210D02*
X155872419Y-114104210D01*
X155872419Y-114104210D02*
X156015276Y-114208972D01*
X156015276Y-114208972D02*
X156110514Y-114313734D01*
X156110514Y-114313734D02*
X156158133Y-114418496D01*
X155872419Y-113423258D02*
X155872419Y-112689924D01*
X155872419Y-112689924D02*
X156872419Y-113161353D01*
X155920038Y-135166115D02*
X155872419Y-135270877D01*
X155872419Y-135270877D02*
X155872419Y-135428020D01*
X155872419Y-135428020D02*
X155920038Y-135585163D01*
X155920038Y-135585163D02*
X156015276Y-135689925D01*
X156015276Y-135689925D02*
X156110514Y-135742306D01*
X156110514Y-135742306D02*
X156300990Y-135794687D01*
X156300990Y-135794687D02*
X156443847Y-135794687D01*
X156443847Y-135794687D02*
X156634323Y-135742306D01*
X156634323Y-135742306D02*
X156729561Y-135689925D01*
X156729561Y-135689925D02*
X156824800Y-135585163D01*
X156824800Y-135585163D02*
X156872419Y-135428020D01*
X156872419Y-135428020D02*
X156872419Y-135323258D01*
X156872419Y-135323258D02*
X156824800Y-135166115D01*
X156824800Y-135166115D02*
X156777180Y-135113734D01*
X156777180Y-135113734D02*
X156443847Y-135113734D01*
X156443847Y-135113734D02*
X156443847Y-135323258D01*
X156872419Y-134642306D02*
X155872419Y-134642306D01*
X155872419Y-134642306D02*
X155872419Y-134223258D01*
X155872419Y-134223258D02*
X155920038Y-134118496D01*
X155920038Y-134118496D02*
X155967657Y-134066115D01*
X155967657Y-134066115D02*
X156062895Y-134013734D01*
X156062895Y-134013734D02*
X156205752Y-134013734D01*
X156205752Y-134013734D02*
X156300990Y-134066115D01*
X156300990Y-134066115D02*
X156348609Y-134118496D01*
X156348609Y-134118496D02*
X156396228Y-134223258D01*
X156396228Y-134223258D02*
X156396228Y-134642306D01*
X156872419Y-133542306D02*
X155872419Y-133542306D01*
X155872419Y-132808972D02*
X155872419Y-132599448D01*
X155872419Y-132599448D02*
X155920038Y-132494686D01*
X155920038Y-132494686D02*
X156015276Y-132389924D01*
X156015276Y-132389924D02*
X156205752Y-132337543D01*
X156205752Y-132337543D02*
X156539085Y-132337543D01*
X156539085Y-132337543D02*
X156729561Y-132389924D01*
X156729561Y-132389924D02*
X156824800Y-132494686D01*
X156824800Y-132494686D02*
X156872419Y-132599448D01*
X156872419Y-132599448D02*
X156872419Y-132808972D01*
X156872419Y-132808972D02*
X156824800Y-132913734D01*
X156824800Y-132913734D02*
X156729561Y-133018496D01*
X156729561Y-133018496D02*
X156539085Y-133070877D01*
X156539085Y-133070877D02*
X156205752Y-133070877D01*
X156205752Y-133070877D02*
X156015276Y-133018496D01*
X156015276Y-133018496D02*
X155920038Y-132913734D01*
X155920038Y-132913734D02*
X155872419Y-132808972D01*
X155967657Y-131918496D02*
X155920038Y-131866115D01*
X155920038Y-131866115D02*
X155872419Y-131761353D01*
X155872419Y-131761353D02*
X155872419Y-131499448D01*
X155872419Y-131499448D02*
X155920038Y-131394686D01*
X155920038Y-131394686D02*
X155967657Y-131342305D01*
X155967657Y-131342305D02*
X156062895Y-131289924D01*
X156062895Y-131289924D02*
X156158133Y-131289924D01*
X156158133Y-131289924D02*
X156300990Y-131342305D01*
X156300990Y-131342305D02*
X156872419Y-131970877D01*
X156872419Y-131970877D02*
X156872419Y-131289924D01*
X155872419Y-130347067D02*
X155872419Y-130556591D01*
X155872419Y-130556591D02*
X155920038Y-130661353D01*
X155920038Y-130661353D02*
X155967657Y-130713734D01*
X155967657Y-130713734D02*
X156110514Y-130818496D01*
X156110514Y-130818496D02*
X156300990Y-130870877D01*
X156300990Y-130870877D02*
X156681942Y-130870877D01*
X156681942Y-130870877D02*
X156777180Y-130818496D01*
X156777180Y-130818496D02*
X156824800Y-130766115D01*
X156824800Y-130766115D02*
X156872419Y-130661353D01*
X156872419Y-130661353D02*
X156872419Y-130451829D01*
X156872419Y-130451829D02*
X156824800Y-130347067D01*
X156824800Y-130347067D02*
X156777180Y-130294686D01*
X156777180Y-130294686D02*
X156681942Y-130242305D01*
X156681942Y-130242305D02*
X156443847Y-130242305D01*
X156443847Y-130242305D02*
X156348609Y-130294686D01*
X156348609Y-130294686D02*
X156300990Y-130347067D01*
X156300990Y-130347067D02*
X156253371Y-130451829D01*
X156253371Y-130451829D02*
X156253371Y-130661353D01*
X156253371Y-130661353D02*
X156300990Y-130766115D01*
X156300990Y-130766115D02*
X156348609Y-130818496D01*
X156348609Y-130818496D02*
X156443847Y-130870877D01*
X158420038Y-117666115D02*
X158372419Y-117770877D01*
X158372419Y-117770877D02*
X158372419Y-117928020D01*
X158372419Y-117928020D02*
X158420038Y-118085163D01*
X158420038Y-118085163D02*
X158515276Y-118189925D01*
X158515276Y-118189925D02*
X158610514Y-118242306D01*
X158610514Y-118242306D02*
X158800990Y-118294687D01*
X158800990Y-118294687D02*
X158943847Y-118294687D01*
X158943847Y-118294687D02*
X159134323Y-118242306D01*
X159134323Y-118242306D02*
X159229561Y-118189925D01*
X159229561Y-118189925D02*
X159324800Y-118085163D01*
X159324800Y-118085163D02*
X159372419Y-117928020D01*
X159372419Y-117928020D02*
X159372419Y-117823258D01*
X159372419Y-117823258D02*
X159324800Y-117666115D01*
X159324800Y-117666115D02*
X159277180Y-117613734D01*
X159277180Y-117613734D02*
X158943847Y-117613734D01*
X158943847Y-117613734D02*
X158943847Y-117823258D01*
X159372419Y-117142306D02*
X158372419Y-117142306D01*
X158372419Y-117142306D02*
X158372419Y-116723258D01*
X158372419Y-116723258D02*
X158420038Y-116618496D01*
X158420038Y-116618496D02*
X158467657Y-116566115D01*
X158467657Y-116566115D02*
X158562895Y-116513734D01*
X158562895Y-116513734D02*
X158705752Y-116513734D01*
X158705752Y-116513734D02*
X158800990Y-116566115D01*
X158800990Y-116566115D02*
X158848609Y-116618496D01*
X158848609Y-116618496D02*
X158896228Y-116723258D01*
X158896228Y-116723258D02*
X158896228Y-117142306D01*
X159372419Y-116042306D02*
X158372419Y-116042306D01*
X158372419Y-115308972D02*
X158372419Y-115099448D01*
X158372419Y-115099448D02*
X158420038Y-114994686D01*
X158420038Y-114994686D02*
X158515276Y-114889924D01*
X158515276Y-114889924D02*
X158705752Y-114837543D01*
X158705752Y-114837543D02*
X159039085Y-114837543D01*
X159039085Y-114837543D02*
X159229561Y-114889924D01*
X159229561Y-114889924D02*
X159324800Y-114994686D01*
X159324800Y-114994686D02*
X159372419Y-115099448D01*
X159372419Y-115099448D02*
X159372419Y-115308972D01*
X159372419Y-115308972D02*
X159324800Y-115413734D01*
X159324800Y-115413734D02*
X159229561Y-115518496D01*
X159229561Y-115518496D02*
X159039085Y-115570877D01*
X159039085Y-115570877D02*
X158705752Y-115570877D01*
X158705752Y-115570877D02*
X158515276Y-115518496D01*
X158515276Y-115518496D02*
X158420038Y-115413734D01*
X158420038Y-115413734D02*
X158372419Y-115308972D01*
X159372419Y-113789924D02*
X159372419Y-114418496D01*
X159372419Y-114104210D02*
X158372419Y-114104210D01*
X158372419Y-114104210D02*
X158515276Y-114208972D01*
X158515276Y-114208972D02*
X158610514Y-114313734D01*
X158610514Y-114313734D02*
X158658133Y-114418496D01*
X158372419Y-112847067D02*
X158372419Y-113056591D01*
X158372419Y-113056591D02*
X158420038Y-113161353D01*
X158420038Y-113161353D02*
X158467657Y-113213734D01*
X158467657Y-113213734D02*
X158610514Y-113318496D01*
X158610514Y-113318496D02*
X158800990Y-113370877D01*
X158800990Y-113370877D02*
X159181942Y-113370877D01*
X159181942Y-113370877D02*
X159277180Y-113318496D01*
X159277180Y-113318496D02*
X159324800Y-113266115D01*
X159324800Y-113266115D02*
X159372419Y-113161353D01*
X159372419Y-113161353D02*
X159372419Y-112951829D01*
X159372419Y-112951829D02*
X159324800Y-112847067D01*
X159324800Y-112847067D02*
X159277180Y-112794686D01*
X159277180Y-112794686D02*
X159181942Y-112742305D01*
X159181942Y-112742305D02*
X158943847Y-112742305D01*
X158943847Y-112742305D02*
X158848609Y-112794686D01*
X158848609Y-112794686D02*
X158800990Y-112847067D01*
X158800990Y-112847067D02*
X158753371Y-112951829D01*
X158753371Y-112951829D02*
X158753371Y-113161353D01*
X158753371Y-113161353D02*
X158800990Y-113266115D01*
X158800990Y-113266115D02*
X158848609Y-113318496D01*
X158848609Y-113318496D02*
X158943847Y-113370877D01*
X158420038Y-135166115D02*
X158372419Y-135270877D01*
X158372419Y-135270877D02*
X158372419Y-135428020D01*
X158372419Y-135428020D02*
X158420038Y-135585163D01*
X158420038Y-135585163D02*
X158515276Y-135689925D01*
X158515276Y-135689925D02*
X158610514Y-135742306D01*
X158610514Y-135742306D02*
X158800990Y-135794687D01*
X158800990Y-135794687D02*
X158943847Y-135794687D01*
X158943847Y-135794687D02*
X159134323Y-135742306D01*
X159134323Y-135742306D02*
X159229561Y-135689925D01*
X159229561Y-135689925D02*
X159324800Y-135585163D01*
X159324800Y-135585163D02*
X159372419Y-135428020D01*
X159372419Y-135428020D02*
X159372419Y-135323258D01*
X159372419Y-135323258D02*
X159324800Y-135166115D01*
X159324800Y-135166115D02*
X159277180Y-135113734D01*
X159277180Y-135113734D02*
X158943847Y-135113734D01*
X158943847Y-135113734D02*
X158943847Y-135323258D01*
X159372419Y-134642306D02*
X158372419Y-134642306D01*
X158372419Y-134642306D02*
X158372419Y-134223258D01*
X158372419Y-134223258D02*
X158420038Y-134118496D01*
X158420038Y-134118496D02*
X158467657Y-134066115D01*
X158467657Y-134066115D02*
X158562895Y-134013734D01*
X158562895Y-134013734D02*
X158705752Y-134013734D01*
X158705752Y-134013734D02*
X158800990Y-134066115D01*
X158800990Y-134066115D02*
X158848609Y-134118496D01*
X158848609Y-134118496D02*
X158896228Y-134223258D01*
X158896228Y-134223258D02*
X158896228Y-134642306D01*
X159372419Y-133542306D02*
X158372419Y-133542306D01*
X158372419Y-132808972D02*
X158372419Y-132599448D01*
X158372419Y-132599448D02*
X158420038Y-132494686D01*
X158420038Y-132494686D02*
X158515276Y-132389924D01*
X158515276Y-132389924D02*
X158705752Y-132337543D01*
X158705752Y-132337543D02*
X159039085Y-132337543D01*
X159039085Y-132337543D02*
X159229561Y-132389924D01*
X159229561Y-132389924D02*
X159324800Y-132494686D01*
X159324800Y-132494686D02*
X159372419Y-132599448D01*
X159372419Y-132599448D02*
X159372419Y-132808972D01*
X159372419Y-132808972D02*
X159324800Y-132913734D01*
X159324800Y-132913734D02*
X159229561Y-133018496D01*
X159229561Y-133018496D02*
X159039085Y-133070877D01*
X159039085Y-133070877D02*
X158705752Y-133070877D01*
X158705752Y-133070877D02*
X158515276Y-133018496D01*
X158515276Y-133018496D02*
X158420038Y-132913734D01*
X158420038Y-132913734D02*
X158372419Y-132808972D01*
X158467657Y-131918496D02*
X158420038Y-131866115D01*
X158420038Y-131866115D02*
X158372419Y-131761353D01*
X158372419Y-131761353D02*
X158372419Y-131499448D01*
X158372419Y-131499448D02*
X158420038Y-131394686D01*
X158420038Y-131394686D02*
X158467657Y-131342305D01*
X158467657Y-131342305D02*
X158562895Y-131289924D01*
X158562895Y-131289924D02*
X158658133Y-131289924D01*
X158658133Y-131289924D02*
X158800990Y-131342305D01*
X158800990Y-131342305D02*
X159372419Y-131970877D01*
X159372419Y-131970877D02*
X159372419Y-131289924D01*
X158372419Y-130923258D02*
X158372419Y-130189924D01*
X158372419Y-130189924D02*
X159372419Y-130661353D01*
X160920038Y-116666115D02*
X160872419Y-116770877D01*
X160872419Y-116770877D02*
X160872419Y-116928020D01*
X160872419Y-116928020D02*
X160920038Y-117085163D01*
X160920038Y-117085163D02*
X161015276Y-117189925D01*
X161015276Y-117189925D02*
X161110514Y-117242306D01*
X161110514Y-117242306D02*
X161300990Y-117294687D01*
X161300990Y-117294687D02*
X161443847Y-117294687D01*
X161443847Y-117294687D02*
X161634323Y-117242306D01*
X161634323Y-117242306D02*
X161729561Y-117189925D01*
X161729561Y-117189925D02*
X161824800Y-117085163D01*
X161824800Y-117085163D02*
X161872419Y-116928020D01*
X161872419Y-116928020D02*
X161872419Y-116823258D01*
X161872419Y-116823258D02*
X161824800Y-116666115D01*
X161824800Y-116666115D02*
X161777180Y-116613734D01*
X161777180Y-116613734D02*
X161443847Y-116613734D01*
X161443847Y-116613734D02*
X161443847Y-116823258D01*
X161872419Y-116142306D02*
X160872419Y-116142306D01*
X160872419Y-116142306D02*
X160872419Y-115723258D01*
X160872419Y-115723258D02*
X160920038Y-115618496D01*
X160920038Y-115618496D02*
X160967657Y-115566115D01*
X160967657Y-115566115D02*
X161062895Y-115513734D01*
X161062895Y-115513734D02*
X161205752Y-115513734D01*
X161205752Y-115513734D02*
X161300990Y-115566115D01*
X161300990Y-115566115D02*
X161348609Y-115618496D01*
X161348609Y-115618496D02*
X161396228Y-115723258D01*
X161396228Y-115723258D02*
X161396228Y-116142306D01*
X161872419Y-115042306D02*
X160872419Y-115042306D01*
X160872419Y-114308972D02*
X160872419Y-114099448D01*
X160872419Y-114099448D02*
X160920038Y-113994686D01*
X160920038Y-113994686D02*
X161015276Y-113889924D01*
X161015276Y-113889924D02*
X161205752Y-113837543D01*
X161205752Y-113837543D02*
X161539085Y-113837543D01*
X161539085Y-113837543D02*
X161729561Y-113889924D01*
X161729561Y-113889924D02*
X161824800Y-113994686D01*
X161824800Y-113994686D02*
X161872419Y-114099448D01*
X161872419Y-114099448D02*
X161872419Y-114308972D01*
X161872419Y-114308972D02*
X161824800Y-114413734D01*
X161824800Y-114413734D02*
X161729561Y-114518496D01*
X161729561Y-114518496D02*
X161539085Y-114570877D01*
X161539085Y-114570877D02*
X161205752Y-114570877D01*
X161205752Y-114570877D02*
X161015276Y-114518496D01*
X161015276Y-114518496D02*
X160920038Y-114413734D01*
X160920038Y-114413734D02*
X160872419Y-114308972D01*
X161205752Y-112894686D02*
X161872419Y-112894686D01*
X160824800Y-113156591D02*
X161539085Y-113418496D01*
X161539085Y-113418496D02*
X161539085Y-112737543D01*
X160920038Y-135166115D02*
X160872419Y-135270877D01*
X160872419Y-135270877D02*
X160872419Y-135428020D01*
X160872419Y-135428020D02*
X160920038Y-135585163D01*
X160920038Y-135585163D02*
X161015276Y-135689925D01*
X161015276Y-135689925D02*
X161110514Y-135742306D01*
X161110514Y-135742306D02*
X161300990Y-135794687D01*
X161300990Y-135794687D02*
X161443847Y-135794687D01*
X161443847Y-135794687D02*
X161634323Y-135742306D01*
X161634323Y-135742306D02*
X161729561Y-135689925D01*
X161729561Y-135689925D02*
X161824800Y-135585163D01*
X161824800Y-135585163D02*
X161872419Y-135428020D01*
X161872419Y-135428020D02*
X161872419Y-135323258D01*
X161872419Y-135323258D02*
X161824800Y-135166115D01*
X161824800Y-135166115D02*
X161777180Y-135113734D01*
X161777180Y-135113734D02*
X161443847Y-135113734D01*
X161443847Y-135113734D02*
X161443847Y-135323258D01*
X161872419Y-134642306D02*
X160872419Y-134642306D01*
X160872419Y-134642306D02*
X160872419Y-134223258D01*
X160872419Y-134223258D02*
X160920038Y-134118496D01*
X160920038Y-134118496D02*
X160967657Y-134066115D01*
X160967657Y-134066115D02*
X161062895Y-134013734D01*
X161062895Y-134013734D02*
X161205752Y-134013734D01*
X161205752Y-134013734D02*
X161300990Y-134066115D01*
X161300990Y-134066115D02*
X161348609Y-134118496D01*
X161348609Y-134118496D02*
X161396228Y-134223258D01*
X161396228Y-134223258D02*
X161396228Y-134642306D01*
X161872419Y-133542306D02*
X160872419Y-133542306D01*
X160872419Y-132808972D02*
X160872419Y-132599448D01*
X160872419Y-132599448D02*
X160920038Y-132494686D01*
X160920038Y-132494686D02*
X161015276Y-132389924D01*
X161015276Y-132389924D02*
X161205752Y-132337543D01*
X161205752Y-132337543D02*
X161539085Y-132337543D01*
X161539085Y-132337543D02*
X161729561Y-132389924D01*
X161729561Y-132389924D02*
X161824800Y-132494686D01*
X161824800Y-132494686D02*
X161872419Y-132599448D01*
X161872419Y-132599448D02*
X161872419Y-132808972D01*
X161872419Y-132808972D02*
X161824800Y-132913734D01*
X161824800Y-132913734D02*
X161729561Y-133018496D01*
X161729561Y-133018496D02*
X161539085Y-133070877D01*
X161539085Y-133070877D02*
X161205752Y-133070877D01*
X161205752Y-133070877D02*
X161015276Y-133018496D01*
X161015276Y-133018496D02*
X160920038Y-132913734D01*
X160920038Y-132913734D02*
X160872419Y-132808972D01*
X161872419Y-131289924D02*
X161872419Y-131918496D01*
X161872419Y-131604210D02*
X160872419Y-131604210D01*
X160872419Y-131604210D02*
X161015276Y-131708972D01*
X161015276Y-131708972D02*
X161110514Y-131813734D01*
X161110514Y-131813734D02*
X161158133Y-131918496D01*
X161205752Y-130347067D02*
X161872419Y-130347067D01*
X160824800Y-130608972D02*
X161539085Y-130870877D01*
X161539085Y-130870877D02*
X161539085Y-130189924D01*
X163420038Y-116666115D02*
X163372419Y-116770877D01*
X163372419Y-116770877D02*
X163372419Y-116928020D01*
X163372419Y-116928020D02*
X163420038Y-117085163D01*
X163420038Y-117085163D02*
X163515276Y-117189925D01*
X163515276Y-117189925D02*
X163610514Y-117242306D01*
X163610514Y-117242306D02*
X163800990Y-117294687D01*
X163800990Y-117294687D02*
X163943847Y-117294687D01*
X163943847Y-117294687D02*
X164134323Y-117242306D01*
X164134323Y-117242306D02*
X164229561Y-117189925D01*
X164229561Y-117189925D02*
X164324800Y-117085163D01*
X164324800Y-117085163D02*
X164372419Y-116928020D01*
X164372419Y-116928020D02*
X164372419Y-116823258D01*
X164372419Y-116823258D02*
X164324800Y-116666115D01*
X164324800Y-116666115D02*
X164277180Y-116613734D01*
X164277180Y-116613734D02*
X163943847Y-116613734D01*
X163943847Y-116613734D02*
X163943847Y-116823258D01*
X164372419Y-116142306D02*
X163372419Y-116142306D01*
X163372419Y-116142306D02*
X163372419Y-115723258D01*
X163372419Y-115723258D02*
X163420038Y-115618496D01*
X163420038Y-115618496D02*
X163467657Y-115566115D01*
X163467657Y-115566115D02*
X163562895Y-115513734D01*
X163562895Y-115513734D02*
X163705752Y-115513734D01*
X163705752Y-115513734D02*
X163800990Y-115566115D01*
X163800990Y-115566115D02*
X163848609Y-115618496D01*
X163848609Y-115618496D02*
X163896228Y-115723258D01*
X163896228Y-115723258D02*
X163896228Y-116142306D01*
X164372419Y-115042306D02*
X163372419Y-115042306D01*
X163372419Y-114308972D02*
X163372419Y-114099448D01*
X163372419Y-114099448D02*
X163420038Y-113994686D01*
X163420038Y-113994686D02*
X163515276Y-113889924D01*
X163515276Y-113889924D02*
X163705752Y-113837543D01*
X163705752Y-113837543D02*
X164039085Y-113837543D01*
X164039085Y-113837543D02*
X164229561Y-113889924D01*
X164229561Y-113889924D02*
X164324800Y-113994686D01*
X164324800Y-113994686D02*
X164372419Y-114099448D01*
X164372419Y-114099448D02*
X164372419Y-114308972D01*
X164372419Y-114308972D02*
X164324800Y-114413734D01*
X164324800Y-114413734D02*
X164229561Y-114518496D01*
X164229561Y-114518496D02*
X164039085Y-114570877D01*
X164039085Y-114570877D02*
X163705752Y-114570877D01*
X163705752Y-114570877D02*
X163515276Y-114518496D01*
X163515276Y-114518496D02*
X163420038Y-114413734D01*
X163420038Y-114413734D02*
X163372419Y-114308972D01*
X163467657Y-113418496D02*
X163420038Y-113366115D01*
X163420038Y-113366115D02*
X163372419Y-113261353D01*
X163372419Y-113261353D02*
X163372419Y-112999448D01*
X163372419Y-112999448D02*
X163420038Y-112894686D01*
X163420038Y-112894686D02*
X163467657Y-112842305D01*
X163467657Y-112842305D02*
X163562895Y-112789924D01*
X163562895Y-112789924D02*
X163658133Y-112789924D01*
X163658133Y-112789924D02*
X163800990Y-112842305D01*
X163800990Y-112842305D02*
X164372419Y-113470877D01*
X164372419Y-113470877D02*
X164372419Y-112789924D01*
X163420038Y-135166115D02*
X163372419Y-135270877D01*
X163372419Y-135270877D02*
X163372419Y-135428020D01*
X163372419Y-135428020D02*
X163420038Y-135585163D01*
X163420038Y-135585163D02*
X163515276Y-135689925D01*
X163515276Y-135689925D02*
X163610514Y-135742306D01*
X163610514Y-135742306D02*
X163800990Y-135794687D01*
X163800990Y-135794687D02*
X163943847Y-135794687D01*
X163943847Y-135794687D02*
X164134323Y-135742306D01*
X164134323Y-135742306D02*
X164229561Y-135689925D01*
X164229561Y-135689925D02*
X164324800Y-135585163D01*
X164324800Y-135585163D02*
X164372419Y-135428020D01*
X164372419Y-135428020D02*
X164372419Y-135323258D01*
X164372419Y-135323258D02*
X164324800Y-135166115D01*
X164324800Y-135166115D02*
X164277180Y-135113734D01*
X164277180Y-135113734D02*
X163943847Y-135113734D01*
X163943847Y-135113734D02*
X163943847Y-135323258D01*
X164372419Y-134642306D02*
X163372419Y-134642306D01*
X163372419Y-134642306D02*
X163372419Y-134223258D01*
X163372419Y-134223258D02*
X163420038Y-134118496D01*
X163420038Y-134118496D02*
X163467657Y-134066115D01*
X163467657Y-134066115D02*
X163562895Y-134013734D01*
X163562895Y-134013734D02*
X163705752Y-134013734D01*
X163705752Y-134013734D02*
X163800990Y-134066115D01*
X163800990Y-134066115D02*
X163848609Y-134118496D01*
X163848609Y-134118496D02*
X163896228Y-134223258D01*
X163896228Y-134223258D02*
X163896228Y-134642306D01*
X164372419Y-133542306D02*
X163372419Y-133542306D01*
X163372419Y-132808972D02*
X163372419Y-132599448D01*
X163372419Y-132599448D02*
X163420038Y-132494686D01*
X163420038Y-132494686D02*
X163515276Y-132389924D01*
X163515276Y-132389924D02*
X163705752Y-132337543D01*
X163705752Y-132337543D02*
X164039085Y-132337543D01*
X164039085Y-132337543D02*
X164229561Y-132389924D01*
X164229561Y-132389924D02*
X164324800Y-132494686D01*
X164324800Y-132494686D02*
X164372419Y-132599448D01*
X164372419Y-132599448D02*
X164372419Y-132808972D01*
X164372419Y-132808972D02*
X164324800Y-132913734D01*
X164324800Y-132913734D02*
X164229561Y-133018496D01*
X164229561Y-133018496D02*
X164039085Y-133070877D01*
X164039085Y-133070877D02*
X163705752Y-133070877D01*
X163705752Y-133070877D02*
X163515276Y-133018496D01*
X163515276Y-133018496D02*
X163420038Y-132913734D01*
X163420038Y-132913734D02*
X163372419Y-132808972D01*
X164372419Y-131289924D02*
X164372419Y-131918496D01*
X164372419Y-131604210D02*
X163372419Y-131604210D01*
X163372419Y-131604210D02*
X163515276Y-131708972D01*
X163515276Y-131708972D02*
X163610514Y-131813734D01*
X163610514Y-131813734D02*
X163658133Y-131918496D01*
X163467657Y-130870877D02*
X163420038Y-130818496D01*
X163420038Y-130818496D02*
X163372419Y-130713734D01*
X163372419Y-130713734D02*
X163372419Y-130451829D01*
X163372419Y-130451829D02*
X163420038Y-130347067D01*
X163420038Y-130347067D02*
X163467657Y-130294686D01*
X163467657Y-130294686D02*
X163562895Y-130242305D01*
X163562895Y-130242305D02*
X163658133Y-130242305D01*
X163658133Y-130242305D02*
X163800990Y-130294686D01*
X163800990Y-130294686D02*
X164372419Y-130923258D01*
X164372419Y-130923258D02*
X164372419Y-130242305D01*
X165920038Y-117666115D02*
X165872419Y-117770877D01*
X165872419Y-117770877D02*
X165872419Y-117928020D01*
X165872419Y-117928020D02*
X165920038Y-118085163D01*
X165920038Y-118085163D02*
X166015276Y-118189925D01*
X166015276Y-118189925D02*
X166110514Y-118242306D01*
X166110514Y-118242306D02*
X166300990Y-118294687D01*
X166300990Y-118294687D02*
X166443847Y-118294687D01*
X166443847Y-118294687D02*
X166634323Y-118242306D01*
X166634323Y-118242306D02*
X166729561Y-118189925D01*
X166729561Y-118189925D02*
X166824800Y-118085163D01*
X166824800Y-118085163D02*
X166872419Y-117928020D01*
X166872419Y-117928020D02*
X166872419Y-117823258D01*
X166872419Y-117823258D02*
X166824800Y-117666115D01*
X166824800Y-117666115D02*
X166777180Y-117613734D01*
X166777180Y-117613734D02*
X166443847Y-117613734D01*
X166443847Y-117613734D02*
X166443847Y-117823258D01*
X166872419Y-117142306D02*
X165872419Y-117142306D01*
X165872419Y-117142306D02*
X165872419Y-116723258D01*
X165872419Y-116723258D02*
X165920038Y-116618496D01*
X165920038Y-116618496D02*
X165967657Y-116566115D01*
X165967657Y-116566115D02*
X166062895Y-116513734D01*
X166062895Y-116513734D02*
X166205752Y-116513734D01*
X166205752Y-116513734D02*
X166300990Y-116566115D01*
X166300990Y-116566115D02*
X166348609Y-116618496D01*
X166348609Y-116618496D02*
X166396228Y-116723258D01*
X166396228Y-116723258D02*
X166396228Y-117142306D01*
X166872419Y-116042306D02*
X165872419Y-116042306D01*
X165872419Y-115308972D02*
X165872419Y-115099448D01*
X165872419Y-115099448D02*
X165920038Y-114994686D01*
X165920038Y-114994686D02*
X166015276Y-114889924D01*
X166015276Y-114889924D02*
X166205752Y-114837543D01*
X166205752Y-114837543D02*
X166539085Y-114837543D01*
X166539085Y-114837543D02*
X166729561Y-114889924D01*
X166729561Y-114889924D02*
X166824800Y-114994686D01*
X166824800Y-114994686D02*
X166872419Y-115099448D01*
X166872419Y-115099448D02*
X166872419Y-115308972D01*
X166872419Y-115308972D02*
X166824800Y-115413734D01*
X166824800Y-115413734D02*
X166729561Y-115518496D01*
X166729561Y-115518496D02*
X166539085Y-115570877D01*
X166539085Y-115570877D02*
X166205752Y-115570877D01*
X166205752Y-115570877D02*
X166015276Y-115518496D01*
X166015276Y-115518496D02*
X165920038Y-115413734D01*
X165920038Y-115413734D02*
X165872419Y-115308972D01*
X166872419Y-113789924D02*
X166872419Y-114418496D01*
X166872419Y-114104210D02*
X165872419Y-114104210D01*
X165872419Y-114104210D02*
X166015276Y-114208972D01*
X166015276Y-114208972D02*
X166110514Y-114313734D01*
X166110514Y-114313734D02*
X166158133Y-114418496D01*
X165872419Y-112794686D02*
X165872419Y-113318496D01*
X165872419Y-113318496D02*
X166348609Y-113370877D01*
X166348609Y-113370877D02*
X166300990Y-113318496D01*
X166300990Y-113318496D02*
X166253371Y-113213734D01*
X166253371Y-113213734D02*
X166253371Y-112951829D01*
X166253371Y-112951829D02*
X166300990Y-112847067D01*
X166300990Y-112847067D02*
X166348609Y-112794686D01*
X166348609Y-112794686D02*
X166443847Y-112742305D01*
X166443847Y-112742305D02*
X166681942Y-112742305D01*
X166681942Y-112742305D02*
X166777180Y-112794686D01*
X166777180Y-112794686D02*
X166824800Y-112847067D01*
X166824800Y-112847067D02*
X166872419Y-112951829D01*
X166872419Y-112951829D02*
X166872419Y-113213734D01*
X166872419Y-113213734D02*
X166824800Y-113318496D01*
X166824800Y-113318496D02*
X166777180Y-113370877D01*
X165920038Y-135166115D02*
X165872419Y-135270877D01*
X165872419Y-135270877D02*
X165872419Y-135428020D01*
X165872419Y-135428020D02*
X165920038Y-135585163D01*
X165920038Y-135585163D02*
X166015276Y-135689925D01*
X166015276Y-135689925D02*
X166110514Y-135742306D01*
X166110514Y-135742306D02*
X166300990Y-135794687D01*
X166300990Y-135794687D02*
X166443847Y-135794687D01*
X166443847Y-135794687D02*
X166634323Y-135742306D01*
X166634323Y-135742306D02*
X166729561Y-135689925D01*
X166729561Y-135689925D02*
X166824800Y-135585163D01*
X166824800Y-135585163D02*
X166872419Y-135428020D01*
X166872419Y-135428020D02*
X166872419Y-135323258D01*
X166872419Y-135323258D02*
X166824800Y-135166115D01*
X166824800Y-135166115D02*
X166777180Y-135113734D01*
X166777180Y-135113734D02*
X166443847Y-135113734D01*
X166443847Y-135113734D02*
X166443847Y-135323258D01*
X166872419Y-134642306D02*
X165872419Y-134642306D01*
X165872419Y-134642306D02*
X165872419Y-134223258D01*
X165872419Y-134223258D02*
X165920038Y-134118496D01*
X165920038Y-134118496D02*
X165967657Y-134066115D01*
X165967657Y-134066115D02*
X166062895Y-134013734D01*
X166062895Y-134013734D02*
X166205752Y-134013734D01*
X166205752Y-134013734D02*
X166300990Y-134066115D01*
X166300990Y-134066115D02*
X166348609Y-134118496D01*
X166348609Y-134118496D02*
X166396228Y-134223258D01*
X166396228Y-134223258D02*
X166396228Y-134642306D01*
X166872419Y-133542306D02*
X165872419Y-133542306D01*
X165872419Y-132808972D02*
X165872419Y-132599448D01*
X165872419Y-132599448D02*
X165920038Y-132494686D01*
X165920038Y-132494686D02*
X166015276Y-132389924D01*
X166015276Y-132389924D02*
X166205752Y-132337543D01*
X166205752Y-132337543D02*
X166539085Y-132337543D01*
X166539085Y-132337543D02*
X166729561Y-132389924D01*
X166729561Y-132389924D02*
X166824800Y-132494686D01*
X166824800Y-132494686D02*
X166872419Y-132599448D01*
X166872419Y-132599448D02*
X166872419Y-132808972D01*
X166872419Y-132808972D02*
X166824800Y-132913734D01*
X166824800Y-132913734D02*
X166729561Y-133018496D01*
X166729561Y-133018496D02*
X166539085Y-133070877D01*
X166539085Y-133070877D02*
X166205752Y-133070877D01*
X166205752Y-133070877D02*
X166015276Y-133018496D01*
X166015276Y-133018496D02*
X165920038Y-132913734D01*
X165920038Y-132913734D02*
X165872419Y-132808972D01*
X166872419Y-131289924D02*
X166872419Y-131918496D01*
X166872419Y-131604210D02*
X165872419Y-131604210D01*
X165872419Y-131604210D02*
X166015276Y-131708972D01*
X166015276Y-131708972D02*
X166110514Y-131813734D01*
X166110514Y-131813734D02*
X166158133Y-131918496D01*
X165872419Y-130923258D02*
X165872419Y-130242305D01*
X165872419Y-130242305D02*
X166253371Y-130608972D01*
X166253371Y-130608972D02*
X166253371Y-130451829D01*
X166253371Y-130451829D02*
X166300990Y-130347067D01*
X166300990Y-130347067D02*
X166348609Y-130294686D01*
X166348609Y-130294686D02*
X166443847Y-130242305D01*
X166443847Y-130242305D02*
X166681942Y-130242305D01*
X166681942Y-130242305D02*
X166777180Y-130294686D01*
X166777180Y-130294686D02*
X166824800Y-130347067D01*
X166824800Y-130347067D02*
X166872419Y-130451829D01*
X166872419Y-130451829D02*
X166872419Y-130766115D01*
X166872419Y-130766115D02*
X166824800Y-130870877D01*
X166824800Y-130870877D02*
X166777180Y-130923258D01*
X168420038Y-115166115D02*
X168372419Y-115270877D01*
X168372419Y-115270877D02*
X168372419Y-115428020D01*
X168372419Y-115428020D02*
X168420038Y-115585163D01*
X168420038Y-115585163D02*
X168515276Y-115689925D01*
X168515276Y-115689925D02*
X168610514Y-115742306D01*
X168610514Y-115742306D02*
X168800990Y-115794687D01*
X168800990Y-115794687D02*
X168943847Y-115794687D01*
X168943847Y-115794687D02*
X169134323Y-115742306D01*
X169134323Y-115742306D02*
X169229561Y-115689925D01*
X169229561Y-115689925D02*
X169324800Y-115585163D01*
X169324800Y-115585163D02*
X169372419Y-115428020D01*
X169372419Y-115428020D02*
X169372419Y-115323258D01*
X169372419Y-115323258D02*
X169324800Y-115166115D01*
X169324800Y-115166115D02*
X169277180Y-115113734D01*
X169277180Y-115113734D02*
X168943847Y-115113734D01*
X168943847Y-115113734D02*
X168943847Y-115323258D01*
X169372419Y-114642306D02*
X168372419Y-114642306D01*
X168372419Y-114642306D02*
X169372419Y-114013734D01*
X169372419Y-114013734D02*
X168372419Y-114013734D01*
X169372419Y-113489925D02*
X168372419Y-113489925D01*
X168372419Y-113489925D02*
X168372419Y-113228020D01*
X168372419Y-113228020D02*
X168420038Y-113070877D01*
X168420038Y-113070877D02*
X168515276Y-112966115D01*
X168515276Y-112966115D02*
X168610514Y-112913734D01*
X168610514Y-112913734D02*
X168800990Y-112861353D01*
X168800990Y-112861353D02*
X168943847Y-112861353D01*
X168943847Y-112861353D02*
X169134323Y-112913734D01*
X169134323Y-112913734D02*
X169229561Y-112966115D01*
X169229561Y-112966115D02*
X169324800Y-113070877D01*
X169324800Y-113070877D02*
X169372419Y-113228020D01*
X169372419Y-113228020D02*
X169372419Y-113489925D01*
X168420038Y-135166115D02*
X168372419Y-135270877D01*
X168372419Y-135270877D02*
X168372419Y-135428020D01*
X168372419Y-135428020D02*
X168420038Y-135585163D01*
X168420038Y-135585163D02*
X168515276Y-135689925D01*
X168515276Y-135689925D02*
X168610514Y-135742306D01*
X168610514Y-135742306D02*
X168800990Y-135794687D01*
X168800990Y-135794687D02*
X168943847Y-135794687D01*
X168943847Y-135794687D02*
X169134323Y-135742306D01*
X169134323Y-135742306D02*
X169229561Y-135689925D01*
X169229561Y-135689925D02*
X169324800Y-135585163D01*
X169324800Y-135585163D02*
X169372419Y-135428020D01*
X169372419Y-135428020D02*
X169372419Y-135323258D01*
X169372419Y-135323258D02*
X169324800Y-135166115D01*
X169324800Y-135166115D02*
X169277180Y-135113734D01*
X169277180Y-135113734D02*
X168943847Y-135113734D01*
X168943847Y-135113734D02*
X168943847Y-135323258D01*
X169372419Y-134642306D02*
X168372419Y-134642306D01*
X168372419Y-134642306D02*
X169372419Y-134013734D01*
X169372419Y-134013734D02*
X168372419Y-134013734D01*
X169372419Y-133489925D02*
X168372419Y-133489925D01*
X168372419Y-133489925D02*
X168372419Y-133228020D01*
X168372419Y-133228020D02*
X168420038Y-133070877D01*
X168420038Y-133070877D02*
X168515276Y-132966115D01*
X168515276Y-132966115D02*
X168610514Y-132913734D01*
X168610514Y-132913734D02*
X168800990Y-132861353D01*
X168800990Y-132861353D02*
X168943847Y-132861353D01*
X168943847Y-132861353D02*
X169134323Y-132913734D01*
X169134323Y-132913734D02*
X169229561Y-132966115D01*
X169229561Y-132966115D02*
X169324800Y-133070877D01*
X169324800Y-133070877D02*
X169372419Y-133228020D01*
X169372419Y-133228020D02*
X169372419Y-133489925D01*
X170872419Y-115847068D02*
X170872419Y-115166115D01*
X170872419Y-115166115D02*
X171253371Y-115532782D01*
X171253371Y-115532782D02*
X171253371Y-115375639D01*
X171253371Y-115375639D02*
X171300990Y-115270877D01*
X171300990Y-115270877D02*
X171348609Y-115218496D01*
X171348609Y-115218496D02*
X171443847Y-115166115D01*
X171443847Y-115166115D02*
X171681942Y-115166115D01*
X171681942Y-115166115D02*
X171777180Y-115218496D01*
X171777180Y-115218496D02*
X171824800Y-115270877D01*
X171824800Y-115270877D02*
X171872419Y-115375639D01*
X171872419Y-115375639D02*
X171872419Y-115689925D01*
X171872419Y-115689925D02*
X171824800Y-115794687D01*
X171824800Y-115794687D02*
X171777180Y-115847068D01*
X171777180Y-114694687D02*
X171824800Y-114642306D01*
X171824800Y-114642306D02*
X171872419Y-114694687D01*
X171872419Y-114694687D02*
X171824800Y-114747068D01*
X171824800Y-114747068D02*
X171777180Y-114694687D01*
X171777180Y-114694687D02*
X171872419Y-114694687D01*
X170872419Y-114275639D02*
X170872419Y-113594686D01*
X170872419Y-113594686D02*
X171253371Y-113961353D01*
X171253371Y-113961353D02*
X171253371Y-113804210D01*
X171253371Y-113804210D02*
X171300990Y-113699448D01*
X171300990Y-113699448D02*
X171348609Y-113647067D01*
X171348609Y-113647067D02*
X171443847Y-113594686D01*
X171443847Y-113594686D02*
X171681942Y-113594686D01*
X171681942Y-113594686D02*
X171777180Y-113647067D01*
X171777180Y-113647067D02*
X171824800Y-113699448D01*
X171824800Y-113699448D02*
X171872419Y-113804210D01*
X171872419Y-113804210D02*
X171872419Y-114118496D01*
X171872419Y-114118496D02*
X171824800Y-114223258D01*
X171824800Y-114223258D02*
X171777180Y-114275639D01*
X171205752Y-113228020D02*
X171872419Y-112966115D01*
X171872419Y-112966115D02*
X171205752Y-112704210D01*
X170872419Y-135399449D02*
X171872419Y-135032782D01*
X171872419Y-135032782D02*
X170872419Y-134666115D01*
X171872419Y-134299449D02*
X170872419Y-134299449D01*
X171872419Y-133775639D02*
X170872419Y-133775639D01*
X170872419Y-133775639D02*
X171872419Y-133147067D01*
X171872419Y-133147067D02*
X170872419Y-133147067D01*
X177872419Y-125266115D02*
X178681942Y-125266115D01*
X178681942Y-125266115D02*
X178777180Y-125218496D01*
X178777180Y-125218496D02*
X178824800Y-125170877D01*
X178824800Y-125170877D02*
X178872419Y-125075639D01*
X178872419Y-125075639D02*
X178872419Y-124885163D01*
X178872419Y-124885163D02*
X178824800Y-124789925D01*
X178824800Y-124789925D02*
X178777180Y-124742306D01*
X178777180Y-124742306D02*
X178681942Y-124694687D01*
X178681942Y-124694687D02*
X177872419Y-124694687D01*
X178824800Y-124266115D02*
X178872419Y-124123258D01*
X178872419Y-124123258D02*
X178872419Y-123885163D01*
X178872419Y-123885163D02*
X178824800Y-123789925D01*
X178824800Y-123789925D02*
X178777180Y-123742306D01*
X178777180Y-123742306D02*
X178681942Y-123694687D01*
X178681942Y-123694687D02*
X178586704Y-123694687D01*
X178586704Y-123694687D02*
X178491466Y-123742306D01*
X178491466Y-123742306D02*
X178443847Y-123789925D01*
X178443847Y-123789925D02*
X178396228Y-123885163D01*
X178396228Y-123885163D02*
X178348609Y-124075639D01*
X178348609Y-124075639D02*
X178300990Y-124170877D01*
X178300990Y-124170877D02*
X178253371Y-124218496D01*
X178253371Y-124218496D02*
X178158133Y-124266115D01*
X178158133Y-124266115D02*
X178062895Y-124266115D01*
X178062895Y-124266115D02*
X177967657Y-124218496D01*
X177967657Y-124218496D02*
X177920038Y-124170877D01*
X177920038Y-124170877D02*
X177872419Y-124075639D01*
X177872419Y-124075639D02*
X177872419Y-123837544D01*
X177872419Y-123837544D02*
X177920038Y-123694687D01*
X178348609Y-122932782D02*
X178396228Y-122789925D01*
X178396228Y-122789925D02*
X178443847Y-122742306D01*
X178443847Y-122742306D02*
X178539085Y-122694687D01*
X178539085Y-122694687D02*
X178681942Y-122694687D01*
X178681942Y-122694687D02*
X178777180Y-122742306D01*
X178777180Y-122742306D02*
X178824800Y-122789925D01*
X178824800Y-122789925D02*
X178872419Y-122885163D01*
X178872419Y-122885163D02*
X178872419Y-123266115D01*
X178872419Y-123266115D02*
X177872419Y-123266115D01*
X177872419Y-123266115D02*
X177872419Y-122932782D01*
X177872419Y-122932782D02*
X177920038Y-122837544D01*
X177920038Y-122837544D02*
X177967657Y-122789925D01*
X177967657Y-122789925D02*
X178062895Y-122742306D01*
X178062895Y-122742306D02*
X178158133Y-122742306D01*
X178158133Y-122742306D02*
X178253371Y-122789925D01*
X178253371Y-122789925D02*
X178300990Y-122837544D01*
X178300990Y-122837544D02*
X178348609Y-122932782D01*
X178348609Y-122932782D02*
X178348609Y-123266115D01*
D11*
X116261904Y-140407200D02*
X116166666Y-140454819D01*
X116166666Y-140454819D02*
X115976190Y-140454819D01*
X115976190Y-140454819D02*
X115880952Y-140407200D01*
X115880952Y-140407200D02*
X115833333Y-140311961D01*
X115833333Y-140311961D02*
X115833333Y-139931009D01*
X115833333Y-139931009D02*
X115880952Y-139835771D01*
X115880952Y-139835771D02*
X115976190Y-139788152D01*
X115976190Y-139788152D02*
X116166666Y-139788152D01*
X116166666Y-139788152D02*
X116261904Y-139835771D01*
X116261904Y-139835771D02*
X116309523Y-139931009D01*
X116309523Y-139931009D02*
X116309523Y-140026247D01*
X116309523Y-140026247D02*
X115833333Y-140121485D01*
X116642857Y-140454819D02*
X117166666Y-139788152D01*
X116642857Y-139788152D02*
X117166666Y-140454819D01*
X117404762Y-139788152D02*
X117785714Y-139788152D01*
X117547619Y-139454819D02*
X117547619Y-140311961D01*
X117547619Y-140311961D02*
X117595238Y-140407200D01*
X117595238Y-140407200D02*
X117690476Y-140454819D01*
X117690476Y-140454819D02*
X117785714Y-140454819D01*
X118119048Y-140454819D02*
X118119048Y-139788152D01*
X118119048Y-139978628D02*
X118166667Y-139883390D01*
X118166667Y-139883390D02*
X118214286Y-139835771D01*
X118214286Y-139835771D02*
X118309524Y-139788152D01*
X118309524Y-139788152D02*
X118404762Y-139788152D01*
X119166667Y-140454819D02*
X119166667Y-139931009D01*
X119166667Y-139931009D02*
X119119048Y-139835771D01*
X119119048Y-139835771D02*
X119023810Y-139788152D01*
X119023810Y-139788152D02*
X118833334Y-139788152D01*
X118833334Y-139788152D02*
X118738096Y-139835771D01*
X119166667Y-140407200D02*
X119071429Y-140454819D01*
X119071429Y-140454819D02*
X118833334Y-140454819D01*
X118833334Y-140454819D02*
X118738096Y-140407200D01*
X118738096Y-140407200D02*
X118690477Y-140311961D01*
X118690477Y-140311961D02*
X118690477Y-140216723D01*
X118690477Y-140216723D02*
X118738096Y-140121485D01*
X118738096Y-140121485D02*
X118833334Y-140073866D01*
X118833334Y-140073866D02*
X119071429Y-140073866D01*
X119071429Y-140073866D02*
X119166667Y-140026247D01*
X119595239Y-139550057D02*
X119642858Y-139502438D01*
X119642858Y-139502438D02*
X119738096Y-139454819D01*
X119738096Y-139454819D02*
X119976191Y-139454819D01*
X119976191Y-139454819D02*
X120071429Y-139502438D01*
X120071429Y-139502438D02*
X120119048Y-139550057D01*
X120119048Y-139550057D02*
X120166667Y-139645295D01*
X120166667Y-139645295D02*
X120166667Y-139740533D01*
X120166667Y-139740533D02*
X120119048Y-139883390D01*
X120119048Y-139883390D02*
X119547620Y-140454819D01*
X119547620Y-140454819D02*
X120166667Y-140454819D01*
X102738095Y-128306819D02*
X103309523Y-128306819D01*
X103023809Y-129306819D02*
X103023809Y-128306819D01*
X103642857Y-129306819D02*
X103642857Y-128306819D01*
X103642857Y-128306819D02*
X104023809Y-128306819D01*
X104023809Y-128306819D02*
X104119047Y-128354438D01*
X104119047Y-128354438D02*
X104166666Y-128402057D01*
X104166666Y-128402057D02*
X104214285Y-128497295D01*
X104214285Y-128497295D02*
X104214285Y-128640152D01*
X104214285Y-128640152D02*
X104166666Y-128735390D01*
X104166666Y-128735390D02*
X104119047Y-128783009D01*
X104119047Y-128783009D02*
X104023809Y-128830628D01*
X104023809Y-128830628D02*
X103642857Y-128830628D01*
X105071428Y-128306819D02*
X104880952Y-128306819D01*
X104880952Y-128306819D02*
X104785714Y-128354438D01*
X104785714Y-128354438D02*
X104738095Y-128402057D01*
X104738095Y-128402057D02*
X104642857Y-128544914D01*
X104642857Y-128544914D02*
X104595238Y-128735390D01*
X104595238Y-128735390D02*
X104595238Y-129116342D01*
X104595238Y-129116342D02*
X104642857Y-129211580D01*
X104642857Y-129211580D02*
X104690476Y-129259200D01*
X104690476Y-129259200D02*
X104785714Y-129306819D01*
X104785714Y-129306819D02*
X104976190Y-129306819D01*
X104976190Y-129306819D02*
X105071428Y-129259200D01*
X105071428Y-129259200D02*
X105119047Y-129211580D01*
X105119047Y-129211580D02*
X105166666Y-129116342D01*
X105166666Y-129116342D02*
X105166666Y-128878247D01*
X105166666Y-128878247D02*
X105119047Y-128783009D01*
X105119047Y-128783009D02*
X105071428Y-128735390D01*
X105071428Y-128735390D02*
X104976190Y-128687771D01*
X104976190Y-128687771D02*
X104785714Y-128687771D01*
X104785714Y-128687771D02*
X104690476Y-128735390D01*
X104690476Y-128735390D02*
X104642857Y-128783009D01*
X104642857Y-128783009D02*
X104595238Y-128878247D01*
X179806819Y-118761904D02*
X179806819Y-118190476D01*
X180806819Y-118476190D02*
X179806819Y-118476190D01*
X180806819Y-117857142D02*
X179806819Y-117857142D01*
X179806819Y-117857142D02*
X179806819Y-117476190D01*
X179806819Y-117476190D02*
X179854438Y-117380952D01*
X179854438Y-117380952D02*
X179902057Y-117333333D01*
X179902057Y-117333333D02*
X179997295Y-117285714D01*
X179997295Y-117285714D02*
X180140152Y-117285714D01*
X180140152Y-117285714D02*
X180235390Y-117333333D01*
X180235390Y-117333333D02*
X180283009Y-117380952D01*
X180283009Y-117380952D02*
X180330628Y-117476190D01*
X180330628Y-117476190D02*
X180330628Y-117857142D01*
X179902057Y-116904761D02*
X179854438Y-116857142D01*
X179854438Y-116857142D02*
X179806819Y-116761904D01*
X179806819Y-116761904D02*
X179806819Y-116523809D01*
X179806819Y-116523809D02*
X179854438Y-116428571D01*
X179854438Y-116428571D02*
X179902057Y-116380952D01*
X179902057Y-116380952D02*
X179997295Y-116333333D01*
X179997295Y-116333333D02*
X180092533Y-116333333D01*
X180092533Y-116333333D02*
X180235390Y-116380952D01*
X180235390Y-116380952D02*
X180806819Y-116952380D01*
X180806819Y-116952380D02*
X180806819Y-116333333D01*
X178317143Y-140867200D02*
X178412381Y-140914819D01*
X178412381Y-140914819D02*
X178602857Y-140914819D01*
X178602857Y-140914819D02*
X178698095Y-140867200D01*
X178698095Y-140867200D02*
X178745714Y-140771961D01*
X178745714Y-140771961D02*
X178745714Y-140724342D01*
X178745714Y-140724342D02*
X178698095Y-140629104D01*
X178698095Y-140629104D02*
X178602857Y-140581485D01*
X178602857Y-140581485D02*
X178460000Y-140581485D01*
X178460000Y-140581485D02*
X178364762Y-140533866D01*
X178364762Y-140533866D02*
X178317143Y-140438628D01*
X178317143Y-140438628D02*
X178317143Y-140391009D01*
X178317143Y-140391009D02*
X178364762Y-140295771D01*
X178364762Y-140295771D02*
X178460000Y-140248152D01*
X178460000Y-140248152D02*
X178602857Y-140248152D01*
X178602857Y-140248152D02*
X178698095Y-140295771D01*
X179079048Y-140248152D02*
X179269524Y-140914819D01*
X179269524Y-140914819D02*
X179460000Y-140438628D01*
X179460000Y-140438628D02*
X179650476Y-140914819D01*
X179650476Y-140914819D02*
X179840952Y-140248152D01*
X180221905Y-140914819D02*
X180221905Y-140248152D01*
X180221905Y-139914819D02*
X180174286Y-139962438D01*
X180174286Y-139962438D02*
X180221905Y-140010057D01*
X180221905Y-140010057D02*
X180269524Y-139962438D01*
X180269524Y-139962438D02*
X180221905Y-139914819D01*
X180221905Y-139914819D02*
X180221905Y-140010057D01*
X180555238Y-140248152D02*
X180936190Y-140248152D01*
X180698095Y-139914819D02*
X180698095Y-140771961D01*
X180698095Y-140771961D02*
X180745714Y-140867200D01*
X180745714Y-140867200D02*
X180840952Y-140914819D01*
X180840952Y-140914819D02*
X180936190Y-140914819D01*
X181698095Y-140867200D02*
X181602857Y-140914819D01*
X181602857Y-140914819D02*
X181412381Y-140914819D01*
X181412381Y-140914819D02*
X181317143Y-140867200D01*
X181317143Y-140867200D02*
X181269524Y-140819580D01*
X181269524Y-140819580D02*
X181221905Y-140724342D01*
X181221905Y-140724342D02*
X181221905Y-140438628D01*
X181221905Y-140438628D02*
X181269524Y-140343390D01*
X181269524Y-140343390D02*
X181317143Y-140295771D01*
X181317143Y-140295771D02*
X181412381Y-140248152D01*
X181412381Y-140248152D02*
X181602857Y-140248152D01*
X181602857Y-140248152D02*
X181698095Y-140295771D01*
X182126667Y-140914819D02*
X182126667Y-139914819D01*
X182555238Y-140914819D02*
X182555238Y-140391009D01*
X182555238Y-140391009D02*
X182507619Y-140295771D01*
X182507619Y-140295771D02*
X182412381Y-140248152D01*
X182412381Y-140248152D02*
X182269524Y-140248152D01*
X182269524Y-140248152D02*
X182174286Y-140295771D01*
X182174286Y-140295771D02*
X182126667Y-140343390D01*
X104357142Y-140431009D02*
X104690475Y-140431009D01*
X104833332Y-140954819D02*
X104357142Y-140954819D01*
X104357142Y-140954819D02*
X104357142Y-139954819D01*
X104357142Y-139954819D02*
X104833332Y-139954819D01*
X105166666Y-140954819D02*
X105690475Y-140288152D01*
X105166666Y-140288152D02*
X105690475Y-140954819D01*
X105928571Y-140288152D02*
X106309523Y-140288152D01*
X106071428Y-139954819D02*
X106071428Y-140811961D01*
X106071428Y-140811961D02*
X106119047Y-140907200D01*
X106119047Y-140907200D02*
X106214285Y-140954819D01*
X106214285Y-140954819D02*
X106309523Y-140954819D01*
X106642857Y-140954819D02*
X106642857Y-140288152D01*
X106642857Y-140478628D02*
X106690476Y-140383390D01*
X106690476Y-140383390D02*
X106738095Y-140335771D01*
X106738095Y-140335771D02*
X106833333Y-140288152D01*
X106833333Y-140288152D02*
X106928571Y-140288152D01*
X107690476Y-140954819D02*
X107690476Y-140431009D01*
X107690476Y-140431009D02*
X107642857Y-140335771D01*
X107642857Y-140335771D02*
X107547619Y-140288152D01*
X107547619Y-140288152D02*
X107357143Y-140288152D01*
X107357143Y-140288152D02*
X107261905Y-140335771D01*
X107690476Y-140907200D02*
X107595238Y-140954819D01*
X107595238Y-140954819D02*
X107357143Y-140954819D01*
X107357143Y-140954819D02*
X107261905Y-140907200D01*
X107261905Y-140907200D02*
X107214286Y-140811961D01*
X107214286Y-140811961D02*
X107214286Y-140716723D01*
X107214286Y-140716723D02*
X107261905Y-140621485D01*
X107261905Y-140621485D02*
X107357143Y-140573866D01*
X107357143Y-140573866D02*
X107595238Y-140573866D01*
X107595238Y-140573866D02*
X107690476Y-140526247D01*
X108690476Y-140954819D02*
X108119048Y-140954819D01*
X108404762Y-140954819D02*
X108404762Y-139954819D01*
X108404762Y-139954819D02*
X108309524Y-140097676D01*
X108309524Y-140097676D02*
X108214286Y-140192914D01*
X108214286Y-140192914D02*
X108119048Y-140240533D01*
X129011904Y-150954819D02*
X128678571Y-150478628D01*
X128440476Y-150954819D02*
X128440476Y-149954819D01*
X128440476Y-149954819D02*
X128821428Y-149954819D01*
X128821428Y-149954819D02*
X128916666Y-150002438D01*
X128916666Y-150002438D02*
X128964285Y-150050057D01*
X128964285Y-150050057D02*
X129011904Y-150145295D01*
X129011904Y-150145295D02*
X129011904Y-150288152D01*
X129011904Y-150288152D02*
X128964285Y-150383390D01*
X128964285Y-150383390D02*
X128916666Y-150431009D01*
X128916666Y-150431009D02*
X128821428Y-150478628D01*
X128821428Y-150478628D02*
X128440476Y-150478628D01*
X129821428Y-150907200D02*
X129726190Y-150954819D01*
X129726190Y-150954819D02*
X129535714Y-150954819D01*
X129535714Y-150954819D02*
X129440476Y-150907200D01*
X129440476Y-150907200D02*
X129392857Y-150811961D01*
X129392857Y-150811961D02*
X129392857Y-150431009D01*
X129392857Y-150431009D02*
X129440476Y-150335771D01*
X129440476Y-150335771D02*
X129535714Y-150288152D01*
X129535714Y-150288152D02*
X129726190Y-150288152D01*
X129726190Y-150288152D02*
X129821428Y-150335771D01*
X129821428Y-150335771D02*
X129869047Y-150431009D01*
X129869047Y-150431009D02*
X129869047Y-150526247D01*
X129869047Y-150526247D02*
X129392857Y-150621485D01*
X130250000Y-150907200D02*
X130345238Y-150954819D01*
X130345238Y-150954819D02*
X130535714Y-150954819D01*
X130535714Y-150954819D02*
X130630952Y-150907200D01*
X130630952Y-150907200D02*
X130678571Y-150811961D01*
X130678571Y-150811961D02*
X130678571Y-150764342D01*
X130678571Y-150764342D02*
X130630952Y-150669104D01*
X130630952Y-150669104D02*
X130535714Y-150621485D01*
X130535714Y-150621485D02*
X130392857Y-150621485D01*
X130392857Y-150621485D02*
X130297619Y-150573866D01*
X130297619Y-150573866D02*
X130250000Y-150478628D01*
X130250000Y-150478628D02*
X130250000Y-150431009D01*
X130250000Y-150431009D02*
X130297619Y-150335771D01*
X130297619Y-150335771D02*
X130392857Y-150288152D01*
X130392857Y-150288152D02*
X130535714Y-150288152D01*
X130535714Y-150288152D02*
X130630952Y-150335771D01*
X131488095Y-150907200D02*
X131392857Y-150954819D01*
X131392857Y-150954819D02*
X131202381Y-150954819D01*
X131202381Y-150954819D02*
X131107143Y-150907200D01*
X131107143Y-150907200D02*
X131059524Y-150811961D01*
X131059524Y-150811961D02*
X131059524Y-150431009D01*
X131059524Y-150431009D02*
X131107143Y-150335771D01*
X131107143Y-150335771D02*
X131202381Y-150288152D01*
X131202381Y-150288152D02*
X131392857Y-150288152D01*
X131392857Y-150288152D02*
X131488095Y-150335771D01*
X131488095Y-150335771D02*
X131535714Y-150431009D01*
X131535714Y-150431009D02*
X131535714Y-150526247D01*
X131535714Y-150526247D02*
X131059524Y-150621485D01*
X131821429Y-150288152D02*
X132202381Y-150288152D01*
X131964286Y-149954819D02*
X131964286Y-150811961D01*
X131964286Y-150811961D02*
X132011905Y-150907200D01*
X132011905Y-150907200D02*
X132107143Y-150954819D01*
X132107143Y-150954819D02*
X132202381Y-150954819D01*
X198075317Y-137907200D02*
X198218174Y-137954819D01*
X198218174Y-137954819D02*
X198456269Y-137954819D01*
X198456269Y-137954819D02*
X198551507Y-137907200D01*
X198551507Y-137907200D02*
X198599126Y-137859580D01*
X198599126Y-137859580D02*
X198646745Y-137764342D01*
X198646745Y-137764342D02*
X198646745Y-137669104D01*
X198646745Y-137669104D02*
X198599126Y-137573866D01*
X198599126Y-137573866D02*
X198551507Y-137526247D01*
X198551507Y-137526247D02*
X198456269Y-137478628D01*
X198456269Y-137478628D02*
X198265793Y-137431009D01*
X198265793Y-137431009D02*
X198170555Y-137383390D01*
X198170555Y-137383390D02*
X198122936Y-137335771D01*
X198122936Y-137335771D02*
X198075317Y-137240533D01*
X198075317Y-137240533D02*
X198075317Y-137145295D01*
X198075317Y-137145295D02*
X198122936Y-137050057D01*
X198122936Y-137050057D02*
X198170555Y-137002438D01*
X198170555Y-137002438D02*
X198265793Y-136954819D01*
X198265793Y-136954819D02*
X198503888Y-136954819D01*
X198503888Y-136954819D02*
X198646745Y-137002438D01*
X198932460Y-137288152D02*
X199313412Y-137288152D01*
X199075317Y-136954819D02*
X199075317Y-137811961D01*
X199075317Y-137811961D02*
X199122936Y-137907200D01*
X199122936Y-137907200D02*
X199218174Y-137954819D01*
X199218174Y-137954819D02*
X199313412Y-137954819D01*
X200075317Y-137954819D02*
X200075317Y-137431009D01*
X200075317Y-137431009D02*
X200027698Y-137335771D01*
X200027698Y-137335771D02*
X199932460Y-137288152D01*
X199932460Y-137288152D02*
X199741984Y-137288152D01*
X199741984Y-137288152D02*
X199646746Y-137335771D01*
X200075317Y-137907200D02*
X199980079Y-137954819D01*
X199980079Y-137954819D02*
X199741984Y-137954819D01*
X199741984Y-137954819D02*
X199646746Y-137907200D01*
X199646746Y-137907200D02*
X199599127Y-137811961D01*
X199599127Y-137811961D02*
X199599127Y-137716723D01*
X199599127Y-137716723D02*
X199646746Y-137621485D01*
X199646746Y-137621485D02*
X199741984Y-137573866D01*
X199741984Y-137573866D02*
X199980079Y-137573866D01*
X199980079Y-137573866D02*
X200075317Y-137526247D01*
X200551508Y-137954819D02*
X200551508Y-137288152D01*
X200551508Y-137478628D02*
X200599127Y-137383390D01*
X200599127Y-137383390D02*
X200646746Y-137335771D01*
X200646746Y-137335771D02*
X200741984Y-137288152D01*
X200741984Y-137288152D02*
X200837222Y-137288152D01*
X201027699Y-137288152D02*
X201408651Y-137288152D01*
X201170556Y-136954819D02*
X201170556Y-137811961D01*
X201170556Y-137811961D02*
X201218175Y-137907200D01*
X201218175Y-137907200D02*
X201313413Y-137954819D01*
X201313413Y-137954819D02*
X201408651Y-137954819D01*
X106238095Y-119056819D02*
X106809523Y-119056819D01*
X106523809Y-120056819D02*
X106523809Y-119056819D01*
X107142857Y-120056819D02*
X107142857Y-119056819D01*
X107142857Y-119056819D02*
X107523809Y-119056819D01*
X107523809Y-119056819D02*
X107619047Y-119104438D01*
X107619047Y-119104438D02*
X107666666Y-119152057D01*
X107666666Y-119152057D02*
X107714285Y-119247295D01*
X107714285Y-119247295D02*
X107714285Y-119390152D01*
X107714285Y-119390152D02*
X107666666Y-119485390D01*
X107666666Y-119485390D02*
X107619047Y-119533009D01*
X107619047Y-119533009D02*
X107523809Y-119580628D01*
X107523809Y-119580628D02*
X107142857Y-119580628D01*
X108285714Y-119485390D02*
X108190476Y-119437771D01*
X108190476Y-119437771D02*
X108142857Y-119390152D01*
X108142857Y-119390152D02*
X108095238Y-119294914D01*
X108095238Y-119294914D02*
X108095238Y-119247295D01*
X108095238Y-119247295D02*
X108142857Y-119152057D01*
X108142857Y-119152057D02*
X108190476Y-119104438D01*
X108190476Y-119104438D02*
X108285714Y-119056819D01*
X108285714Y-119056819D02*
X108476190Y-119056819D01*
X108476190Y-119056819D02*
X108571428Y-119104438D01*
X108571428Y-119104438D02*
X108619047Y-119152057D01*
X108619047Y-119152057D02*
X108666666Y-119247295D01*
X108666666Y-119247295D02*
X108666666Y-119294914D01*
X108666666Y-119294914D02*
X108619047Y-119390152D01*
X108619047Y-119390152D02*
X108571428Y-119437771D01*
X108571428Y-119437771D02*
X108476190Y-119485390D01*
X108476190Y-119485390D02*
X108285714Y-119485390D01*
X108285714Y-119485390D02*
X108190476Y-119533009D01*
X108190476Y-119533009D02*
X108142857Y-119580628D01*
X108142857Y-119580628D02*
X108095238Y-119675866D01*
X108095238Y-119675866D02*
X108095238Y-119866342D01*
X108095238Y-119866342D02*
X108142857Y-119961580D01*
X108142857Y-119961580D02*
X108190476Y-120009200D01*
X108190476Y-120009200D02*
X108285714Y-120056819D01*
X108285714Y-120056819D02*
X108476190Y-120056819D01*
X108476190Y-120056819D02*
X108571428Y-120009200D01*
X108571428Y-120009200D02*
X108619047Y-119961580D01*
X108619047Y-119961580D02*
X108666666Y-119866342D01*
X108666666Y-119866342D02*
X108666666Y-119675866D01*
X108666666Y-119675866D02*
X108619047Y-119580628D01*
X108619047Y-119580628D02*
X108571428Y-119533009D01*
X108571428Y-119533009D02*
X108476190Y-119485390D01*
X118261905Y-111306819D02*
X118833333Y-111306819D01*
X118547619Y-112306819D02*
X118547619Y-111306819D01*
X119166667Y-112306819D02*
X119166667Y-111306819D01*
X119166667Y-111306819D02*
X119547619Y-111306819D01*
X119547619Y-111306819D02*
X119642857Y-111354438D01*
X119642857Y-111354438D02*
X119690476Y-111402057D01*
X119690476Y-111402057D02*
X119738095Y-111497295D01*
X119738095Y-111497295D02*
X119738095Y-111640152D01*
X119738095Y-111640152D02*
X119690476Y-111735390D01*
X119690476Y-111735390D02*
X119642857Y-111783009D01*
X119642857Y-111783009D02*
X119547619Y-111830628D01*
X119547619Y-111830628D02*
X119166667Y-111830628D01*
X120690476Y-112306819D02*
X120119048Y-112306819D01*
X120404762Y-112306819D02*
X120404762Y-111306819D01*
X120404762Y-111306819D02*
X120309524Y-111449676D01*
X120309524Y-111449676D02*
X120214286Y-111544914D01*
X120214286Y-111544914D02*
X120119048Y-111592533D01*
X121309524Y-111306819D02*
X121404762Y-111306819D01*
X121404762Y-111306819D02*
X121500000Y-111354438D01*
X121500000Y-111354438D02*
X121547619Y-111402057D01*
X121547619Y-111402057D02*
X121595238Y-111497295D01*
X121595238Y-111497295D02*
X121642857Y-111687771D01*
X121642857Y-111687771D02*
X121642857Y-111925866D01*
X121642857Y-111925866D02*
X121595238Y-112116342D01*
X121595238Y-112116342D02*
X121547619Y-112211580D01*
X121547619Y-112211580D02*
X121500000Y-112259200D01*
X121500000Y-112259200D02*
X121404762Y-112306819D01*
X121404762Y-112306819D02*
X121309524Y-112306819D01*
X121309524Y-112306819D02*
X121214286Y-112259200D01*
X121214286Y-112259200D02*
X121166667Y-112211580D01*
X121166667Y-112211580D02*
X121119048Y-112116342D01*
X121119048Y-112116342D02*
X121071429Y-111925866D01*
X121071429Y-111925866D02*
X121071429Y-111687771D01*
X121071429Y-111687771D02*
X121119048Y-111497295D01*
X121119048Y-111497295D02*
X121166667Y-111402057D01*
X121166667Y-111402057D02*
X121214286Y-111354438D01*
X121214286Y-111354438D02*
X121309524Y-111306819D01*
X141454819Y-146666666D02*
X140978628Y-146999999D01*
X141454819Y-147238094D02*
X140454819Y-147238094D01*
X140454819Y-147238094D02*
X140454819Y-146857142D01*
X140454819Y-146857142D02*
X140502438Y-146761904D01*
X140502438Y-146761904D02*
X140550057Y-146714285D01*
X140550057Y-146714285D02*
X140645295Y-146666666D01*
X140645295Y-146666666D02*
X140788152Y-146666666D01*
X140788152Y-146666666D02*
X140883390Y-146714285D01*
X140883390Y-146714285D02*
X140931009Y-146761904D01*
X140931009Y-146761904D02*
X140978628Y-146857142D01*
X140978628Y-146857142D02*
X140978628Y-147238094D01*
X140454819Y-146333332D02*
X140454819Y-145714285D01*
X140454819Y-145714285D02*
X140835771Y-146047618D01*
X140835771Y-146047618D02*
X140835771Y-145904761D01*
X140835771Y-145904761D02*
X140883390Y-145809523D01*
X140883390Y-145809523D02*
X140931009Y-145761904D01*
X140931009Y-145761904D02*
X141026247Y-145714285D01*
X141026247Y-145714285D02*
X141264342Y-145714285D01*
X141264342Y-145714285D02*
X141359580Y-145761904D01*
X141359580Y-145761904D02*
X141407200Y-145809523D01*
X141407200Y-145809523D02*
X141454819Y-145904761D01*
X141454819Y-145904761D02*
X141454819Y-146190475D01*
X141454819Y-146190475D02*
X141407200Y-146285713D01*
X141407200Y-146285713D02*
X141359580Y-146333332D01*
X162414819Y-149182404D02*
X161414819Y-149182404D01*
X162414819Y-148706214D02*
X161414819Y-148706214D01*
X161414819Y-148706214D02*
X162414819Y-148134786D01*
X162414819Y-148134786D02*
X161414819Y-148134786D01*
X162414819Y-147658595D02*
X161414819Y-147658595D01*
X161414819Y-147658595D02*
X161414819Y-147420500D01*
X161414819Y-147420500D02*
X161462438Y-147277643D01*
X161462438Y-147277643D02*
X161557676Y-147182405D01*
X161557676Y-147182405D02*
X161652914Y-147134786D01*
X161652914Y-147134786D02*
X161843390Y-147087167D01*
X161843390Y-147087167D02*
X161986247Y-147087167D01*
X161986247Y-147087167D02*
X162176723Y-147134786D01*
X162176723Y-147134786D02*
X162271961Y-147182405D01*
X162271961Y-147182405D02*
X162367200Y-147277643D01*
X162367200Y-147277643D02*
X162414819Y-147420500D01*
X162414819Y-147420500D02*
X162414819Y-147658595D01*
X162510057Y-146896691D02*
X162510057Y-146134786D01*
X162414819Y-145420500D02*
X162414819Y-145896690D01*
X162414819Y-145896690D02*
X161414819Y-145896690D01*
X161891009Y-145087166D02*
X161891009Y-144753833D01*
X162414819Y-144610976D02*
X162414819Y-145087166D01*
X162414819Y-145087166D02*
X161414819Y-145087166D01*
X161414819Y-145087166D02*
X161414819Y-144610976D01*
X162414819Y-144182404D02*
X161414819Y-144182404D01*
X161414819Y-144182404D02*
X161414819Y-143944309D01*
X161414819Y-143944309D02*
X161462438Y-143801452D01*
X161462438Y-143801452D02*
X161557676Y-143706214D01*
X161557676Y-143706214D02*
X161652914Y-143658595D01*
X161652914Y-143658595D02*
X161843390Y-143610976D01*
X161843390Y-143610976D02*
X161986247Y-143610976D01*
X161986247Y-143610976D02*
X162176723Y-143658595D01*
X162176723Y-143658595D02*
X162271961Y-143706214D01*
X162271961Y-143706214D02*
X162367200Y-143801452D01*
X162367200Y-143801452D02*
X162414819Y-143944309D01*
X162414819Y-143944309D02*
X162414819Y-144182404D01*
X124306819Y-122261904D02*
X124306819Y-121690476D01*
X125306819Y-121976190D02*
X124306819Y-121976190D01*
X125306819Y-121357142D02*
X124306819Y-121357142D01*
X124306819Y-121357142D02*
X124306819Y-120976190D01*
X124306819Y-120976190D02*
X124354438Y-120880952D01*
X124354438Y-120880952D02*
X124402057Y-120833333D01*
X124402057Y-120833333D02*
X124497295Y-120785714D01*
X124497295Y-120785714D02*
X124640152Y-120785714D01*
X124640152Y-120785714D02*
X124735390Y-120833333D01*
X124735390Y-120833333D02*
X124783009Y-120880952D01*
X124783009Y-120880952D02*
X124830628Y-120976190D01*
X124830628Y-120976190D02*
X124830628Y-121357142D01*
X125306819Y-120309523D02*
X125306819Y-120119047D01*
X125306819Y-120119047D02*
X125259200Y-120023809D01*
X125259200Y-120023809D02*
X125211580Y-119976190D01*
X125211580Y-119976190D02*
X125068723Y-119880952D01*
X125068723Y-119880952D02*
X124878247Y-119833333D01*
X124878247Y-119833333D02*
X124497295Y-119833333D01*
X124497295Y-119833333D02*
X124402057Y-119880952D01*
X124402057Y-119880952D02*
X124354438Y-119928571D01*
X124354438Y-119928571D02*
X124306819Y-120023809D01*
X124306819Y-120023809D02*
X124306819Y-120214285D01*
X124306819Y-120214285D02*
X124354438Y-120309523D01*
X124354438Y-120309523D02*
X124402057Y-120357142D01*
X124402057Y-120357142D02*
X124497295Y-120404761D01*
X124497295Y-120404761D02*
X124735390Y-120404761D01*
X124735390Y-120404761D02*
X124830628Y-120357142D01*
X124830628Y-120357142D02*
X124878247Y-120309523D01*
X124878247Y-120309523D02*
X124925866Y-120214285D01*
X124925866Y-120214285D02*
X124925866Y-120023809D01*
X124925866Y-120023809D02*
X124878247Y-119928571D01*
X124878247Y-119928571D02*
X124830628Y-119880952D01*
X124830628Y-119880952D02*
X124735390Y-119833333D01*
X100809523Y-123704819D02*
X100333333Y-123704819D01*
X100333333Y-123704819D02*
X100333333Y-122704819D01*
X101523809Y-123657200D02*
X101428571Y-123704819D01*
X101428571Y-123704819D02*
X101238095Y-123704819D01*
X101238095Y-123704819D02*
X101142857Y-123657200D01*
X101142857Y-123657200D02*
X101095238Y-123561961D01*
X101095238Y-123561961D02*
X101095238Y-123181009D01*
X101095238Y-123181009D02*
X101142857Y-123085771D01*
X101142857Y-123085771D02*
X101238095Y-123038152D01*
X101238095Y-123038152D02*
X101428571Y-123038152D01*
X101428571Y-123038152D02*
X101523809Y-123085771D01*
X101523809Y-123085771D02*
X101571428Y-123181009D01*
X101571428Y-123181009D02*
X101571428Y-123276247D01*
X101571428Y-123276247D02*
X101095238Y-123371485D01*
X101857143Y-123038152D02*
X102238095Y-123038152D01*
X102000000Y-123704819D02*
X102000000Y-122847676D01*
X102000000Y-122847676D02*
X102047619Y-122752438D01*
X102047619Y-122752438D02*
X102142857Y-122704819D01*
X102142857Y-122704819D02*
X102238095Y-122704819D01*
X102428572Y-123038152D02*
X102809524Y-123038152D01*
X102571429Y-122704819D02*
X102571429Y-123561961D01*
X102571429Y-123561961D02*
X102619048Y-123657200D01*
X102619048Y-123657200D02*
X102714286Y-123704819D01*
X102714286Y-123704819D02*
X102809524Y-123704819D01*
X118238095Y-126556819D02*
X118809523Y-126556819D01*
X118523809Y-127556819D02*
X118523809Y-126556819D01*
X119142857Y-127556819D02*
X119142857Y-126556819D01*
X119142857Y-126556819D02*
X119523809Y-126556819D01*
X119523809Y-126556819D02*
X119619047Y-126604438D01*
X119619047Y-126604438D02*
X119666666Y-126652057D01*
X119666666Y-126652057D02*
X119714285Y-126747295D01*
X119714285Y-126747295D02*
X119714285Y-126890152D01*
X119714285Y-126890152D02*
X119666666Y-126985390D01*
X119666666Y-126985390D02*
X119619047Y-127033009D01*
X119619047Y-127033009D02*
X119523809Y-127080628D01*
X119523809Y-127080628D02*
X119142857Y-127080628D01*
X120047619Y-126556819D02*
X120714285Y-126556819D01*
X120714285Y-126556819D02*
X120285714Y-127556819D01*
X174306819Y-148738094D02*
X174306819Y-148166666D01*
X175306819Y-148452380D02*
X174306819Y-148452380D01*
X175306819Y-147833332D02*
X174306819Y-147833332D01*
X174306819Y-147833332D02*
X174306819Y-147452380D01*
X174306819Y-147452380D02*
X174354438Y-147357142D01*
X174354438Y-147357142D02*
X174402057Y-147309523D01*
X174402057Y-147309523D02*
X174497295Y-147261904D01*
X174497295Y-147261904D02*
X174640152Y-147261904D01*
X174640152Y-147261904D02*
X174735390Y-147309523D01*
X174735390Y-147309523D02*
X174783009Y-147357142D01*
X174783009Y-147357142D02*
X174830628Y-147452380D01*
X174830628Y-147452380D02*
X174830628Y-147833332D01*
X175306819Y-146309523D02*
X175306819Y-146880951D01*
X175306819Y-146595237D02*
X174306819Y-146595237D01*
X174306819Y-146595237D02*
X174449676Y-146690475D01*
X174449676Y-146690475D02*
X174544914Y-146785713D01*
X174544914Y-146785713D02*
X174592533Y-146880951D01*
X174306819Y-145976189D02*
X174306819Y-145357142D01*
X174306819Y-145357142D02*
X174687771Y-145690475D01*
X174687771Y-145690475D02*
X174687771Y-145547618D01*
X174687771Y-145547618D02*
X174735390Y-145452380D01*
X174735390Y-145452380D02*
X174783009Y-145404761D01*
X174783009Y-145404761D02*
X174878247Y-145357142D01*
X174878247Y-145357142D02*
X175116342Y-145357142D01*
X175116342Y-145357142D02*
X175211580Y-145404761D01*
X175211580Y-145404761D02*
X175259200Y-145452380D01*
X175259200Y-145452380D02*
X175306819Y-145547618D01*
X175306819Y-145547618D02*
X175306819Y-145833332D01*
X175306819Y-145833332D02*
X175259200Y-145928570D01*
X175259200Y-145928570D02*
X175211580Y-145976189D01*
X180306819Y-131261904D02*
X180306819Y-130690476D01*
X181306819Y-130976190D02*
X180306819Y-130976190D01*
X181306819Y-130357142D02*
X180306819Y-130357142D01*
X180306819Y-130357142D02*
X180306819Y-129976190D01*
X180306819Y-129976190D02*
X180354438Y-129880952D01*
X180354438Y-129880952D02*
X180402057Y-129833333D01*
X180402057Y-129833333D02*
X180497295Y-129785714D01*
X180497295Y-129785714D02*
X180640152Y-129785714D01*
X180640152Y-129785714D02*
X180735390Y-129833333D01*
X180735390Y-129833333D02*
X180783009Y-129880952D01*
X180783009Y-129880952D02*
X180830628Y-129976190D01*
X180830628Y-129976190D02*
X180830628Y-130357142D01*
X180306819Y-129452380D02*
X180306819Y-128833333D01*
X180306819Y-128833333D02*
X180687771Y-129166666D01*
X180687771Y-129166666D02*
X180687771Y-129023809D01*
X180687771Y-129023809D02*
X180735390Y-128928571D01*
X180735390Y-128928571D02*
X180783009Y-128880952D01*
X180783009Y-128880952D02*
X180878247Y-128833333D01*
X180878247Y-128833333D02*
X181116342Y-128833333D01*
X181116342Y-128833333D02*
X181211580Y-128880952D01*
X181211580Y-128880952D02*
X181259200Y-128928571D01*
X181259200Y-128928571D02*
X181306819Y-129023809D01*
X181306819Y-129023809D02*
X181306819Y-129309523D01*
X181306819Y-129309523D02*
X181259200Y-129404761D01*
X181259200Y-129404761D02*
X181211580Y-129452380D01*
X188261905Y-119669104D02*
X188738095Y-119669104D01*
X188166667Y-119954819D02*
X188500000Y-118954819D01*
X188500000Y-118954819D02*
X188833333Y-119954819D01*
X145504819Y-146666666D02*
X145028628Y-146999999D01*
X145504819Y-147238094D02*
X144504819Y-147238094D01*
X144504819Y-147238094D02*
X144504819Y-146857142D01*
X144504819Y-146857142D02*
X144552438Y-146761904D01*
X144552438Y-146761904D02*
X144600057Y-146714285D01*
X144600057Y-146714285D02*
X144695295Y-146666666D01*
X144695295Y-146666666D02*
X144838152Y-146666666D01*
X144838152Y-146666666D02*
X144933390Y-146714285D01*
X144933390Y-146714285D02*
X144981009Y-146761904D01*
X144981009Y-146761904D02*
X145028628Y-146857142D01*
X145028628Y-146857142D02*
X145028628Y-147238094D01*
X144600057Y-146285713D02*
X144552438Y-146238094D01*
X144552438Y-146238094D02*
X144504819Y-146142856D01*
X144504819Y-146142856D02*
X144504819Y-145904761D01*
X144504819Y-145904761D02*
X144552438Y-145809523D01*
X144552438Y-145809523D02*
X144600057Y-145761904D01*
X144600057Y-145761904D02*
X144695295Y-145714285D01*
X144695295Y-145714285D02*
X144790533Y-145714285D01*
X144790533Y-145714285D02*
X144933390Y-145761904D01*
X144933390Y-145761904D02*
X145504819Y-146333332D01*
X145504819Y-146333332D02*
X145504819Y-145714285D01*
X117880952Y-123704819D02*
X117547619Y-123228628D01*
X117309524Y-123704819D02*
X117309524Y-122704819D01*
X117309524Y-122704819D02*
X117690476Y-122704819D01*
X117690476Y-122704819D02*
X117785714Y-122752438D01*
X117785714Y-122752438D02*
X117833333Y-122800057D01*
X117833333Y-122800057D02*
X117880952Y-122895295D01*
X117880952Y-122895295D02*
X117880952Y-123038152D01*
X117880952Y-123038152D02*
X117833333Y-123133390D01*
X117833333Y-123133390D02*
X117785714Y-123181009D01*
X117785714Y-123181009D02*
X117690476Y-123228628D01*
X117690476Y-123228628D02*
X117309524Y-123228628D01*
X118309524Y-123704819D02*
X118309524Y-123038152D01*
X118309524Y-122704819D02*
X118261905Y-122752438D01*
X118261905Y-122752438D02*
X118309524Y-122800057D01*
X118309524Y-122800057D02*
X118357143Y-122752438D01*
X118357143Y-122752438D02*
X118309524Y-122704819D01*
X118309524Y-122704819D02*
X118309524Y-122800057D01*
X119214285Y-123038152D02*
X119214285Y-123847676D01*
X119214285Y-123847676D02*
X119166666Y-123942914D01*
X119166666Y-123942914D02*
X119119047Y-123990533D01*
X119119047Y-123990533D02*
X119023809Y-124038152D01*
X119023809Y-124038152D02*
X118880952Y-124038152D01*
X118880952Y-124038152D02*
X118785714Y-123990533D01*
X119214285Y-123657200D02*
X119119047Y-123704819D01*
X119119047Y-123704819D02*
X118928571Y-123704819D01*
X118928571Y-123704819D02*
X118833333Y-123657200D01*
X118833333Y-123657200D02*
X118785714Y-123609580D01*
X118785714Y-123609580D02*
X118738095Y-123514342D01*
X118738095Y-123514342D02*
X118738095Y-123228628D01*
X118738095Y-123228628D02*
X118785714Y-123133390D01*
X118785714Y-123133390D02*
X118833333Y-123085771D01*
X118833333Y-123085771D02*
X118928571Y-123038152D01*
X118928571Y-123038152D02*
X119119047Y-123038152D01*
X119119047Y-123038152D02*
X119214285Y-123085771D01*
X119690476Y-123704819D02*
X119690476Y-122704819D01*
X120119047Y-123704819D02*
X120119047Y-123181009D01*
X120119047Y-123181009D02*
X120071428Y-123085771D01*
X120071428Y-123085771D02*
X119976190Y-123038152D01*
X119976190Y-123038152D02*
X119833333Y-123038152D01*
X119833333Y-123038152D02*
X119738095Y-123085771D01*
X119738095Y-123085771D02*
X119690476Y-123133390D01*
X120452381Y-123038152D02*
X120833333Y-123038152D01*
X120595238Y-122704819D02*
X120595238Y-123561961D01*
X120595238Y-123561961D02*
X120642857Y-123657200D01*
X120642857Y-123657200D02*
X120738095Y-123704819D01*
X120738095Y-123704819D02*
X120833333Y-123704819D01*
X109309524Y-131954819D02*
X109309524Y-130954819D01*
X109309524Y-130954819D02*
X109547619Y-130954819D01*
X109547619Y-130954819D02*
X109690476Y-131002438D01*
X109690476Y-131002438D02*
X109785714Y-131097676D01*
X109785714Y-131097676D02*
X109833333Y-131192914D01*
X109833333Y-131192914D02*
X109880952Y-131383390D01*
X109880952Y-131383390D02*
X109880952Y-131526247D01*
X109880952Y-131526247D02*
X109833333Y-131716723D01*
X109833333Y-131716723D02*
X109785714Y-131811961D01*
X109785714Y-131811961D02*
X109690476Y-131907200D01*
X109690476Y-131907200D02*
X109547619Y-131954819D01*
X109547619Y-131954819D02*
X109309524Y-131954819D01*
X110452381Y-131954819D02*
X110357143Y-131907200D01*
X110357143Y-131907200D02*
X110309524Y-131859580D01*
X110309524Y-131859580D02*
X110261905Y-131764342D01*
X110261905Y-131764342D02*
X110261905Y-131478628D01*
X110261905Y-131478628D02*
X110309524Y-131383390D01*
X110309524Y-131383390D02*
X110357143Y-131335771D01*
X110357143Y-131335771D02*
X110452381Y-131288152D01*
X110452381Y-131288152D02*
X110595238Y-131288152D01*
X110595238Y-131288152D02*
X110690476Y-131335771D01*
X110690476Y-131335771D02*
X110738095Y-131383390D01*
X110738095Y-131383390D02*
X110785714Y-131478628D01*
X110785714Y-131478628D02*
X110785714Y-131764342D01*
X110785714Y-131764342D02*
X110738095Y-131859580D01*
X110738095Y-131859580D02*
X110690476Y-131907200D01*
X110690476Y-131907200D02*
X110595238Y-131954819D01*
X110595238Y-131954819D02*
X110452381Y-131954819D01*
X111119048Y-131288152D02*
X111309524Y-131954819D01*
X111309524Y-131954819D02*
X111500000Y-131478628D01*
X111500000Y-131478628D02*
X111690476Y-131954819D01*
X111690476Y-131954819D02*
X111880952Y-131288152D01*
X112261905Y-131288152D02*
X112261905Y-131954819D01*
X112261905Y-131383390D02*
X112309524Y-131335771D01*
X112309524Y-131335771D02*
X112404762Y-131288152D01*
X112404762Y-131288152D02*
X112547619Y-131288152D01*
X112547619Y-131288152D02*
X112642857Y-131335771D01*
X112642857Y-131335771D02*
X112690476Y-131431009D01*
X112690476Y-131431009D02*
X112690476Y-131954819D01*
X133806819Y-142238094D02*
X133806819Y-141666666D01*
X134806819Y-141952380D02*
X133806819Y-141952380D01*
X134806819Y-141333332D02*
X133806819Y-141333332D01*
X133806819Y-141333332D02*
X133806819Y-140952380D01*
X133806819Y-140952380D02*
X133854438Y-140857142D01*
X133854438Y-140857142D02*
X133902057Y-140809523D01*
X133902057Y-140809523D02*
X133997295Y-140761904D01*
X133997295Y-140761904D02*
X134140152Y-140761904D01*
X134140152Y-140761904D02*
X134235390Y-140809523D01*
X134235390Y-140809523D02*
X134283009Y-140857142D01*
X134283009Y-140857142D02*
X134330628Y-140952380D01*
X134330628Y-140952380D02*
X134330628Y-141333332D01*
X134806819Y-139809523D02*
X134806819Y-140380951D01*
X134806819Y-140095237D02*
X133806819Y-140095237D01*
X133806819Y-140095237D02*
X133949676Y-140190475D01*
X133949676Y-140190475D02*
X134044914Y-140285713D01*
X134044914Y-140285713D02*
X134092533Y-140380951D01*
X133902057Y-139428570D02*
X133854438Y-139380951D01*
X133854438Y-139380951D02*
X133806819Y-139285713D01*
X133806819Y-139285713D02*
X133806819Y-139047618D01*
X133806819Y-139047618D02*
X133854438Y-138952380D01*
X133854438Y-138952380D02*
X133902057Y-138904761D01*
X133902057Y-138904761D02*
X133997295Y-138857142D01*
X133997295Y-138857142D02*
X134092533Y-138857142D01*
X134092533Y-138857142D02*
X134235390Y-138904761D01*
X134235390Y-138904761D02*
X134806819Y-139476189D01*
X134806819Y-139476189D02*
X134806819Y-138857142D01*
%TO.C,Up*%
D12*
X107500000Y-110750000D02*
X107500000Y-112250000D01*
X108750000Y-114750000D02*
X113250000Y-114750000D01*
X113250000Y-108250000D02*
X108750000Y-108250000D01*
X114500000Y-112250000D02*
X114500000Y-110750000D01*
%TO.C,R1*%
X147730000Y-143230000D02*
X147730000Y-149770000D01*
X147730000Y-149770000D02*
X148060000Y-149770000D01*
X148060000Y-143230000D02*
X147730000Y-143230000D01*
X150140000Y-143230000D02*
X150470000Y-143230000D01*
X150470000Y-143230000D02*
X150470000Y-149770000D01*
X150470000Y-149770000D02*
X150140000Y-149770000D01*
%TO.C,TP1*%
X182950000Y-109000000D02*
G75*
G02*
X181050000Y-109000000I-950000J0D01*
G01*
X181050000Y-109000000D02*
G75*
G02*
X182950000Y-109000000I950000J0D01*
G01*
%TO.C,B*%
X195500000Y-110750000D02*
X195500000Y-112250000D01*
X196750000Y-114750000D02*
X201250000Y-114750000D01*
X201250000Y-108250000D02*
X196750000Y-108250000D01*
X202500000Y-112250000D02*
X202500000Y-110750000D01*
%TO.C,TP4*%
X183450000Y-135500000D02*
G75*
G02*
X181550000Y-135500000I-950000J0D01*
G01*
X181550000Y-135500000D02*
G75*
G02*
X183450000Y-135500000I950000J0D01*
G01*
%TO.C,TP5*%
X126950000Y-132000000D02*
G75*
G02*
X125050000Y-132000000I-950000J0D01*
G01*
X125050000Y-132000000D02*
G75*
G02*
X126950000Y-132000000I950000J0D01*
G01*
%TO.C,Battery*%
X166090000Y-144610000D02*
X166090000Y-147110000D01*
X166090000Y-147110000D02*
X168590000Y-147110000D01*
X166390000Y-144500000D02*
X166890000Y-144500000D01*
X166390000Y-145310000D02*
X167390000Y-145310000D01*
X166890000Y-143290000D02*
X173610000Y-143290000D01*
X166890000Y-144500000D02*
X166890000Y-143290000D01*
X167390000Y-145310000D02*
X167390000Y-146810000D01*
X173110000Y-145310000D02*
X173110000Y-146810000D01*
X173610000Y-143290000D02*
X173610000Y-144500000D01*
X173610000Y-144500000D02*
X174110000Y-144500000D01*
X174110000Y-145310000D02*
X173110000Y-145310000D01*
X166390000Y-142790000D02*
X174110000Y-142790000D01*
X174110000Y-146810000D01*
X166390000Y-146810000D01*
X166390000Y-142790000D01*
%TO.C,U1*%
D13*
X128100000Y-110100000D02*
X179600000Y-110100000D01*
X179600000Y-138400000D01*
X128100000Y-138400000D01*
X128100000Y-110100000D01*
D10*
X176360000Y-120260000D02*
X180614179Y-120260000D01*
X180614179Y-127880000D01*
X176360000Y-127880000D01*
X176360000Y-120260000D01*
%TO.C,extra2*%
D12*
X114500000Y-135250000D02*
X114500000Y-136750000D01*
X115750000Y-139250000D02*
X120250000Y-139250000D01*
X120250000Y-132750000D02*
X115750000Y-132750000D01*
X121500000Y-136750000D02*
X121500000Y-135250000D01*
%TO.C,TP6*%
X104950000Y-130500000D02*
G75*
G02*
X103050000Y-130500000I-950000J0D01*
G01*
X103050000Y-130500000D02*
G75*
G02*
X104950000Y-130500000I950000J0D01*
G01*
%TO.C,TP2*%
X182950000Y-117500000D02*
G75*
G02*
X181050000Y-117500000I-950000J0D01*
G01*
X181050000Y-117500000D02*
G75*
G02*
X182950000Y-117500000I950000J0D01*
G01*
%TO.C,switch*%
X175350000Y-141640000D02*
X185570000Y-141640000D01*
X185570000Y-144360000D01*
X175350000Y-144360000D01*
X175350000Y-141640000D01*
%TO.C,Extra1*%
X102750000Y-135500000D02*
X102750000Y-137000000D01*
X104000000Y-139500000D02*
X108500000Y-139500000D01*
X108500000Y-133000000D02*
X104000000Y-133000000D01*
X109750000Y-137000000D02*
X109750000Y-135500000D01*
%TO.C,Reset*%
X126750000Y-145500000D02*
X126750000Y-147000000D01*
X128000000Y-149500000D02*
X132500000Y-149500000D01*
X132500000Y-143000000D02*
X128000000Y-143000000D01*
X133750000Y-147000000D02*
X133750000Y-145500000D01*
%TO.C,Start*%
X196194365Y-132500000D02*
X196194365Y-134000000D01*
X197444365Y-136500000D02*
X201944365Y-136500000D01*
X201944365Y-130000000D02*
X197444365Y-130000000D01*
X203194365Y-134000000D02*
X203194365Y-132500000D01*
%TO.C,TP8*%
X108450000Y-121250000D02*
G75*
G02*
X106550000Y-121250000I-950000J0D01*
G01*
X106550000Y-121250000D02*
G75*
G02*
X108450000Y-121250000I950000J0D01*
G01*
%TO.C,TP10*%
X120950000Y-113500000D02*
G75*
G02*
X119050000Y-113500000I-950000J0D01*
G01*
X119050000Y-113500000D02*
G75*
G02*
X120950000Y-113500000I950000J0D01*
G01*
%TO.C,R3*%
X139630000Y-143230000D02*
X139630000Y-149770000D01*
X139630000Y-149770000D02*
X139960000Y-149770000D01*
X139960000Y-143230000D02*
X139630000Y-143230000D01*
X142040000Y-143230000D02*
X142370000Y-143230000D01*
X142370000Y-143230000D02*
X142370000Y-149770000D01*
X142370000Y-149770000D02*
X142040000Y-149770000D01*
%TO.C,IND_LED*%
X156920000Y-143860500D02*
X156455000Y-143860500D01*
X159545000Y-143860500D02*
X159080000Y-143860500D01*
X156919173Y-149208315D02*
G75*
G02*
X156455170Y-143860500I1080827J2787815D01*
G01*
X156919571Y-148674979D02*
G75*
G02*
X156920000Y-144165816I1080429J2254479D01*
G01*
X159080000Y-144165816D02*
G75*
G02*
X159080429Y-148674979I-1080000J-2254684D01*
G01*
X159544830Y-143860500D02*
G75*
G02*
X159080827Y-149208315I-1544830J-2560000D01*
G01*
%TO.C,TP9*%
X127450000Y-121000000D02*
G75*
G02*
X125550000Y-121000000I-950000J0D01*
G01*
X125550000Y-121000000D02*
G75*
G02*
X127450000Y-121000000I950000J0D01*
G01*
%TO.C,Left*%
X98000000Y-118250000D02*
X98000000Y-119750000D01*
X99250000Y-122250000D02*
X103750000Y-122250000D01*
X103750000Y-115750000D02*
X99250000Y-115750000D01*
X105000000Y-119750000D02*
X105000000Y-118250000D01*
%TO.C,TP7*%
X120450000Y-128750000D02*
G75*
G02*
X118550000Y-128750000I-950000J0D01*
G01*
X118550000Y-128750000D02*
G75*
G02*
X120450000Y-128750000I950000J0D01*
G01*
%TO.C,TP13*%
X177450000Y-147000000D02*
G75*
G02*
X175550000Y-147000000I-950000J0D01*
G01*
X175550000Y-147000000D02*
G75*
G02*
X177450000Y-147000000I950000J0D01*
G01*
%TO.C,TP3*%
X183450000Y-130000000D02*
G75*
G02*
X181550000Y-130000000I-950000J0D01*
G01*
X181550000Y-130000000D02*
G75*
G02*
X183450000Y-130000000I950000J0D01*
G01*
%TO.C,A*%
X185000000Y-114500000D02*
X185000000Y-116000000D01*
X186250000Y-118500000D02*
X190750000Y-118500000D01*
X190750000Y-112000000D02*
X186250000Y-112000000D01*
X192000000Y-116000000D02*
X192000000Y-114500000D01*
%TO.C,R2*%
X143680000Y-143230000D02*
X143680000Y-149770000D01*
X143680000Y-149770000D02*
X144010000Y-149770000D01*
X144010000Y-143230000D02*
X143680000Y-143230000D01*
X146090000Y-143230000D02*
X146420000Y-143230000D01*
X146420000Y-143230000D02*
X146420000Y-149770000D01*
X146420000Y-149770000D02*
X146090000Y-149770000D01*
%TO.C,Right*%
X115500000Y-118250000D02*
X115500000Y-119750000D01*
X116750000Y-122250000D02*
X121250000Y-122250000D01*
X121250000Y-115750000D02*
X116750000Y-115750000D01*
X122500000Y-119750000D02*
X122500000Y-118250000D01*
%TO.C,Down*%
X107500000Y-125750000D02*
X107500000Y-127250000D01*
X108750000Y-129750000D02*
X113250000Y-129750000D01*
X113250000Y-123250000D02*
X108750000Y-123250000D01*
X114500000Y-127250000D02*
X114500000Y-125750000D01*
%TO.C,TP12*%
X136950000Y-140500000D02*
G75*
G02*
X135050000Y-140500000I-950000J0D01*
G01*
X135050000Y-140500000D02*
G75*
G02*
X136950000Y-140500000I950000J0D01*
G01*
%TD*%
M02*
