%TF.GenerationSoftware,KiCad,Pcbnew,10.0.3*%
%TF.CreationDate,2026-06-03T21:09:29+05:30*%
%TF.ProjectId,KiCad,4b694361-642e-46b6-9963-61645f706362,rev?*%
%TF.SameCoordinates,Original*%
%TF.FileFunction,Soldermask,Top*%
%TF.FilePolarity,Negative*%
%FSLAX46Y46*%
G04 Gerber Fmt 4.6, Leading zero omitted, Abs format (unit mm)*
G04 Created by KiCad (PCBNEW 10.0.3) date 2026-06-03 21:09:29*
%MOMM*%
%LPD*%
G01*
G04 APERTURE LIST*
G04 Aperture macros list*
%AMRoundRect*
0 Rectangle with rounded corners*
0 $1 Rounding radius*
0 $2 $3 $4 $5 $6 $7 $8 $9 X,Y pos of 4 corners*
0 Add a 4 corners polygon primitive as box body*
4,1,4,$2,$3,$4,$5,$6,$7,$8,$9,$2,$3,0*
0 Add four circle primitives for the rounded corners*
1,1,$1+$1,$2,$3*
1,1,$1+$1,$4,$5*
1,1,$1+$1,$6,$7*
1,1,$1+$1,$8,$9*
0 Add four rect primitives between the rounded corners*
20,1,$1+$1,$2,$3,$4,$5,0*
20,1,$1+$1,$4,$5,$6,$7,0*
20,1,$1+$1,$6,$7,$8,$9,0*
20,1,$1+$1,$8,$9,$2,$3,0*%
G04 Aperture macros list end*
%ADD10C,2.000000*%
%ADD11C,1.600000*%
%ADD12C,1.500000*%
%ADD13RoundRect,0.250000X-0.600000X-0.750000X0.600000X-0.750000X0.600000X0.750000X-0.600000X0.750000X0*%
%ADD14O,1.700000X2.000000*%
%ADD15O,1.524000X1.900000*%
%ADD16R,1.500000X1.500000*%
%ADD17R,1.800000X1.800000*%
%ADD18C,1.800000*%
G04 APERTURE END LIST*
D10*
%TO.C,Up*%
X114250000Y-113750000D03*
X107750000Y-113750000D03*
X114250000Y-109250000D03*
X107750000Y-109250000D03*
%TD*%
D11*
%TO.C,R1*%
X149100000Y-142690000D03*
X149100000Y-150310000D03*
%TD*%
D12*
%TO.C,TP1*%
X182000000Y-109000000D03*
%TD*%
D10*
%TO.C,B*%
X195750000Y-109250000D03*
X202250000Y-109250000D03*
X195750000Y-113750000D03*
X202250000Y-113750000D03*
%TD*%
D12*
%TO.C,TP4*%
X182500000Y-135500000D03*
%TD*%
%TO.C,TP5*%
X126000000Y-132000000D03*
%TD*%
D13*
%TO.C,Battery*%
X169000000Y-144500000D03*
D14*
X171500000Y-144500000D03*
%TD*%
D15*
%TO.C,U1*%
X171519813Y-136997540D03*
X168979813Y-136997540D03*
X166439813Y-136997540D03*
X163899813Y-136997540D03*
X161359813Y-136997540D03*
X158819813Y-136997540D03*
X156279813Y-136997540D03*
X153739813Y-136997540D03*
X151199813Y-136997540D03*
X148659813Y-136997540D03*
X146119813Y-136997540D03*
X143579813Y-136997540D03*
X141039813Y-136997540D03*
X138499813Y-136997540D03*
X135959813Y-136997540D03*
X171519813Y-111597540D03*
X168979813Y-111597540D03*
X166439813Y-111597540D03*
X163899813Y-111597540D03*
X161359813Y-111597540D03*
X158819813Y-111597540D03*
X156279813Y-111597540D03*
X153739813Y-111597540D03*
X151199813Y-111597540D03*
X148659813Y-111597540D03*
X146119813Y-111597540D03*
X143579813Y-111597540D03*
X141039813Y-111597540D03*
X138499813Y-111597540D03*
X135959813Y-111597540D03*
%TD*%
D10*
%TO.C,extra2*%
X114750000Y-133750000D03*
X121250000Y-133750000D03*
X114750000Y-138250000D03*
X121250000Y-138250000D03*
%TD*%
D12*
%TO.C,TP6*%
X104000000Y-130500000D03*
%TD*%
%TO.C,TP2*%
X182000000Y-117500000D03*
%TD*%
D16*
%TO.C,switch*%
X180460000Y-143000000D03*
D11*
X177920000Y-143000000D03*
X183000000Y-143000000D03*
%TD*%
D10*
%TO.C,Extra1*%
X103000000Y-134000000D03*
X109500000Y-134000000D03*
X103000000Y-138500000D03*
X109500000Y-138500000D03*
%TD*%
%TO.C,Reset*%
X133500000Y-148500000D03*
X127000000Y-148500000D03*
X133500000Y-144000000D03*
X127000000Y-144000000D03*
%TD*%
%TO.C,Start*%
X202944365Y-135500000D03*
X196444365Y-135500000D03*
X202944365Y-131000000D03*
X196444365Y-131000000D03*
%TD*%
D12*
%TO.C,TP8*%
X107500000Y-121250000D03*
%TD*%
%TO.C,TP10*%
X120000000Y-113500000D03*
%TD*%
D11*
%TO.C,R3*%
X141000000Y-142690000D03*
X141000000Y-150310000D03*
%TD*%
D17*
%TO.C,IND_LED*%
X158000000Y-143182000D03*
D18*
X158000000Y-145341000D03*
X158000000Y-147500000D03*
X158000000Y-149659000D03*
%TD*%
D10*
%TO.C,Select*%
X192444365Y-135500000D03*
X198944365Y-135500000D03*
X192444365Y-131000000D03*
X198944365Y-131000000D03*
%TD*%
D12*
%TO.C,TP9*%
X126500000Y-121000000D03*
%TD*%
D10*
%TO.C,Left*%
X104750000Y-121250000D03*
X98250000Y-121250000D03*
X104750000Y-116750000D03*
X98250000Y-116750000D03*
%TD*%
D12*
%TO.C,TP7*%
X119500000Y-128750000D03*
%TD*%
%TO.C,TP13*%
X176500000Y-147000000D03*
%TD*%
%TO.C,TP3*%
X182500000Y-130000000D03*
%TD*%
D10*
%TO.C,A*%
X191750000Y-117500000D03*
X185250000Y-117500000D03*
X191750000Y-113000000D03*
X185250000Y-113000000D03*
%TD*%
D11*
%TO.C,R2*%
X145050000Y-142690000D03*
X145050000Y-150310000D03*
%TD*%
D10*
%TO.C,Right*%
X122250000Y-121250000D03*
X115750000Y-121250000D03*
X122250000Y-116750000D03*
X115750000Y-116750000D03*
%TD*%
%TO.C,Down*%
X114250000Y-128750000D03*
X107750000Y-128750000D03*
X114250000Y-124250000D03*
X107750000Y-124250000D03*
%TD*%
D12*
%TO.C,TP12*%
X136000000Y-140500000D03*
%TD*%
M02*
